<svg width="70px" height="83px" viewBox="0 0 70 83" version="1.1" xmlns="http://www.w3.org/2000/svg" xmlns:xlink="http://www.w3.org/1999/xlink">
    <g id="Symbols" stroke="none" stroke-width="1" fill="none" fill-rule="evenodd">
        <g id="Icon-Controlling" transform="translate(-25.000000, -19.000000)" fill-rule="nonzero" fill="#55C2A6">
            <path d="M92.5,19 C93.881,19 95,20.119 95,21.5 L95,99 C95,100.381 93.881,101.5 92.5,101.5 L27.5,101.5 C26.119,101.5 25,100.381 25,99 L25,21.5 C25,20.119 26.119,19 27.5,19 L92.5,19 Z M90,96.5 L90,24 L30,24 L30,96.5 L90,96.5 Z M80.119,66.505 C81.5,66.505 82.619,67.624 82.619,69.005 C82.619,70.386 81.5,71.505 80.119,71.505 L37.26,71.505 C35.879,71.505 34.76,70.386 34.76,69.005 C34.76,67.624 35.879,66.505 37.26,66.505 L80.119,66.505 Z M37.26,81.505 C35.879,81.505 34.76,80.386 34.76,79.005 C34.76,77.624 35.879,76.505 37.26,76.505 L75.119,76.505 C76.5,76.505 77.619,77.624 77.619,79.005 C77.619,80.386 76.5,81.505 75.119,81.505 L37.26,81.505 Z M80.119,86.505 C81.5,86.505 82.619,87.624 82.619,89.005 C82.619,90.386 81.5,91.505 80.119,91.505 L37.26,91.505 C35.879,91.505 34.76,90.386 34.76,89.005 C34.76,87.624 35.879,86.505 37.26,86.505 L80.119,86.505 Z M75.368,36.458 C73.987,36.458 72.868,35.339 72.868,33.958 C72.868,32.577 73.987,31.458 75.368,31.458 L82.217,31.458 C83.598,31.458 84.717,32.577 84.717,33.958 C84.717,35.339 83.598,36.458 82.217,36.458 L75.368,36.458 Z M75.368,44.78 C73.987,44.78 72.868,43.661 72.868,42.28 C72.868,40.899 73.987,39.78 75.368,39.78 L82.217,39.78 C83.598,39.78 84.717,40.899 84.717,42.28 C84.717,43.661 83.598,44.78 82.217,44.78 L75.368,44.78 Z M75.368,53.103 C73.987,53.103 72.868,51.984 72.868,50.603 C72.868,49.222 73.987,48.103 75.368,48.103 L82.217,48.103 C83.598,48.103 84.717,49.222 84.717,50.603 C84.717,51.984 83.598,53.103 82.217,53.103 L75.368,53.103 Z M69.706,40.168 C69.646,32.786 63.593,26.73 56.209,26.671 L54.193,26.655 L54.193,42.184 L69.721,42.184 L69.706,40.168 Z M58.194,38.184 L58.194,30.903 C61.799,31.716 64.662,34.579 65.474,38.184 L58.194,38.184 Z M48.229,61.761 C55.734,61.761 61.84,55.655 61.838,48.053 L61.838,46.053 L50.325,46.053 L50.325,36.54 L50.283,34.607 L48.353,34.54 L48.229,34.538 C40.724,34.538 34.618,40.644 34.618,48.149 C34.618,51.814 36.054,55.251 38.662,57.828 C41.227,60.364 44.625,61.761 48.229,61.761 Z M46.325,38.738 L46.325,50.053 L57.651,50.053 C56.765,54.444 52.877,57.76 48.23,57.76 C45.686,57.76 43.286,56.774 41.474,54.983 C39.633,53.163 38.619,50.736 38.619,48.149 C38.618,43.516 41.912,39.64 46.325,38.738 Z" id="controlling"></path>
        </g>
    </g>
</svg>
