<svg width="22px" height="22px" viewBox="0 0 22 22" version="1.1" xmlns="http://www.w3.org/2000/svg" xmlns:xlink="http://www.w3.org/1999/xlink">
    <g id="Symbols" stroke="none" stroke-width="1" fill="none" fill-rule="evenodd">
        <g id="Combined-Shape" fill="#E1464B" fill-rule="nonzero">
            <path d="M11,21 C5.4771525,21 1,16.5228475 1,11 C1,5.4771525 5.4771525,1 11,1 C16.5228475,1 21,5.4771525 21,11 C21,16.5228475 16.5228475,21 11,21 Z M11,19 C15.418278,19 19,15.418278 19,11 C19,6.581722 15.418278,3 11,3 C6.581722,3 3,6.581722 3,11 C3,15.418278 6.581722,19 11,19 Z M7.5,10 C6.67157288,10 6,9.32842712 6,8.5 C6,7.67157288 6.67157288,7 7.5,7 C8.32842712,7 9,7.67157288 9,8.5 C9,9.32842712 8.32842712,10 7.5,10 Z M14.5,10 C13.6715729,10 13,9.32842712 13,8.5 C13,7.67157288 13.6715729,7 14.5,7 C15.3284271,7 16,7.67157288 16,8.5 C16,9.32842712 15.3284271,10 14.5,10 Z M6.02838894,12.5359615 L8,12 C8,13.6568542 9.34314575,15 11,15 C12.5671012,15 13.853561,13.7984312 13.9883394,12.2663337 C13.9960586,12.1785855 14,12.089753 14,12 L15.977904,12.4731653 C15.9580044,12.6851618 15.924869,12.8933102 15.8793326,13.0967757 C15.3793878,15.330627 13.3846454,17 11,17 C8.60565971,17 6.60439917,15.3170255 6.11464393,13.0695021 C6.07659398,12.894888 6.04766749,12.7168663 6.02838894,12.5359615 Z"></path>
        </g>
    </g>
</svg>
