<svg width="80px" height="95px" viewBox="0 0 80 95" version="1.1" xmlns="http://www.w3.org/2000/svg" xmlns:xlink="http://www.w3.org/1999/xlink">
    <g id="Symbols" stroke="none" stroke-width="1" fill="none" fill-rule="evenodd">
        <g id="Icon-Doctor" transform="translate(-20.000000, -13.000000)" fill="#55C2A6">
            <path d="M86.815,51.635 C82.95,51.635 79.805,48.49 79.805,44.625 C79.805,40.76 82.95,37.616 86.815,37.616 C90.68,37.616 93.825,40.761 93.825,44.625 C93.825,48.49 90.68,51.635 86.815,51.635 Z M86.815,31.799 C79.743,31.799 73.989,37.552 73.989,44.625 C73.989,50.758 78.319,55.893 84.081,57.152 C84.034,57.357 84.005,57.569 84.005,57.788 L84.005,82.855 C84.005,93.033 75.726,101.312 65.55,101.312 C55.373,101.312 47.094,93.033 47.094,82.855 L47.094,79.183 C57.467,77.764 68.467,69.111 68.467,61.682 L68.467,30.666 C68.467,24.682 64.833,19.535 59.656,17.306 C58.909,14.822 56.631,13 53.904,13 C50.572,13 47.871,15.701 47.871,19.033 C47.871,22.365 50.572,25.066 53.904,25.066 C55.637,25.066 57.189,24.325 58.289,23.154 C60.883,24.667 62.65,27.449 62.65,30.665 L62.65,61.683 C62.65,65.824 52.894,73.591 44.233,73.591 C35.572,73.591 25.816,69.6542969 25.816,61.683 L25.816,30.666 C25.816,27.458 27.576,24.68 30.161,23.165 C31.261,24.331 32.81,25.067 34.539,25.067 C37.871,25.067 40.572,22.366 40.572,19.034 C40.572,15.702 37.871,13.001 34.539,13.001 C31.806,13.001 29.526,14.829 28.783,17.32 C23.622,19.555 20,24.693 20,30.667 L20,61.685 C20,73.7314453 30.932,77.712 41.276,79.171 L41.276,82.857 C41.276,96.242 52.165,107.13 65.547,107.13 C78.929,107.13 89.82,96.241 89.82,82.856 L89.82,57.788 C89.82,57.551 89.784,57.324 89.73,57.103 C95.401,55.778 99.64,50.691 99.64,44.624 C99.64,37.552 93.887,31.799 86.815,31.799 Z" id="SVGID_1_"></path>
        </g>
    </g>
</svg>
