<svg xmlns="http://www.w3.org/2000/svg" width="500" height="530" viewBox="0 0 500 530">
  <g fill="none" fill-rule="evenodd">
    <rect width="500" height="530" fill="#FFFFFF" fill-opacity=".01"/>
    <g transform="translate(74 34)">
      <polygon fill="#50AB97" points="0 103.654 78.311 103.654 78.311 0 0 0"/>
      <polygon fill="#BA323C" points="11 115.654 89.311 115.654 89.311 12 11 12"/>
      <polygon fill="#E24547" points="24 127.656 102.312 127.656 102.312 24 24 24"/>
      <path fill="#646464" d="M31.712,151.28 C31.712,150.256 32.64,149.456 34.096,149.456 C35.248,149.456 36.288,149.824 37.328,150.672 L38.064,149.696 C36.928,148.784 35.76,148.32 34.128,148.32 C32,148.32 30.448,149.6 30.448,151.392 C30.448,153.248 31.632,154.08 34.208,154.64 C36.56,155.136 37.12,155.728 37.12,156.784 C37.12,157.92 36.128,158.704 34.624,158.704 C33.072,158.704 31.952,158.176 30.784,157.12 L30,158.048 C31.344,159.248 32.8,159.84 34.576,159.84 C36.8,159.84 38.4,158.592 38.4,156.656 C38.4,154.928 37.248,154.016 34.752,153.472 C32.288,152.944 31.712,152.352 31.712,151.28 Z M42.3504,152.496 L44.9744,152.496 L44.9744,151.408 L42.3504,151.408 L42.3504,148.912 L41.1184,148.912 L41.1184,151.408 L39.9664,151.408 L39.9664,152.496 L41.1184,152.496 L41.1184,157.488 C41.1184,159.168 42.1264,159.824 43.4544,159.824 C44.0464,159.824 44.5104,159.696 44.9424,159.472 L44.9424,158.416 C44.5104,158.624 44.1584,158.704 43.7424,158.704 C42.9104,158.704 42.3504,158.336 42.3504,157.328 L42.3504,152.496 Z M50.0608,152.384 C49.0848,152.384 48.3168,152.64 47.5488,152.992 L47.1808,151.984 C48.0928,151.568 48.9888,151.296 50.1888,151.296 C52.4448,151.296 53.7088,152.448 53.7088,154.624 L53.7088,159.68 L52.5248,159.68 L52.5248,158.432 C51.9488,159.184 50.9888,159.856 49.5328,159.856 C47.9968,159.856 46.4448,158.992 46.4448,157.264 C46.4448,155.504 47.8848,154.576 49.9808,154.576 C51.0368,154.576 51.7888,154.72 52.5248,154.928 L52.5248,154.64 C52.5248,153.152 51.6128,152.384 50.0608,152.384 Z M50.1088,155.488 C48.5568,155.488 47.6928,156.16 47.6928,157.216 C47.6928,158.272 48.6528,158.88 49.7728,158.88 C51.2928,158.88 52.5408,157.952 52.5408,156.64 L52.5408,155.84 C51.9328,155.664 51.1168,155.488 50.1088,155.488 Z M63.3552,158.272 L62.5712,157.536 C61.9152,158.24 61.0992,158.768 60.0432,158.768 C58.3152,158.768 57.0032,157.344 57.0032,155.536 C57.0032,153.744 58.2832,152.32 59.9632,152.32 C61.0832,152.32 61.8192,152.88 62.4752,153.568 L63.2912,152.704 C62.5232,151.888 61.5472,151.232 59.9792,151.232 C57.5632,151.232 55.7392,153.216 55.7392,155.568 C55.7392,157.904 57.5632,159.872 59.9792,159.872 C61.5312,159.872 62.5232,159.2 63.3552,158.272 Z M69.0656,154.96 L72.5376,151.408 L71.0016,151.408 L66.5376,156.064 L66.5376,148 L65.3056,148 L65.3056,159.68 L66.5376,159.68 L66.5376,157.52 L68.2176,155.824 L71.1776,159.68 L72.6496,159.68 L69.0656,154.96 Z"/>
    </g>
    <g transform="translate(318 34)">
      <polygon fill="#E24547" points="0 103.656 78.312 103.656 78.312 0 0 0"/>
      <polygon fill="#BA323C" points="11 114.932 89.312 114.932 89.312 11.276 11 11.276"/>
      <polygon fill="#50AB97" points="50 128.209 113.834 128.209 113.834 62.276 50 62.276"/>
      <path fill="#646464" d="M32.424,154.064 C32.424,157.168 30.104,159.872 26.696,159.872 C23.288,159.872 21,157.2 21,154.096 C21,150.992 23.32,148.288 26.728,148.288 C30.136,148.288 32.424,150.96 32.424,154.064 Z M31.112,154.096 C31.112,151.536 29.256,149.456 26.696,149.456 C24.136,149.456 22.312,151.504 22.312,154.064 C22.312,156.624 24.168,158.704 26.728,158.704 C29.288,158.704 31.112,156.656 31.112,154.096 Z M38.216,158.272 L35.432,151.408 L34.072,151.408 L37.656,159.744 L38.744,159.744 L42.344,151.408 L41.016,151.408 L38.216,158.272 Z M44.656,156 C44.832,157.792 46.112,158.8 47.568,158.8 C48.704,158.8 49.504,158.336 50.176,157.632 L50.944,158.32 C50.112,159.248 49.104,159.872 47.536,159.872 C45.264,159.872 43.408,158.128 43.408,155.552 C43.408,153.152 45.088,151.232 47.376,151.232 C49.824,151.232 51.232,153.184 51.232,155.616 C51.232,155.728 51.232,155.856 51.216,156 L44.656,156 Z M44.656,155.088 L49.984,155.088 C49.856,153.584 48.992,152.272 47.344,152.272 C45.904,152.272 44.816,153.472 44.656,155.088 Z M54.624,156.384 C54.624,153.888 56.096,152.592 57.904,152.592 L58,152.592 L58,151.264 C56.432,151.2 55.232,152.192 54.624,153.568 L54.624,151.408 L53.392,151.408 L53.392,159.68 L54.624,159.68 L54.624,156.384 Z M61.216,159.68 L61.216,148 L59.984,148 L59.984,159.68 L61.216,159.68 Z M67.072,152.384 C66.096,152.384 65.328,152.64 64.56,152.992 L64.192,151.984 C65.104,151.568 66,151.296 67.2,151.296 C69.456,151.296 70.72,152.448 70.72,154.624 L70.72,159.68 L69.536,159.68 L69.536,158.432 C68.96,159.184 68,159.856 66.544,159.856 C65.008,159.856 63.456,158.992 63.456,157.264 C63.456,155.504 64.896,154.576 66.992,154.576 C68.048,154.576 68.8,154.72 69.536,154.928 L69.536,154.64 C69.536,153.152 68.624,152.384 67.072,152.384 Z M67.12,155.488 C65.568,155.488 64.704,156.16 64.704,157.216 C64.704,158.272 65.664,158.88 66.784,158.88 C68.304,158.88 69.552,157.952 69.552,156.64 L69.552,155.84 C68.944,155.664 68.128,155.488 67.12,155.488 Z M80.608,151.408 L79.296,151.408 L76.64,158.304 L73.632,151.408 L72.272,151.408 L76.032,159.648 C75.536,160.816 75.072,161.2 74.336,161.2 C73.808,161.2 73.44,161.104 73.04,160.896 L72.624,161.872 C73.184,162.144 73.696,162.288 74.384,162.288 C75.632,162.288 76.432,161.664 77.136,159.952 L80.608,151.408 Z"/>
    </g>
    <g transform="translate(86 343)">
      <polygon fill="#E24547" points="0 103.656 78.311 103.656 78.311 0 0 0"/>
      <polygon fill="#BA323C" points="0 91.411 78.311 91.411 78.311 64 0 64"/>
      <polygon fill="#50AB97" points="0 104.143 78.311 104.143 78.311 92 0 92"/>
      <path fill="#646464" d="M19.384,141.568 C19.384,144 17.368,145.248 14.984,145.248 L12.264,145.248 L12.264,149.2 L11,149.2 L11,138 L15.192,138 C17.72,138 19.384,139.344 19.384,141.568 Z M18.104,141.616 C18.104,140 16.904,139.168 15.096,139.168 L12.264,139.168 L12.264,144.096 L15.032,144.096 C16.888,144.096 18.104,143.104 18.104,141.616 Z M22.712,145.904 C22.712,143.408 24.184,142.112 25.992,142.112 L26.088,142.112 L26.088,140.784 C24.52,140.72 23.32,141.712 22.712,143.088 L22.712,140.928 L21.48,140.928 L21.48,149.2 L22.712,149.2 L22.712,145.904 Z M35.8056,145.056 C35.8056,147.408 33.9656,149.392 31.4696,149.392 C28.9896,149.392 27.1816,147.44 27.1816,145.088 C27.1816,142.736 29.0056,140.752 31.5016,140.752 C33.9816,140.752 35.8056,142.704 35.8056,145.056 Z M34.5416,145.088 C34.5416,143.28 33.2136,141.84 31.4696,141.84 C29.6776,141.84 28.4456,143.264 28.4456,145.056 C28.4456,146.848 29.7576,148.288 31.5016,148.288 C33.2936,148.288 34.5416,146.864 34.5416,145.088 Z M45.1336,147.792 L44.3496,147.056 C43.6936,147.76 42.8776,148.288 41.8216,148.288 C40.0936,148.288 38.7816,146.864 38.7816,145.056 C38.7816,143.264 40.0616,141.84 41.7416,141.84 C42.8616,141.84 43.5976,142.4 44.2536,143.088 L45.0696,142.224 C44.3016,141.408 43.3256,140.752 41.7576,140.752 C39.3416,140.752 37.5176,142.736 37.5176,145.088 C37.5176,147.424 39.3416,149.392 41.7576,149.392 C43.3096,149.392 44.3016,148.72 45.1336,147.792 Z M47.7192,145.52 C47.8952,147.312 49.1752,148.32 50.6312,148.32 C51.7672,148.32 52.5672,147.856 53.2392,147.152 L54.0072,147.84 C53.1752,148.768 52.1672,149.392 50.5992,149.392 C48.3272,149.392 46.4712,147.648 46.4712,145.072 C46.4712,142.672 48.1512,140.752 50.4392,140.752 C52.8872,140.752 54.2952,142.704 54.2952,145.136 C54.2952,145.248 54.2952,145.376 54.2792,145.52 L47.7192,145.52 Z M47.7192,144.608 L53.0472,144.608 C52.9192,143.104 52.0552,141.792 50.4072,141.792 C48.9672,141.792 47.8792,142.992 47.7192,144.608 Z M62.1352,146.88 L62.1352,146.848 C62.1352,145.36 60.7592,144.864 59.4792,144.48 C58.3752,144.144 57.3512,143.84 57.3512,143.056 L57.3512,143.024 C57.3512,142.336 57.9752,141.824 58.9512,141.824 C59.7512,141.824 60.6312,142.128 61.3992,142.624 L61.9592,141.696 C61.1112,141.136 59.9912,140.784 58.9832,140.784 C57.3512,140.784 56.1672,141.728 56.1672,143.152 L56.1672,143.184 C56.1672,144.704 57.6072,145.152 58.9032,145.52 C59.9912,145.824 60.9672,146.144 60.9672,146.976 L60.9672,147.008 C60.9672,147.808 60.2472,148.32 59.2552,148.32 C58.2792,148.32 57.2872,147.936 56.3912,147.264 L55.7672,148.144 C56.6952,148.896 58.0072,149.36 59.1912,149.36 C60.8392,149.36 62.1352,148.448 62.1352,146.88 Z M69.982,146.88 L69.982,146.848 C69.982,145.36 68.606,144.864 67.326,144.48 C66.222,144.144 65.198,143.84 65.198,143.056 L65.198,143.024 C65.198,142.336 65.822,141.824 66.798,141.824 C67.598,141.824 68.478,142.128 69.246,142.624 L69.806,141.696 C68.958,141.136 67.838,140.784 66.83,140.784 C65.198,140.784 64.014,141.728 64.014,143.152 L64.014,143.184 C64.014,144.704 65.454,145.152 66.75,145.52 C67.838,145.824 68.814,146.144 68.814,146.976 L68.814,147.008 C68.814,147.808 68.094,148.32 67.102,148.32 C66.126,148.32 65.134,147.936 64.238,147.264 L63.614,148.144 C64.542,148.896 65.854,149.36 67.038,149.36 C68.686,149.36 69.982,148.448 69.982,146.88 Z"/>
    </g>
    <g transform="translate(336 343)">
      <polygon fill="#E24547" points="0 104 78 104 78 0 0 0"/>
      <polygon fill="#BA323C" points="0 104 40 104 40 64 0 64"/>
      <polygon fill="#50AB97" points="0 104 16 104 16 88 0 88"/>
      <path fill="#646464" d="M11.096,137.48 L3,137.48 L3,148.68 L11.176,148.68 L11.176,147.528 L4.264,147.528 L4.264,143.608 L10.376,143.608 L10.376,142.456 L4.264,142.456 L4.264,138.632 L11.096,138.632 L11.096,137.48 Z M16.68,147.272 L13.896,140.408 L12.536,140.408 L16.12,148.744 L17.208,148.744 L20.808,140.408 L19.48,140.408 L16.68,147.272 Z M30.696,144.536 C30.696,146.888 28.856,148.872 26.36,148.872 C23.88,148.872 22.072,146.92 22.072,144.568 C22.072,142.216 23.896,140.232 26.392,140.232 C28.872,140.232 30.696,142.184 30.696,144.536 Z M29.432,144.568 C29.432,142.76 28.104,141.32 26.36,141.32 C24.568,141.32 23.336,142.744 23.336,144.536 C23.336,146.328 24.648,147.768 26.392,147.768 C28.184,147.768 29.432,146.344 29.432,144.568 Z M34.104,148.68 L34.104,137 L32.872,137 L32.872,148.68 L34.104,148.68 Z M42.68,145.144 C42.68,146.696 41.608,147.736 40.2,147.736 C38.744,147.736 37.912,146.776 37.912,145.24 L37.912,140.408 L36.68,140.408 L36.68,145.544 C36.68,147.512 37.848,148.856 39.848,148.856 C41.272,148.856 42.12,148.136 42.68,147.24 L42.68,148.68 L43.896,148.68 L43.896,140.408 L42.68,140.408 L42.68,145.144 Z M48.168,141.496 L50.792,141.496 L50.792,140.408 L48.168,140.408 L48.168,137.912 L46.936,137.912 L46.936,140.408 L45.784,140.408 L45.784,141.496 L46.936,141.496 L46.936,146.488 C46.936,148.168 47.944,148.824 49.272,148.824 C49.864,148.824 50.328,148.696 50.76,148.472 L50.76,147.416 C50.328,147.624 49.976,147.704 49.56,147.704 C48.728,147.704 48.168,147.336 48.168,146.328 L48.168,141.496 Z M54.248,138.6 L54.248,137.24 L52.84,137.24 L52.84,138.6 L54.248,138.6 Z M54.152,148.68 L54.152,140.408 L52.92,140.408 L52.92,148.68 L54.152,148.68 Z M64.968,144.536 C64.968,146.888 63.128,148.872 60.632,148.872 C58.152,148.872 56.344,146.92 56.344,144.568 C56.344,142.216 58.168,140.232 60.664,140.232 C63.144,140.232 64.968,142.184 64.968,144.536 Z M63.704,144.568 C63.704,142.76 62.376,141.32 60.632,141.32 C58.84,141.32 57.608,142.744 57.608,144.536 C57.608,146.328 58.92,147.768 60.664,147.768 C62.456,147.768 63.704,146.344 63.704,144.568 Z M68.264,143.944 C68.264,142.392 69.32,141.352 70.744,141.352 C72.2,141.352 73.032,142.312 73.032,143.848 L73.032,148.68 L74.264,148.68 L74.264,143.544 C74.264,141.576 73.096,140.232 71.096,140.232 C69.672,140.232 68.808,140.952 68.264,141.848 L68.264,140.408 L67.032,140.408 L67.032,148.68 L68.264,148.68 L68.264,143.944 Z"/>
    </g>
  </g>
</svg>
