<svg xmlns="http://www.w3.org/2000/svg" width="304" height="130" viewBox="0 0 304 130">
  <defs>
    <linearGradient id="a" x1="15.318%" x2="75.647%" y1="85.863%" y2="8.733%">
      <stop offset="0%" stop-color="#BF3A3C" stop-opacity="0"/>
      <stop offset="100%" stop-color="#BF393B"/>
    </linearGradient>
  </defs>
  <g fill="none" fill-rule="evenodd">
    <path fill="#E24547" d="M300.2656,102.7699 C300.2656,102.7699 294.4446,97.4579 293.8456,96.8679 C293.4636,96.4929 292.6006,95.9419 291.2306,95.9419 C290.9796,95.9419 54.2766,95.9389 54.2766,95.9389 C32.7816,95.9389 13.8506,75.5629 13.8506,54.0679 C13.8506,32.5729 32.7816,15.0849 54.2766,15.0849 C58.5756,15.0849 62.8226,15.8009 66.8426,17.1689 C72.7486,19.7389 81.1426,19.6909 83.4406,18.5139 C85.7386,17.3369 86.4346,16.8179 88.0516,15.9409 C89.6686,15.0639 87.0316,13.3069 87.0316,13.3069 C77.5176,5.4919 66.6126,0.6469 54.2766,0.6469 C24.8196,0.6469 0.8556,24.6109 0.8556,54.0679 C0.8556,83.5249 24.8196,107.4899 54.2766,107.4899 C54.2766,107.4899 301.0046,107.4659 302.0636,107.4659 C304.4546,107.4659 303.8146,106.0559 303.3966,105.6379 C302.7116,104.9519 300.2656,102.7699 300.2656,102.7699 Z"/>
    <path fill="url(#a)" d="M13.849,54.068 C13.849,32.573 32.782,15.086 54.277,15.086 C58.575,15.086 62.822,15.801 66.843,17.169 C72.748,19.738 81.142,19.691 83.44,18.514 C69.801,14.971 66.613,0.647 54.277,0.647 C24.82,0.647 0.856,24.611 0.856,54.068 L13.849,54.068 Z"/>
    <g fill="#E24547" transform="translate(54 31.583)">
      <path d="M29.6901 12.6921C19.7591 12.6921 11.6791 20.7721 11.6791 30.7051 11.6791 40.6361 19.7591 48.7161 29.6901 48.7161 39.6231 48.7161 47.7031 40.6361 47.7031 30.7051 47.7031 20.7721 39.6231 12.6921 29.6901 12.6921M29.6901 60.1791C13.4371 60.1791.2161 46.9581.2161 30.7051.2161 14.4521 13.4371 1.2291 29.6901 1.2291 45.9431 1.2291 59.1661 14.4521 59.1661 30.7051 59.1661 46.9581 45.9431 60.1791 29.6901 60.1791M68.3673 79.8831C68.3683 88.7521 68.3683 95.4931 68.3683 96.6141 68.3683 99.0061 69.7783 98.3651 70.1963 97.9471 70.8813 97.2641 73.0643 94.8171 73.0643 94.8171 73.0643 94.8171 78.3773 88.9951 78.9653 88.3971 79.3403 88.0171 79.8923 87.1521 79.8923 85.7811L79.8923 79.8831 68.3673 79.8831zM126.9708 29.6272C126.9708 13.4942 113.8468.3682 97.7128.3682 81.5798.3682 68.4548 13.4932 68.4538 29.6262L68.4468 29.6262 68.3668 58.7022 79.8068 58.7022C79.8068 58.7022 79.8868 29.6422 79.8868 29.6272L79.8928 29.6272C79.8928 19.8252 87.8668 11.7692 97.6688 11.7692 107.4688 11.7692 115.4428 19.7422 115.4428 29.5442 115.4428 39.3332 107.4868 47.2972 97.7018 47.3162 97.7018 47.3162 93.1428 47.3142 89.4468 47.3142 87.6218 47.3142 87.8248 48.6232 88.1228 49.1282 88.6968 50.1022 92.6358 56.7102 93.1948 57.5672 93.4628 57.9792 94.6748 58.8872 96.0338 58.8872 97.1118 58.8872 97.8318 58.8802 97.8368 58.8802L97.8368 58.8782C113.9118 58.8122 126.9708 45.7192 126.9708 29.6272M176.5148.4553C176.5138.4573 168.2588.4573 168.2588.4573L168.2588.4583 165.9178.4583C149.7848.4583 136.6588 13.5833 136.6588 29.7173L136.6588 53.1153 136.6588 57.5753C136.6588 58.3783 137.3168 59.0353 138.1188 59.0353L147.0198 59.0363C147.8228 59.0363 148.4798 58.3793 148.4798 57.5753L148.4798 53.1133 148.4798 31.0063C148.4798 20.2413 155.7278 12.3103 168.1008 12.2423L168.1008 12.2453C168.1048 12.2453 168.8258 12.2523 169.9028 12.2523 171.2628 12.2523 172.4628 11.3343 172.7418 10.9313 173.3288 10.0833 177.2648 3.2423 177.8388 2.2703 178.1368 1.7643 178.3398.4553 176.5148.4553M207.7081.2961C191.5751.2961 178.4501 13.4221 178.4501 29.5551 178.4501 45.6521 191.5191 58.7531 207.6041 58.8101L207.6041 58.8361 207.9421 58.8361C208.7451 58.8361 209.4021 58.1791 209.4021 57.3761L209.4031 48.4751C209.4031 47.6721 208.7461 47.0151 207.9421 47.0151L207.6021 47.0151 207.6021 47.0281C197.9441 46.9721 190.1051 39.2671 190.1051 28.5481 190.1051 20.6751 198.0021 12.1051 207.7081 12.1051 217.4141 12.1051 225.2031 20.4061 225.2031 28.6561L225.2031 57.9421C225.2031 58.7461 225.3951 59.0321 226.1951 59.1021L235.7131 59.1021C236.5841 59.1021 236.9671 58.7461 236.9671 57.9421L236.9671 29.5551C236.9671 13.4221 223.8421.2961 207.7081.2961"/>
    </g>
  </g>
</svg>
