<svg width="800" height="465" viewBox="0 0 800 465" fill="none" xmlns="http://www.w3.org/2000/svg">
<path opacity="0.1" d="M400 452C521.503 452 620 353.503 620 232C620 110.497 521.503 12 400 12C278.497 12 180 110.497 180 232C180 353.503 278.497 452 400 452Z" fill="#55C2A6"/>
<path opacity="0.1" d="M400 397.3C491.293 397.3 565.3 323.293 565.3 232C565.3 140.708 491.293 66.7002 400 66.7002C308.707 66.7002 234.7 140.708 234.7 232C234.7 323.293 308.707 397.3 400 397.3Z" fill="#55C2A6"/>
<path opacity="0.1" d="M400 330.8C454.566 330.8 498.8 286.566 498.8 232C498.8 177.434 454.566 133.2 400 133.2C345.434 133.2 301.2 177.434 301.2 232C301.2 286.566 345.434 330.8 400 330.8Z" fill="#55C2A6"/>
<path d="M400 197.7C437.279 197.7 467.5 167.479 467.5 130.2C467.5 92.921 437.279 62.7002 400 62.7002C362.721 62.7002 332.5 92.921 332.5 130.2C332.5 167.479 362.721 197.7 400 197.7Z" fill="#55C2A6"/>
<path d="M362.118 164.499H363.91L365.562 169.007L366.164 170.743H366.22L366.808 169.007L368.432 164.499H370.224V173.655H368.698V169.469C368.698 169.254 368.702 169.021 368.712 168.769C368.73 168.517 368.749 168.265 368.768 168.013C368.786 167.751 368.81 167.499 368.838 167.257C368.866 167.005 368.889 166.771 368.908 166.557H368.852L368.11 168.643L366.528 172.801H365.772L364.19 168.643L363.462 166.557H363.406C363.424 166.771 363.443 167.005 363.462 167.257C363.49 167.499 363.513 167.751 363.532 168.013C363.56 168.265 363.578 168.517 363.588 168.769C363.606 169.021 363.616 169.254 363.616 169.469V173.655H362.118V164.499ZM371.961 170.225C371.961 169.665 372.05 169.161 372.227 168.713C372.405 168.265 372.638 167.887 372.927 167.579C373.226 167.271 373.567 167.033 373.949 166.865C374.332 166.697 374.724 166.613 375.125 166.613C375.592 166.613 376.003 166.692 376.357 166.851C376.712 167.009 377.006 167.233 377.239 167.523C377.482 167.812 377.664 168.157 377.785 168.559C377.907 168.96 377.967 169.399 377.967 169.875C377.967 170.192 377.944 170.444 377.897 170.631H373.529C373.604 171.256 373.819 171.737 374.173 172.073C374.537 172.409 374.999 172.577 375.559 172.577C375.858 172.577 376.133 172.535 376.385 172.451C376.647 172.357 376.903 172.231 377.155 172.073L377.701 173.081C377.375 173.295 377.011 173.473 376.609 173.613C376.208 173.753 375.788 173.823 375.349 173.823C374.873 173.823 374.43 173.743 374.019 173.585C373.609 173.417 373.249 173.179 372.941 172.871C372.633 172.563 372.391 172.189 372.213 171.751C372.045 171.303 371.961 170.794 371.961 170.225ZM376.567 169.609C376.567 169.058 376.451 168.629 376.217 168.321C375.993 168.013 375.643 167.859 375.167 167.859C374.757 167.859 374.397 168.008 374.089 168.307C373.781 168.596 373.59 169.03 373.515 169.609H376.567ZM379.085 170.225C379.085 169.665 379.164 169.161 379.323 168.713C379.491 168.265 379.71 167.887 379.981 167.579C380.252 167.271 380.56 167.033 380.905 166.865C381.26 166.697 381.624 166.613 381.997 166.613C382.389 166.613 382.72 166.683 382.991 166.823C383.262 166.953 383.532 167.135 383.803 167.369L383.747 166.263V163.771H385.357V173.655H384.027L383.915 172.913H383.859C383.607 173.165 383.313 173.379 382.977 173.557C382.641 173.734 382.286 173.823 381.913 173.823C381.045 173.823 380.354 173.51 379.841 172.885C379.337 172.25 379.085 171.363 379.085 170.225ZM380.751 170.211C380.751 170.957 380.882 171.527 381.143 171.919C381.414 172.301 381.801 172.493 382.305 172.493C382.818 172.493 383.299 172.236 383.747 171.723V168.517C383.504 168.302 383.266 168.153 383.033 168.069C382.809 167.985 382.58 167.943 382.347 167.943C381.899 167.943 381.521 168.139 381.213 168.531C380.905 168.923 380.751 169.483 380.751 170.211ZM388.219 165.577C387.93 165.577 387.692 165.493 387.505 165.325C387.319 165.157 387.225 164.937 387.225 164.667C387.225 164.396 387.319 164.177 387.505 164.009C387.692 163.831 387.93 163.743 388.219 163.743C388.509 163.743 388.747 163.831 388.933 164.009C389.12 164.177 389.213 164.396 389.213 164.667C389.213 164.937 389.12 165.157 388.933 165.325C388.747 165.493 388.509 165.577 388.219 165.577ZM387.407 166.781H389.017V173.655H387.407V166.781ZM390.624 170.225C390.624 169.655 390.717 169.147 390.904 168.699C391.09 168.251 391.342 167.873 391.66 167.565C391.977 167.257 392.341 167.023 392.752 166.865C393.172 166.697 393.61 166.613 394.068 166.613C394.516 166.613 394.903 166.692 395.23 166.851C395.566 167 395.85 167.187 396.084 167.411L395.314 168.433C395.127 168.274 394.94 168.153 394.754 168.069C394.567 167.975 394.366 167.929 394.152 167.929C393.592 167.929 393.139 168.139 392.794 168.559C392.448 168.969 392.276 169.525 392.276 170.225C392.276 170.915 392.444 171.471 392.78 171.891C393.125 172.301 393.568 172.507 394.11 172.507C394.39 172.507 394.646 172.451 394.88 172.339C395.122 172.217 395.337 172.077 395.524 171.919L396.196 172.941C395.869 173.23 395.51 173.449 395.118 173.599C394.726 173.748 394.334 173.823 393.942 173.823C393.475 173.823 393.036 173.743 392.626 173.585C392.224 173.426 391.874 173.193 391.576 172.885C391.277 172.577 391.044 172.199 390.876 171.751C390.708 171.303 390.624 170.794 390.624 170.225ZM397.108 171.807C397.108 171.069 397.43 170.5 398.074 170.099C398.718 169.697 399.744 169.417 401.154 169.259C401.154 169.081 401.13 168.913 401.084 168.755C401.037 168.587 400.962 168.442 400.86 168.321C400.766 168.19 400.64 168.092 400.482 168.027C400.332 167.952 400.141 167.915 399.908 167.915C399.562 167.915 399.226 167.98 398.9 168.111C398.582 168.241 398.274 168.4 397.976 168.587L397.388 167.509C397.77 167.266 398.195 167.056 398.662 166.879C399.138 166.701 399.651 166.613 400.202 166.613C401.07 166.613 401.714 166.869 402.134 167.383C402.554 167.887 402.764 168.619 402.764 169.581V173.655H401.448L401.322 172.899H401.28C400.972 173.16 400.64 173.379 400.286 173.557C399.94 173.734 399.562 173.823 399.152 173.823C398.545 173.823 398.05 173.641 397.668 173.277C397.294 172.903 397.108 172.413 397.108 171.807ZM398.676 171.681C398.676 171.989 398.764 172.213 398.942 172.353C399.128 172.493 399.366 172.563 399.656 172.563C399.936 172.563 400.192 172.497 400.426 172.367C400.659 172.236 400.902 172.049 401.154 171.807V170.267C400.687 170.323 400.295 170.397 399.978 170.491C399.66 170.584 399.404 170.691 399.208 170.813C399.021 170.925 398.886 171.055 398.802 171.205C398.718 171.354 398.676 171.513 398.676 171.681ZM404.73 163.771H406.34V171.975C406.34 172.171 406.377 172.311 406.452 172.395C406.526 172.469 406.606 172.507 406.69 172.507C406.727 172.507 406.76 172.507 406.788 172.507C406.825 172.507 406.876 172.497 406.942 172.479L407.152 173.683C406.937 173.776 406.652 173.823 406.298 173.823C405.719 173.823 405.313 173.65 405.08 173.305C404.846 172.959 404.73 172.488 404.73 171.891V163.771ZM411.864 171.373C412.19 171.681 412.564 171.933 412.984 172.129C413.404 172.315 413.824 172.409 414.244 172.409C414.766 172.409 415.163 172.301 415.434 172.087C415.704 171.872 415.84 171.587 415.84 171.233C415.84 171.046 415.802 170.887 415.728 170.757C415.662 170.626 415.564 170.514 415.434 170.421C415.312 170.318 415.163 170.225 414.986 170.141C414.818 170.057 414.631 169.973 414.426 169.889L413.166 169.343C412.942 169.249 412.718 169.133 412.494 168.993C412.279 168.853 412.083 168.685 411.906 168.489C411.728 168.293 411.584 168.064 411.472 167.803C411.369 167.541 411.318 167.243 411.318 166.907C411.318 166.543 411.392 166.207 411.542 165.899C411.7 165.581 411.915 165.306 412.186 165.073C412.456 164.839 412.778 164.657 413.152 164.527C413.534 164.396 413.95 164.331 414.398 164.331C414.93 164.331 415.443 164.438 415.938 164.653C416.432 164.858 416.857 165.138 417.212 165.493L416.386 166.529C416.087 166.286 415.779 166.095 415.462 165.955C415.144 165.815 414.79 165.745 414.398 165.745C413.959 165.745 413.609 165.843 413.348 166.039C413.086 166.225 412.956 166.487 412.956 166.823C412.956 167 412.993 167.154 413.068 167.285C413.152 167.406 413.259 167.518 413.39 167.621C413.53 167.714 413.688 167.803 413.866 167.887C414.043 167.961 414.225 168.036 414.412 168.111L415.658 168.629C415.928 168.741 416.176 168.871 416.4 169.021C416.624 169.17 416.815 169.343 416.974 169.539C417.142 169.735 417.272 169.963 417.366 170.225C417.459 170.477 417.506 170.771 417.506 171.107C417.506 171.48 417.431 171.83 417.282 172.157C417.132 172.483 416.913 172.773 416.624 173.025C416.344 173.267 415.998 173.463 415.588 173.613C415.186 173.753 414.729 173.823 414.216 173.823C413.6 173.823 413.002 173.706 412.424 173.473C411.854 173.239 411.35 172.908 410.912 172.479L411.864 171.373ZM419.269 168.055H418.289V166.851L419.353 166.781L419.549 164.905H420.893V166.781H422.643V168.055H420.893V171.331C420.893 172.133 421.215 172.535 421.859 172.535C421.98 172.535 422.101 172.521 422.223 172.493C422.353 172.465 422.47 172.427 422.573 172.381L422.853 173.571C422.666 173.636 422.451 173.692 422.209 173.739C421.975 173.795 421.723 173.823 421.453 173.823C421.051 173.823 420.711 173.762 420.431 173.641C420.16 173.519 419.936 173.351 419.759 173.137C419.591 172.913 419.465 172.651 419.381 172.353C419.306 172.045 419.269 171.704 419.269 171.331V168.055ZM423.59 171.807C423.59 171.069 423.912 170.5 424.556 170.099C425.2 169.697 426.227 169.417 427.636 169.259C427.636 169.081 427.613 168.913 427.566 168.755C427.519 168.587 427.445 168.442 427.342 168.321C427.249 168.19 427.123 168.092 426.964 168.027C426.815 167.952 426.623 167.915 426.39 167.915C426.045 167.915 425.709 167.98 425.382 168.111C425.065 168.241 424.757 168.4 424.458 168.587L423.87 167.509C424.253 167.266 424.677 167.056 425.144 166.879C425.62 166.701 426.133 166.613 426.684 166.613C427.552 166.613 428.196 166.869 428.616 167.383C429.036 167.887 429.246 168.619 429.246 169.581V173.655H427.93L427.804 172.899H427.762C427.454 173.16 427.123 173.379 426.768 173.557C426.423 173.734 426.045 173.823 425.634 173.823C425.027 173.823 424.533 173.641 424.15 173.277C423.777 172.903 423.59 172.413 423.59 171.807ZM425.158 171.681C425.158 171.989 425.247 172.213 425.424 172.353C425.611 172.493 425.849 172.563 426.138 172.563C426.418 172.563 426.675 172.497 426.908 172.367C427.141 172.236 427.384 172.049 427.636 171.807V170.267C427.169 170.323 426.777 170.397 426.46 170.491C426.143 170.584 425.886 170.691 425.69 170.813C425.503 170.925 425.368 171.055 425.284 171.205C425.2 171.354 425.158 171.513 425.158 171.681ZM438.926 165.045C438.674 164.933 438.427 164.877 438.184 164.877C437.596 164.877 437.302 165.264 437.302 166.039V166.781H438.646V168.055H437.302V173.655H435.692V168.055H433.102V173.655H431.492V168.055H430.568V166.851L431.492 166.781V166.179C431.492 165.824 431.539 165.497 431.632 165.199C431.726 164.9 431.866 164.643 432.052 164.429C432.248 164.214 432.496 164.046 432.794 163.925C433.093 163.803 433.452 163.743 433.872 163.743C434.134 163.743 434.381 163.766 434.614 163.813C434.848 163.859 435.048 163.92 435.216 163.995L434.908 165.199C434.778 165.133 434.647 165.087 434.516 165.059C434.386 165.031 434.227 165.017 434.04 165.017C433.751 165.017 433.522 165.115 433.354 165.311C433.186 165.497 433.102 165.787 433.102 166.179V166.781H435.692V166.067C435.692 165.712 435.734 165.385 435.818 165.087C435.902 164.779 436.038 164.517 436.224 164.303C436.411 164.079 436.644 163.906 436.924 163.785C437.214 163.663 437.564 163.603 437.974 163.603C438.226 163.603 438.46 163.626 438.674 163.673C438.889 163.719 439.076 163.775 439.234 163.841L438.926 165.045Z" fill="white"/>
<path d="M420.1 112.3C417.2 112.3 414.9 110 414.9 107.1C414.9 104.2 417.2 101.9 420.1 101.9C423 101.9 425.3 104.2 425.3 107.1C425.3 109.9 422.9 112.3 420.1 112.3ZM420.1 97.5004C414.8 97.5004 410.6 101.8 410.6 107C410.6 111.5 413.8 115.4 418.1 116.3C418.1 116.4 418 116.6 418 116.7V135.4C418 143 411.8 149.2 404.2 149.2C396.6 149.2 390.4 143 390.4 135.4V132.6C398.1 131.6 406.3 125.2 406.3 119.7V96.6004C406.3 92.1004 403.6 88.3004 399.8 86.6004C399.3 84.7004 397.6 83.4004 395.5 83.4004C393 83.4004 391 85.4004 391 87.9004C391 90.4004 393 92.4004 395.5 92.4004C396.8 92.4004 398 91.9004 398.8 91.0004C400.7 92.1004 402.1 94.2004 402.1 96.6004V119.7C402.1 122.7 394.8 128.6 388.4 128.6C382 128.6 374.7 125.7 374.7 119.7V96.6004C374.7 94.2004 376 92.1004 377.9 91.0004C378.7 91.9004 379.8 92.4004 381.2 92.4004C383.7 92.4004 385.7 90.4004 385.7 87.9004C385.7 85.4004 383.7 83.4004 381.2 83.4004C379.2 83.4004 377.5 84.7004 376.9 86.6004C373 88.2004 370.4 92.1004 370.4 96.5004V119.6C370.4 128.5 378.5 131.5 386.2 132.6V135.4C386.2 145.4 394.3 153.5 404.3 153.5C414.3 153.5 422.4 145.4 422.4 135.4V116.8C422.4 116.7 422.4 116.4 422.3 116.3C426.5 115.3 429.7 111.5 429.7 107C429.6 101.8 425.4 97.5004 420.1 97.5004Z" fill="white"/>
<path d="M620 164.9C657.279 164.9 687.5 134.679 687.5 97.3999C687.5 60.1207 657.279 29.8999 620 29.8999C582.721 29.8999 552.5 60.1207 552.5 97.3999C552.5 134.679 582.721 164.9 620 164.9Z" fill="#55C2A6"/>
<path d="M586.744 136.475C586.744 135.728 586.852 135.061 587.066 134.473C587.29 133.876 587.594 133.372 587.976 132.961C588.359 132.55 588.807 132.238 589.32 132.023C589.834 131.808 590.384 131.701 590.972 131.701C591.532 131.701 592.032 131.818 592.47 132.051C592.918 132.284 593.287 132.555 593.576 132.863L592.666 133.871C592.433 133.638 592.181 133.456 591.91 133.325C591.649 133.185 591.341 133.115 590.986 133.115C590.604 133.115 590.254 133.194 589.936 133.353C589.628 133.502 589.358 133.722 589.124 134.011C588.9 134.291 588.723 134.636 588.592 135.047C588.471 135.458 588.41 135.92 588.41 136.433C588.41 137.478 588.634 138.3 589.082 138.897C589.54 139.485 590.156 139.779 590.93 139.779C591.341 139.779 591.696 139.7 591.994 139.541C592.302 139.382 592.587 139.158 592.848 138.869L593.758 139.863C593.385 140.292 592.96 140.624 592.484 140.857C592.008 141.081 591.481 141.193 590.902 141.193C590.314 141.193 589.768 141.09 589.264 140.885C588.76 140.68 588.322 140.376 587.948 139.975C587.575 139.574 587.281 139.079 587.066 138.491C586.852 137.903 586.744 137.231 586.744 136.475ZM594.699 137.595C594.699 137.026 594.787 136.517 594.965 136.069C595.142 135.621 595.38 135.243 595.679 134.935C595.987 134.627 596.337 134.394 596.729 134.235C597.121 134.067 597.531 133.983 597.961 133.983C598.39 133.983 598.801 134.067 599.193 134.235C599.594 134.394 599.944 134.627 600.243 134.935C600.541 135.243 600.779 135.621 600.957 136.069C601.143 136.517 601.237 137.026 601.237 137.595C601.237 138.164 601.143 138.673 600.957 139.121C600.779 139.569 600.541 139.947 600.243 140.255C599.944 140.563 599.594 140.796 599.193 140.955C598.801 141.114 598.39 141.193 597.961 141.193C597.531 141.193 597.121 141.114 596.729 140.955C596.337 140.796 595.987 140.563 595.679 140.255C595.38 139.947 595.142 139.569 594.965 139.121C594.787 138.673 594.699 138.164 594.699 137.595ZM596.351 137.595C596.351 138.286 596.491 138.841 596.771 139.261C597.06 139.672 597.457 139.877 597.961 139.877C598.465 139.877 598.861 139.672 599.151 139.261C599.44 138.841 599.585 138.286 599.585 137.595C599.585 136.895 599.44 136.34 599.151 135.929C598.861 135.509 598.465 135.299 597.961 135.299C597.457 135.299 597.06 135.509 596.771 135.929C596.491 136.34 596.351 136.895 596.351 137.595ZM602.83 134.151H604.16L604.272 135.075H604.328C604.636 134.776 604.968 134.52 605.322 134.305C605.686 134.09 606.106 133.983 606.582 133.983C607.32 133.983 607.856 134.221 608.192 134.697C608.528 135.164 608.696 135.836 608.696 136.713V141.025H607.086V136.923C607.086 136.354 607.002 135.952 606.834 135.719C606.666 135.486 606.391 135.369 606.008 135.369C605.71 135.369 605.444 135.444 605.21 135.593C604.986 135.733 604.73 135.943 604.44 136.223V141.025H602.83V134.151ZM610.902 135.425H609.922V134.221L610.986 134.151L611.182 132.275H612.526V134.151H614.276V135.425H612.526V138.701C612.526 139.504 612.848 139.905 613.492 139.905C613.614 139.905 613.735 139.891 613.856 139.863C613.987 139.835 614.104 139.798 614.206 139.751L614.486 140.941C614.3 141.006 614.085 141.062 613.842 141.109C613.609 141.165 613.357 141.193 613.086 141.193C612.685 141.193 612.344 141.132 612.064 141.011C611.794 140.89 611.57 140.722 611.392 140.507C611.224 140.283 611.098 140.022 611.014 139.723C610.94 139.415 610.902 139.074 610.902 138.701V135.425ZM615.723 134.151H617.053L617.165 135.369H617.221C617.464 134.921 617.758 134.58 618.103 134.347C618.448 134.104 618.803 133.983 619.167 133.983C619.494 133.983 619.755 134.03 619.951 134.123L619.671 135.523C619.55 135.486 619.438 135.458 619.335 135.439C619.232 135.42 619.106 135.411 618.957 135.411C618.686 135.411 618.402 135.518 618.103 135.733C617.804 135.938 617.548 136.302 617.333 136.825V141.025H615.723V134.151ZM620.361 137.595C620.361 137.026 620.45 136.517 620.627 136.069C620.804 135.621 621.042 135.243 621.341 134.935C621.649 134.627 621.999 134.394 622.391 134.235C622.783 134.067 623.194 133.983 623.623 133.983C624.052 133.983 624.463 134.067 624.855 134.235C625.256 134.394 625.606 134.627 625.905 134.935C626.204 135.243 626.442 135.621 626.619 136.069C626.806 136.517 626.899 137.026 626.899 137.595C626.899 138.164 626.806 138.673 626.619 139.121C626.442 139.569 626.204 139.947 625.905 140.255C625.606 140.563 625.256 140.796 624.855 140.955C624.463 141.114 624.052 141.193 623.623 141.193C623.194 141.193 622.783 141.114 622.391 140.955C621.999 140.796 621.649 140.563 621.341 140.255C621.042 139.947 620.804 139.569 620.627 139.121C620.45 138.673 620.361 138.164 620.361 137.595ZM622.013 137.595C622.013 138.286 622.153 138.841 622.433 139.261C622.722 139.672 623.119 139.877 623.623 139.877C624.127 139.877 624.524 139.672 624.813 139.261C625.102 138.841 625.247 138.286 625.247 137.595C625.247 136.895 625.102 136.34 624.813 135.929C624.524 135.509 624.127 135.299 623.623 135.299C623.119 135.299 622.722 135.509 622.433 135.929C622.153 136.34 622.013 136.895 622.013 137.595ZM628.492 131.141H630.102V139.345C630.102 139.541 630.14 139.681 630.214 139.765C630.289 139.84 630.368 139.877 630.452 139.877C630.49 139.877 630.522 139.877 630.55 139.877C630.588 139.877 630.639 139.868 630.704 139.849L630.914 141.053C630.7 141.146 630.415 141.193 630.06 141.193C629.482 141.193 629.076 141.02 628.842 140.675C628.609 140.33 628.492 139.858 628.492 139.261V131.141ZM632.293 131.141H633.903V139.345C633.903 139.541 633.941 139.681 634.015 139.765C634.09 139.84 634.169 139.877 634.253 139.877C634.291 139.877 634.323 139.877 634.351 139.877C634.389 139.877 634.44 139.868 634.505 139.849L634.715 141.053C634.501 141.146 634.216 141.193 633.861 141.193C633.283 141.193 632.877 141.02 632.643 140.675C632.41 140.33 632.293 139.858 632.293 139.261V131.141ZM636.906 132.947C636.617 132.947 636.379 132.863 636.192 132.695C636.005 132.527 635.912 132.308 635.912 132.037C635.912 131.766 636.005 131.547 636.192 131.379C636.379 131.202 636.617 131.113 636.906 131.113C637.195 131.113 637.433 131.202 637.62 131.379C637.807 131.547 637.9 131.766 637.9 132.037C637.9 132.308 637.807 132.527 637.62 132.695C637.433 132.863 637.195 132.947 636.906 132.947ZM636.094 134.151H637.704V141.025H636.094V134.151ZM639.758 134.151H641.088L641.2 135.075H641.256C641.564 134.776 641.895 134.52 642.25 134.305C642.614 134.09 643.034 133.983 643.51 133.983C644.247 133.983 644.784 134.221 645.12 134.697C645.456 135.164 645.624 135.836 645.624 136.713V141.025H644.014V136.923C644.014 136.354 643.93 135.952 643.762 135.719C643.594 135.486 643.319 135.369 642.936 135.369C642.637 135.369 642.371 135.444 642.138 135.593C641.914 135.733 641.657 135.943 641.368 136.223V141.025H639.758V134.151ZM648.474 142.033C648.474 142.341 648.628 142.579 648.936 142.747C649.253 142.924 649.687 143.013 650.238 143.013C650.798 143.013 651.246 142.901 651.582 142.677C651.927 142.462 652.1 142.206 652.1 141.907C652.1 141.636 651.993 141.454 651.778 141.361C651.573 141.268 651.274 141.221 650.882 141.221H649.944C649.571 141.221 649.258 141.188 649.006 141.123C648.651 141.394 648.474 141.697 648.474 142.033ZM647.13 142.271C647.13 141.982 647.214 141.711 647.382 141.459C647.55 141.216 647.793 140.997 648.11 140.801V140.745C647.933 140.633 647.783 140.484 647.662 140.297C647.55 140.11 647.494 139.877 647.494 139.597C647.494 139.326 647.569 139.084 647.718 138.869C647.877 138.645 648.054 138.463 648.25 138.323V138.267C648.017 138.09 647.807 137.847 647.62 137.539C647.443 137.222 647.354 136.858 647.354 136.447C647.354 136.055 647.429 135.705 647.578 135.397C647.727 135.089 647.923 134.832 648.166 134.627C648.418 134.412 648.707 134.254 649.034 134.151C649.361 134.039 649.706 133.983 650.07 133.983C650.257 133.983 650.434 134.002 650.602 134.039C650.779 134.067 650.938 134.104 651.078 134.151H653.542V135.341H652.282C652.394 135.472 652.487 135.64 652.562 135.845C652.637 136.041 652.674 136.26 652.674 136.503C652.674 136.886 652.604 137.222 652.464 137.511C652.333 137.8 652.151 138.043 651.918 138.239C651.685 138.435 651.409 138.584 651.092 138.687C650.775 138.79 650.434 138.841 650.07 138.841C649.921 138.841 649.767 138.827 649.608 138.799C649.449 138.771 649.291 138.724 649.132 138.659C649.029 138.752 648.945 138.846 648.88 138.939C648.824 139.032 648.796 139.158 648.796 139.317C648.796 139.513 648.875 139.667 649.034 139.779C649.202 139.891 649.496 139.947 649.916 139.947H651.134C651.965 139.947 652.59 140.082 653.01 140.353C653.439 140.614 653.654 141.044 653.654 141.641C653.654 141.977 653.565 142.294 653.388 142.593C653.22 142.892 652.977 143.148 652.66 143.363C652.343 143.578 651.955 143.746 651.498 143.867C651.05 143.998 650.546 144.063 649.986 144.063C649.575 144.063 649.193 144.026 648.838 143.951C648.493 143.876 648.194 143.764 647.942 143.615C647.69 143.466 647.489 143.279 647.34 143.055C647.2 142.831 647.13 142.57 647.13 142.271ZM650.07 137.833C650.397 137.833 650.677 137.716 650.91 137.483C651.143 137.24 651.26 136.895 651.26 136.447C651.26 136.018 651.143 135.686 650.91 135.453C650.686 135.21 650.406 135.089 650.07 135.089C649.734 135.089 649.449 135.206 649.216 135.439C648.983 135.672 648.866 136.008 648.866 136.447C648.866 136.895 648.983 137.24 649.216 137.483C649.449 137.716 649.734 137.833 650.07 137.833Z" fill="white"/>
<path d="M645.6 55.3999C646.7 55.3999 647.6 56.2999 647.6 57.3999V118.5C647.6 119.6 646.7 120.5 645.6 120.5H594.4C593.3 120.5 592.4 119.6 592.4 118.5V57.3999C592.4 56.2999 593.3 55.3999 594.4 55.3999H645.6ZM643.6 116.5V59.2999H596.3V116.4H643.6V116.5ZM635.8 92.7999C636.9 92.7999 637.8 93.6999 637.8 94.7999C637.8 95.8999 636.9 96.7999 635.8 96.7999H602C600.9 96.7999 600 95.8999 600 94.7999C600 93.6999 600.9 92.7999 602 92.7999H635.8ZM602.1 104.6C601 104.6 600.1 103.7 600.1 102.6C600.1 101.5 601 100.6 602.1 100.6H632C633.1 100.6 634 101.5 634 102.6C634 103.7 633.1 104.6 632 104.6H602.1ZM635.8 108.6C636.9 108.6 637.8 109.5 637.8 110.6C637.8 111.7 636.9 112.6 635.8 112.6H602C600.9 112.6 600 111.7 600 110.6C600 109.5 600.9 108.6 602 108.6H635.8ZM632.1 69.1999C631 69.1999 630.1 68.2999 630.1 67.1999C630.1 66.0999 631 65.1999 632.1 65.1999H637.5C638.6 65.1999 639.5 66.0999 639.5 67.1999C639.5 68.2999 638.6 69.1999 637.5 69.1999H632.1ZM632.1 75.6999C631 75.6999 630.1 74.7999 630.1 73.6999C630.1 72.5999 631 71.6999 632.1 71.6999H637.5C638.6 71.6999 639.5 72.5999 639.5 73.6999C639.5 74.7999 638.6 75.6999 637.5 75.6999H632.1ZM632.1 82.2999C631 82.2999 630.1 81.3999 630.1 80.2999C630.1 79.1999 631 78.2999 632.1 78.2999H637.5C638.6 78.2999 639.5 79.1999 639.5 80.2999C639.5 81.3999 638.6 82.2999 637.5 82.2999H632.1ZM627.6 72.0999C627.5 66.2999 622.8 61.4999 617 61.4999H615.4V73.6999H627.6V72.0999ZM618.6 70.4999V64.6999C621.4 65.2999 623.7 67.5999 624.4 70.4999H618.6ZM610.7 89.0999C616.6 89.0999 621.4 84.2999 621.4 78.2999V76.6999H612.3V69.1999V67.6999L610.8 67.5999H610.7C604.8 67.5999 600 72.3999 600 78.2999C600 81.1999 601.1 83.8999 603.2 85.8999C605.2 87.9999 607.9 89.0999 610.7 89.0999ZM609.2 70.9999V79.8999H618.1C617.4 83.3999 614.3 85.9999 610.7 85.9999C608.7 85.9999 606.8 85.1999 605.3 83.7999C603.9 82.3999 603 80.4999 603 78.3999C603.1 74.6999 605.7 71.6999 609.2 70.9999Z" fill="white"/>
<path d="M557.5 424.2C594.779 424.2 625 393.979 625 356.7C625 319.421 594.779 289.2 557.5 289.2C520.221 289.2 490 319.421 490 356.7C490 393.979 520.221 424.2 557.5 424.2Z" fill="#55C2A6"/>
<path d="M524.874 392.436H527.324C528.724 392.436 529.816 392.814 530.6 393.57C531.384 394.326 531.776 395.46 531.776 396.972C531.776 397.728 531.673 398.395 531.468 398.974C531.272 399.552 530.982 400.038 530.6 400.43C530.226 400.812 529.769 401.102 529.228 401.298C528.696 401.494 528.089 401.592 527.408 401.592H524.874V392.436ZM527.212 400.276C528.145 400.276 528.859 400.01 529.354 399.478C529.858 398.936 530.11 398.101 530.11 396.972C530.11 395.852 529.858 395.035 529.354 394.522C528.85 394.008 528.136 393.752 527.212 393.752H526.498V400.276H527.212ZM533.036 398.162C533.036 397.602 533.124 397.098 533.302 396.65C533.479 396.202 533.712 395.824 534.002 395.516C534.3 395.208 534.641 394.97 535.024 394.802C535.406 394.634 535.798 394.55 536.2 394.55C536.666 394.55 537.077 394.629 537.432 394.788C537.786 394.946 538.08 395.17 538.314 395.46C538.556 395.749 538.738 396.094 538.86 396.496C538.981 396.897 539.042 397.336 539.042 397.812C539.042 398.129 539.018 398.381 538.972 398.568H534.604C534.678 399.193 534.893 399.674 535.248 400.01C535.612 400.346 536.074 400.514 536.634 400.514C536.932 400.514 537.208 400.472 537.46 400.388C537.721 400.294 537.978 400.168 538.23 400.01L538.776 401.018C538.449 401.232 538.085 401.41 537.684 401.55C537.282 401.69 536.862 401.76 536.424 401.76C535.948 401.76 535.504 401.68 535.094 401.522C534.683 401.354 534.324 401.116 534.016 400.808C533.708 400.5 533.465 400.126 533.288 399.688C533.12 399.24 533.036 398.731 533.036 398.162ZM537.642 397.546C537.642 396.995 537.525 396.566 537.292 396.258C537.068 395.95 536.718 395.796 536.242 395.796C535.831 395.796 535.472 395.945 535.164 396.244C534.856 396.533 534.664 396.967 534.59 397.546H537.642ZM539.725 394.718H541.363L542.455 398.288C542.549 398.624 542.642 398.964 542.735 399.31C542.838 399.655 542.936 400.005 543.029 400.36H543.085C543.188 400.005 543.286 399.655 543.379 399.31C543.473 398.964 543.571 398.624 543.673 398.288L544.765 394.718H546.319L543.981 401.592H542.119L539.725 394.718ZM546.981 398.162C546.981 397.602 547.07 397.098 547.247 396.65C547.424 396.202 547.658 395.824 547.947 395.516C548.246 395.208 548.586 394.97 548.969 394.802C549.352 394.634 549.744 394.55 550.145 394.55C550.612 394.55 551.022 394.629 551.377 394.788C551.732 394.946 552.026 395.17 552.259 395.46C552.502 395.749 552.684 396.094 552.805 396.496C552.926 396.897 552.987 397.336 552.987 397.812C552.987 398.129 552.964 398.381 552.917 398.568H548.549C548.624 399.193 548.838 399.674 549.193 400.01C549.557 400.346 550.019 400.514 550.579 400.514C550.878 400.514 551.153 400.472 551.405 400.388C551.666 400.294 551.923 400.168 552.175 400.01L552.721 401.018C552.394 401.232 552.03 401.41 551.629 401.55C551.228 401.69 550.808 401.76 550.369 401.76C549.893 401.76 549.45 401.68 549.039 401.522C548.628 401.354 548.269 401.116 547.961 400.808C547.653 400.5 547.41 400.126 547.233 399.688C547.065 399.24 546.981 398.731 546.981 398.162ZM551.587 397.546C551.587 396.995 551.47 396.566 551.237 396.258C551.013 395.95 550.663 395.796 550.187 395.796C549.776 395.796 549.417 395.945 549.109 396.244C548.801 396.533 548.61 396.967 548.535 397.546H551.587ZM554.525 391.708H556.135V399.912C556.135 400.108 556.172 400.248 556.247 400.332C556.321 400.406 556.401 400.444 556.485 400.444C556.522 400.444 556.555 400.444 556.583 400.444C556.62 400.444 556.671 400.434 556.737 400.416L556.947 401.62C556.732 401.713 556.447 401.76 556.093 401.76C555.514 401.76 555.108 401.587 554.875 401.242C554.641 400.896 554.525 400.425 554.525 399.828V391.708ZM557.877 398.162C557.877 397.592 557.966 397.084 558.143 396.636C558.321 396.188 558.559 395.81 558.857 395.502C559.165 395.194 559.515 394.96 559.907 394.802C560.299 394.634 560.71 394.55 561.139 394.55C561.569 394.55 561.979 394.634 562.371 394.802C562.773 394.96 563.123 395.194 563.421 395.502C563.72 395.81 563.958 396.188 564.135 396.636C564.322 397.084 564.415 397.592 564.415 398.162C564.415 398.731 564.322 399.24 564.135 399.688C563.958 400.136 563.72 400.514 563.421 400.822C563.123 401.13 562.773 401.363 562.371 401.522C561.979 401.68 561.569 401.76 561.139 401.76C560.71 401.76 560.299 401.68 559.907 401.522C559.515 401.363 559.165 401.13 558.857 400.822C558.559 400.514 558.321 400.136 558.143 399.688C557.966 399.24 557.877 398.731 557.877 398.162ZM559.529 398.162C559.529 398.852 559.669 399.408 559.949 399.828C560.239 400.238 560.635 400.444 561.139 400.444C561.643 400.444 562.04 400.238 562.329 399.828C562.619 399.408 562.763 398.852 562.763 398.162C562.763 397.462 562.619 396.906 562.329 396.496C562.04 396.076 561.643 395.866 561.139 395.866C560.635 395.866 560.239 396.076 559.949 396.496C559.669 396.906 559.529 397.462 559.529 398.162ZM567.619 402.152V404.308H566.009V394.718H567.339L567.451 395.446H567.507C567.796 395.203 568.118 394.993 568.473 394.816C568.828 394.638 569.196 394.55 569.579 394.55C570.008 394.55 570.386 394.634 570.713 394.802C571.049 394.96 571.334 395.194 571.567 395.502C571.8 395.81 571.978 396.178 572.099 396.608C572.22 397.037 572.281 397.518 572.281 398.05C572.281 398.638 572.197 399.165 572.029 399.632C571.87 400.089 571.656 400.476 571.385 400.794C571.114 401.102 570.802 401.34 570.447 401.508C570.092 401.676 569.724 401.76 569.341 401.76C569.042 401.76 568.744 401.694 568.445 401.564C568.146 401.433 567.857 401.246 567.577 401.004L567.619 402.152ZM567.619 399.856C567.871 400.07 568.114 400.22 568.347 400.304C568.58 400.388 568.8 400.43 569.005 400.43C569.462 400.43 569.845 400.234 570.153 399.842C570.461 399.44 570.615 398.848 570.615 398.064C570.615 397.373 570.498 396.836 570.265 396.454C570.032 396.071 569.654 395.88 569.131 395.88C568.646 395.88 568.142 396.136 567.619 396.65V399.856ZM573.463 398.162C573.463 397.602 573.552 397.098 573.729 396.65C573.907 396.202 574.14 395.824 574.429 395.516C574.728 395.208 575.069 394.97 575.451 394.802C575.834 394.634 576.226 394.55 576.627 394.55C577.094 394.55 577.505 394.629 577.859 394.788C578.214 394.946 578.508 395.17 578.741 395.46C578.984 395.749 579.166 396.094 579.287 396.496C579.409 396.897 579.469 397.336 579.469 397.812C579.469 398.129 579.446 398.381 579.399 398.568H575.031C575.106 399.193 575.321 399.674 575.675 400.01C576.039 400.346 576.501 400.514 577.061 400.514C577.36 400.514 577.635 400.472 577.887 400.388C578.149 400.294 578.405 400.168 578.657 400.01L579.203 401.018C578.877 401.232 578.513 401.41 578.111 401.55C577.71 401.69 577.29 401.76 576.851 401.76C576.375 401.76 575.932 401.68 575.521 401.522C575.111 401.354 574.751 401.116 574.443 400.808C574.135 400.5 573.893 400.126 573.715 399.688C573.547 399.24 573.463 398.731 573.463 398.162ZM578.069 397.546C578.069 396.995 577.953 396.566 577.719 396.258C577.495 395.95 577.145 395.796 576.669 395.796C576.259 395.796 575.899 395.945 575.591 396.244C575.283 396.533 575.092 396.967 575.017 397.546H578.069ZM581.007 394.718H582.337L582.449 395.936H582.505C582.748 395.488 583.042 395.147 583.387 394.914C583.732 394.671 584.087 394.55 584.451 394.55C584.778 394.55 585.039 394.596 585.235 394.69L584.955 396.09C584.834 396.052 584.722 396.024 584.619 396.006C584.516 395.987 584.39 395.978 584.241 395.978C583.97 395.978 583.686 396.085 583.387 396.3C583.088 396.505 582.832 396.869 582.617 397.392V401.592H581.007V394.718ZM586.163 399.772C586.471 400.014 586.774 400.206 587.073 400.346C587.381 400.476 587.712 400.542 588.067 400.542C588.44 400.542 588.716 400.467 588.893 400.318C589.07 400.159 589.159 399.958 589.159 399.716C589.159 399.576 589.117 399.454 589.033 399.352C588.949 399.24 588.837 399.142 588.697 399.058C588.557 398.974 588.398 398.899 588.221 398.834C588.044 398.759 587.866 398.684 587.689 398.61C587.465 398.526 587.236 398.428 587.003 398.316C586.77 398.204 586.56 398.068 586.373 397.91C586.196 397.751 586.046 397.569 585.925 397.364C585.813 397.149 585.757 396.897 585.757 396.608C585.757 396.001 585.981 395.506 586.429 395.124C586.877 394.741 587.488 394.55 588.263 394.55C588.739 394.55 589.168 394.634 589.551 394.802C589.934 394.97 590.265 395.161 590.545 395.376L589.803 396.356C589.56 396.178 589.313 396.038 589.061 395.936C588.818 395.824 588.562 395.768 588.291 395.768C587.946 395.768 587.689 395.842 587.521 395.992C587.362 396.132 587.283 396.309 587.283 396.524C587.283 396.664 587.32 396.785 587.395 396.888C587.479 396.981 587.586 397.065 587.717 397.14C587.848 397.214 587.997 397.284 588.165 397.35C588.342 397.415 588.524 397.48 588.711 397.546C588.944 397.63 589.178 397.728 589.411 397.84C589.644 397.942 589.854 398.073 590.041 398.232C590.237 398.39 590.391 398.586 590.503 398.82C590.624 399.044 590.685 399.314 590.685 399.632C590.685 399.93 590.624 400.21 590.503 400.472C590.391 400.724 590.223 400.948 589.999 401.144C589.775 401.33 589.495 401.48 589.159 401.592C588.823 401.704 588.44 401.76 588.011 401.76C587.535 401.76 587.064 401.671 586.597 401.494C586.14 401.307 585.743 401.078 585.407 400.808L586.163 399.772Z" fill="white"/>
<path d="M548.4 340.9C548.6 340.7 548.8 340.5 548.9 340.4L533.6 325.1V323.3L528.7 319.8L527 321.5L530.5 326.4H532.3L547.6 341.7C548 341.3 548.2 341.1 548.4 340.9ZM554.4 340.5L553 341.9C552.5 342.4 551.9 343 551 343.8C550.8 344 550.5 344.3 549.9 344.8C549.4 345.2 549.1 345.5 548.8 345.8L547.4 347L530.6 330.2H528.4L521.9 321.1L528.2 314.8L537.3 321.3V323.5L554.4 340.5ZM579.9 378.4C582.8 381.3 585 381.5 587 380.4C587.4 380.2 587.6 380 587.7 379.9C588 379.6 588.2 379.4 588.4 379.1C589.7 377.4 589.5 375.2 586.2 372.1C584.5 370.4 582.7 368.6 580 365.9C579.5 365.4 576.7 362.6 575.8 361.7C574.9 360.8 574.1 360 573.3 359.2C572.3 360.3 571.1 361.5 568.8 364C568.4 364.5 568 364.9 567.4 365.5C567.4 365.6 567.3 365.6 567.2 365.7C571.4 370 575.8 374.4 579.9 378.4ZM577.1 381.1C572.6 376.6 567.7 371.7 563.2 367.2L561.9 365.9L563.1 364.5C563.3 364.2 564.3 363.2 564.5 363C565 362.4 565.5 361.9 565.9 361.5C569.4 357.7 570.4 356.6 571.7 355.2L573.1 353.8L574.5 355.2C575.6 356.3 576.8 357.5 578.4 359.1C579.2 359.9 582.1 362.8 582.6 363.3C585.2 365.9 587.1 367.8 588.8 369.5C593.3 374 593.7 378.2 591.4 381.4C591.1 381.9 590.8 382.2 590.3 382.6C590 382.9 589.5 383.4 588.8 383.7C585.3 385.6 581.2 385.2 577.1 381.1ZM572 325.8C573.7 324.2 575.4 322.5 577.1 320.7C576.3 320.8 575.2 321 573.9 321.5C570.1 322.8 568.2 323.9 565.9 326C565.4 326.4 565.1 326.8 564.3 327.5C563.1 328.7 562.8 330.2 563.1 332.7C563.2 333.2 563.3 333.6 563.3 334.4C563.7 336.6 563.8 337.5 563.7 338.6C563.6 340.3 563 341.8 561.9 343C561.4 343.5 559.6 345.2 556.5 348.1C555.3 349.2 553.9 350.5 551.9 352.4C551.4 352.9 549.3 354.7 549.3 354.7C548.2 355.7 547.5 356.4 546.7 357.1C538.1 365.3 533.5 369.6 532 371.1C529.9 373.2 529.3 374.9 529.6 376.3C529.8 377.2 530.3 378 531.1 378.7C531.9 379.5 532.6 380 533.5 380.1C534.9 380.4 536.6 379.8 538.7 377.7C540.2 376.2 544.8 371.3 552.4 363.1C554.4 360.9 560.9 354 561.8 353C564.8 349.8 566.3 348.2 566.7 347.8C567.9 346.6 569.3 346.1 571.1 346C572.3 345.9 573.1 346 575.3 346.4C576.1 346.6 576.5 346.6 577 346.6C579.5 346.9 581 346.6 582.2 345.4C583 344.6 583.3 344.3 583.7 343.8C585.8 341.5 587 339.6 588.2 335.8C588.7 334.5 588.9 333.5 589 332.6C587.4 334.2 585.8 335.8 584.3 337.3C584.1 337.6 583.8 337.8 583.5 338.1C581 340.9 576.6 339.8 573.1 336.6C569.6 333.4 568.3 329 571.4 326.1C571.9 326 571.9 326 572 325.8ZM575.9 333.8C578 335.8 580.3 336.4 581 335.5C581.2 335.2 581.5 335 581.8 334.7C583.4 333 585 331.4 586.7 329.8C587.3 329.2 587.8 328.7 588.3 328.2C588.5 328 588.6 327.9 588.8 327.7C589 327.5 589 327.5 589 327.5L590.4 326.2L591.7 327.5C592 327.8 592.2 328.2 592.5 328.8C593.3 330.7 593.3 333.4 592.1 337C590.7 341.3 589.2 343.7 586.7 346.4C586.2 346.9 585.9 347.2 585.1 348.1C582.9 350.3 580.3 350.8 576.8 350.4C576.3 350.3 575.8 350.2 575 350.2C571.6 349.7 570.5 349.7 569.6 350.6C569.3 350.9 567.7 352.6 564.8 355.7C563.8 356.8 557.5 363.6 555.5 365.7C547.6 374.1 543.1 379 541.5 380.5C538.6 383.4 535.7 384.5 532.9 384C531.8 383.8 530.9 383.3 530 382.7C529.4 382.3 529 381.9 528.6 381.4C528.1 380.9 527.8 380.5 527.3 379.9C526.7 379.1 526.2 378.1 526 377C525.5 374.2 526.5 371.3 529.5 368.4C531.1 366.8 535.7 362.5 544.3 354.5C545.1 353.7 546 353 547 352C547 352 549 350.1 549.6 349.7C551.6 347.8 553 346.5 554.2 345.4C557.3 342.5 559 340.9 559.6 340.4C560.5 339.5 560.5 338.4 560 335C559.8 334.2 559.8 333.7 559.7 333.2C559.2 329.7 559.8 327.1 562 324.9C562.8 324.1 563.2 323.7 563.7 323.3C566.3 320.8 568.8 319.4 573.1 317.9C576.6 316.7 579.3 316.7 581.3 317.5C581.9 317.7 582.3 318 582.6 318.3L583.9 319.7L582.6 321.1C582.6 321.1 582.6 321.1 582.4 321.3C582.2 321.5 582.1 321.6 581.9 321.8C581.4 322.3 580.8 322.9 580.2 323.5C578.5 325.2 576.7 327 575 328.7C574.8 328.9 574.8 328.9 574.6 329.1C573.2 329.9 573.7 331.9 575.9 333.8Z" fill="white"/>
<path d="M302.376 226.256H297V223.088H311.64V226.256H306.264V239.888H302.376V226.256Z" fill="#55C2A6"/>
<path d="M318.02 226.784C320.02 226.784 321.556 227.264 322.628 228.224C323.7 229.168 324.236 230.6 324.236 232.52V239.888H320.732V238.28C320.028 239.48 318.716 240.08 316.796 240.08C315.804 240.08 314.94 239.912 314.204 239.576C313.484 239.24 312.932 238.776 312.548 238.184C312.164 237.592 311.972 236.92 311.972 236.168C311.972 234.968 312.42 234.024 313.316 233.336C314.228 232.648 315.628 232.304 317.516 232.304H320.492C320.492 231.488 320.244 230.864 319.748 230.432C319.252 229.984 318.508 229.76 317.516 229.76C316.828 229.76 316.148 229.872 315.476 230.096C314.82 230.304 314.26 230.592 313.796 230.96L312.452 228.344C313.156 227.848 313.996 227.464 314.972 227.192C315.964 226.92 316.98 226.784 318.02 226.784ZM317.732 237.56C318.372 237.56 318.94 237.416 319.436 237.128C319.932 236.824 320.284 236.384 320.492 235.808V234.488H317.924C316.388 234.488 315.62 234.992 315.62 236C315.62 236.48 315.804 236.864 316.172 237.152C316.556 237.424 317.076 237.56 317.732 237.56Z" fill="#55C2A6"/>
<path d="M331.2 228.68C331.648 228.056 332.248 227.584 333 227.264C333.768 226.944 334.648 226.784 335.64 226.784V230.24C335.224 230.208 334.944 230.192 334.8 230.192C333.728 230.192 332.888 230.496 332.28 231.104C331.672 231.696 331.368 232.592 331.368 233.792V239.888H327.624V226.976H331.2V228.68Z" fill="#55C2A6"/>
<path d="M351.069 226.976V237.728C351.069 240.096 350.453 241.856 349.221 243.008C347.989 244.16 346.189 244.736 343.821 244.736C342.573 244.736 341.389 244.584 340.269 244.28C339.149 243.976 338.221 243.536 337.485 242.96L338.973 240.272C339.517 240.72 340.205 241.072 341.037 241.328C341.869 241.6 342.701 241.736 343.533 241.736C344.829 241.736 345.781 241.44 346.389 240.848C347.013 240.272 347.325 239.392 347.325 238.208V237.656C346.349 238.728 344.989 239.264 343.245 239.264C342.061 239.264 340.973 239.008 339.981 238.496C339.005 237.968 338.229 237.232 337.653 236.288C337.077 235.344 336.789 234.256 336.789 233.024C336.789 231.792 337.077 230.704 337.653 229.76C338.229 228.816 339.005 228.088 339.981 227.576C340.973 227.048 342.061 226.784 343.245 226.784C345.117 226.784 346.541 227.4 347.517 228.632V226.976H351.069ZM343.989 236.192C344.981 236.192 345.789 235.904 346.413 235.328C347.053 234.736 347.373 233.968 347.373 233.024C347.373 232.08 347.053 231.32 346.413 230.744C345.789 230.152 344.981 229.856 343.989 229.856C342.997 229.856 342.181 230.152 341.541 230.744C340.901 231.32 340.581 232.08 340.581 233.024C340.581 233.968 340.901 234.736 341.541 235.328C342.181 235.904 342.997 236.192 343.989 236.192Z" fill="#55C2A6"/>
<path d="M367.202 233.48C367.202 233.528 367.178 233.864 367.13 234.488H357.362C357.538 235.288 357.954 235.92 358.61 236.384C359.266 236.848 360.082 237.08 361.058 237.08C361.73 237.08 362.322 236.984 362.834 236.792C363.362 236.584 363.85 236.264 364.298 235.832L366.29 237.992C365.074 239.384 363.298 240.08 360.962 240.08C359.506 240.08 358.218 239.8 357.098 239.24C355.978 238.664 355.114 237.872 354.506 236.864C353.898 235.856 353.594 234.712 353.594 233.432C353.594 232.168 353.89 231.032 354.482 230.024C355.09 229 355.914 228.208 356.954 227.648C358.01 227.072 359.186 226.784 360.482 226.784C361.746 226.784 362.89 227.056 363.914 227.6C364.938 228.144 365.738 228.928 366.314 229.952C366.906 230.96 367.202 232.136 367.202 233.48ZM360.506 229.616C359.658 229.616 358.946 229.856 358.37 230.336C357.794 230.816 357.442 231.472 357.314 232.304H363.674C363.546 231.488 363.194 230.84 362.618 230.36C362.042 229.864 361.338 229.616 360.506 229.616Z" fill="#55C2A6"/>
<path d="M378.022 239.264C377.654 239.536 377.199 239.744 376.655 239.888C376.127 240.016 375.567 240.08 374.975 240.08C373.439 240.08 372.246 239.688 371.398 238.904C370.566 238.12 370.15 236.968 370.15 235.448V230.144H368.159V227.264H370.15V224.12H373.895V227.264H377.11V230.144H373.895V235.4C373.895 235.944 374.03 236.368 374.302 236.672C374.59 236.96 374.991 237.104 375.503 237.104C376.095 237.104 376.598 236.944 377.014 236.624L378.022 239.264Z" fill="#55C2A6"/>
<path d="M398.249 236.288H390.449L388.961 239.888H384.977L392.465 223.088H396.305L403.817 239.888H399.737L398.249 236.288ZM397.025 233.336L394.361 226.904L391.697 233.336H397.025Z" fill="#55C2A6"/>
<path d="M418.07 226.976V239.888H414.518V238.352C414.022 238.912 413.43 239.344 412.742 239.648C412.054 239.936 411.31 240.08 410.51 240.08C408.814 240.08 407.47 239.592 406.478 238.616C405.486 237.64 404.99 236.192 404.99 234.272V226.976H408.734V233.72C408.734 235.8 409.606 236.84 411.35 236.84C412.246 236.84 412.966 236.552 413.51 235.976C414.054 235.384 414.326 234.512 414.326 233.36V226.976H418.07Z" fill="#55C2A6"/>
<path d="M434.69 222.08V239.888H431.114V238.4C430.186 239.52 428.842 240.08 427.082 240.08C425.866 240.08 424.762 239.808 423.77 239.264C422.794 238.72 422.026 237.944 421.466 236.936C420.906 235.928 420.626 234.76 420.626 233.432C420.626 232.104 420.906 230.936 421.466 229.928C422.026 228.92 422.794 228.144 423.77 227.6C424.762 227.056 425.866 226.784 427.082 226.784C428.73 226.784 430.018 227.304 430.946 228.344V222.08H434.69ZM427.73 237.008C428.674 237.008 429.458 236.688 430.082 236.048C430.706 235.392 431.018 234.52 431.018 233.432C431.018 232.344 430.706 231.48 430.082 230.84C429.458 230.184 428.674 229.856 427.73 229.856C426.77 229.856 425.978 230.184 425.354 230.84C424.73 231.48 424.418 232.344 424.418 233.432C424.418 234.52 424.73 235.392 425.354 236.048C425.978 236.688 426.77 237.008 427.73 237.008Z" fill="#55C2A6"/>
<path d="M438.155 226.976H441.899V239.888H438.155V226.976ZM440.027 225.176C439.339 225.176 438.779 224.976 438.347 224.576C437.915 224.176 437.699 223.68 437.699 223.088C437.699 222.496 437.915 222 438.347 221.6C438.779 221.2 439.339 221 440.027 221C440.715 221 441.275 221.192 441.707 221.576C442.139 221.96 442.355 222.44 442.355 223.016C442.355 223.64 442.139 224.16 441.707 224.576C441.275 224.976 440.715 225.176 440.027 225.176Z" fill="#55C2A6"/>
<path d="M458.022 233.48C458.022 233.528 457.998 233.864 457.95 234.488H448.182C448.358 235.288 448.774 235.92 449.43 236.384C450.086 236.848 450.902 237.08 451.878 237.08C452.55 237.08 453.142 236.984 453.654 236.792C454.182 236.584 454.67 236.264 455.118 235.832L457.11 237.992C455.894 239.384 454.118 240.08 451.782 240.08C450.326 240.08 449.038 239.8 447.918 239.24C446.798 238.664 445.934 237.872 445.326 236.864C444.718 235.856 444.414 234.712 444.414 233.432C444.414 232.168 444.71 231.032 445.302 230.024C445.91 229 446.734 228.208 447.774 227.648C448.83 227.072 450.006 226.784 451.302 226.784C452.566 226.784 453.71 227.056 454.734 227.6C455.758 228.144 456.558 228.928 457.134 229.952C457.726 230.96 458.022 232.136 458.022 233.48ZM451.326 229.616C450.478 229.616 449.766 229.856 449.19 230.336C448.614 230.816 448.262 231.472 448.134 232.304H454.494C454.366 231.488 454.014 230.84 453.438 230.36C452.862 229.864 452.158 229.616 451.326 229.616Z" fill="#55C2A6"/>
<path d="M468.363 226.784C469.963 226.784 471.251 227.264 472.227 228.224C473.219 229.184 473.715 230.608 473.715 232.496V239.888H469.971V233.072C469.971 232.048 469.747 231.288 469.299 230.792C468.851 230.28 468.203 230.024 467.355 230.024C466.411 230.024 465.659 230.32 465.099 230.912C464.539 231.488 464.259 232.352 464.259 233.504V239.888H460.515V226.976H464.091V228.488C464.587 227.944 465.203 227.528 465.939 227.24C466.675 226.936 467.483 226.784 468.363 226.784Z" fill="#55C2A6"/>
<path d="M483.489 240.08C482.113 240.08 480.873 239.8 479.769 239.24C478.681 238.664 477.825 237.872 477.201 236.864C476.593 235.856 476.289 234.712 476.289 233.432C476.289 232.152 476.593 231.008 477.201 230C477.825 228.992 478.681 228.208 479.769 227.648C480.873 227.072 482.113 226.784 483.489 226.784C484.849 226.784 486.033 227.072 487.041 227.648C488.065 228.208 488.809 229.016 489.273 230.072L486.369 231.632C485.697 230.448 484.729 229.856 483.465 229.856C482.489 229.856 481.681 230.176 481.041 230.816C480.401 231.456 480.081 232.328 480.081 233.432C480.081 234.536 480.401 235.408 481.041 236.048C481.681 236.688 482.489 237.008 483.465 237.008C484.745 237.008 485.713 236.416 486.369 235.232L489.273 236.816C488.809 237.84 488.065 238.64 487.041 239.216C486.033 239.792 484.849 240.08 483.489 240.08Z" fill="#55C2A6"/>
<path d="M503.913 233.48C503.913 233.528 503.889 233.864 503.841 234.488H494.073C494.249 235.288 494.665 235.92 495.321 236.384C495.977 236.848 496.793 237.08 497.769 237.08C498.441 237.08 499.033 236.984 499.545 236.792C500.073 236.584 500.561 236.264 501.009 235.832L503.001 237.992C501.785 239.384 500.009 240.08 497.673 240.08C496.217 240.08 494.929 239.8 493.809 239.24C492.689 238.664 491.825 237.872 491.217 236.864C490.609 235.856 490.305 234.712 490.305 233.432C490.305 232.168 490.601 231.032 491.193 230.024C491.801 229 492.625 228.208 493.665 227.648C494.721 227.072 495.897 226.784 497.193 226.784C498.457 226.784 499.601 227.056 500.625 227.6C501.649 228.144 502.449 228.928 503.025 229.952C503.617 230.96 503.913 232.136 503.913 233.48ZM497.217 229.616C496.369 229.616 495.657 229.856 495.081 230.336C494.505 230.816 494.153 231.472 494.025 232.304H500.385C500.257 231.488 499.905 230.84 499.329 230.36C498.753 229.864 498.049 229.616 497.217 229.616Z" fill="#55C2A6"/>
<path d="M288.3 400.4C325.579 400.4 355.8 370.179 355.8 332.9C355.8 295.621 325.579 265.4 288.3 265.4C251.021 265.4 220.8 295.621 220.8 332.9C220.8 370.179 251.021 400.4 288.3 400.4Z" fill="#55C2A6"/>
<path d="M266.334 369.569H267.958V378.725H266.334V369.569ZM272.133 370.941H269.487V369.569H276.403V370.941H273.757V378.725H272.133V370.941ZM281.121 376.443C281.448 376.751 281.821 377.003 282.241 377.199C282.661 377.385 283.081 377.479 283.501 377.479C284.024 377.479 284.42 377.371 284.691 377.157C284.962 376.942 285.097 376.657 285.097 376.303C285.097 376.116 285.06 375.957 284.985 375.827C284.92 375.696 284.822 375.584 284.691 375.491C284.57 375.388 284.42 375.295 284.243 375.211C284.075 375.127 283.888 375.043 283.683 374.959L282.423 374.413C282.199 374.319 281.975 374.203 281.751 374.063C281.536 373.923 281.34 373.755 281.163 373.559C280.986 373.363 280.841 373.134 280.729 372.873C280.626 372.611 280.575 372.313 280.575 371.977C280.575 371.613 280.65 371.277 280.799 370.969C280.958 370.651 281.172 370.376 281.443 370.143C281.714 369.909 282.036 369.727 282.409 369.597C282.792 369.466 283.207 369.401 283.655 369.401C284.187 369.401 284.7 369.508 285.195 369.723C285.69 369.928 286.114 370.208 286.469 370.563L285.643 371.599C285.344 371.356 285.036 371.165 284.719 371.025C284.402 370.885 284.047 370.815 283.655 370.815C283.216 370.815 282.866 370.913 282.605 371.109C282.344 371.295 282.213 371.557 282.213 371.893C282.213 372.07 282.25 372.224 282.325 372.355C282.409 372.476 282.516 372.588 282.647 372.691C282.787 372.784 282.946 372.873 283.123 372.957C283.3 373.031 283.482 373.106 283.669 373.181L284.915 373.699C285.186 373.811 285.433 373.941 285.657 374.091C285.881 374.24 286.072 374.413 286.231 374.609C286.399 374.805 286.53 375.033 286.623 375.295C286.716 375.547 286.763 375.841 286.763 376.177C286.763 376.55 286.688 376.9 286.539 377.227C286.39 377.553 286.17 377.843 285.881 378.095C285.601 378.337 285.256 378.533 284.845 378.683C284.444 378.823 283.986 378.893 283.473 378.893C282.857 378.893 282.26 378.776 281.681 378.543C281.112 378.309 280.608 377.978 280.169 377.549L281.121 376.443ZM288.526 373.125H287.546V371.921L288.61 371.851L288.806 369.975H290.15V371.851H291.9V373.125H290.15V376.401C290.15 377.203 290.472 377.605 291.116 377.605C291.237 377.605 291.359 377.591 291.48 377.563C291.611 377.535 291.727 377.497 291.83 377.451L292.11 378.641C291.923 378.706 291.709 378.762 291.466 378.809C291.233 378.865 290.981 378.893 290.71 378.893C290.309 378.893 289.968 378.832 289.688 378.711C289.417 378.589 289.193 378.421 289.016 378.207C288.848 377.983 288.722 377.721 288.638 377.423C288.563 377.115 288.526 376.774 288.526 376.401V373.125ZM292.847 376.877C292.847 376.139 293.169 375.57 293.813 375.169C294.457 374.767 295.484 374.487 296.893 374.329C296.893 374.151 296.87 373.983 296.823 373.825C296.777 373.657 296.702 373.512 296.599 373.391C296.506 373.26 296.38 373.162 296.221 373.097C296.072 373.022 295.881 372.985 295.647 372.985C295.302 372.985 294.966 373.05 294.639 373.181C294.322 373.311 294.014 373.47 293.715 373.657L293.127 372.579C293.51 372.336 293.935 372.126 294.401 371.949C294.877 371.771 295.391 371.683 295.941 371.683C296.809 371.683 297.453 371.939 297.873 372.453C298.293 372.957 298.503 373.689 298.503 374.651V378.725H297.187L297.061 377.969H297.019C296.711 378.23 296.38 378.449 296.025 378.627C295.68 378.804 295.302 378.893 294.891 378.893C294.285 378.893 293.79 378.711 293.407 378.347C293.034 377.973 292.847 377.483 292.847 376.877ZM294.415 376.751C294.415 377.059 294.504 377.283 294.681 377.423C294.868 377.563 295.106 377.633 295.395 377.633C295.675 377.633 295.932 377.567 296.165 377.437C296.399 377.306 296.641 377.119 296.893 376.877V375.337C296.427 375.393 296.035 375.467 295.717 375.561C295.4 375.654 295.143 375.761 294.947 375.883C294.761 375.995 294.625 376.125 294.541 376.275C294.457 376.424 294.415 376.583 294.415 376.751ZM308.184 370.115C307.932 370.003 307.684 369.947 307.442 369.947C306.854 369.947 306.56 370.334 306.56 371.109V371.851H307.904V373.125H306.56V378.725H304.95V373.125H302.36V378.725H300.75V373.125H299.826V371.921L300.75 371.851V371.249C300.75 370.894 300.796 370.567 300.89 370.269C300.983 369.97 301.123 369.713 301.31 369.499C301.506 369.284 301.753 369.116 302.052 368.995C302.35 368.873 302.71 368.813 303.13 368.813C303.391 368.813 303.638 368.836 303.872 368.883C304.105 368.929 304.306 368.99 304.474 369.065L304.166 370.269C304.035 370.203 303.904 370.157 303.774 370.129C303.643 370.101 303.484 370.087 303.298 370.087C303.008 370.087 302.78 370.185 302.612 370.381C302.444 370.567 302.36 370.857 302.36 371.249V371.851H304.95V371.137C304.95 370.782 304.992 370.455 305.076 370.157C305.16 369.849 305.295 369.587 305.482 369.373C305.668 369.149 305.902 368.976 306.182 368.855C306.471 368.733 306.821 368.673 307.232 368.673C307.484 368.673 307.717 368.696 307.932 368.743C308.146 368.789 308.333 368.845 308.492 368.911L308.184 370.115Z" fill="white"/>
<path d="M283.6 319.1C283.9 320.1 284.9 320.7 285.9 320.7C286.2 320.7 286.5 320.6 286.7 320.5C288 320 288.6 318.6 288.2 317.3L287.2 314.5C286.9 313.5 285.9 312.9 284.9 312.9C284.7 312.9 284.3 313 284.1 313.1C282.8 313.6 282.2 315 282.6 316.3L283.6 319.1ZM308.8 335.7L302.1 316.7C299.8 310.3 293.8 306 287 306C285.5 306 284 306.2 282.5 306.6C281.2 304.7 281.4 302.2 281.4 299.6C281.6 296.5 281.7 293 279.1 290.4C276.6 287.9 272.1 286.8 264.8 287C263.7 287 262.8 288 262.9 289.1C262.9 290.2 263.9 291.1 265 291C270.9 290.8 274.8 291.6 276.3 293.2C277.6 294.6 277.5 296.8 277.4 299.4C277.2 302.1 277.2 305.3 278.7 308.2C275.9 309.8 273.8 312.2 272.5 315.1C270.6 319 270.5 323.3 271.9 327.3L278.6 346.3C280.9 352.7 286.9 357 293.7 357C295.6 357 297.3 356.7 299 356.1C307.3 353.2 311.7 344 308.8 335.7ZM282.9 310.6C284.2 310.1 285.6 309.9 286.9 309.9C292 309.9 296.6 313.1 298.4 318L298.8 319.1L275.9 327.3L275.5 326.2C274.4 323.1 274.6 319.8 276 316.9C277.4 313.9 279.8 311.7 282.9 310.6ZM297.8 352.6C296.5 353.1 295.1 353.3 293.7 353.3C288.6 353.3 284 350.1 282.2 345.2L277.1 330.9L300 322.7L305.1 337C307.4 343.3 304.1 350.3 297.8 352.6Z" fill="white"/>
</svg>
