<svg xmlns="http://www.w3.org/2000/svg" width="500" height="530" viewBox="0 0 500 530">
  <g fill="none" fill-rule="evenodd">
    <rect width="500" height="530" fill="#FFFFFF" fill-opacity=".01"/>
    <g transform="translate(330 45)">
      <polygon fill="#BA323C" points="12 83.884 12 0 90.312 0"/>
      <polygon fill="#E24547" points="78.311 105.884 0 105.884 78.311 22"/>
      <path fill="#646464" d="M42.096,147.616 L41.264,146.8 C40.192,147.824 39.184,148.416 37.648,148.416 C35.184,148.416 33.312,146.384 33.312,143.776 C33.312,141.168 35.168,139.168 37.648,139.168 C39.168,139.168 40.224,139.808 41.168,140.704 L42.032,139.776 C40.912,138.72 39.696,138 37.664,138 C34.368,138 32,140.608 32,143.808 C32,147.04 34.384,149.584 37.616,149.584 C39.648,149.584 40.928,148.8 42.096,147.616 Z M49.968,145.856 C49.968,147.408 48.896,148.448 47.488,148.448 C46.032,148.448 45.2,147.488 45.2,145.952 L45.2,141.12 L43.968,141.12 L43.968,146.256 C43.968,148.224 45.136,149.568 47.136,149.568 C48.56,149.568 49.408,148.848 49.968,147.952 L49.968,149.392 L51.184,149.392 L51.184,141.12 L49.968,141.12 L49.968,145.856 Z M55.616,142.208 L58.24,142.208 L58.24,141.12 L55.616,141.12 L55.616,138.624 L54.384,138.624 L54.384,141.12 L53.232,141.12 L53.232,142.208 L54.384,142.208 L54.384,147.2 C54.384,148.88 55.392,149.536 56.72,149.536 C57.312,149.536 57.776,149.408 58.208,149.184 L58.208,148.128 C57.776,148.336 57.424,148.416 57.008,148.416 C56.176,148.416 55.616,148.048 55.616,147.04 L55.616,142.208 Z"/>
    </g>
    <g transform="translate(86 343)">
      <polygon fill="#E24547" points="78.312 103.656 0 103.656 0 0 55.254 0 78.312 20.775"/>
      <polygon fill="#BA323C" points="55 0 78.059 20.775 55 20.775"/>
      <path fill="#646464" d="M25.384,141.568 C25.384,144 23.368,145.248 20.984,145.248 L18.264,145.248 L18.264,149.2 L17,149.2 L17,138 L21.192,138 C23.72,138 25.384,139.344 25.384,141.568 Z M24.104,141.616 C24.104,140 22.904,139.168 21.096,139.168 L18.264,139.168 L18.264,144.096 L21.032,144.096 C22.888,144.096 24.104,143.104 24.104,141.616 Z M30.312,141.904 C29.336,141.904 28.568,142.16 27.8,142.512 L27.432,141.504 C28.344,141.088 29.24,140.816 30.44,140.816 C32.696,140.816 33.96,141.968 33.96,144.144 L33.96,149.2 L32.776,149.2 L32.776,147.952 C32.2,148.704 31.24,149.376 29.784,149.376 C28.248,149.376 26.696,148.512 26.696,146.784 C26.696,145.024 28.136,144.096 30.232,144.096 C31.288,144.096 32.04,144.24 32.776,144.448 L32.776,144.16 C32.776,142.672 31.864,141.904 30.312,141.904 Z M30.36,145.008 C28.808,145.008 27.944,145.68 27.944,146.736 C27.944,147.792 28.904,148.4 30.024,148.4 C31.544,148.4 32.792,147.472 32.792,146.16 L32.792,145.36 C32.184,145.184 31.368,145.008 30.36,145.008 Z M44.776,145.056 C44.776,147.776 42.824,149.376 40.824,149.376 C39.288,149.376 38.296,148.544 37.656,147.616 L37.656,151.76 L36.424,151.76 L36.424,140.928 L37.656,140.928 L37.656,142.592 C38.328,141.6 39.304,140.752 40.824,140.752 C42.808,140.752 44.776,142.32 44.776,145.056 Z M43.512,145.072 C43.512,143.104 42.168,141.856 40.6,141.856 C39.064,141.856 37.608,143.136 37.608,145.056 C37.608,146.992 39.064,148.272 40.6,148.272 C42.2,148.272 43.512,147.088 43.512,145.072 Z M47.624,145.52 C47.8,147.312 49.08,148.32 50.536,148.32 C51.672,148.32 52.472,147.856 53.144,147.152 L53.912,147.84 C53.08,148.768 52.072,149.392 50.504,149.392 C48.232,149.392 46.376,147.648 46.376,145.072 C46.376,142.672 48.056,140.752 50.344,140.752 C52.792,140.752 54.2,142.704 54.2,145.136 C54.2,145.248 54.2,145.376 54.184,145.52 L47.624,145.52 Z M47.624,144.608 L52.952,144.608 C52.824,143.104 51.96,141.792 50.312,141.792 C48.872,141.792 47.784,142.992 47.624,144.608 Z M57.432,145.904 C57.432,143.408 58.904,142.112 60.712,142.112 L60.808,142.112 L60.808,140.784 C59.24,140.72 58.04,141.712 57.432,143.088 L57.432,140.928 L56.2,140.928 L56.2,149.2 L57.432,149.2 L57.432,145.904 Z"/>
    </g>
    <g transform="translate(334 342)">
      <path fill="#E24547" fill-rule="nonzero" d="M0,107.655566 L0,0 L82.3121669,0 L82.3121669,107.655566 L0,107.655566 Z M4,103.655566 L78.3121669,103.655566 L78.3121669,4 L4,4 L4,103.655566 Z"/>
      <path fill="#646464" d="M25.048,139 L17,139 L17,150.2 L18.264,150.2 L18.264,145.32 L24.328,145.32 L24.328,144.168 L18.264,144.168 L18.264,140.168 L25.048,140.168 L25.048,139 Z M28.52,146.904 C28.52,144.408 29.992,143.112 31.8,143.112 L31.896,143.112 L31.896,141.784 C30.328,141.72 29.128,142.712 28.52,144.088 L28.52,141.928 L27.288,141.928 L27.288,150.2 L28.52,150.2 L28.52,146.904 Z M36.4576,142.904 C35.4816,142.904 34.7136,143.16 33.9456,143.512 L33.5776,142.504 C34.4896,142.088 35.3856,141.816 36.5856,141.816 C38.8416,141.816 40.1056,142.968 40.1056,145.144 L40.1056,150.2 L38.9216,150.2 L38.9216,148.952 C38.3456,149.704 37.3856,150.376 35.9296,150.376 C34.3936,150.376 32.8416,149.512 32.8416,147.784 C32.8416,146.024 34.2816,145.096 36.3776,145.096 C37.4336,145.096 38.1856,145.24 38.9216,145.448 L38.9216,145.16 C38.9216,143.672 38.0096,142.904 36.4576,142.904 Z M36.5056,146.008 C34.9536,146.008 34.0896,146.68 34.0896,147.736 C34.0896,148.792 35.0496,149.4 36.1696,149.4 C37.6896,149.4 38.9376,148.472 38.9376,147.16 L38.9376,146.36 C38.3296,146.184 37.5136,146.008 36.5056,146.008 Z M49.2896,143.4 C48.8416,142.472 47.9776,141.752 46.6336,141.752 C45.2416,141.752 44.5056,142.504 43.9616,143.32 L43.9616,141.928 L42.7296,141.928 L42.7296,150.2 L43.9616,150.2 L43.9616,145.48 C43.9616,143.96 44.9536,142.872 46.2656,142.872 C47.5776,142.872 48.3936,143.784 48.3936,145.336 L48.3936,150.2 L49.6096,150.2 L49.6096,145.432 C49.6096,143.8 50.6496,142.872 51.8976,142.872 C53.2416,142.872 54.0416,143.768 54.0416,145.368 L54.0416,150.2 L55.2736,150.2 L55.2736,145.08 C55.2736,143.032 54.1056,141.752 52.2016,141.752 C50.7616,141.752 49.8816,142.488 49.2896,143.4 Z M58.6816,146.52 C58.8576,148.312 60.1376,149.32 61.5936,149.32 C62.7296,149.32 63.5296,148.856 64.2016,148.152 L64.9696,148.84 C64.1376,149.768 63.1296,150.392 61.5616,150.392 C59.2896,150.392 57.4336,148.648 57.4336,146.072 C57.4336,143.672 59.1136,141.752 61.4016,141.752 C63.8496,141.752 65.2576,143.704 65.2576,146.136 C65.2576,146.248 65.2576,146.376 65.2416,146.52 L58.6816,146.52 Z M58.6816,145.608 L64.0096,145.608 C63.8816,144.104 63.0176,142.792 61.3696,142.792 C59.9296,142.792 58.8416,143.992 58.6816,145.608 Z"/>
    </g>
    <g transform="translate(77 42)">
      <path fill="#646464" d="M32.096,150.616 L31.264,149.8 C30.192,150.824 29.184,151.416 27.648,151.416 C25.184,151.416 23.312,149.384 23.312,146.776 C23.312,144.168 25.168,142.168 27.648,142.168 C29.168,142.168 30.224,142.808 31.168,143.704 L32.032,142.776 C30.912,141.72 29.696,141 27.664,141 C24.368,141 22,143.608 22,146.808 C22,150.04 24.384,152.584 27.616,152.584 C29.648,152.584 30.928,151.8 32.096,150.616 Z M39.968,148.856 C39.968,150.408 38.896,151.448 37.488,151.448 C36.032,151.448 35.2,150.488 35.2,148.952 L35.2,144.12 L33.968,144.12 L33.968,149.256 C33.968,151.224 35.136,152.568 37.136,152.568 C38.56,152.568 39.408,151.848 39.968,150.952 L39.968,152.392 L41.184,152.392 L41.184,144.12 L39.968,144.12 L39.968,148.856 Z M45.616,145.208 L48.24,145.208 L48.24,144.12 L45.616,144.12 L45.616,141.624 L44.384,141.624 L44.384,144.12 L43.232,144.12 L43.232,145.208 L44.384,145.208 L44.384,150.2 C44.384,151.88 45.392,152.536 46.72,152.536 C47.312,152.536 47.776,152.408 48.208,152.184 L48.208,151.128 C47.776,151.336 47.424,151.416 47.008,151.416 C46.176,151.416 45.616,151.048 45.616,150.04 L45.616,145.208 Z M58.3456,148.248 C58.3456,150.6 56.5056,152.584 54.0096,152.584 C51.5296,152.584 49.7216,150.632 49.7216,148.28 C49.7216,145.928 51.5456,143.944 54.0416,143.944 C56.5216,143.944 58.3456,145.896 58.3456,148.248 Z M57.0816,148.28 C57.0816,146.472 55.7536,145.032 54.0096,145.032 C52.2176,145.032 50.9856,146.456 50.9856,148.248 C50.9856,150.04 52.2976,151.48 54.0416,151.48 C55.8336,151.48 57.0816,150.056 57.0816,148.28 Z M66.4416,148.856 C66.4416,150.408 65.3696,151.448 63.9616,151.448 C62.5056,151.448 61.6736,150.488 61.6736,148.952 L61.6736,144.12 L60.4416,144.12 L60.4416,149.256 C60.4416,151.224 61.6096,152.568 63.6096,152.568 C65.0336,152.568 65.8816,151.848 66.4416,150.952 L66.4416,152.392 L67.6576,152.392 L67.6576,144.12 L66.4416,144.12 L66.4416,148.856 Z M72.0896,145.208 L74.7136,145.208 L74.7136,144.12 L72.0896,144.12 L72.0896,141.624 L70.8576,141.624 L70.8576,144.12 L69.7056,144.12 L69.7056,145.208 L70.8576,145.208 L70.8576,150.2 C70.8576,151.88 71.8656,152.536 73.1936,152.536 C73.7856,152.536 74.2496,152.408 74.6816,152.184 L74.6816,151.128 C74.2496,151.336 73.8976,151.416 73.4816,151.416 C72.6496,151.416 72.0896,151.048 72.0896,150.04 L72.0896,145.208 Z"/>
      <polygon fill="#BA323C" points="26.705 40.519 78.312 40.519 78.312 0 0 0 0 103.654 26.705 103.654"/>
      <polygon fill="#E24547" points="32 122.029 96.499 122.029 96.499 46 32 46"/>
    </g>
  </g>
</svg>
