<?xml version="1.0" encoding="utf-8"?>
<!-- Generator: Adobe Illustrator 21.0.2, SVG Export Plug-In . SVG Version: 6.00 Build 0)  -->
<svg version="1.1" xmlns="http://www.w3.org/2000/svg" xmlns:xlink="http://www.w3.org/1999/xlink" x="0px" y="0px"
	 viewBox="0 0 240 128" enable-background="new 0 0 240 128" xml:space="preserve">
<g>
	<g>
		<path fill="#FFFFFF" d="M120,8c38.5,0,66.2,14.1,82.6,25.8c17.8,12.7,26.9,25.8,29.1,30.2c-2.2,4.4-11.3,17.4-29.1,30.2
			C186.1,106,158.4,120,120,120s-66.1-14-82.5-25.8C19.6,81.4,10.5,68.4,8.3,64c2.2-4.4,11.3-17.4,29.1-30.2C53.8,22,81.5,8,120,8
			 M120,114.5c29.3,0,53.2-22.6,53.2-50.5c0-27.8-23.9-50.5-53.2-50.5S66.8,36.1,66.8,64C66.8,91.8,90.7,114.5,120,114.5 M120,0
			C40.5,0,0,56.5,0,64c0,7.6,40.7,64,120,64s120-56.4,120-64C240,56.5,199.5,0,120,0L120,0z M120,106.5c-24.9,0-45.2-19-45.2-42.5
			S95,21.5,120,21.5c24.9,0,45.2,19,45.2,42.5S144.9,106.5,120,106.5L120,106.5z"/>
	</g>
	<g>
		<path fill="#FFFFFF" d="M120,33.1C101.9,33.1,87.2,47,87.2,64s14.7,30.9,32.8,30.9s32.8-13.8,32.8-30.9S138.1,33.1,120,33.1z
			 M117.6,45.6c-9.1,1-16.4,7.7-17.5,16.1L94,62c1-11.9,11-21.4,23.5-22.5C117.6,39.6,117.6,45.6,117.6,45.6z"/>
	</g>
</g>
</svg>
