<svg xmlns="http://www.w3.org/2000/svg" width="140" height="7" viewBox="0 0 140 7">
  <path fill="none" stroke="#D2D2D7" d="M659.067421,1509.58981 L661.497216,1507.06765 L661.497216,1507.06765 C663.029909,1505.47669 665.562128,1505.42946 667.153086,1506.96215 C667.189515,1506.99724 667.225275,1507.03303 667.260347,1507.06948 L669.178929,1509.06353 L669.178929,1509.06353 C670.710612,1510.65546 673.242801,1510.7043 674.834732,1509.17262 C674.841359,1509.16624 674.847964,1509.15984 674.854547,1509.15342 L677.266448,1506.80055 L677.266448,1506.80055 C678.820218,1505.28481 681.299318,1505.28489 682.852986,1506.80074 L685.394541,1509.28043 L685.394541,1509.28043 C686.949957,1510.79798 689.432444,1510.79611 690.985576,1509.27622 L693.503016,1506.81266 L693.503016,1506.81266 C695.057541,1505.2914 697.54273,1505.29109 699.097637,1506.81196 L701.375273,1509.03973 L701.375273,1509.03973 C702.95104,1510.581 705.476707,1510.55703 707.02294,1508.98613 L709.007064,1506.97036 L709.007064,1506.97036 C710.556754,1505.39596 713.089334,1505.37592 714.663741,1506.92561 C714.678326,1506.93997 714.692801,1506.95443 714.707164,1506.96901 L717.139336,1509.43763 L717.139336,1509.43763 C718.689772,1511.0113 721.222362,1511.03014 722.796034,1509.4797 C722.806445,1509.46945 722.8168,1509.45913 722.827098,1509.44876 L725.324031,1506.93417 L725.324031,1506.93417 C726.880613,1505.36657 729.413257,1505.35765 730.98085,1506.91423 C730.98757,1506.9209 730.994267,1506.9276 731.00094,1506.93432 L733.34287,1509.29307 L733.34287,1509.29307 C734.899367,1510.86075 737.432011,1510.86981 738.999688,1509.31332 C739.020135,1509.29302 739.040362,1509.27249 739.060366,1509.25176 L741.17474,1507.05972 L741.17474,1507.05972 C742.708419,1505.46972 745.240667,1505.42405 746.830675,1506.95773 C746.865112,1506.99095 746.89895,1507.02478 746.932174,1507.05921 L749.185729,1509.3947 L749.185825,1509.39461 C750.71975,1510.98431 753.251933,1511.02956 754.841682,1509.49569 L757.686262,1506.75127 L757.686262,1506.75127 C759.234296,1505.25765 761.686396,1505.2558 763.236685,1506.74708 L765.506348,1508.93036 L765.506348,1508.93036 C767.065356,1510.43003 769.534153,1510.41854 771.079133,1508.90442 L773.204753,1506.82126 L773.204753,1506.82126 C774.760827,1505.29627 777.251181,1505.29712 778.80621,1506.82318 L781.408157,1509.37665 L781.408197,1509.37661 C782.984898,1510.92393 785.517414,1510.90013 787.064761,1509.32346 L789.359543,1506.98526 L789.359543,1506.98526 C790.906906,1505.40856 793.439454,1505.38479 795.016148,1506.93215 C795.034257,1506.94992 795.052196,1506.96787 795.069963,1506.98598 L797.25028,1509.20875" transform="translate(-658 -1505)"/>
</svg>
