<svg xmlns="http://www.w3.org/2000/svg" width="250" height="250" viewBox="0 0 250 250" xmlns:xlink="http://www.w3.org/1999/xlink">
  <defs>
    <path id="a" d="M41,82.9934421 C41,80.2356402 43.247861,78 46.0050926,78 L203.994907,78 C206.759144,78 209,80.2372425 209,82.9934421 L209,190 L41,190 L41,82.9934421 Z"/>
    <path id="b" d="M21,190.004882 C21,188.897616 21.9046162,188 22.9919479,188 L227.008052,188 C228.108175,188 229,188.8939 229,190.004882 L229,190.995118 C229,192.102384 228.134907,193.248523 227.079636,193.55168 L217.975257,196.167177 L31.1601562,196 L22.9110477,193.564277 C21.8556052,193.252635 21,192.1061 21,190.995118 L21,190.004882 Z"/>
    <rect id="c" width="158" height="100" x="46" y="85" rx="2"/>
    <path id="d" d="M24.7252186,0.0287272721 C29.2508408,0.0287272721 31.9833333,2.8792732 31.9833333,6.5393821 L31.9833333,73.128926 C31.9833333,78.081466 26.9702078,78.7790015 24.7925105,78.7790015"/>
    <path id="e" d="M0,5.7476356 C0,3.63101309 1.56359261,1.79576767 3.49119975,1.64859048 L24.5215923,0.042872231 C26.4497287,-0.104345362 28.0127921,1.49247336 28.0127921,3.60794611 L28.0127921,75.2475549 C28.0127921,77.3637084 26.4517193,78.9413694 24.5215923,78.7709668 L3.49119975,76.9142837 C1.56306337,76.7440568 0,74.8922565 0,72.7735765 L0,5.7476356 Z"/>
    <ellipse id="f" cx="18.773" cy="65.115" rx="2.773" ry="3.352"/>
    <path id="g" d="M62.0147503,175.649145 C61.8712884,173.99601 62.7899658,173.498804 64.0883454,174.556255 L98.1158272,202.269572 C99.4045041,203.319121 99.1238464,204.384718 97.4807518,204.650978 L85.5146896,206.59006 L91.4289826,215.867611 C92.3210787,217.267012 91.9036314,219.122412 90.5101876,220.003167 L86.1221811,222.776698 C84.7226485,223.661302 82.8742676,223.232663 82.0001452,221.82964 L76.1433358,212.429083 L68.1792335,221.028344 C67.0549735,222.242267 66.027327,221.886735 65.8838201,220.23308 L62.0147503,175.649145 Z"/>
  </defs>
  <g fill="none" fill-rule="evenodd">
    <path fill="#3CC8A0" fill-opacity=".1" d="M143.637771,74.7389338 C105.539225,52.5194749 104.239333,-6.10090999 77.4112082,14.2076838 C50.5830832,34.5162775 50.7393332,79.2389338 36.8565207,90.3717463 C22.9737082,101.504559 -7.26066677,138.035809 22.9737082,159.168621 C53.2080832,180.301434 63.2549582,230.848309 86.9658957,232.246746 C110.676833,233.645184 100.661208,200.067059 143.637771,212.082684 C186.614333,224.098309 197.395583,234.387371 205.997146,211.168621 C214.598708,187.949871 197.036208,156.371746 211.536208,157.770184 C226.036208,159.168621 249.833083,130.488934 230.684646,103.598309 C211.536208,76.7076838 182.175943,97.2147874 143.637771,74.7389338 Z"/>
    <ellipse cx="114" cy="204" fill="#3CC8A0" fill-opacity=".1" rx="76" ry="2"/>
    <ellipse cx="200" cy="221" fill="#3CC8A0" fill-opacity=".1" transform="rotate(8 200 221)" rx="15" ry="2"/>
    <use fill="#FFFFFF" xlink:href="#a"/>
    <path stroke="#3CC8A0" stroke-width="2" d="M208,189 L42,189 L42,82.9934421 C42,80.7910756 43.7969899,79 46.0050926,79 L203.994907,79 C206.206776,79 208,80.7894465 208,82.9934421 L208,189 Z"/>
    <use fill="#FFFFFF" xlink:href="#b"/>
    <path stroke="#3CC8A0" stroke-width="2" d="M217.834903,195.167051 L31.305145,195.000129 L23.194232,192.605212 C22.5633476,192.41893 22,191.662338 22,190.995118 L22,190.004882 C22,189.45387 22.452942,189 22.9919479,189 L227.008052,189 C227.556001,189 228,189.446309 228,190.004882 L228,190.995118 C228,191.654758 227.4318,192.410064 226.803525,192.590554 L217.834903,195.167051 Z"/>
    <use fill="#3CC8A0" fill-opacity=".1" xlink:href="#c"/>
    <rect width="156" height="98" x="47" y="86" stroke="#3CC8A0" stroke-width="2" rx="2"/>
    <rect width="30" height="8" x="53" y="92" fill="#3CC8A0" fill-opacity=".2"/>
    <rect width="144" height="30" x="53" y="107" fill="#3CC8A0" fill-opacity=".2"/>
    <rect width="74" height="8" x="88" y="144" fill="#3CC8A0" fill-opacity=".2"/>
    <rect width="43" height="5" x="104" y="156" fill="#3CC8A0" fill-opacity=".2"/>
    <g fill="#3CC8A0" fill-opacity=".2" transform="translate(64 171)">
      <rect width="32" height="14"/>
      <rect width="32" height="14" x="45"/>
      <rect width="32" height="14" x="90"/>
    </g>
    <rect width="20" height="5" x="177" y="95" fill="#3CC8A0" fill-opacity=".2"/>
    <rect width="20" height="5" x="152" y="95" fill="#3CC8A0" fill-opacity=".2"/>
    <g transform="translate(186 132)">
      <use fill="#FFFFFF" xlink:href="#d"/>
      <path stroke="#3CC8A0" stroke-width="2" d="M25.72612,1.08312084 C28.9751187,1.44611325 30.9833333,3.59325274 30.9833333,6.5393821 L30.9833333,73.128926 C30.9833333,76.0810047 28.8155021,77.4940584 25.7916229,77.7397681 L25.72612,1.08312084 Z"/>
      <g fill-rule="nonzero">
        <use fill="#FFFFFF" fill-rule="evenodd" xlink:href="#e"/>
        <path stroke="#3CC8A0" stroke-width="2" d="M1,5.7476356 C1,4.13669035 2.17978547,2.75163054 3.56733043,2.64568833 L24.597723,1.03997008 C25.9216125,0.938888106 27.0127921,2.05330408 27.0127921,3.60794611 L27.0127921,75.2475549 C27.0127921,76.7988743 25.9306427,77.8914762 24.609536,77.7748413 L3.57914339,75.9181582 C2.18497136,75.7950727 1,74.3901301 1,72.7735765 L1,5.7476356 Z"/>
      </g>
      <path fill="#3CC8A0" fill-opacity=".1" fill-rule="nonzero" stroke="#3CC8A0" stroke-width="2" d="M4.36265542,9.0034293 C4.36265542,8.4596159 4.65437066,8.00330861 5.01313007,7.98429618 L22.7692563,6.79700827 C23.1285036,6.77796999 23.4186039,7.20225854 23.4172052,7.7479419 L23.2593758,69.8159081 C23.2579808,70.3601325 22.9638592,70.7822166 22.606469,70.7589221 L5.01303636,69.3658872 C4.65384089,69.342475 4.36265542,68.8824426 4.36265542,68.3388344 L4.36265542,9.0034293 Z"/>
      <polygon fill="#3CC8A0" fill-opacity=".2" points="7.253 11.806 20.693 11.012 20.693 26.888 7.253 27.055"/>
      <polygon fill="#3CC8A0" fill-opacity=".2" points="7.253 48.433 20.693 49.076 20.693 64.712 7.253 63.922"/>
      <polygon fill="#3CC8A0" fill-opacity=".2" points="7.253 28.324 20.693 28.248 20.693 34.548 7.253 34.237"/>
      <polygon fill="#3CC8A0" fill-opacity=".2" points="6.507 40.011 21.653 40.458 21.653 43.406 6.507 43.033"/>
      <polygon fill="#3CC8A0" fill-opacity=".2" points="8.533 36.899 19.627 37.106 19.627 39.815 8.533 39.442"/>
      <polygon fill="#3CC8A0" fill-opacity=".2" points="12.369 44.072 19.627 44.288 19.627 46.203 12.369 45.869"/>
      <polygon fill="#3CC8A0" fill-opacity=".2" points="7.253 65.115 20.693 65.997 20.693 70.621 7.253 69.352"/>
      <g>
        <use fill="#FFFFFF" xlink:href="#f"/>
        <use fill="#3CC8A0" fill-opacity=".5" xlink:href="#f"/>
      </g>
    </g>
    <path fill="#3CC8A0" fill-rule="nonzero" d="M148,42 C145.238576,42 143,39.7614237 143,37 C143,34.2385763 145.238576,32 148,32 C150.761424,32 153,34.2385763 153,37 L151,37 C151,35.3431458 149.656854,34 148,34 C146.343146,34 145,35.3431458 145,37 C145,38.6568542 146.343146,40 148,40 L148,42 Z" opacity=".5"/>
    <path fill="#3CC8A0" fill-rule="nonzero" d="M15.330127,91.160254 C12.9386639,89.7795422 12.1192881,86.7215901 13.5,84.330127 C14.8807119,81.9386639 17.9386639,81.1192881 20.330127,82.5 L19.330127,84.2320508 C17.8952491,83.4036237 16.0604779,83.8952491 15.2320508,85.330127 C14.4036237,86.7650049 14.8952491,88.5997761 16.330127,89.4282032 C17.7650049,90.2566304 19.5997761,89.7650049 20.4282032,88.330127 L22.160254,89.330127 C20.7795422,91.7215901 17.7215901,92.5409659 15.330127,91.160254 Z" opacity=".75"/>
    <path fill="#3CC8A0" fill-rule="nonzero" d="M147.757722,243.176169 C145.255022,244.343197 142.280119,243.260421 141.113091,240.757722 C139.946063,238.255022 141.028839,235.280119 143.531539,234.113091 L144.376775,235.925707 C142.875156,236.625924 142.22549,238.410865 142.925707,239.912485 C143.625924,241.414105 145.410865,242.06377 146.912485,241.363554 C148.414105,240.663337 149.06377,238.878395 148.363554,237.376775 L150.176169,236.531539 C151.343197,239.034239 150.260421,242.009141 147.757722,243.176169 Z" opacity=".5"/>
    <path fill="#3CC8A0" fill-rule="nonzero" d="M239.884871,142.294227 C238.421539,144.636047 235.336854,145.348202 232.995034,143.884871 C230.653214,142.421539 229.941058,139.336854 231.40439,136.995034 L233.100486,138.054872 C232.222487,139.459965 232.64978,141.310776 234.054872,142.188775 C235.459965,143.066774 237.310776,142.63948 238.188775,141.234388 C239.066774,139.829296 238.63948,137.978485 237.234388,137.100486 L238.294227,135.40439 C240.636047,136.867721 241.348202,139.952406 239.884871,142.294227 Z" opacity=".75"/>
    <path stroke="#3CC8A0" stroke-width="2" d="M194.04891,57.4786301 C194.04891,57.4786301 193.113979,52.9721505 199.419391,50" opacity=".25" stroke-linecap="round"/>
    <path stroke="#3CC8A0" stroke-width="2" d="M43.0489096,223.47863 C43.0489096,223.47863 47.3847656,220.246094 48.4193906,216" opacity=".5" stroke-linecap="round"/>
    <circle cx="64.5" cy="56.5" r="2.5" fill="#3CC8A0" opacity=".25"/>
    <circle cx="204.5" cy="234.5" r="2.5" fill="#3CC8A0" opacity=".5"/>
    <g>
      <use fill="#FFFFFF" xlink:href="#g"/>
      <use fill="#3CC8A0" fill-opacity=".2" xlink:href="#g"/>
      <path stroke="#FFFFFF" stroke-width="2" d="M63.0110059,175.562688 C62.9434746,174.784514 62.8476177,174.835452 63.4568474,175.331633 L97.4843293,203.04495 C98.1057957,203.551096 98.1098073,203.535996 97.32079,203.663855 L85.3547278,205.602937 L83.8544828,205.846049 L84.6714564,207.127608 L90.5857494,216.405159 C91.1789017,217.335617 90.9031903,218.571751 89.9758973,219.157866 L85.5878909,221.931397 C84.659502,222.518205 83.4309803,222.23513 82.848895,221.300845 L76.9920856,211.900289 L76.2995493,210.788723 L75.4096527,211.749592 L67.4455504,220.348853 C66.9121652,220.924777 66.9487032,220.93743 66.8800757,220.146623 L63.0110059,175.562688 L63.0110059,175.562688 Z"/>
      <path stroke="#3CC8A0" stroke-width="2" d="M75.9871223,214.069443 L81.1513955,222.358435 C82.3195459,224.233392 84.7889685,224.802393 86.6564714,223.621999 L91.0444778,220.848468 C92.9082783,219.670414 93.4605793,217.194208 92.2722158,215.330063 L87.1748964,207.334071 L97.6407136,205.638102 C100.135347,205.23385 100.70521,203.088773 98.7473252,201.494195 L64.7198433,173.780878 C62.739016,172.167614 60.7983539,173.198883 61.0184947,175.735602 L61.0184947,175.735602 L64.8875644,220.319537 C65.1059197,222.83568 67.1975379,223.560021 68.9129166,221.707836 L75.9871223,214.069443 Z"/>
    </g>
    <rect width="20" height="5" x="127" y="95" fill="#3CC8A0" fill-opacity=".2"/>
  </g>
</svg>
