<?xml version="1.0" encoding="utf-8"?>
<!-- Generator: Adobe Illustrator 21.0.2, SVG Export Plug-In . SVG Version: 6.00 Build 0)  -->
<svg version="1.1" xmlns="http://www.w3.org/2000/svg" xmlns:xlink="http://www.w3.org/1999/xlink" x="0px" y="0px"
	 viewBox="0 0 650.04 236" enable-background="new 0 0 650.04 236" xml:space="preserve">
<g id="isEverything">
	<path d="M477.385,119.803c-3.229,0-6.107,1.888-8.633,5.664c-2.083-1.693-4.831-2.539-8.242-2.539
		c-5.573,0-10.059,1.842-13.457,5.527c-3.398,3.685-5.098,7.78-5.098,12.285c0,4.557,1.862,7.708,5.586,9.453
		c-2.943,1.51-4.941,2.839-5.996,3.984c-1.055,1.146-1.582,2.539-1.582,4.18c0,2.422,1.276,4.258,3.828,5.508
		c-4.036,0.781-7.22,2.181-9.551,4.199c-2.331,2.018-3.496,4.46-3.496,7.324c0,6.953,5.82,10.43,17.461,10.43
		c6.953,0,12.305-1.387,16.055-4.16c3.75-2.773,5.625-6.647,5.625-11.621c0-6.094-4.141-9.583-12.422-10.469l-7.656-0.82
		c-2.734-0.26-4.102-1.055-4.102-2.383c0-1.823,1.901-3.503,5.703-5.039c0.469,0.104,1.315,0.156,2.539,0.156
		c5.495,0,9.922-1.868,13.281-5.605c3.359-3.737,5.039-7.845,5.039-12.324c0-2.448-0.586-4.505-1.758-6.172
		c1.589-1.224,2.904-1.836,3.945-1.836c1.484,0,2.227,0.964,2.227,2.891c3.151,0,4.727-1.654,4.727-4.961
		C481.408,121.027,480.067,119.803,477.385,119.803z M447.697,165.623l7.773,0.742c4.974,0.443,7.461,2.409,7.461,5.898
		c0,2.943-1.23,5.28-3.691,7.012c-2.461,1.732-6.035,2.598-10.723,2.598c-7.526,0-11.289-2.318-11.289-6.953
		c0-2.161,0.69-3.984,2.07-5.469c1.38-1.484,3.027-2.493,4.941-3.027C446.154,165.89,447.307,165.623,447.697,165.623z
		 M462.209,143.104c-1.862,3.034-4.316,4.551-7.363,4.551c-3.698,0-5.547-2.188-5.547-6.562c0-3.542,0.918-6.842,2.754-9.902
		c1.836-3.06,4.316-4.59,7.441-4.59c3.672,0,5.508,2.188,5.508,6.562C465.002,136.756,464.071,140.07,462.209,143.104z"/>
	<path d="M396.603,166.6h-7.461l6.719-32.148c0.313-1.484,0.469-2.682,0.469-3.594c0-2.526-1.862-3.789-5.586-3.789h-0.625
		l0.703-3.359h14.805l-2.148,10.078h0.781c4.323-7.188,9.18-10.781,14.57-10.781c5.703,0,8.555,2.956,8.555,8.867
		c0,1.693-0.482,4.622-1.445,8.789l-2.07,9.453c-0.703,3.203-1.055,6.003-1.055,8.398c0,2.552,0.938,3.828,2.812,3.828
		c1.536,0,3.242-0.612,5.117-1.836l1.445,2.344c-3.49,3.021-6.745,4.531-9.766,4.531c-2.214,0-3.978-0.716-5.293-2.148
		c-1.315-1.432-1.973-3.372-1.973-5.82s0.508-6.055,1.523-10.82l1.836-8.281c0.781-3.229,1.172-5.716,1.172-7.461
		c0-3.151-1.224-4.727-3.672-4.727c-2.969,0-6.009,2.005-9.121,6.016s-5.111,8.008-5.996,11.992L396.603,166.6z"/>
	<g>
		<path d="M383.049,160.272c-2.292,1.38-4.206,2.07-5.742,2.07c-1.771,0-2.656-1.354-2.656-4.062c0-2.083,0.404-5.039,1.211-8.867
			l5.43-25.703h-14.336l-0.703,3.359h1.055c3.255,0,4.883,1.12,4.883,3.359c0,0.547-0.091,1.25-0.273,2.109l-3.086,14.688
			c-1.198,5.99-1.797,10.182-1.797,12.578c0,2.188,0.612,3.997,1.836,5.43c1.224,1.432,2.826,2.148,4.805,2.148
			c3.516,0,7.122-1.589,10.82-4.766L383.049,160.272z"/>
		<path d="M379.221,115.702c1.406,0,2.559-0.475,3.457-1.426c0.898-0.951,1.348-2.337,1.348-4.16c0-2.943-1.497-4.414-4.492-4.414
			c-1.458,0-2.624,0.514-3.496,1.543c-0.872,1.029-1.309,2.389-1.309,4.082C374.728,114.243,376.226,115.702,379.221,115.702z"/>
	</g>
	<path d="M331.76,133.788c4.427-7.188,9.362-10.781,14.805-10.781c5.703,0,8.555,2.956,8.555,8.867c0,1.693-0.482,4.622-1.445,8.789
		l-2.07,9.453c-0.703,3.203-1.055,6.003-1.055,8.398c0,2.552,0.937,3.828,2.812,3.828c1.536,0,3.242-0.612,5.117-1.836l1.445,2.344
		c-3.49,3.021-6.745,4.531-9.766,4.531c-2.214,0-3.978-0.716-5.293-2.148c-1.315-1.432-1.973-3.372-1.973-5.82
		s0.508-6.055,1.523-10.82l1.836-8.281c0.781-3.229,1.172-5.716,1.172-7.461c0-3.151-1.224-4.727-3.672-4.727
		c-2.969,0-6.022,2.025-9.16,6.074c-3.138,4.049-5.124,8.027-5.957,11.934l-4.297,20.469h-7.461l10.391-49.453
		c0.495-2.344,0.742-3.75,0.742-4.219c0-2.5-1.875-3.75-5.625-3.75h-0.625l0.703-3.359h14.727l-3.125,14.688
		c-0.938,4.375-1.992,8.802-3.164,13.281H331.76z"/>
	<path d="M307.971,160.584l1.367,2.969c-3.594,2.552-7.188,3.828-10.781,3.828c-5.807,0-8.711-3.112-8.711-9.336
		c0-2.005,0.26-4.245,0.781-6.719l4.883-23.047h-6.094l0.742-3.203c5.208,0,9.284-3.737,12.227-11.211h3.672l-2.07,9.844h9.688
		l-0.977,4.57h-9.688l-4.844,22.812c-0.651,3.073-0.977,5.365-0.977,6.875c0,2.917,1.419,4.375,4.258,4.375
		C303.609,162.342,305.783,161.756,307.971,160.584z"/>
	<path d="M248.088,131.327c-0.469-1.563-1.107-2.663-1.914-3.301c-0.807-0.638-2.005-0.957-3.594-0.957h-0.82l0.625-3.359h11.68
		l6.25,21.602c1.927,6.693,3.047,11.523,3.359,14.492h0.234c7.214-10.964,10.82-19.818,10.82-26.562
		c0-2.891-1.315-4.336-3.945-4.336c0-1.797,0.521-3.229,1.562-4.297c1.042-1.068,2.266-1.602,3.672-1.602
		c3.62,0,5.43,2.24,5.43,6.719c0,6.432-3.594,15.475-10.781,27.129c-7.188,11.654-12.949,19.395-17.285,23.223
		c-4.336,3.828-10.046,5.742-17.129,5.742c-2.812,0-5.326-0.482-7.539-1.445l1.211-4.023c1.875,0.599,3.958,0.898,6.25,0.898
		c7.63,0,15.117-4.857,22.461-14.57L248.088,131.327z"/>
	<path d="M230.471,134.53c0-4.219-1.068-6.328-3.203-6.328c-2.474,0-5.098,2.435-7.871,7.305c-2.773,4.87-4.824,10.378-6.152,16.523
		l-3.008,14.57h-7.461l6.719-32.148c0.312-1.484,0.469-2.682,0.469-3.594c0-2.526-2.122-3.789-6.367-3.789h-0.664l0.742-3.359
		h14.141l-1.68,11.523h0.82c2.135-4.766,4.245-8.008,6.328-9.727c2.083-1.719,4.505-2.578,7.266-2.578
		c4.375,0,6.562,1.836,6.562,5.508C237.111,132.498,234.898,134.53,230.471,134.53z"/>
	<path d="M173.166,148.202h1.367c6.484,0,11.973-1.602,16.465-4.805c4.492-3.203,6.738-6.966,6.738-11.289
		c0-2.891-0.931-5.143-2.793-6.758c-1.862-1.615-4.486-2.422-7.871-2.422c-6.875,0-12.565,2.91-17.07,8.73
		c-4.505,5.82-6.758,12.22-6.758,19.199c0,5.13,1.432,9.167,4.297,12.109c2.865,2.943,6.628,4.414,11.289,4.414
		c4.219,0,7.585-0.931,10.098-2.793c2.513-1.862,3.769-3.861,3.769-5.996c0-0.99-0.273-1.654-0.82-1.992
		c-3.125,3.828-6.966,5.742-11.523,5.742c-5.859,0-8.789-3.62-8.789-10.859c0-1.51,0.052-2.63,0.156-3.359
		C172.215,148.176,172.697,148.202,173.166,148.202z M177.619,131.62c2.24-3.242,4.648-4.863,7.227-4.863
		c3.099,0,4.648,1.784,4.648,5.352c0,3.646-1.53,6.615-4.59,8.906c-3.06,2.292-6.947,3.438-11.66,3.438h-0.781
		C173.661,139.139,175.38,134.862,177.619,131.62z"/>
	<path d="M124.455,131.327c-0.443-2.839-2.292-4.258-5.547-4.258h-0.781l0.625-3.359h11.992l3.711,23.672
		c0.938,6.042,1.549,10.768,1.836,14.18h0.234c3.984-3.828,7.435-8.301,10.352-13.418c2.917-5.117,4.375-9.225,4.375-12.324
		c0-1.875-0.456-3.359-1.367-4.453s-2.109-1.641-3.594-1.641c0-1.927,0.521-3.477,1.562-4.648c1.042-1.172,2.331-1.758,3.867-1.758
		c3.62,0,5.43,2.474,5.43,7.422c0,4.844-1.842,10.514-5.527,17.012s-8.483,12.754-14.395,18.77l-7.188,0.781L124.455,131.327z"/>
	<path d="M90.666,148.202h1.367c6.484,0,11.973-1.602,16.465-4.805c4.492-3.203,6.738-6.966,6.738-11.289
		c0-2.891-0.931-5.143-2.793-6.758c-1.862-1.615-4.486-2.422-7.871-2.422c-6.875,0-12.565,2.91-17.07,8.73
		c-4.505,5.82-6.758,12.22-6.758,19.199c0,5.13,1.432,9.167,4.297,12.109c2.865,2.943,6.628,4.414,11.289,4.414
		c4.219,0,7.585-0.931,10.098-2.793c2.513-1.862,3.769-3.861,3.769-5.996c0-0.99-0.273-1.654-0.82-1.992
		c-3.125,3.828-6.966,5.742-11.523,5.742c-5.859,0-8.789-3.62-8.789-10.859c0-1.51,0.052-2.63,0.156-3.359
		C89.715,148.176,90.197,148.202,90.666,148.202z M95.119,131.62c2.24-3.242,4.648-4.863,7.227-4.863
		c3.099,0,4.648,1.784,4.648,5.352c0,3.646-1.53,6.615-4.59,8.906c-3.06,2.292-6.947,3.438-11.66,3.438h-0.781
		C91.161,139.139,92.88,134.862,95.119,131.62z"/>
	<path d="M48.361,135.545c0-2.682-0.632-4.831-1.895-6.445c-1.263-1.615-3.027-2.422-5.293-2.422c-2.396,0-4.29,0.645-5.684,1.934
		c-1.393,1.289-2.09,2.936-2.09,4.941c0,1.771,0.664,3.281,1.992,4.531s3.385,2.487,6.172,3.711
		c6.406,2.865,9.609,7.005,9.609,12.422c0,3.932-1.51,7.109-4.531,9.531c-3.021,2.422-7.031,3.633-12.031,3.633
		c-4.036,0-7.246-0.814-9.629-2.441c-2.383-1.628-3.574-3.822-3.574-6.582c0-1.719,0.475-3.027,1.426-3.926
		c0.951-0.898,2.155-1.348,3.613-1.348c0,3.307,0.801,5.879,2.402,7.715c1.602,1.836,3.848,2.754,6.738,2.754
		c5.755,0,8.633-2.474,8.633-7.422c0-1.901-0.612-3.509-1.836-4.824c-1.224-1.315-3.307-2.65-6.25-4.004
		c-3.828-1.823-6.4-3.704-7.715-5.645c-1.315-1.94-1.973-4.186-1.973-6.738c0-3.49,1.426-6.348,4.277-8.574s6.569-3.34,11.152-3.34
		c3.932,0,6.999,0.729,9.199,2.188c2.201,1.458,3.301,3.255,3.301,5.391C54.377,133.892,52.372,135.545,48.361,135.545z"/>
	<g>
		<path d="M16.838,160.272c-2.292,1.38-4.206,2.07-5.742,2.07c-1.771,0-2.656-1.354-2.656-4.062c0-2.083,0.404-5.039,1.211-8.867
			l5.43-25.703H0.744l-0.703,3.359h1.055c3.255,0,4.883,1.12,4.883,3.359c0,0.547-0.091,1.25-0.273,2.109l-3.086,14.688
			c-1.198,5.99-1.797,10.182-1.797,12.578c0,2.188,0.612,3.997,1.836,5.43c1.224,1.432,2.826,2.148,4.805,2.148
			c3.516,0,7.122-1.589,10.82-4.766L16.838,160.272z"/>
		<path d="M13.01,115.702c1.406,0,2.559-0.475,3.457-1.426c0.898-0.951,1.348-2.337,1.348-4.16c0-2.943-1.497-4.414-4.492-4.414
			c-1.458,0-2.624,0.514-3.496,1.543c-0.872,1.029-1.309,2.389-1.309,4.082C8.518,114.243,10.015,115.702,13.01,115.702z"/>
	</g>
</g>
<g id="interaction">
	<path d="M650.04,87.6H631.8V51.72c0-8.64-4.08-13.08-11.04-13.08s-11.4,4.44-11.4,13.08V87.6h-18.24V23.28h18.24v9.12
		c4.2-5.4,9.6-10.32,18.84-10.32c13.8,0,21.84,9.12,21.84,23.88V87.6z"/>
	<path d="M543.24,22.08c-20.04,0-34.92,15-34.92,33.48v0.24c0,18.48,14.76,33.24,34.68,33.24c20.04,0,34.92-15,34.92-33.48v-0.24
		C577.92,36.84,563.16,22.08,543.24,22.08z M559.92,55.8c0,9.48-6.24,17.52-16.68,17.52c-10.08,0-16.92-8.28-16.92-17.76v-0.24
		c0-9.48,6.24-17.52,16.68-17.52c10.08,0,16.92,8.28,16.92,17.76V55.8z"/>
	<g>
		<rect x="476.04" y="23.28" width="18.24" height="64.32"/>
		<rect x="475.56" width="19.2" height="16.2"/>
	</g>
	<path d="M461.52,84.96c-3.84,2.28-8.28,3.72-14.4,3.72c-11.16,0-18.72-4.44-18.72-19.32V38.88h-7.68v-15.6h7.68V6.84h18.24v16.44
		h15.12v15.6h-15.12v27.48c0,4.2,1.8,6.24,5.88,6.24c3.36,0,6.36-0.84,9-2.28V84.96z"/>
	<path d="M413.52,77.28c-6.24,6.84-13.44,11.76-26.28,11.76c-19.32,0-33.48-14.88-33.48-33.24v-0.24
		c0-18.36,14.04-33.48,33.72-33.48c12.12,0,19.68,4.08,25.68,10.8l-11.16,12c-4.08-4.32-8.16-7.08-14.64-7.08
		c-9.12,0-15.6,8.04-15.6,17.52v0.24c0,9.84,6.36,17.76,16.32,17.76c6.12,0,10.32-2.64,14.76-6.84L413.52,77.28z"/>
	<path d="M312.48,22.56c-10.92,0-17.88,2.04-24.96,5.16l4.56,13.92c5.88-2.16,10.8-3.48,17.76-3.48c9.12,0,13.8,4.2,13.8,11.76V51
		c-4.56-1.56-9.24-2.64-15.72-2.64c-15.24,0-25.92,6.48-25.92,20.52v0.24c0,12.72,9.96,19.68,22.08,19.68c8.88,0,15-3.24,19.44-8.16
		v6.96h17.64V50.28C341.16,32.88,332.4,22.56,312.48,22.56z M323.88,64.92c0,6.6-5.76,11.28-14.28,11.28c-5.88,0-9.96-2.88-9.96-7.8
		v-0.24c0-5.76,4.8-8.88,12.6-8.88c4.44,0,8.52,0.96,11.64,2.4V64.92z"/>
	<path d="M274.44,41.16h-0.96c-12.12,0-19.56,7.32-19.56,22.68V87.6h-18.24V23.28h18.24v12.96c3.72-8.88,9.72-14.64,20.52-14.16
		V41.16z"/>
	<path d="M190.8,22.08c-18.72,0-31.8,15.12-31.8,33.48v0.24c0,19.68,14.28,33.24,33.6,33.24c11.64,0,20.28-4.56,26.28-12
		l-10.44-9.24c-5.04,4.68-9.48,6.6-15.6,6.6c-8.16,0-13.92-4.32-15.72-12.6h44.76c0.12-1.68,0.24-2.76,0.24-4.56V57
		C222.12,38.76,212.28,22.08,190.8,22.08z M176.88,50.4c1.44-8.28,6.36-13.68,13.92-13.68c7.68,0,12.48,5.52,13.56,13.68H176.88z"/>
	<path d="M148.44,84.96c-3.84,2.28-8.28,3.72-14.4,3.72c-11.16,0-18.72-4.44-18.72-19.32V38.88h-7.68v-15.6h7.68V6.84h18.24v16.44
		h15.12v15.6h-15.12v27.48c0,4.2,1.8,6.24,5.88,6.24c3.36,0,6.36-0.84,9-2.28V84.96z"/>
	<path d="M96.48,87.6H78.24V51.72c0-8.64-4.08-13.08-11.04-13.08s-11.4,4.44-11.4,13.08V87.6H37.56V23.28H55.8v9.12
		C60,27,65.4,22.08,74.64,22.08c13.8,0,21.84,9.12,21.84,23.88V87.6z"/>
	<rect y="3.6" width="18.48" height="84"/>
</g>
<g id="lineBlock">
	<rect id="lineBlockRect" y="196" width="120" height="13"/>
</g>
<g id="interactionBlock">
	<rect id="interactionBlockRect" width="650.04" height="89"/>
</g>
<g id="isEverythingBlock">
	<rect id="isEverythingBlockRect" y="97.934" width="485.16" height="89.066"/>
</g>
<g id="Grid">
</g>
</svg>
