<svg width="254" height="144" viewBox="0 0 254 144" fill="none" xmlns="http://www.w3.org/2000/svg">
<path d="M249.75 124.76C251.25 124.76 252.58 125.35 253.75 126.51C253.08 127.51 252.63 128.05 252.37 128.13C252.12 128.22 251.41 128.09 250.25 127.75C250.08 127.42 250.21 127.17 250.63 127C251.04 126.84 251.34 126.67 251.51 126.5L249.51 125.75C248.84 126.75 248.3 127.34 247.89 127.5C247.47 127.67 246.77 127.5 245.77 127C245.27 126.84 244.65 126.67 243.89 126.5C243.14 126.34 242.51 126 242.01 125.5C241.84 125.34 241.42 125.25 240.76 125.25C240.09 125.42 239.26 125.5 238.26 125.5C237.09 125.5 235.76 125.25 234.26 124.75C233.26 124.42 232.17 124.17 231.01 124C229.84 123.84 228.76 123.59 227.76 123.25H227C226.33 123.25 225.66 123.42 225 123.75C224.66 124.09 224.16 124.34 223.5 124.5C222.83 124.67 222.33 124.84 222 125C221.83 124.67 221.75 124.34 221.75 124C221.75 123.67 222 123.42 222.5 123.25C220.5 122.59 219 122.25 218 122.25C217 122.25 216.25 122.42 215.75 122.75H215.25C214.91 122.75 214.58 122.59 214.25 122.25C213.91 121.92 213.58 121.67 213.25 121.5C213.08 121.67 212.91 121.92 212.75 122.25C212.58 122.59 212.25 122.67 211.75 122.5C211.41 122.5 211.13 122.62 210.87 122.88C210.61 123.14 210.33 123.26 209.99 123.26C209.65 122.93 209.45 122.6 209.37 122.26C209.28 121.93 209.33 121.6 209.49 121.26C207.49 120.1 205.74 119.85 204.24 120.51V121.01C204.24 121.35 204.07 121.63 203.74 121.89C203.4 122.14 203.15 122.35 202.99 122.51C202.65 122.85 202.28 122.85 201.87 122.51C201.45 122.18 201.16 122.01 200.99 122.01C200.82 121.68 200.87 121.39 201.11 121.13C201.35 120.87 201.49 120.67 201.49 120.51V120.26L197.49 120.76C197.32 120.76 197.07 120.93 196.74 121.26C196.4 121.6 196.15 121.85 195.99 122.01C195.82 122.01 195.53 121.97 195.11 121.89C194.69 121.81 194.4 121.93 194.23 122.27C195.23 122.61 196.94 122.94 199.35 123.27C201.76 123.61 203.73 124.19 205.23 125.02C204.73 125.52 204.23 125.77 203.73 125.77C203.23 125.77 202.73 125.65 202.23 125.39C201.73 125.13 201.31 125.1 200.98 125.27C201.31 125.77 201.94 126.06 202.86 126.15C203.77 126.24 204.4 126.44 204.74 126.77C203.24 126.94 201.49 126.89 199.49 126.65C197.49 126.41 196 126.18 195 126.01C194.83 126.01 194.79 125.8 194.88 125.39C194.96 124.98 194.84 124.68 194.5 124.51C194.16 124.51 193.83 124.76 193.5 125.26C193.33 125.76 193 126.01 192.5 126.01C192 126.01 191.58 126.01 191.25 126.01C190.75 126.01 190.04 125.93 189.13 125.76C188.21 125.6 187.42 125.68 186.75 126.01C186.75 126.18 186.96 126.26 187.37 126.26C187.78 126.26 187.99 126.43 187.99 126.76C185.15 126.76 183.07 126.68 181.74 126.51C181.4 126.51 181.24 126.1 181.24 125.26C181.4 124.93 181.74 124.76 182.24 124.76C182.74 124.76 183.15 124.68 183.49 124.51C182.82 124.01 181.82 123.76 180.49 123.76C179.99 123.76 179.57 123.85 179.24 124.01C178.57 124.68 178.12 125.01 177.86 125.01C177.6 125.01 177 124.85 176 124.51C176.16 124.18 176.54 123.97 177.12 123.89C177.7 123.81 178.16 123.68 178.5 123.51C176.5 123.18 175.16 123.01 174.5 123.01C174.66 123.35 174.75 123.85 174.75 124.51L168.25 124.76L166.75 124.51C165.91 124.51 165.16 124.85 164.5 125.51C164.33 125.85 163.96 126.01 163.38 126.01C162.79 126.01 162.42 125.85 162.26 125.51C161.59 124.68 160.67 124.35 159.51 124.51C158.34 124.68 157.51 124.68 157.01 124.51V124.76C157.01 125.26 156.59 125.6 155.76 125.76C154.92 125.93 154.51 126.35 154.51 127.01C154.17 127.01 153.67 127.1 153.01 127.26C152.34 127.43 151.76 127.26 151.26 126.76C151.26 126.6 151.38 126.47 151.64 126.38C151.89 126.3 152.1 126.09 152.26 125.76C149.75 125.6 146 125.68 141 126.01C141 126.35 141.25 126.43 141.75 126.26C142.25 126.6 142.58 126.93 142.75 127.26C141.91 127.43 140.83 127.47 139.5 127.38C138.16 127.3 137 127.34 136 127.5C135.83 127.17 135.91 126.92 136.25 126.75C136.58 126.59 136.83 126.34 137 126H136C135.66 126 135.12 125.96 134.38 125.88C133.63 125.8 132.92 126 132.26 126.5C131.76 126.34 131.09 126.25 130.26 126.25C129.26 126.25 128.09 126.42 126.76 126.75C127.26 126.92 127.84 127 128.51 127C129.34 127 130.59 126.84 132.26 126.5C132.42 126.5 132.76 126.75 133.26 127.25C131.92 127.59 130.38 127.79 128.64 127.87C126.89 127.96 125.52 127.99 124.52 127.99C124.52 127.83 124.68 127.61 125.02 127.37C125.35 127.12 125.43 126.83 125.27 126.49C124.93 126.33 124.52 126.24 124.02 126.24C123.52 126.24 122.9 126.41 122.14 126.74C121.39 127.08 120.76 127.16 120.26 126.99C120.42 127.16 120.84 127.28 121.51 127.37C122.17 127.46 122.67 127.66 123.01 127.99C120.51 128.49 118.01 128.74 115.51 128.74C113.67 128.74 112.26 128.66 111.26 128.49C114.26 128.16 116.51 127.83 118.01 127.49C117.67 127.33 117.17 127.24 116.51 127.24C116.01 127.24 115.39 127.33 114.63 127.49C113.88 127.66 113.17 127.66 112.51 127.49C111.01 127.49 109.92 127.66 109.26 127.99C109.09 127.99 108.72 127.95 108.14 127.87C107.55 127.79 107.43 128.16 107.76 128.99C107.59 128.99 107.3 129.03 106.88 129.11C106.46 129.2 106.09 129.15 105.76 128.99C104.92 128.49 104.09 128.24 103.26 128.24C102.59 128.24 101.97 128.33 101.38 128.49C100.79 128.66 100.09 128.74 99.26 128.74L98.75 129.01C98.58 129.01 98.37 129.26 98.13 129.76C97.89 130.26 97.59 130.51 97.25 130.51C96.25 130.51 94.71 130.76 92.63 131.26C90.54 131.76 88.84 131.93 87.51 131.76C87.51 131.43 87.63 131.26 87.89 131.26C88.15 131.26 88.27 131.18 88.27 131.01C87.27 130.68 86.6 130.51 86.27 130.51C85.27 130.51 83.77 130.85 81.77 131.51C81.93 131.85 82.27 131.97 82.77 131.89C83.27 131.81 83.6 131.85 83.77 132.01L83.52 132.51L81 132.76C80.16 133.26 79.83 133.01 80 132.01C80 131.68 79.66 131.6 79 131.76C78.66 131.93 78.46 132.18 78.38 132.51C78.29 132.85 78.16 133.01 78 133.01C77.83 133.01 77.75 132.93 77.75 132.76C77.75 132.6 77.58 132.43 77.25 132.26H76.5C75.66 132.26 74.54 132.38 73.12 132.64C71.7 132.89 70.5 133.1 69.5 133.26C68.83 133.6 68.5 134.01 68.5 134.51C68.33 135.01 67.91 135.26 67.25 135.26C66.91 135.26 66.79 135.1 66.87 134.76C66.95 134.43 66.91 134.18 66.75 134.01C66.25 133.35 65.75 133.26 65.25 133.76C63.91 134.76 62.5 135.18 61 135.01C60.5 135.01 59.79 135.18 58.88 135.51C57.96 135.85 57.09 135.76 56.26 135.26C56.26 135.1 56.17 135.05 56.01 135.14C55.84 135.23 55.67 135.26 55.51 135.26C54.84 135.93 53.89 136.3 52.63 136.38C51.38 136.47 50.34 136.67 49.51 137C48.34 137.34 46.72 137.62 44.63 137.88C42.54 138.13 40.92 138.42 39.75 138.76C39.58 138.43 39.29 138.1 38.87 137.76C38.45 137.43 37.99 137.43 37.49 137.76C37.65 137.76 38.07 137.93 38.74 138.26C38.57 139.1 37.9 139.68 36.74 140.01C35.9 140.35 35.15 140.55 34.49 140.63C33.82 140.72 33.32 140.75 32.99 140.75C31.82 140.92 30.24 141.34 28.24 142C28.07 142 27.65 142.09 26.99 142.25C26.32 142.42 25.74 142.25 25.24 141.75C24.74 141.42 23.9 141.42 22.74 141.75L17.24 143.5C16.41 143.51 16 143.01 16 142.01H15C13.5 142.68 11.66 143.1 9.5 143.26C7.33 143.43 5.75 143.6 4.75 143.76H4.25C3.58 143.76 2.83 143.51 2 143.01C1.16 142.51 0.58 141.93 0.25 141.26C-0.25 140.43 0 139.68 1 139.01C1.5 138.68 2 138.3 2.5 137.89C3 137.48 3.66 137.1 4.5 136.77C8.5 135.44 11.41 134.36 13.25 133.52C14.75 133.02 18.08 131.94 23.25 130.27C24.41 129.94 26.41 129.31 29.25 128.39C32.08 127.48 34.66 126.93 37 126.77C37.33 126.77 37.75 126.65 38.25 126.39C38.75 126.13 39.16 125.93 39.5 125.77C42.5 124.94 46.16 124.11 50.5 123.27L56 122.01C57.5 121.68 59.29 121.3 61.38 120.89C63.46 120.48 65.84 120.1 68.5 119.77C69.33 119.61 70.33 119.36 71.5 119.02C72.66 118.69 73.66 118.52 74.5 118.52C76.5 118.36 78.79 118.02 81.38 117.52C83.96 117.02 85.84 116.69 87 116.52H88.25L90.25 116.77C90.91 116.76 91.5 116.51 92 116.01C92.33 115.85 92.83 115.76 93.5 115.76C94.16 115.76 94.75 115.68 95.25 115.51C96.58 115.18 98.25 114.93 100.25 114.76C102.25 114.6 103.91 114.43 105.25 114.26C106.41 114.26 107.25 114.35 107.75 114.51C108.91 114.85 109.75 114.76 110.25 114.26C110.25 114.1 110.5 114.01 111 114.01H111.75C112.75 114.01 113.75 113.89 114.75 113.63C115.75 113.37 116.75 113.25 117.75 113.25C118.25 113.25 119 113.34 120 113.5C121 113.67 121.91 113.59 122.75 113.25C123.25 113.09 124 113.09 125 113.25C126 113.42 126.75 113.34 127.25 113C127.58 113.17 128.08 113.25 128.75 113.25C129.41 113.25 130.04 113.17 130.63 113C131.21 112.84 131.75 112.75 132.25 112.75H139C139.66 112.75 140.88 112.63 142.62 112.37C144.36 112.11 145.91 112.08 147.24 112.25L157.24 112C160.08 112.01 164 112.18 169 112.51C170.33 112.68 171.54 112.72 172.62 112.63C173.7 112.55 174.66 112.51 175.5 112.51C177.33 112.51 180.08 112.68 183.75 113.01C185.58 113.35 187.21 113.55 188.63 113.63C190.04 113.72 191.17 113.75 192.01 113.75C193.01 113.75 194.39 113.84 196.13 114C197.88 114.17 199.34 114.34 200.51 114.5L209.76 116C210.26 116 210.84 116.21 211.51 116.62C212.17 117.04 212.76 117.16 213.26 117C213.76 116.67 214.42 116.5 215.26 116.5C216.09 116.5 217.17 116.67 218.51 117C222.84 117.67 226.01 118.25 228.01 118.75C229.01 118.75 229.76 119 230.26 119.5C230.76 120 231.26 120.17 231.76 120L233 119.76C234 119.76 235.5 120.1 237.5 120.76C238.16 121.1 239.21 121.38 240.62 121.64C242.03 121.89 243.08 122.26 243.74 122.76C244.07 123.1 244.36 123.38 244.62 123.64C244.88 123.9 245.08 124.1 245.24 124.26C245.9 125.26 246.36 125.8 246.62 125.88C246.87 125.97 247.5 125.84 248.5 125.5L247.5 124.5L249 124.75H249.75V124.76ZM90.5 124.76C90.16 124.6 89.83 124.76 89.5 125.26L87.5 124.76V125.01C88.33 125.01 89 125.1 89.5 125.26C89.66 124.93 90 124.76 90.5 124.76ZM90.75 130.76C91.25 130.76 91.66 130.6 92 130.26C91.83 130.1 91.41 130.01 90.75 130.01C90.58 130.01 90.41 130.05 90.25 130.13C90.08 130.22 89.91 130.42 89.75 130.75C89.91 130.76 90.25 130.76 90.75 130.76ZM93.75 124.26C93.58 124.1 93.25 124.1 92.75 124.26C93.25 124.76 93.58 124.76 93.75 124.26ZM102.38 123.51C102.63 123.68 102.84 123.51 103 123.01C102.83 123.01 102.62 123.01 102.38 123.01C102.14 123.01 101.92 123.1 101.76 123.26C101.91 123.26 102.12 123.35 102.38 123.51ZM105.75 122.76C105.41 122.43 105 122.43 104.5 122.76L105 123.01C105.5 123.18 105.75 123.1 105.75 122.76ZM114.75 122.26C116.75 122.26 118.75 122.01 120.75 121.51L118.75 121.26L111.5 122.01L114.75 122.26ZM125.5 121.51C126.16 121.51 127.16 121.35 128.5 121.01C128 120.85 127.33 120.76 126.5 120.76C125.83 120.76 124.83 120.93 123.5 121.26C124 121.43 124.66 121.51 125.5 121.51ZM134.5 120.76C134.16 120.26 133.75 120.26 133.25 120.76C133.58 121.1 134 121.1 134.5 120.76ZM134.88 117.63C134.79 117.55 134.67 117.51 134.5 117.51C134.16 117.51 133.91 117.6 133.75 117.76C133.75 118.1 133.83 118.26 134 118.26C134.5 118.26 134.75 118.18 134.75 118.01C134.91 117.85 134.96 117.72 134.88 117.63ZM146.25 120.89C148.08 120.81 149.66 120.77 151 120.77C150.66 120.27 150.29 120.06 149.88 120.15C149.46 120.24 149.17 120.27 149 120.27H148H146C144.5 120.27 143.33 119.77 142.5 118.77C142.33 118.94 142.29 119.19 142.38 119.52C142.46 119.86 142.42 120.11 142.26 120.27C141.92 120.27 141.55 120.27 141.14 120.27C140.72 120.27 140.26 120.44 139.76 120.77C142.25 120.93 144.41 120.97 146.25 120.89ZM143.62 126.63C143.7 126.55 143.83 126.59 144 126.75L144.5 127C144.5 127.17 144.33 127.25 144 127.25C143.66 127.25 143.5 127.17 143.5 127C143.5 126.85 143.54 126.72 143.62 126.63ZM155 120.63C155.33 120.72 155.58 120.67 155.75 120.51C155.25 120.01 154.75 120.01 154.25 120.51C154.41 120.51 154.66 120.55 155 120.63ZM160 120.51L159.5 120.26L159.25 120.51L159.5 120.76L160 120.51ZM162.25 120.76L161.75 120.26C161.25 120.26 161.08 120.43 161.25 120.76C161.25 121.1 161.58 121.1 162.25 120.76ZM191.75 122.01C191.25 121.85 190.66 121.76 190 121.76C189.33 121.76 188.83 121.68 188.5 121.51C188.33 121.51 188.08 121.51 187.75 121.51C187.41 121.51 187.16 121.35 187 121.01C186.66 120.35 187 119.68 188 119.01C186.83 118.68 186 118.85 185.5 119.51C185.16 120.01 184.71 120.39 184.12 120.63C183.53 120.88 182.91 120.75 182.24 120.25C181.9 119.92 181.57 119.92 181.24 120.25C180.9 121.09 180.45 121.29 179.86 120.87C179.27 120.46 178.9 120.25 178.74 120.25L177.24 119.25C176.74 119.42 176.32 119.67 175.99 120C175.65 120.34 175.32 120.5 174.99 120.5C174.65 120.17 174.28 119.88 173.87 119.62C173.45 119.37 173.16 119.33 172.99 119.5C172.32 120 171.57 120.29 170.74 120.38C169.9 120.47 169.32 120.5 168.99 120.5C169.49 121 170.32 121.25 171.49 121.25H172.49C172.82 121.25 173.37 121.25 174.11 121.25C174.85 121.25 175.32 121.34 175.49 121.5C176.15 121.84 176.57 122 176.74 122C177.07 122 177.45 121.92 177.86 121.75C178.27 121.59 178.65 121.5 178.98 121.5C179.14 121.67 179.56 121.75 180.23 121.75C180.89 121.75 181.77 121.92 182.85 122.25C183.93 122.59 184.89 122.5 185.73 122L186.48 122.25C188.66 122.26 190.41 122.18 191.75 122.01ZM196 125.26C196.33 125.6 196.66 125.76 197 125.76C197.33 125.76 197.75 125.6 198.25 125.26C197.41 124.76 196.66 124.76 196 125.26ZM204.38 118.63C204.46 118.55 204.42 118.42 204.26 118.25C204.26 117.92 204.01 117.75 203.51 117.75C203.17 117.75 203.09 117.84 203.26 118C203.26 118.5 203.51 118.75 204.01 118.75C204.16 118.76 204.29 118.72 204.38 118.63ZM208.25 124.89C208.41 125.31 208.5 125.6 208.5 125.77C207.5 126.27 206.91 126.19 206.75 125.52C206.58 125.36 206.58 125.14 206.75 124.9C206.91 124.65 207.08 124.52 207.25 124.52C207.75 124.35 208.08 124.47 208.25 124.89Z" fill="#FFC800"/>
<path d="M71.9062 32.8972C72.1838 33.1766 72.3226 33.646 72.3226 34.2942C72.3226 34.9479 72.1339 35.5067 71.7674 35.9705C71.673 36.0655 71.5342 36.2275 71.351 36.4622C71.1622 36.6969 71.1178 36.9539 71.2122 37.2333C70.8402 39.0996 70.657 40.4966 70.657 41.4241C70.657 42.4523 70.8846 43.5196 71.351 44.6371C71.6286 45.0115 71.7674 45.4306 71.7674 45.8944C71.7674 46.7325 71.351 47.431 70.5182 47.9898L71.2122 48.4089C71.2122 48.6882 71.1622 48.8279 71.0734 48.8279C70.5182 49.2973 70.174 49.8058 70.0296 50.3646C69.8853 50.9234 69.7964 51.4821 69.752 52.0409C69.702 52.5997 69.6854 52.9741 69.6854 53.1585L69.5466 54.6951C69.4522 54.9745 69.3578 55.2539 69.269 55.5333C69.1746 55.8127 69.1302 56.1423 69.1302 56.5111C69.1302 57.6287 68.575 58.1428 67.4645 58.0478C67.831 58.4221 68.203 58.6568 68.575 58.7462C68.4806 59.0256 68.4361 59.3553 68.4361 59.7241C68.4361 60.0985 68.3418 60.4226 68.1585 60.702C68.1585 60.7969 68.1808 61.0037 68.2252 61.3278C68.2696 61.6575 68.0642 61.7692 67.6033 61.6742C67.5089 61.7692 67.4146 61.9313 67.3257 62.1659C67.2313 62.4006 67.1869 62.6577 67.1869 62.9371L67.4645 64.6134C67.4645 64.9878 67.2758 65.5465 66.9093 66.2897C65.9821 65.6415 65.4713 65.3119 65.3825 65.3119C65.1937 66.0606 65.0105 66.8261 64.8273 67.614C64.6385 68.4075 64.4553 69.2233 64.2721 70.0615C64.3609 70.1565 64.4997 70.2012 64.6885 70.2012C64.7773 69.8324 64.8717 69.43 64.9661 69.0166C65.0549 68.5975 65.1937 68.1113 65.3825 67.5526C65.4713 68.0219 65.6101 68.3907 65.7989 68.6701C65.9821 68.9495 66.1209 69.2289 66.2153 69.5083C65.3825 69.7877 65.1049 70.257 65.3825 70.9052C65.3825 71.1846 65.2881 71.5143 65.1049 71.8831C64.7329 72.2575 64.5497 72.7715 64.5497 73.4197L64.6885 75.096L64.8273 75.9342C64.8273 76.493 64.6385 77.3312 64.2721 78.4487C64.2721 78.5437 63.9944 78.6834 63.4392 78.8678C64.0833 79.3372 64.2221 80.0803 63.8556 81.1029L62.7452 83.7571C62.6508 83.9471 62.5342 84.2712 62.401 84.735C62.2622 85.2043 61.9124 85.4837 61.3572 85.5731C62.0956 86.3219 62.14 87.0204 61.496 87.6685L61.3572 86.4113C60.802 87.16 60.8464 87.5791 61.496 87.6685C61.496 88.0429 61.446 88.2776 61.3572 88.367C60.802 88.8364 60.5022 89.6019 60.4577 90.6692C60.4078 91.742 60.2967 92.4126 60.1135 92.6919C59.5583 94.5583 58.8143 96.324 57.8927 98.0003L56.7822 100.515C55.6718 100.705 54.5114 100.794 53.3122 100.794C52.1073 100.794 51.2745 100.794 50.8137 100.794C48.6817 100.61 46.7384 100.286 44.984 99.8163C44.3344 99.7269 43.5959 99.1682 42.7631 98.14C40.8199 95.9049 39.4762 93.2507 38.7378 90.1774C38.549 89.4343 38.1826 88.177 37.6274 86.4057C37.0722 84.64 36.7446 83.0083 36.6558 81.5164C36.6558 81.1476 36.5614 80.5888 36.3782 79.8401C36.2838 79.3763 36.1228 78.6331 35.8896 77.605C35.6564 76.5824 35.5898 75.6995 35.6786 74.9508C35.6786 74.392 35.562 73.5538 35.3344 72.4363C35.1012 71.3187 35.0345 70.3409 35.1234 69.5027V68.7986C35.1234 68.1504 34.8902 66.7982 34.4294 64.7475L34.013 59.1597C33.8242 57.9528 33.5022 56.7849 33.0413 55.6674C32.575 57.2543 32.2973 58.6959 32.2085 59.9979C32.1141 60.2773 32.0197 60.769 31.9309 61.4619C31.8365 62.1604 31.5145 62.7918 30.9593 63.3506C30.4929 63.8199 30.5429 64.0993 31.0981 64.1887V64.8872C31.0037 65.636 30.8427 66.6138 30.6095 67.8208C30.3763 69.0333 30.2153 70.0112 30.1209 70.7543C30.0265 71.2237 29.9099 71.6596 29.7767 72.0842C29.6434 72.5089 29.5213 72.9448 29.4324 73.4141C29.3381 74.1629 28.9661 75.6492 28.322 77.8843C27.8556 79.0019 27.578 79.6557 27.4892 79.8401V82.0752C27.2116 82.7289 27.0506 83.6342 27.0006 84.802C26.9506 85.9698 26.884 86.7354 26.7896 87.1042C26.6952 87.3836 26.5342 87.6629 26.301 87.9423C26.0679 88.2217 26.0012 88.4564 26.0901 88.6408C26.2733 89.0152 26.3677 89.2499 26.3677 89.3393C26.3677 89.4343 26.3177 89.5963 26.2289 89.831C26.1345 90.0657 26.1345 90.2724 26.2289 90.4568C26.2289 90.7362 26.1789 91.1553 26.0901 91.7141C25.9957 92.2729 25.8569 92.7422 25.6737 93.111C25.4849 93.9492 25.3461 94.8823 25.2572 95.9049C25.1629 96.9331 25.1184 97.6315 25.1184 98.0003C25.1184 99.0285 24.9297 100.47 24.5632 102.331C24.0969 104.382 23.8692 106.589 23.8692 108.969C23.8692 111.35 23.8692 112.763 23.8692 113.227C23.8692 113.786 23.8914 114.44 23.9358 115.183C23.9803 115.926 23.958 116.809 23.8692 117.837C23.958 119.513 24.5632 121.139 25.6737 122.726C25.0241 122.726 24.4244 122.771 23.8692 122.866C23.314 122.955 22.7588 123.006 22.2036 123.006L13.8754 122.447C12.2097 122.447 11.1437 121.609 10.6829 119.932C10.2165 118.625 9.98889 117.138 9.98889 115.462C9.98889 114.065 10.0777 113.043 10.2665 112.389C10.3553 112.299 10.3831 112.132 10.3331 111.897C10.2832 111.668 10.2665 111.5 10.2665 111.405V110.707C10.2665 109.589 10.4497 108.662 10.8217 107.913L10.9605 107.634C10.8661 107.449 10.8217 107.17 10.8217 106.795C10.8217 106.427 10.8883 106.097 11.0327 105.818C11.177 105.538 11.2437 105.259 11.2437 104.979C11.2437 104.7 11.1493 104.192 10.9661 103.443C10.7773 103.163 10.6663 102.906 10.6218 102.672C10.5719 102.443 10.6885 102.18 10.9661 101.901C11.2437 101.716 11.4547 101.364 11.5879 100.85C11.7267 100.342 11.6545 99.8946 11.3769 99.5202C11.0993 98.682 10.9605 98.1735 10.9605 97.9836C10.9605 97.3354 11.327 96.866 12.0709 96.5866C12.2542 96.4972 12.393 96.2849 12.4873 95.9608C12.5762 95.6367 12.5762 95.335 12.4873 95.0556C12.2986 94.6868 12.2097 94.4074 12.2097 94.2174C12.2097 93.938 12.2764 93.5916 12.4207 93.1669C12.5651 92.7422 12.6761 92.3958 12.765 92.1164C12.765 91.7476 12.8538 91.3006 13.0426 90.7865C13.2258 90.278 13.3646 89.7863 13.459 89.3225C13.459 88.9537 13.409 88.6743 13.3202 88.4843L13.1814 87.9256C13.1814 87.1824 13.6866 86.4392 14.7082 85.6905C14.153 85.2267 13.8754 84.7126 13.8754 84.1538C13.8754 83.8744 13.9642 83.4554 14.153 82.8966C14.3362 82.3378 14.475 81.874 14.5694 81.4996C14.5694 81.4102 14.6138 81.2705 14.7082 81.0806C14.797 80.8962 14.847 80.7118 14.847 80.5218C14.6582 78.8454 15.0746 77.0294 16.0962 75.0737V74.7943V69.6368C16.6514 69.268 16.9735 68.9886 17.0679 68.7986C17.0679 68.5192 17.0179 68.2399 16.9291 67.9605C16.8347 67.6811 16.7403 67.452 16.6514 67.262C17.2955 66.8932 17.6231 66.6138 17.6231 66.4238C17.6231 66.2394 17.4843 65.8651 17.2067 65.3063V64.4681C17.7619 64.1887 18.0839 63.8646 18.1783 63.4902C18.2671 63.1215 18.2671 62.6074 18.1783 61.9536C18.0839 61.3054 18.1283 60.8361 18.3171 60.5567C18.3171 60.4673 18.2949 60.2996 18.2505 60.0649C18.2005 59.8358 18.3171 59.6682 18.5947 59.5732C18.5947 59.3888 18.6835 59.1094 18.8723 58.7351C19.0555 58.3663 18.9611 58.1316 18.5947 58.0366C18.6835 57.5728 18.7779 56.9414 18.8723 56.1479C18.9611 55.36 19.3331 54.7286 19.9827 54.2593H20.1215V53.9799C20.1215 53.5161 20.2603 52.8847 20.5379 52.0912C20.8155 51.3033 20.9543 50.6719 20.9543 50.2025V49.6438C20.9543 48.9006 21.1376 47.688 21.5096 46.0117L21.7872 45.7323C21.876 45.6429 21.9704 45.5479 22.0648 45.4529C22.1647 45.3803 22.2147 45.2406 22.2147 45.0506C22.2147 44.3074 22.3757 43.514 22.7033 42.6758C23.0253 41.8376 23.2363 41.2342 23.3251 40.8598C23.4139 40.491 23.5083 39.9993 23.6027 39.3958C23.6915 38.7923 23.7415 38.3453 23.7415 38.0659C23.7415 37.7865 23.7859 37.5574 23.8803 37.3674C23.9692 37.183 24.0635 36.9986 24.1579 36.8086C24.802 36.9036 25.7292 36.9483 26.934 36.9483C27.3004 36.0208 27.9056 35.5514 28.7384 35.5514C28.9217 35.5514 29.3825 35.6464 30.1265 35.8308C35.1234 36.7639 38.8211 37.6971 41.2307 38.6247C43.2628 39.094 44.6064 40.5357 45.256 42.9552C45.5336 44.0728 45.8556 45.7491 46.2276 47.9842C46.4109 49.6605 46.5941 50.8731 46.7828 51.6162C46.7828 51.8062 46.7329 51.9627 46.644 52.108C46.5497 52.2477 46.5052 52.4544 46.5052 52.7338V53.0132C46.5052 53.1082 46.483 53.3429 46.4386 53.7117C46.3886 54.086 46.5996 54.3654 47.0605 54.5498C47.1493 54.6448 47.1993 55.0192 47.1993 55.6674C47.1993 56.1367 47.2881 56.9023 47.4769 57.9695C47.6601 59.0424 47.6601 59.8582 47.4769 60.417V60.6964C47.4769 61.0707 47.6157 61.4898 47.8933 61.9536C48.0765 62.233 48.1709 62.7918 48.1709 63.6299C48.1709 64.3787 48.0765 64.9375 47.8933 65.3063C47.7989 65.4013 47.7767 65.5186 47.8266 65.6527C47.8711 65.7924 47.8933 65.9098 47.8933 65.9992C48.2597 66.7479 48.4929 67.5861 48.5873 68.5137C48.6761 69.4468 48.8149 70.19 49.0037 70.7488L49.6977 75.6381C49.7865 75.5487 49.9531 76.1074 50.1863 77.3144C50.4139 78.5269 50.8581 80.2983 51.5077 82.6228C51.9685 80.857 52.707 78.0129 53.7286 74.1014C54.7446 70.19 55.4386 67.2564 55.8106 65.3007C56.7323 61.5792 57.3374 58.7351 57.615 56.7793C57.9815 55.103 58.1703 53.8011 58.1703 52.8679C59.0919 45.4194 59.6471 36.7584 59.8359 26.8848C59.8359 26.326 59.7859 25.7449 59.6971 25.1358C59.6027 24.5323 59.5583 23.9512 59.5583 23.3924C59.3695 22.6492 59.1863 22.2302 59.0031 22.1352C58.8143 21.7664 58.7255 21.487 58.7255 21.297C58.7255 20.7382 59.0475 20.4588 59.6971 20.4588H59.9692C60.7076 20.5538 62.0956 20.6935 64.1332 20.8779C66.1653 21.0679 68.0642 21.1126 69.8242 21.0176H70.1018C70.7458 21.0176 71.0734 21.3473 71.0734 21.9955C71.0734 22.6492 71.2122 23.0683 71.4898 23.2527C71.9506 23.6271 72.206 24.1412 72.256 24.7894C72.3004 25.4431 72.3226 25.8622 72.3226 26.0466C72.3226 26.9798 72.2727 27.7229 72.1838 28.2817V29.6787C72.1838 30.4274 72.045 30.9862 71.7674 31.355C71.4898 31.735 71.5342 32.249 71.9062 32.8972ZM64.2721 67.4017L64.1332 67.262L63.7168 68.1002L63.8556 68.2399L64.2721 67.4017ZM66.2153 62.5124C66.6761 62.0486 66.9093 61.5848 66.9093 61.1154L66.7705 59.7185C66.7705 59.5341 66.7039 59.3721 66.5595 59.2268C66.4152 59.0815 66.3041 58.925 66.2153 58.7351V62.5124ZM67.1203 63.9764C67.0703 63.8367 66.9093 63.7641 66.6317 63.7641L67.0481 64.6022C67.1369 64.3284 67.1647 64.1161 67.1203 63.9764ZM67.6033 56.6452L67.1869 56.3658C66.9981 56.9246 66.9093 57.394 66.9093 57.7628L67.3257 57.9025C67.6033 56.9749 67.6922 56.5558 67.6033 56.6452ZM67.8809 55.1756C68.0642 55.1309 68.3418 55.1086 68.7138 55.1086L67.6033 53.991L67.4645 55.2483C67.5534 55.2483 67.6922 55.2259 67.8809 55.1756ZM69.269 46.3079C69.0802 46.4978 68.897 46.7772 68.7138 47.146L68.9914 47.7048C68.9914 47.7998 69.0358 47.8445 69.1302 47.8445V47.7048L69.269 46.3079Z" fill="#1F2326"/>
<path d="M141.393 37.1529C141.393 37.8066 141.204 38.5051 140.838 39.2483C141.204 39.4383 141.343 39.6227 141.254 39.8071V40.5055L141.115 43.4391C141.115 43.7185 141.138 44.0202 141.182 44.3443C141.226 44.674 141.204 45.0652 141.115 45.5289L140.56 48.7419C140.371 49.4907 140.188 50.4182 140.005 51.5358C139.261 55.3578 138.845 57.403 138.756 57.6824C138.567 58.7105 138.361 59.5934 138.134 60.3365C137.901 61.0853 137.695 61.7335 137.512 62.2923C137.14 63.2254 136.818 64.2983 136.54 65.5052C136.352 66.159 136.124 66.8798 135.846 67.6733C135.569 68.4667 135.241 69.372 134.875 70.4001C134.78 70.8695 134.547 71.568 134.181 72.4955C133.992 72.9649 133.742 73.5237 133.415 74.1719C133.087 74.8256 132.743 75.5688 132.371 76.407C130.333 80.8772 128.623 84.1404 127.235 86.1856C127.141 86.465 126.935 86.722 126.613 86.9567C126.286 87.1914 125.991 87.4484 125.714 87.7278C125.714 88.2866 125.619 88.7057 125.436 88.985L121.411 94.1537L118.496 97.3667C117.569 98.0205 116.78 98.8139 116.136 99.7415C113.36 102.535 109.613 104.256 104.893 104.91C102.761 105 100.729 104.86 98.7859 104.491C94.2498 103.653 90.5466 102.485 87.6817 100.999C87.2153 100.904 86.7323 100.624 86.227 100.161C85.7162 99.6912 85.2332 99.3671 84.7724 99.1827C83.9395 98.7189 83.2677 98.1322 82.7625 97.4393C82.2517 96.7409 81.8131 95.9753 81.4411 95.1372C81.0691 94.299 80.7915 93.6508 80.6083 93.1815C79.4034 90.8569 78.615 87.8284 78.2486 84.1013C78.0654 81.3074 77.971 79.1673 77.971 77.6754C77.971 76.3734 78.021 75.3956 78.1098 74.7418C78.665 72.3223 79.0314 70.2716 79.2202 68.5953C79.3091 67.9471 79.6366 66.4552 80.1918 64.1251C78.8926 62.3593 77.9266 60.4259 77.277 58.3249C76.6329 56.2295 76.1221 53.8324 75.7501 51.1279C75.5669 49.0828 75.4725 47.4958 75.4725 46.3783C75.4725 45.2607 75.6113 44.0985 75.8889 42.8859C76.0777 42.1428 76.2165 41.232 76.3054 40.1591C76.3997 39.0918 76.4442 38.3654 76.4442 37.991C76.6329 37.3429 76.744 36.8064 76.7884 36.3818C76.8384 35.9627 76.855 35.6107 76.855 35.3313C76.9494 35.1469 77.1326 34.8898 77.4102 34.5602C77.6878 34.2361 77.7378 33.9343 77.549 33.6549C78.1042 33.5655 78.293 33.3085 78.1042 32.8838C77.921 32.4647 77.8266 32.2077 77.8266 32.1127C77.921 30.9952 78.2208 29.8553 78.7261 28.693C79.2313 27.5307 79.5811 26.7596 79.7699 26.3908L82.5459 21.0825C82.8236 20.3393 83.3288 19.5011 84.0728 18.568C84.0728 18.9423 84.1172 19.2217 84.2116 19.4061C84.3948 19.3167 84.4892 19.082 84.4892 18.7076C84.4892 18.3389 84.5336 18.0092 84.628 17.7298C84.7168 17.4504 85.0444 17.361 85.5996 17.4504C85.6884 16.4278 86.1049 15.355 86.8488 14.2374C88.5145 12.0023 90.5021 10.0019 92.8174 8.23058C94.8495 6.36985 96.6095 5.0679 98.0919 4.31914C100.496 3.11218 102.534 2.22372 104.199 1.66495C105.77 1.29615 107.619 1.10617 109.751 1.10617C113.266 1.10617 116.736 1.89963 120.162 3.48097L124.187 5.43669L127.102 6.83364L129.461 8.50997C132.421 10.7451 134.458 12.5611 135.569 13.958L135.985 14.3771C137.462 17.5454 138.389 19.4564 138.761 20.1046C139.777 21.8759 140.471 23.759 140.843 25.7594C141.21 27.7654 141.487 30.252 141.676 33.2359L141.393 37.1529ZM118.907 74.8703C119.09 74.5015 119.09 74.0322 118.907 73.4734C115.853 74.7809 112.194 75.3397 107.941 75.1497C104.699 75.2447 101.14 74.6859 97.2535 73.4734C94.6607 72.5458 92.0234 71.6574 89.3418 70.8192C89.2474 71.0986 89.1308 71.4003 88.9975 71.7244C88.8587 72.0541 88.7865 72.4005 88.7865 72.7693V73.3281C88.7865 73.9819 88.7199 74.6077 88.5756 75.2168C88.4368 75.8258 88.3646 76.4964 88.3646 77.2395C88.3646 77.4295 88.3146 77.776 88.2258 78.2901C88.1314 78.8041 88.1758 79.2456 88.3646 79.6199C88.731 80.2737 88.9198 81.0392 88.9198 81.9221C88.9198 82.8106 88.9198 83.4811 88.9198 83.9449L87.8094 83.8052C87.8982 84.2746 87.9926 84.8333 88.087 85.4815C88.1758 86.1353 88.409 86.6494 88.781 87.0181C89.3362 87.4875 89.6138 88.091 89.6138 88.8342C89.7026 90.3261 89.8248 91.304 89.958 91.7678C90.0968 92.2371 90.5355 93.1647 91.2794 94.5616C91.8347 95.4948 92.2511 96.428 92.5287 97.3555C92.7119 98.0093 93.2671 98.5904 94.1943 99.0989C95.116 99.6074 95.6712 100.054 95.86 100.429C95.9488 100.613 96.0876 100.686 96.2764 100.641C96.4596 100.591 96.5984 100.574 96.6928 100.574C99.0025 100.015 100.668 99.2218 101.69 98.1993C103.355 96.8973 104.555 95.8245 105.299 94.9863L110.99 88.281L112.655 85.6268C113.21 84.9786 113.743 84.2522 114.254 83.4587C114.759 82.6709 115.342 81.8495 115.986 81.0113C116.447 80.3631 116.725 79.8043 116.819 79.335C116.908 78.5918 117.163 77.8486 117.585 77.0999C118.002 76.3567 118.302 75.8426 118.485 75.5632C118.579 75.4794 118.718 75.2447 118.907 74.8703ZM130.011 33.3811C130.011 32.638 130.078 31.8948 130.222 31.146C130.361 30.4029 130.433 29.6597 130.433 28.9109C130.433 28.4471 130.339 27.8437 130.155 27.0949C129.967 25.7929 129.878 24.8151 129.878 24.1613C129.783 23.6975 129.667 22.8314 129.534 21.5798C129.4 20.3281 129.189 19.2273 128.912 18.2997C127.89 14.4833 126.597 11.5497 125.025 9.499C124.281 8.57143 123.637 8.10206 123.082 8.10206C120.489 7.91766 118.59 7.82267 117.391 7.82267C114.798 7.82267 112.255 8.52114 109.757 9.91809C109.107 10.3875 108.208 10.9686 107.047 11.6671C105.887 12.3655 104.943 12.9467 104.205 13.4104C102.073 15.2768 100.318 17.1375 98.9303 18.9982C97.9087 20.3058 96.8926 21.7921 95.8766 23.4684C94.855 25.1448 94.1166 26.3573 93.6558 27.1005C93.0062 28.9668 92.4509 30.1738 91.9901 30.7325C90.9685 31.7607 90.4633 32.9676 90.4633 34.3646C90.2745 34.9234 90.119 35.6721 89.9747 36.5997C89.8359 37.5328 89.6305 38.276 89.3529 38.8348C89.2585 39.0248 89.2141 39.2762 89.2141 39.6059C89.2141 39.9356 89.2141 40.187 89.2141 40.377C90.4133 38.8907 91.1073 38.0525 91.2961 37.8625C91.7569 37.1194 92.4509 36.745 93.3782 36.745C93.7446 36.745 94.211 36.84 94.7662 37.0244C95.4102 37.3987 96.3652 37.8849 97.6089 38.4884C98.8581 39.0974 99.8963 39.673 100.729 40.2317C99.8963 40.3267 99.0857 40.7905 98.2973 41.6287C97.5089 42.4668 97.1647 43.305 97.2535 44.1432C96.6983 44.3332 96.3263 44.3779 96.1431 44.2829C96.3263 45.0316 96.3263 45.6798 96.1431 46.2386C96.1431 46.8924 96.0487 47.2667 95.8655 47.3561C95.2159 47.6355 94.7773 48.0323 94.5441 48.5408C94.3109 49.0548 94.1055 49.6807 93.9223 50.4294C93.4559 50.34 93.2282 50.4294 93.2282 50.7088C93.2282 50.9882 93.2282 51.2229 93.2282 51.4073L93.9223 51.1279C93.8279 51.2229 93.6891 51.6867 93.5058 52.5248C93.1339 53.363 92.673 54.7152 92.1178 56.576V56.8554C92.1178 56.9504 92.1178 57.1124 92.1178 57.3471C92.1178 57.5818 91.929 57.7438 91.5626 57.8388C91.4682 58.3976 91.285 59.0514 91.0074 59.7945C90.7298 60.5433 90.591 61.1468 90.591 61.6106C90.591 62.1693 90.6798 62.6387 90.8686 63.0075C91.979 65.8964 93.4559 67.9918 95.3103 69.2937C95.8655 70.1319 96.7427 70.646 97.9476 70.8304C98.7804 70.741 99.7964 70.6907 101.001 70.6907C102.2 70.6907 103.172 70.646 103.916 70.551C106.781 70.0872 110.251 68.9696 114.326 67.1983C115.714 66.1758 116.825 65.6617 117.658 65.6617C118.396 65.5723 119.068 65.4046 119.667 65.17C120.267 64.9409 120.8 64.5888 121.266 64.1195C121.45 63.7507 121.683 63.5607 121.961 63.5607H122.377C123.115 63.5607 123.626 63.0522 123.904 62.024C124.92 60.4427 125.658 58.6267 126.125 56.576C126.213 56.0172 126.424 55.2461 126.746 54.2738C127.068 53.2959 127.235 52.5751 127.235 52.1058C127.235 51.2676 127.279 50.6641 127.374 50.2897C127.835 49.731 128.112 48.9151 128.207 47.8423C128.295 46.775 128.39 46.0486 128.484 45.6742C128.762 44.5567 129.084 43.6291 129.456 42.8803C129.456 42.6959 129.389 42.3886 129.245 41.9751C129.101 41.5616 129.084 41.204 129.178 40.9246C129.361 40.4608 129.478 39.6897 129.522 38.6225C129.567 37.5552 129.822 36.7338 130.289 36.175L130.15 35.7559C129.961 34.6384 129.917 33.8505 130.011 33.3811Z" fill="#1F2326"/>
<path d="M232.502 12.0079V12.2873C232.779 12.6617 232.918 12.9858 232.918 13.2652C232.918 13.5445 232.824 13.891 232.64 14.3157C232.452 14.7347 232.313 15.0365 232.224 15.2209C232.224 15.5003 232.035 15.9193 231.669 16.4781L230.558 22.3453C230.558 22.5353 230.397 22.837 230.07 23.2505C229.742 23.6696 229.631 23.9713 229.726 24.1557C229.726 24.5301 229.792 24.8542 229.936 25.1336C230.081 25.413 230.147 25.6923 230.147 25.9717C230.147 26.2511 230.053 26.4858 229.87 26.6702C229.126 28.0671 228.526 29.6764 228.065 31.4869C227.599 33.3029 227.277 34.5378 227.094 35.186L226.677 37.002L227.51 35.7447L227.649 36.4432C227.555 36.9126 227.416 37.3764 227.233 37.8402C227.044 38.3095 226.861 38.8683 226.677 39.5165C225.656 42.221 224.873 44.5958 224.318 46.6409C224.318 46.8309 224.201 47.1326 223.974 47.5461C223.74 47.9652 223.857 48.3619 224.318 48.7307C224.223 48.9207 224.157 49.2224 224.107 49.6359C224.057 50.055 223.851 50.3121 223.485 50.4071C223.296 50.502 223.207 50.6417 223.207 50.8261C223.207 51.0161 223.296 51.2452 223.485 51.5246C223.668 51.804 223.668 52.1337 223.485 52.5025C223.113 53.62 222.513 55.0673 221.68 56.833C221.864 56.0898 221.958 55.531 221.958 55.1567H221.536C221.536 55.3466 221.442 55.6707 221.259 56.1345C221.07 56.6039 221.164 57.023 221.536 57.3918L220.564 62.0017L220.148 60.465C220.054 60.655 219.915 61.0238 219.732 61.5826C219.543 62.1414 219.593 62.7001 219.87 63.2589L220.009 63.678C220.009 63.9574 219.915 64.3038 219.732 64.7285C219.543 65.1476 219.404 65.4493 219.315 65.6337L219.176 66.3322C219.176 66.7066 219.404 67.1257 219.87 67.5894H219.732C219.821 67.7794 219.87 68.0588 219.87 68.4276C219.87 68.897 219.776 69.3608 219.593 69.8246C219.404 70.2939 219.176 70.5733 218.899 70.6627C218.344 70.9421 218.066 71.2215 218.066 71.5009L218.344 72.7581L217.788 73.8757C218.066 74.0657 217.6 75.7867 216.4 79.0444C216.212 79.6981 216.006 80.3519 215.779 81.0001C215.545 81.6539 215.384 82.2126 215.29 82.6764V83.2352C215.29 84.1684 215.012 85.4703 214.457 87.1466V87.7054C214.457 87.9848 214.296 89.1526 213.969 91.1978C213.641 93.2485 213.158 94.271 212.514 94.271C211.126 94.1816 209.549 94.3213 207.795 94.6901C206.035 95.0645 204.741 95.2992 203.908 95.3886C203.259 95.3886 202.193 95.4836 200.716 95.668C199.694 95.763 198.772 95.6009 197.94 95.1763C197.107 94.7516 196.085 94.0811 194.886 93.1535C193.031 91.7565 191.877 90.2199 191.416 88.5436C191.227 88.0798 190.999 87.3813 190.722 86.4482C190.444 85.5206 190.117 84.7271 189.75 84.0734L188.779 76.4069C188.779 75.8482 188.729 75.3564 188.64 74.943C188.545 74.5239 188.451 74.1271 188.362 73.7583C188.362 73.6689 188.312 73.5292 188.223 73.3393C188.129 73.1549 188.129 73.0152 188.223 72.9202C188.312 72.5514 188.362 71.9926 188.362 71.2438C188.362 70.0369 188.173 68.3103 187.807 66.0752C187.713 65.427 187.618 64.7006 187.529 63.9071C187.435 63.1192 187.391 62.2978 187.391 61.4597C187.391 60.9959 187.435 60.5321 187.529 60.0627C187.618 59.5989 187.668 59.0849 187.668 58.5261C187.757 58.0623 187.851 57.5259 187.946 56.9168C188.035 56.3133 188.085 55.5869 188.085 54.7488C188.085 54.1006 188.035 53.5865 187.946 53.2121C187.946 52.7483 187.99 52.2343 188.085 51.6755C188.173 51.1167 188.223 50.6082 188.223 50.1388V48.8872H187.668L182.81 58.9452L179.201 66.768C178.552 68.0756 177.624 70.4504 176.425 73.8924L171.845 85.6268L167.958 95.5451C167.492 96.5732 166.87 97.8025 166.081 99.2442C165.293 100.686 164.671 101.826 164.205 102.664C163.461 103.871 162.073 104.988 160.041 106.017C159.852 106.106 159.669 106.134 159.486 106.084C159.297 106.033 159.114 106.017 158.93 106.017C158.186 105.922 157.331 105.827 156.365 105.737C155.394 105.642 154.261 105.597 152.967 105.597C150.93 105.407 149.447 105.318 148.526 105.318C146.21 105.039 144.734 103.921 144.084 101.965C143.529 100.289 143.251 98.9424 143.251 97.9143C143.251 97.4505 143.345 96.847 143.529 96.0982C143.717 96.2882 143.806 96.5676 143.806 96.9364C143.806 97.0314 143.806 97.1935 143.806 97.4281C143.806 97.6628 143.945 97.8696 144.223 98.054C144.04 98.8027 143.945 99.2162 143.945 99.3112C143.945 99.775 144.178 100.289 144.639 100.848C144.55 100.473 144.456 100.054 144.362 99.5906C144.273 99.1212 144.223 98.6127 144.223 98.054C143.945 96.5676 143.856 95.2154 143.945 94.0028L143.806 88.281C143.717 87.6328 143.668 86.6549 143.668 85.3474C143.668 84.0454 143.762 83.0676 143.945 82.4138C144.04 81.6706 144.062 81.0392 144.012 80.5251C143.967 80.0166 143.945 79.5696 143.945 79.1952L144.362 77.2395C144.362 77.1501 144.384 77.0272 144.428 76.8931C144.478 76.7534 144.45 76.636 144.362 76.5466C144.273 76.3622 144.223 76.0382 144.223 75.5688C144.223 75.105 144.362 74.5909 144.639 74.0321C144.734 73.7528 144.828 73.4287 144.917 73.0543C145.011 72.6855 145.15 72.4061 145.333 72.2161C145.333 72.3111 145.428 72.7302 145.611 73.4734C145.705 73.384 145.794 73.289 145.888 73.194L145.75 72.6352C145.75 72.5458 145.772 72.3335 145.816 72.0094C145.861 71.6853 145.7 71.4729 145.328 71.3835C145.239 71.3835 145.167 71.3388 145.117 71.2438C145.072 71.1544 145.094 71.0595 145.183 70.9645C145.278 70.5007 145.344 69.7799 145.394 68.7964C145.444 67.8185 145.605 67.0027 145.883 66.349C145.7 66.8183 145.7 67.2821 145.883 67.7459C145.883 67.8409 145.972 68.0756 146.16 68.4444C146.249 68.355 146.299 68.2153 146.299 68.0253C146.299 67.8409 146.344 67.7012 146.438 67.6062C146.804 67.5168 146.971 67.3268 146.927 67.0474C146.877 66.768 146.86 66.5836 146.86 66.4887C146.671 66.3043 146.582 65.9299 146.582 65.3711C146.21 65.4661 145.977 65.4214 145.888 65.2314C145.705 65.142 145.677 65.0023 145.822 64.8123C145.961 64.6279 146.077 64.4435 146.166 64.2535C146.349 63.5104 146.394 62.9516 146.305 62.5772C146.116 62.0184 146.027 61.5994 146.027 61.32C146.027 60.8562 146.116 60.3198 146.305 59.7107C146.488 59.1072 146.627 58.5708 146.721 58.1014C147.365 58.1014 147.671 58.3137 147.621 58.7272C147.571 59.1463 147.554 59.4034 147.554 59.4984L148.664 59.219L147.832 58.6602C148.664 56.7045 149.081 54.8437 149.081 53.0724C149.081 52.5136 148.986 51.5861 148.803 50.2785C149.17 50.2785 149.497 50.3288 149.775 50.4182C149.68 50.2338 149.542 49.9544 149.358 49.5801C149.17 49.2113 149.125 48.8816 149.22 48.6022C149.308 48.4178 149.336 48.1608 149.286 47.8311C149.236 47.507 149.22 47.25 149.22 47.06H149.636C149.636 47.3394 149.775 47.7138 150.052 48.1775L150.746 47.6188L150.885 47.3394L150.608 46.2218C150.608 45.9424 150.746 45.7133 151.024 45.5233C151.302 45.3389 151.485 45.1993 151.579 45.1043L151.718 44.8249L152.551 41.6119C152.64 41.2431 152.712 40.6564 152.762 39.8685C152.806 39.0806 153.017 38.4045 153.384 37.8458C153.567 37.477 153.706 37.0299 153.8 36.5159C153.889 36.0074 153.939 35.6553 153.939 35.4654C154.028 34.6272 154.355 33.6493 154.911 32.5318L155.882 29.8776V29.5982C155.605 29.4138 155.488 29.1568 155.538 28.8271C155.582 28.503 155.605 28.2907 155.605 28.2013C155.605 27.9219 155.721 27.7598 155.949 27.7095C156.176 27.6648 156.343 27.6425 156.437 27.6425C157.176 26.4355 157.87 24.8989 158.519 23.0326C158.608 22.7532 158.703 22.3844 158.797 21.915C158.886 21.4512 159.075 21.1271 159.352 20.9372C159.535 20.7528 159.63 20.4734 159.63 20.099C159.63 19.7302 159.674 19.4955 159.769 19.4005C159.858 19.2161 159.952 18.892 160.046 18.4227C160.135 17.9589 160.368 17.6348 160.74 17.4448C161.018 17.1654 161.246 16.7966 161.434 16.3272C161.618 15.8635 161.756 15.4891 161.851 15.2097V16.0479C162.589 16.3272 163.006 16.2378 163.1 15.7685C163.283 14.4665 163.561 13.349 163.933 12.4158C164.21 11.857 164.421 11.2983 164.555 10.7395C164.688 10.1807 164.854 9.67221 165.043 9.20284C164.854 9.29783 164.577 9.34254 164.21 9.34254L165.043 7.38682C165.132 7.5768 165.271 8.08529 165.46 8.92345L166.154 6.96773L165.876 6.26926C166.337 6.08487 166.87 5.62108 167.475 4.87232C168.075 4.12915 168.563 3.61507 168.93 3.33568C170.223 2.31312 171.151 1.61465 171.706 1.24027C172.261 0.960881 172.677 0.916179 172.955 1.10057C173.233 1.19557 173.832 1.43025 174.759 1.79905C175.681 2.17343 176.608 2.35782 177.535 2.35782C177.624 2.35782 177.719 2.45282 177.813 2.63721C177.902 2.8272 177.952 3.01159 177.952 3.19599C178.041 3.47538 177.902 3.71006 177.535 3.89446C176.425 4.73263 175.542 5.71049 174.898 6.82804C174.249 7.94559 173.721 9.01844 173.299 10.041C172.883 11.0692 172.583 11.7173 172.4 11.9967C170.457 16.2825 168.097 22.8929 165.321 31.8333C162.45 39.5668 160.274 47.2947 158.797 55.0226C157.964 59.029 157.315 62.3369 156.854 64.9408L155.882 70.2492C155.693 71.7412 155.51 74.0713 155.327 77.2339L154.633 90.6446C154.633 91.2034 154.7 91.9242 154.844 92.8126C154.983 93.7011 155.099 94.4666 155.188 95.1148C155.277 95.0254 155.51 94.9025 155.882 94.7684C156.249 94.6287 156.504 94.4219 156.648 94.1425C156.793 93.8631 156.809 93.4943 156.715 93.025L157.27 93.1647L157.409 92.0471L156.715 92.6059L157.131 90.5105H158.242C158.331 90.2311 158.425 89.974 158.519 89.7394C158.608 89.5103 158.703 89.2476 158.797 88.9682L157.131 90.5049C157.592 89.7617 158.031 88.8788 158.453 87.8507C158.869 86.8281 159.169 86.085 159.352 85.6156C159.441 85.7106 159.491 85.9453 159.491 86.3141C159.769 86.1297 159.93 85.99 159.98 85.895C160.024 85.8056 160.002 85.6156 159.913 85.3362C159.724 85.3362 159.541 85.4312 159.358 85.6156L159.774 83.6599L160.607 84.2186C160.696 83.5705 160.929 82.872 161.301 82.1232C161.668 81.3801 161.945 80.8213 162.134 80.4469C162.872 78.7706 163.333 77.4686 163.522 76.5355C164.26 73.6522 165.093 71.6015 166.02 70.3889C166.109 70.2995 166.159 70.0201 166.159 69.5508C166.248 69.3664 166.298 69.182 166.298 68.992C166.298 68.8076 166.342 68.6679 166.437 68.5729C167.081 68.2935 167.481 67.8297 167.614 67.176C167.753 66.5278 167.914 66.0137 168.102 65.6393C168.38 65.2705 168.591 64.7341 168.724 64.03C168.858 63.326 168.98 62.8454 169.068 62.566C169.346 61.8229 169.99 60.7053 171.012 59.2134C171.101 59.124 171.312 59.029 171.634 58.934C171.956 58.8446 172.211 58.7943 172.4 58.7943V57.118C172.4 57.0286 172.378 56.8889 172.333 56.6989C172.283 56.5145 172.311 56.3748 172.4 56.2798C172.489 56.1904 172.677 56.1904 172.955 56.2798C172.955 56.0004 172.999 55.654 173.094 55.2293C173.183 54.8102 173.277 54.3688 173.371 53.8994C173.46 54.0894 173.599 54.3688 173.788 54.7376C173.971 55.112 174.204 55.436 174.482 55.7154C174.665 54.0391 175.037 52.5975 175.592 51.3849C176.147 50.8261 176.425 49.8986 176.425 48.591C176.425 47.5685 176.653 46.775 177.119 46.2162L179.618 46.3559C178.785 45.5178 178.368 44.7746 178.368 44.1208C178.368 43.8414 178.552 43.3329 178.924 42.5842C179.201 42.8636 179.412 43.143 179.545 43.4223C179.679 43.7017 179.845 43.9364 180.034 44.1208C180.123 43.9364 180.245 43.752 180.378 43.562C180.517 43.3776 180.539 43.2379 180.445 43.143C180.35 42.9586 180.212 42.7742 180.028 42.5842C179.84 42.3998 179.795 42.1651 179.89 41.8857C180.073 41.6063 180.189 41.3493 180.234 41.1146C180.278 40.8855 180.3 40.7179 180.3 40.6229C180.3 40.7179 180.323 40.8352 180.367 40.9693C180.412 41.109 180.434 41.3158 180.434 41.5951L180.711 40.757C180.8 40.5726 180.8 40.2932 180.711 39.9188C180.711 39.0806 181.033 38.3822 181.683 37.8234C182.238 37.4546 182.605 37.1249 182.793 36.8455C182.977 36.5662 182.932 36.1974 182.655 35.728C182.56 35.6386 182.538 35.5436 182.588 35.4486C182.632 35.3592 182.705 35.3089 182.799 35.3089C183.165 34.6607 183.61 33.6829 184.12 32.3753C184.626 31.0734 185.297 30.0508 186.13 29.302C186.313 29.1177 186.408 28.8383 186.408 28.4639C186.408 28.0951 186.219 27.7654 185.853 27.486C187.329 25.0665 188.49 23.2505 189.323 22.0379C189.6 21.5742 189.967 21.1998 190.433 20.9204L190.572 21.7586C190.661 21.5742 190.755 21.3898 190.85 21.1998C190.938 21.0154 191.077 20.831 191.266 20.641L190.433 20.9204C190.8 19.8978 191.405 18.7356 192.238 17.428C192.793 17.2436 193.254 17.1486 193.626 17.1486L200.705 18.6853L202.925 18.825C203.664 19.015 204.102 19.1994 204.247 19.3838C204.386 19.5737 204.458 19.9928 204.458 20.641C204.269 22.5967 204.041 24.1334 203.764 25.2509C202.465 30.4699 201.493 36.6164 200.849 43.6906C200.199 51.0497 199.877 57.4756 199.877 62.9684C199.877 66.1366 200.244 70.0201 200.988 74.63C201.726 79.2399 202.326 82.3859 202.792 84.0622C202.975 83.319 203.07 82.8552 203.07 82.6652L207.511 71.4897C207.695 70.8415 207.833 70.1878 207.928 69.534C208.017 68.8858 208.155 68.232 208.344 67.5783L209.593 63.2478C210.149 61.387 210.61 59.9901 210.982 59.0569L212.925 51.9325C213.569 50.3512 214.174 48.5799 214.729 46.6241L216.811 40.4776L219.171 33.2135L220.559 30.0005C221.481 27.581 222.73 24.6921 224.307 21.3395C226.616 15.8467 229.026 11.3318 231.524 7.78914C232.168 6.67158 232.818 5.78871 233.468 5.13494L234.717 4.29678C234.9 4.85556 234.994 5.27464 234.994 5.55403C234.994 6.1128 234.833 6.69393 234.506 7.29741C234.178 7.90648 233.973 8.34791 233.884 8.6273C233.518 9.77279 233.057 10.8903 232.502 12.0079ZM144.917 91.2145L144.778 89.1191L144.362 89.3985C144.456 89.9573 144.456 90.6111 144.362 91.3542C144.456 91.2648 144.639 91.2145 144.917 91.2145ZM145.261 86.4649C145.033 86.2805 144.867 86.1408 144.772 86.0458V87.1634C145.333 86.884 145.494 86.6549 145.261 86.4649ZM145.611 76.9657C145.611 76.5969 145.566 76.4069 145.472 76.4069L145.056 75.7085C145.056 75.8035 145.011 75.8482 144.917 75.8482L145.194 76.9657H145.611ZM146.444 69.2825C146.532 69.3775 146.81 69.4222 147.276 69.4222C147.088 69.2378 146.904 69.0981 146.721 69.0032C146.532 68.9137 146.394 68.7741 146.305 68.5841C146.305 68.9585 146.349 69.1931 146.444 69.2825ZM148.109 69.1428L147.832 69.0032L147.554 71.0986H147.832C148.015 70.171 148.109 69.5172 148.109 69.1428ZM148.453 54.1229C148.22 54.4526 148.059 54.6594 147.965 54.7488V53.2121C148.526 53.4971 148.687 53.7988 148.453 54.1229ZM150.191 57.9673L149.914 57.8276L149.22 59.5039L149.497 59.6436C149.864 58.9005 150.097 58.3417 150.191 57.9673ZM151.579 55.0337C151.391 54.2906 151.207 53.268 151.024 51.9605L150.746 52.1001C150.558 53.4077 150.374 54.4302 150.191 55.1734L151.579 55.0337ZM154.494 38.4101C154.4 38.6895 154.4 39.0192 154.494 39.388L155.049 37.4323C154.772 37.8066 154.583 38.1307 154.494 38.4101ZM156.437 31.2131C156.343 31.5427 156.249 31.9339 156.16 32.3977H157.548L157.131 30.4475H156.715C156.621 30.6375 156.526 30.889 156.437 31.2131ZM158.519 25.1392C158.519 25.8879 158.747 26.3517 159.213 26.5361C159.491 25.5135 159.63 24.6307 159.63 23.8819V23.7422C159.63 23.4628 159.769 23.2058 160.046 22.9711C160.324 22.742 160.535 22.5073 160.668 22.2726C160.807 22.0435 160.735 21.7362 160.457 21.3674C159.352 22.3006 158.703 23.5578 158.519 25.1392ZM161.573 16.8972L161.851 18.0148C162.406 17.3666 162.406 16.7575 161.851 16.1987C161.662 16.3887 161.573 16.6178 161.573 16.8972ZM163.516 80.8772H163.239L163.1 81.7153H163.516V80.8772ZM183.226 39.9467C183.132 39.483 183.088 38.9689 183.088 38.4101C182.899 38.5051 182.394 38.7398 181.561 39.1086L183.226 39.9467ZM184.753 35.4765L183.92 34.359C184.009 34.549 184.037 34.7054 183.987 34.8507C183.937 34.9904 183.965 35.1077 184.054 35.1971C184.143 35.3871 184.237 35.4765 184.331 35.4765C184.42 35.4765 184.515 35.5268 184.609 35.6162L184.753 35.4765ZM189.195 47.3505H188.779C188.779 47.9093 188.729 48.2837 188.64 48.4681L189.056 48.6078L189.195 47.3505ZM219.104 69.7687C219.149 69.5396 218.988 69.277 218.616 68.9976L218.477 70.6739C218.849 70.3107 219.06 70.0034 219.104 69.7687Z" fill="#1F2326"/>
</svg>
