<svg xmlns="http://www.w3.org/2000/svg" viewBox="0 0 250 250">
  <title>product-design</title>
  <g>
    <path d="M187,59.77c-9.48-12.95-29.24-40.15-62-32.51S74.11,53.1,56.9,57.62s-59.69,25.6-40.66,57.2-5,94.85,16.14,105.77,38.19-36.81,72.57-8.36,45.39,12.32,62.69-5.4,36.7-3.17,49.46-3.17,13-56.5,6.47-88.85S198,77.3,187,59.77Z" style="fill: #3cc8a0;fill-opacity: 0.10000000149011612"/>
    <ellipse cx="191" cy="209.5" rx="2.5" ry="24" transform="matrix(0.14, -0.99, 0.99, 0.14, -43.04, 369.48)" style="fill: #3cc8a0;fill-opacity: 0.10000000149011612"/>
    <path d="M21,138a5,5,0,1,1,5-5H24a3,3,0,1,0-3,3Z" style="fill: #3cc8a0;opacity: 0.5;isolation: isolate"/>
    <path d="M66.5,42.33a5,5,0,0,1,5-8.66l-1,1.73a3,3,0,1,0,1.1,4.1l1.73,1A5,5,0,0,1,66.5,42.33Z" style="fill: #3cc8a0;opacity: 0.75;isolation: isolate"/>
    <path d="M174.11,47.06A5,5,0,1,1,169.89,38l.85,1.81a3,3,0,1,0,4,1.45l1.81-.85A5,5,0,0,1,174.11,47.06Z" style="fill: #3cc8a0;opacity: 0.5;isolation: isolate"/>
    <path d="M239.88,142.29a5,5,0,0,1-8.48-5.3l1.7,1.06a3,3,0,1,0,4.13-1l1.06-1.7A5,5,0,0,1,239.88,142.29Z" style="fill: #3cc8a0;opacity: 0.75;isolation: isolate"/>
    <path d="M122,228.48s-.93-4.51,5.37-7.48" style="fill: none;stroke: #3cc8a0;stroke-linecap: round;stroke-width: 2px;opacity: 0.25;isolation: isolate"/>
    <path d="M102.68,65.29s6.47,2,3.55,8.37" style="fill: none;stroke: #3cc8a0;stroke-linecap: round;stroke-width: 2px;opacity: 0.25;isolation: isolate"/>
    <path d="M224,88.48s4.34-3.23,5.37-7.48" style="fill: none;stroke: #3cc8a0;stroke-linecap: round;stroke-width: 2px;opacity: 0.5;isolation: isolate"/>
    <circle cx="174.5" cy="138.5" r="2.5" style="fill: #3cc8a0;opacity: 0.25;isolation: isolate"/>
    <circle cx="48.5" cy="231.5" r="2.5" style="fill: #3cc8a0;opacity: 0.5;isolation: isolate"/>
    <g>
      <rect x="87" y="104" width="57" height="100" style="fill: #fff"/>
      <rect x="87" y="104" width="57" height="100" style="fill: #3cc8a0;fill-opacity: 0.10000000149011612"/>
      <rect x="89.5" y="106.5" width="52" height="95" style="fill: none;stroke: #fff;stroke-width: 5px"/>
      <rect x="88" y="105" width="55" height="98" style="fill: none;stroke: #3cc8a0;stroke-width: 2px"/>
      <rect x="90" y="101" width="57" height="100" style="fill: #fff"/>
      <rect x="90" y="101" width="57" height="100" style="fill: #3cc8a0;fill-opacity: 0.10000000149011612"/>
      <rect x="92.5" y="103.5" width="52" height="95" style="fill: none;stroke: #fff;stroke-width: 5px"/>
      <rect x="91" y="102" width="55" height="98" style="fill: none;stroke: #3cc8a0;stroke-width: 2px"/>
      <rect x="82" y="97" width="67" height="100" style="fill: #fff"/>
      <rect x="82" y="97" width="67" height="100" style="fill: #3cc8a0;fill-opacity: 0.10000000149011612"/>
      <rect x="84" y="99" width="63" height="96" style="fill: none;stroke: #fff;stroke-width: 4px"/>
      <rect x="82" y="97" width="67" height="100" style="fill: none;stroke: #3cc8a0;stroke-width: 2px"/>
      <path d="M25.12,102.87c32.28-17.7,45.17,3.8,45.17,7s4.62,57.08,4.62,89.78c-4.92,5.83-19.39,4.34-19.39,4.34S39.16,129.27,25.12,102.87Z" style="fill: #fff"/>
      <path d="M25.12,102.87c32.28-17.7,45.17,3.8,45.17,7s4.62,57.08,4.62,89.78c-4.92,5.83-19.39,4.34-19.39,4.34S39.16,129.27,25.12,102.87Z" style="fill: #3cc8a0;fill-opacity: 0.10000000149011612"/>
      <path d="M27.8,103.71c12.92-6.67,23.26-7.24,31.13-3.39a21,21,0,0,1,7.27,5.83,11.11,11.11,0,0,1,2.09,3.67c0,.78,1.69,24.24,2.31,33.94.53,8.22,1,16,1.34,23.32.61,12.31.95,23,1,31.72-1.48,1.38-4,2.34-7.2,2.86a41.48,41.48,0,0,1-8.55.39c-.22-1-.46-2.06-.75-3.29-.86-3.77-1.85-8-2.94-12.51-3.12-12.94-6.48-25.88-9.94-38-3.89-13.59-7.67-25.23-11.25-34.35C30.74,110,29.24,106.61,27.8,103.71Z" style="fill: none;stroke: #fff;stroke-width: 4px"/>
      <path d="M25.12,102.87c32.28-17.7,45.17,3.8,45.17,7s4.62,57.08,4.62,89.78c-4.92,5.83-19.39,4.34-19.39,4.34S39.16,129.27,25.12,102.87Z" style="fill: none;stroke: #3cc8a0;stroke-width: 2px"/>
      <path d="M30,92.24c35.26-18,50.26,2.85,50.26,6.5S85.58,165,85.58,202.88c-5.71,6.77-22.49,5-22.49,5S46.25,122.87,30,92.24Z" style="fill: #fff"/>
      <path d="M30,92.24c35.26-18,50.26,2.85,50.26,6.5S85.58,165,85.58,202.88c-5.71,6.77-22.49,5-22.49,5S46.25,122.87,30,92.24Z" style="fill: #3cc8a0;fill-opacity: 0.10000000149011612"/>
      <path d="M32.67,93.13c14.28-6.88,25.93-7.65,34.87-3.9A23.11,23.11,0,0,1,75.84,95a10.16,10.16,0,0,1,2.39,3.75c0,.89,2,28.07,2.68,39.34.61,9.54,1.13,18.54,1.55,27.06.71,14.35,1.1,26.78,1.12,36.95-1.76,1.7-4.74,2.87-8.62,3.49a48.62,48.62,0,0,1-10.2.44c-.23-1.15-.51-2.47-.82-4-.9-4.33-1.94-9.16-3.1-14.36-3.3-14.85-6.9-29.71-10.66-43.57-5.82-21.44-11.5-38.53-16.87-49.7Z" style="fill: none;stroke: #fff;stroke-width: 4px"/>
      <path d="M30,92.24c35.26-18,50.26,2.85,50.26,6.5S85.58,165,85.58,202.88c-5.71,6.77-22.49,5-22.49,5S46.25,122.87,30,92.24Z" style="fill: none;stroke: #3cc8a0;stroke-width: 2px"/>
      <path d="M37.89,82.66C83.41,72,93,91.57,93,95.57s4.2,66.46,4.2,108c-6.25,7.41-24.63,6-24.63,6S53.62,115.86,37.89,82.66Z" style="fill: #fff"/>
      <path d="M37.89,82.66C83.41,72,93,91.57,93,95.57s4.2,66.46,4.2,108c-6.25,7.41-24.63,6-24.63,6S53.62,115.86,37.89,82.66Z" style="fill: #3cc8a0;fill-opacity: 0.10000000149011612"/>
      <path d="M40.74,84.07c18.54-4,32-3.15,40.86,1.32a20.43,20.43,0,0,1,7.54,6.14,12.13,12.13,0,0,1,1.46,2.63A4.66,4.66,0,0,1,91,95.57c0,1,1.53,28.46,2.1,40,.56,11.41,1,22.16,1.38,32.31.46,13.17.71,24.88.72,34.9-2,1.95-5.3,3.32-9.65,4.11a54.63,54.63,0,0,1-11.34.75v0c-.26-1.27-.57-2.74-.92-4.4-1-4.74-2.13-10-3.39-15.7-3.59-16.24-7.44-32.48-11.39-47.65-4.06-15.61-8-29.19-11.75-40.16C44.65,93.62,42.65,88.38,40.74,84.07Z" style="fill: none;stroke: #fff;stroke-width: 4px"/>
      <path d="M37.89,82.66C83.41,72,93,91.57,93,95.57s4.2,66.46,4.2,108c-6.25,7.41-24.63,6-24.63,6S53.62,115.86,37.89,82.66Z" style="fill: none;stroke: #3cc8a0;stroke-width: 2px"/>
      <path d="M77,201.35l4.63-.35v3a9.29,9.29,0,0,1-4,.41Z" style="fill: #3cc8a0;opacity: 0.20000000298023224;isolation: isolate"/>
      <polygon points="92.26 104 142 104 142 116 93.23 116 92.26 104" style="fill: #3cc8a0;opacity: 0.20000000298023224;isolation: isolate"/>
      <polygon points="93 119 111 119 111 136 94.02 136 93 119" style="fill: #3cc8a0;opacity: 0.20000000298023224;isolation: isolate"/>
      <rect x="115" y="159" width="27" height="17" style="fill: #3cc8a0;opacity: 0.20000000298023224;isolation: isolate"/>
      <rect x="138" y="187" width="4" height="3" style="fill: #3cc8a0;opacity: 0.20000000298023224;isolation: isolate"/>
      <rect x="115" y="179" width="20" height="3" style="fill: #3cc8a0;opacity: 0.20000000298023224;isolation: isolate"/>
      <rect x="115" y="152" width="27" height="3" style="fill: #3cc8a0;opacity: 0.20000000298023224;isolation: isolate"/>
      <path d="M69.47,171s11.66-2.08,19.83,1.84l.14,3.1c-8.5-3.82-19.28-1.94-19.28-1.94Zm1.13,5.7s10.85-2.29,19,1.36v2.55c-8.53-2.56-18.44-1.12-18.44-1.12Zm.85,4.58s9.85-1.24,18.11,1.31l.26,2.86a63.31,63.31,0,0,0-17.69-1.18Zm1.22,4.8a82.91,82.91,0,0,1,17.44.82v2.18a148.24,148.24,0,0,1-16.75,0ZM74,190.92s8.22,0,16.39-.62l0,2.9c-8.22.62-15.81.62-15.81.62Z" style="fill: #3cc8a0;opacity: 0.20000000298023224;isolation: isolate"/>
      <rect x="115" y="139" width="27" height="3" style="fill: #3cc8a0;opacity: 0.20000000298023224;isolation: isolate"/>
      <rect x="95" y="139" width="16" height="3" style="fill: #3cc8a0;opacity: 0.20000000298023224;isolation: isolate"/>
      <rect x="95" y="146" width="16" height="3" style="fill: #3cc8a0;opacity: 0.20000000298023224;isolation: isolate"/>
      <rect x="95" y="152" width="16" height="3" style="fill: #3cc8a0;opacity: 0.20000000298023224;isolation: isolate"/>
      <rect x="95" y="159" width="16" height="3" style="fill: #3cc8a0;opacity: 0.20000000298023224;isolation: isolate"/>
      <rect x="95" y="166" width="16" height="3" style="fill: #3cc8a0;opacity: 0.20000000298023224;isolation: isolate"/>
      <rect x="95" y="172" width="16" height="3" style="fill: #3cc8a0;opacity: 0.20000000298023224;isolation: isolate"/>
      <rect x="96" y="179" width="15" height="3" style="fill: #3cc8a0;opacity: 0.20000000298023224;isolation: isolate"/>
      <rect x="96" y="186" width="15" height="3" style="fill: #3cc8a0;opacity: 0.20000000298023224;isolation: isolate"/>
      <rect x="115" y="132" width="27" height="3" style="fill: #3cc8a0;opacity: 0.20000000298023224;isolation: isolate"/>
      <rect x="115" y="126" width="27" height="3" style="fill: #3cc8a0;opacity: 0.20000000298023224;isolation: isolate"/>
      <rect x="115" y="119" width="27" height="3" style="fill: #3cc8a0;opacity: 0.20000000298023224;isolation: isolate"/>
      <path d="M47,87.39s29.4-6.45,38.65,8.38L87,112.26c-7.54-10.54-34.16-7-34.16-7Zm15,52.7s16.35-3.33,25.95,2.56l1,20.19c-8.27-4.93-22.08-1.8-22.08-1.8Zm-8.19-29.34c8.74-1.35,19-.59,20.91,0l.7,6a90.56,90.56,0,0,0-20,0Zm3,9.84a73,73,0,0,1,18.83,0l.58,5.37a80.32,80.32,0,0,0-17.73.28Zm2.72,9a63.37,63.37,0,0,1,14.84-.34l.77,4.94c-4-.39-11.46.26-14.44.53Z" style="fill: #3cc8a0;fill-opacity: 0.20000000298023224"/>
      <path d="M78,112s6,1.21,8.93,3.92l.33,4.77a19.74,19.74,0,0,0-8.6-3.35Zm2,50.24s6.51.91,9,2.85l.24,3a26.86,26.86,0,0,0-8.8-2.52Zm-12.71.71s6.42-1.53,11.46-.78l.55,3.26c-4.94-.78-11.3.78-11.3.78ZM79,121s5.55.62,8.49,3.33l.25,4.44a24.37,24.37,0,0,0-8.13-2.47Zm1,9s5.06.56,8,2.62l.26,5.08A27.94,27.94,0,0,0,80.58,135Z" style="fill: #3cc8a0;opacity: 0.20000000298023224;isolation: isolate"/>
    </g>
    <rect x="161" y="63" width="57" height="57" rx="15" ry="15" style="fill: #fff"/>
    <rect x="161" y="63" width="57" height="57" rx="15" ry="15" style="fill: #3cc8a0;fill-opacity: 0.10000000149011612"/>
    <rect x="163.5" y="65.5" width="52" height="52" rx="15" ry="15" style="fill: none;stroke: #fff;stroke-width: 5px"/>
    <rect x="162" y="64" width="55" height="55" rx="15" ry="15" style="fill: none;stroke: #3cc8a0;stroke-width: 2px"/>
    <path d="M201.57,106.07a18.92,18.92,0,1,0-5.88,3.06l5.88,2.84Z" style="fill: #3cc8a0;fill-opacity: 0.10000000149011612"/>
    <path d="M193.54,97.34l-1-3.4H187.3l-1,3.4H183L188,83h3.7l5.06,14.34Zm-1.76-5.94q-1.44-4.62-1.62-5.22t-.26-1q-.32,1.25-1.85,6.18Z" style="fill: #3cc8a0;opacity: 0.5;isolation: isolate"/>
    <path d="M99,217.31c26,0,47-1,47-2.22s-21-2.22-47-2.22-43.36-1.7-47,2.22c-.52.56,4,5.39,11.32,5.78,7.55.4,15.32,0,27.28,0C97,220.88,97.27,217.31,99,217.31Z" style="fill: #3cc8a0;fill-opacity: 0.10000000149011612"/>
    <g>
      <path d="M222.23,152.49c5.58,1,10,12.46,10,19,0,18.12-14,28-15.61,28.46s-7.14-.25-7.14-.25S215.26,160.62,222.23,152.49Z" style="fill: #fff;stroke: #3cc8a0;stroke-width: 2px"/>
      <path d="M168.69,153.4c.51-1.22,18.46-3,27.4-3.2s24.91,0,27.62,2c1.45,1.35,7,13.2,5.85,21.25s-12.34,21.25-12.34,21.25-1.77,6-4.49,6.15-26.68-2.24-43-6.15c-2.42-1.62-5.29-6-5.29-6s-4-12.58-3.19-17.77S164.89,160.14,168.69,153.4Z" style="fill: #fff"/>
      <path d="M169.48,154a4.09,4.09,0,0,1,.45-.16,21.67,21.67,0,0,1,2.18-.48c1.81-.33,4.31-.67,7.23-1,5.74-.63,12.41-1.12,16.77-1.21,12.58-.28,24.82.33,27,1.76.71.73,2.4,4.15,3.61,7.67,1.64,4.75,2.4,9.25,1.89,12.66a23.72,23.72,0,0,1-2.78,7.26c-.9,1.66-2,3.42-3.18,5.23-1.35,2-2.79,4-4.24,5.86-.51.65-1,1.24-1.4,1.76l-.52.63-.14.16-.06.2c-.05.17-.15.49-.3.9a17.61,17.61,0,0,1-.87,2c-.82,1.58-1.7,2.5-2.4,2.53-4.56.21-29.29-2.93-42.52-6.08a8.52,8.52,0,0,1-.76-.62,18.92,18.92,0,0,1-1.72-1.81c-.59-.7-1.17-1.45-1.71-2.21l-.51-.73-.11-.16-.1-.31c-.11-.36-.24-.78-.37-1.24-.38-1.32-.77-2.73-1.12-4.16s-.65-2.74-.9-4a24.49,24.49,0,0,1-.63-7.44C162.93,166.65,165,162.07,169.48,154Zm-1.67-1.11,0,.08h0Z" style="fill: none;stroke: #3cc8a0;stroke-width: 2px"/>
      <path d="M171.24,156.62a.94.94,0,0,1,.86-.8l44.33-.87a.66.66,0,0,1,.66.77l-3.17,30.94a.77.77,0,0,1-.81.71L168,182.67a.73.73,0,0,1-.61-.86Z" style="fill: #3cc8a0;fill-opacity: 0.10000000149011612"/>
      <path d="M172.22,156.82l43.83-.86-3.11,30.39-44.52-4.65Z" style="fill: none;stroke: #3cc8a0;stroke-width: 2px"/>
      <g>
        <path d="M217.53,167.71c.28-1.17,1.76-1.64,1.76-1.64a16.46,16.46,0,0,1,5.86-.92s1.38,6.15.52,9.22a33.28,33.28,0,0,1-6.39,11.71c-1.15,1.11-3.37,0-3.37,0A89.68,89.68,0,0,1,217.53,167.71Z" style="fill: #3cc8a0;fill-opacity: 0.10000000149011612"/>
        <path d="M218.51,167.92a1.12,1.12,0,0,1,.47-.57,2.45,2.45,0,0,1,.62-.33l.11,0a8.17,8.17,0,0,1,1.86-.55,17.73,17.73,0,0,1,2.23-.26l.54,0c.08.41.16.85.23,1.32.17,1.1.3,2.18.36,3.18a11.24,11.24,0,0,1-.21,3.44,32.26,32.26,0,0,1-6.15,11.29,1,1,0,0,1-.63.19,3.3,3.3,0,0,1-1-.17A87.31,87.31,0,0,1,218.51,167.92Z" style="fill: none;stroke: #3cc8a0;stroke-width: 2px"/>
      </g>
      <path d="M216.69,177.09l7.55,0" style="fill: none;stroke: #3cc8a0;stroke-width: 2px"/>
    </g>
  </g>
</svg>
