<svg xmlns="http://www.w3.org/2000/svg" width="250" height="250" viewBox="0 0 250 250" xmlns:xlink="http://www.w3.org/1999/xlink">
  <defs>
    <rect id="a" width="57" height="100" x="64" y="25"/>
    <rect id="b" width="57" height="100" x="67" y="22"/>
    <rect id="c" width="67" height="100" x="59" y="18"/>
    <path id="d" d="M2.11889648,23.8723145 C34.3994141,6.16992188 47.2920822,27.6767411 47.2920822,30.8265785 C47.2920822,33.976416 51.9123476,87.9070185 51.9123476,120.603538 C46.9921916,126.435944 32.5260721,124.945372 32.5260721,124.945372 C32.5260721,124.945372 16.1645104,50.2749878 2.11889648,23.8723145 Z"/>
    <path id="e" d="M6.96063338,13.2402674 C42.218192,-4.73270089 57.2232143,16.0907463 57.2232143,19.7444196 C57.2232143,23.398093 62.5825195,85.9552275 62.5825195,123.881757 C56.8753543,130.647092 40.0952899,128.918094 40.0952899,128.918094 C40.0952899,128.918094 23.2529297,43.8662109 6.96063338,13.2402674 Z"/>
    <path id="f" d="M14.8913574,3.66381836 C60.4091797,-7.03613281 69.9606934,12.5654297 69.9606934,16.5678711 C69.9606934,20.5703125 74.1650391,83.0317383 74.1650391,124.578613 C67.9130859,131.989746 49.53125,130.575684 49.53125,130.575684 C49.53125,130.575684 30.6159668,36.8571777 14.8913574,3.66381836 Z"/>
    <rect id="g" width="57" height="57" x="161" y="63" rx="15"/>
    <path id="h" d="M7.68746923,3.39798829 C8.19954091,2.18090057 26.1518885,0.394888984 35.0845884,0.197273254 C44.0172884,-0.000342475199 59.9953689,0.197273254 62.7027223,2.18090057 C64.1521323,3.53535461 69.7497382,15.3803101 68.5543754,23.4284363 C67.3590126,31.4765625 56.2107361,44.675972 56.2107361,44.675972 C56.2107361,44.675972 54.4415258,50.6979334 51.7209548,50.8237381 C49.0003838,50.9495428 25.0392941,48.5840836 8.73780807,44.675972 C6.31988966,43.0600433 3.44416479,38.6569977 3.44416479,38.6569977 C3.44416479,38.6569977 -0.552547644,26.0735243 0.254047197,20.8907318 C1.06064204,15.7079394 3.89303117,10.1360321 7.68746923,3.39798829 Z"/>
    <path id="i" d="M10.2370314,6.62353145 C10.3034009,6.18928849 10.68674,5.83082091 11.095232,5.82283282 L55.423446,4.95599103 C55.8310476,4.94802035 56.1251915,5.29559846 56.0807646,5.72911078 L52.9103529,36.6655731 C52.8657783,37.100526 52.4946574,37.4181611 52.0982686,37.3767884 L6.99920224,32.6696136 C6.59527501,32.627454 6.32254367,32.2352782 6.3879999,31.8070105 L10.2370314,6.62353145 Z"/>
    <path id="j" d="M56.5314614,17.7054794 C56.8097213,16.5377452 58.2930292,16.0667885 58.2930292,16.0667885 C60.5119964,15.0525394 64.1569749,15.1426781 64.1569749,15.1426781 C64.1569749,15.1426781 65.5384207,21.2952864 64.6795969,24.3604362 C63.8207731,27.4255861 61.7864048,31.8760202 58.2930292,36.0711525 C57.1419942,37.1816414 54.9278351,36.0711525 54.9278351,36.0711525 C54.9278351,29.1440208 55.3103959,24.0608299 56.5314614,17.7054794 Z"/>
  </defs>
  <g fill="none" fill-rule="evenodd">
    <path fill="#3CC8A0" fill-opacity=".1" d="M149.686313,39.6363463 C135.76113,31.6636902 106.642981,14.8458848 79.8148555,35.1544785 C52.9867305,55.4630723 43.8367021,79.463036 29.9538896,90.5958485 C16.0710771,101.728661 -14.1632979,138.259911 16.0710771,159.392724 C46.3054521,180.525536 50.1285421,248.057533 73.8394796,249.45597 C97.5504171,250.854408 93.7585771,200.291161 136.73514,212.306786 C179.711702,224.322411 183.20687,205.098172 191.808432,181.879422 C200.409995,158.660672 224.044719,164.054853 235.704914,158.8634 C247.365108,153.671947 224.629826,101.952445 205.481389,75.0618196 C186.332951,48.1711946 166.822102,51.1994815 149.686313,39.6363463 Z" transform="rotate(24 120.992 137.494)"/>
    <ellipse cx="191" cy="209.5" fill="#3CC8A0" fill-opacity=".1" transform="rotate(8 191 209.5)" rx="24" ry="2.5"/>
    <path fill="#3CC8A0" fill-rule="nonzero" d="M21,138 C18.2385763,138 16,135.761424 16,133 C16,130.238576 18.2385763,128 21,128 C23.7614237,128 26,130.238576 26,133 L24,133 C24,131.343146 22.6568542,130 21,130 C19.3431458,130 18,131.343146 18,133 C18,134.656854 19.3431458,136 21,136 L21,138 Z" opacity=".5"/>
    <path fill="#3CC8A0" fill-rule="nonzero" d="M66.5008349,42.3309619 C64.1093718,40.95025 63.289996,37.892298 64.6707079,35.5008349 C66.0514197,33.1093718 69.1093718,32.289996 71.5008349,33.6707079 L70.5008349,35.4027587 C69.065957,34.5743315 67.2311858,35.065957 66.4027587,36.5008349 C65.5743315,37.9357127 66.065957,39.770484 67.5008349,40.5989111 C68.9357127,41.4273382 70.770484,40.9357127 71.5989111,39.5008349 L73.3309619,40.5008349 C71.95025,42.892298 68.892298,43.7116738 66.5008349,42.3309619 Z" opacity=".75"/>
    <path fill="#3CC8A0" fill-rule="nonzero" d="M174.114285,47.0630779 C171.611585,48.230106 168.636682,47.1473301 167.469654,44.6446302 C166.302626,42.1419304 167.385402,39.1670281 169.888102,38 L170.733338,39.8126156 C169.231719,40.5128324 168.582053,42.2977738 169.28227,43.7993937 C169.982487,45.3010136 171.767428,45.9506792 173.269048,45.2504623 C174.770668,44.5502454 175.420333,42.7653041 174.720117,41.2636841 L176.532732,40.4184476 C177.69976,42.9211475 176.616984,45.8960498 174.114285,47.0630779 Z" opacity=".5"/>
    <path fill="#3CC8A0" fill-rule="nonzero" d="M239.884871,142.294227 C238.421539,144.636047 235.336854,145.348202 232.995034,143.884871 C230.653214,142.421539 229.941058,139.336854 231.40439,136.995034 L233.100486,138.054872 C232.222487,139.459965 232.64978,141.310776 234.054872,142.188775 C235.459965,143.066774 237.310776,142.63948 238.188775,141.234388 C239.066774,139.829296 238.63948,137.978485 237.234388,137.100486 L238.294227,135.40439 C240.636047,136.867721 241.348202,139.952406 239.884871,142.294227 Z" opacity=".75"/>
    <path stroke="#3CC8A0" stroke-width="2" d="M122.04891,228.47863 C122.04891,228.47863 121.113979,223.972151 127.419391,221" opacity=".25" stroke-linecap="round"/>
    <path stroke="#3CC8A0" stroke-width="2" d="M104.04891,73.4786301 C104.04891,73.4786301 100.404284,67.7592599 106.709695,64.7871094" opacity=".25" stroke-linecap="round" transform="rotate(140 104.855 69.133)"/>
    <path stroke="#3CC8A0" stroke-width="2" d="M224,88.4786301 C224,88.4786301 228.335856,85.2460938 229.370481,81" opacity=".5" stroke-linecap="round"/>
    <circle cx="174.5" cy="138.5" r="2.5" fill="#3CC8A0" opacity=".25"/>
    <circle cx="48.5" cy="231.5" r="2.5" fill="#3CC8A0" opacity=".5"/>
    <text fill="#939DA7" font-family="OpenSans-Semibold, Open Sans" font-size="20" font-weight="500">
      <tspan x="-10007" y="21">Type something</tspan>
    </text>
    <g transform="translate(23 79)">
      <use fill="#FFFFFF" xlink:href="#a"/>
      <use fill="#3CC8A0" fill-opacity=".1" xlink:href="#a"/>
      <rect width="52" height="95" x="66.5" y="27.5" stroke="#FFFFFF" stroke-width="5"/>
      <rect width="55" height="98" x="65" y="26" stroke="#3CC8A0" stroke-width="2"/>
      <use fill="#FFFFFF" xlink:href="#b"/>
      <use fill="#3CC8A0" fill-opacity=".1" xlink:href="#b"/>
      <rect width="52" height="95" x="69.5" y="24.5" stroke="#FFFFFF" stroke-width="5"/>
      <rect width="55" height="98" x="68" y="23" stroke="#3CC8A0" stroke-width="2"/>
      <use fill="#FFFFFF" xlink:href="#c"/>
      <use fill="#3CC8A0" fill-opacity=".1" xlink:href="#c"/>
      <rect width="63" height="96" x="61" y="20" stroke="#FFFFFF" stroke-width="4"/>
      <use stroke="#3CC8A0" stroke-width="2" xlink:href="#c"/>
      <use fill="#FFFFFF" xlink:href="#d"/>
      <use fill="#3CC8A0" fill-opacity=".1" xlink:href="#d"/>
      <path stroke="#FFFFFF" stroke-width="4" d="M4.79902209,24.7109676 C17.714789,18.0427969 28.0578372,17.466966 35.9304331,21.3257331 C38.9217963,22.7919552 41.3877735,24.8476949 43.1999399,27.1565622 C44.4841483,28.7927623 45.2920822,30.4548762 45.2920822,30.8265785 C45.2920822,31.6075707 46.9825265,55.0619716 47.6063367,64.7633893 C48.1348505,72.9827675 48.5843088,80.7414313 48.9465902,88.0874471 C49.5536832,100.397536 49.8919274,111.072405 49.911452,119.80817 C48.4317591,121.185595 45.9433498,122.146022 42.7091247,122.666632 C39.9097951,123.117236 36.9080817,123.198622 34.1548168,123.055693 C33.9393742,122.093875 33.690346,120.993324 33.4093717,119.764837 C32.546248,115.991056 31.5597955,111.786636 30.4663197,107.259052 C27.3416759,94.3213262 23.9850042,81.3827727 20.5259346,69.3011418 C16.6361762,55.7152269 12.8584597,44.072169 9.27643497,34.9545137 C7.73735924,31.0369634 6.24435797,27.6128309 4.79902209,24.7109676 Z"/>
      <use stroke="#3CC8A0" stroke-width="2" xlink:href="#d"/>
      <use fill="#FFFFFF" xlink:href="#e"/>
      <use fill="#3CC8A0" fill-opacity=".1" xlink:href="#e"/>
      <path stroke="#FFFFFF" stroke-width="4" d="M9.66874569,14.129734 C23.9493013,7.25035827 35.5947973,6.48135525 44.5410812,10.2271717 C47.9571831,11.6574964 50.7793805,13.6957706 52.8381344,15.9938282 C54.3209079,17.648955 55.2232143,19.3135461 55.2232143,19.7444196 C55.2232143,20.6368815 57.1821594,47.8166502 57.9069887,59.089104 C58.5201374,68.6247136 59.0415794,77.6259769 59.4618949,86.1487588 C60.1695199,100.497345 60.5623765,112.931972 60.5817656,123.09639 C58.8219229,124.798699 55.839611,125.965887 51.9580259,126.590701 C48.6132139,127.129112 45.0279246,127.216491 41.7562009,127.034236 C41.5233924,125.887565 41.2509039,124.562689 40.9405516,123.074189 C40.0372781,118.74194 38.9998089,113.915298 37.8435038,108.717654 C34.5393412,93.8652928 30.9445331,79.0120179 27.1810701,65.142735 C21.3629862,43.7016711 15.6832438,26.6162242 10.3100992,15.4384725 C10.0957299,14.9925202 9.88194669,14.5562538 9.66874569,14.129734 Z"/>
      <use stroke="#3CC8A0" stroke-width="2" xlink:href="#e"/>
      <use fill="#FFFFFF" xlink:href="#f"/>
      <use fill="#3CC8A0" fill-opacity=".1" xlink:href="#f"/>
      <path stroke="#FFFFFF" stroke-width="4" d="M17.735323,5.07010897 C36.2766176,1.03015715 49.7132167,1.92068068 58.5964667,6.38913797 C61.963915,8.08303366 64.4686764,10.212201 66.133534,12.5263855 C66.7872283,13.4350333 67.2786526,14.3326259 67.5979296,15.1517381 C67.843263,15.7811463 67.9606934,16.3037872 67.9606934,16.5678711 C67.9606934,17.5185153 69.4949393,45.0296061 70.0652948,56.5926116 C70.6282485,68.0055577 71.0923241,78.749981 71.4443525,88.9015273 C71.9009361,102.068164 72.1521028,113.780199 72.1645527,123.799657 C70.2003559,125.748628 66.8610134,127.119257 62.5169486,127.908705 C58.746274,128.59395 54.7418568,128.774024 51.1799463,128.654256 C51.1774977,128.642351 51.1750402,128.630404 51.1725739,128.618416 C50.9113375,127.348625 50.605216,125.876064 50.2566278,124.217619 C49.2609558,119.480603 48.1244641,114.202787 46.8664882,108.519202 C43.2719148,92.2787789 39.4237604,76.0376099 35.4760498,60.874125 C31.4117864,45.2629506 27.4683159,31.6816035 23.7260738,20.7100264 C21.6474292,14.6158163 19.6486149,9.38119244 17.735323,5.07010897 Z"/>
      <use stroke="#3CC8A0" stroke-width="2" xlink:href="#f"/>
      <path fill="#3CC8A0" d="M54,122.346436 L58.6328125,122 L58.6328125,124.988525 C57.291748,125.676514 54.6328125,125.400391 54.6328125,125.400391 L54,122.346436 Z" opacity=".2"/>
      <polygon fill="#3CC8A0" points="69.26 25 119 25 119 37 70.231 37" opacity=".2"/>
      <polygon fill="#3CC8A0" points="70 40 88 40 88 57 71.016 57" opacity=".2"/>
      <rect width="27" height="17" x="92" y="80" fill="#3CC8A0" opacity=".2"/>
      <rect width="4" height="3" x="115" y="108" fill="#3CC8A0" opacity=".2"/>
      <rect width="20" height="3" x="92" y="100" fill="#3CC8A0" opacity=".2"/>
      <rect width="27" height="3" x="92" y="73" fill="#3CC8A0" opacity=".2"/>
      <path fill="#3CC8A0" d="M46.4719238 92.020752C46.4719238 92.020752 58.1313643 89.9423828 66.2974537 93.8601074L66.434747 96.9614258C57.9378189 93.1369629 47.1574368 95.020752 47.1574368 95.020752L46.4719238 92.020752zM47.604355 97.7241211C47.604355 97.7241211 58.4581509 95.4306641 66.6104156 99.0849609L66.6104156 101.631348C58.0789259 99.0722656 48.1675911 100.510133 48.1675911 100.510133L47.604355 97.7241211zM48.4583859 102.301102C48.4583859 102.301102 58.3057927 101.060868 66.5722786 103.614579L66.8311336 106.479325C58.3761079 104.467971 49.1438988 105.301102 49.1438988 105.301102L48.4583859 102.301102zM49.6740034 107.101466C49.6740034 107.101466 58.8943431 106.462891 67.1104873 107.92627L67.1104873 110.101466C59.1777344 110.65332 50.3595163 110.101466 50.3595163 110.101466L49.6740034 107.101466zM51 111.921158C51 111.921158 59.2181702 111.921158 67.3899949 111.300003L67.4363403 114.196228C59.2181702 114.817383 51.6235352 114.817383 51.6235352 114.817383L51 111.921158z" opacity=".2"/>
      <rect width="27" height="3" x="92" y="60" fill="#3CC8A0" opacity=".2"/>
      <rect width="16" height="3" x="72" y="60" fill="#3CC8A0" opacity=".2"/>
      <rect width="16" height="3" x="72" y="67" fill="#3CC8A0" opacity=".2"/>
      <rect width="16" height="3" x="72" y="73" fill="#3CC8A0" opacity=".2"/>
      <rect width="16" height="3" x="72" y="80" fill="#3CC8A0" opacity=".2"/>
      <rect width="16" height="3" x="72" y="87" fill="#3CC8A0" opacity=".2"/>
      <rect width="16" height="3" x="72" y="93" fill="#3CC8A0" opacity=".2"/>
      <rect width="15" height="3" x="73" y="100" fill="#3CC8A0" opacity=".2"/>
      <rect width="15" height="3" x="73" y="107" fill="#3CC8A0" opacity=".2"/>
      <rect width="27" height="3" x="92" y="53" fill="#3CC8A0" opacity=".2"/>
      <rect width="27" height="3" x="92" y="47" fill="#3CC8A0" opacity=".2"/>
      <rect width="27" height="3" x="92" y="40" fill="#3CC8A0" opacity=".2"/>
      <path fill="#3CC8A0" fill-opacity=".2" d="M24 8.39469099C24 8.39469099 53.3999023 1.94693708 62.6484375 16.7784801L63.9804688 33.2594371C56.440918 22.7223277 29.8232422 26.2482066 29.8232422 26.2482066L24 8.39469099zM38.9702148 61.0935857C38.9702148 61.0935857 55.3212891 57.7602539 64.9199219 63.6513672L65.9389648 83.8388672C57.6677246 78.9104004 43.855957 82.0419922 43.855957 82.0419922L38.9702148 61.0935857zM30.7791748 31.7523781C39.5218506 30.4047218 49.7889404 31.1630226 51.6937256 31.7523781L52.3978271 37.7523781C46.3382568 36.9086281 37.7044678 37.1205421 32.3978271 37.7523781L30.7791748 31.7523781zM33.7791748 41.5931135C42.4510498 40.612464 49.1572266 41.0176741 52.6091309 41.5931135L53.1861572 46.9626465C47.0877686 46.298584 40.7591553 46.6065413 35.4525146 47.2383772L33.7791748 41.5931135zM36.5 50.6412418C40.4499512 50.0350407 47.5817871 49.7365716 51.340332 50.2979801L52.1086426 55.2343743C48.1447754 54.8481438 40.651123 55.4893864 37.6660156 55.7623356L36.5 50.6412418z"/>
      <path fill="#3CC8A0" d="M55 33C55 33 60.9859308 34.2069547 63.9291992 36.918457L64.2589111 41.6880493C60.4951172 38.8649902 55.6601562 38.3359375 55.6601562 38.3359375L55 33zM56.9943848 83.2420654C56.9943848 83.2420654 63.5065918 84.1553955 65.9943848 86.0894775L66.230957 89.1109619C62.3897705 87.0507812 57.4311523 86.5861816 57.4311523 86.5861816L56.9943848 83.2420654zM44.28125 83.949707C44.28125 83.949707 50.7058105 82.4211426 55.7453613 83.1669922L56.298584 86.4245605C51.3623047 85.6479492 44.9975586 87.2072754 44.9975586 87.2072754L44.28125 83.949707zM56 42C56 42 61.5506891 42.6215055 64.4939575 45.3330078L64.7463989 49.7684937C60.9944458 47.7269897 56.6118164 47.2949219 56.6118164 47.2949219L56 42zM57 51C57 51 62.0557861 51.5613708 65.0025635 53.6155701L65.2658081 58.6967163C61.513855 56.6552124 57.5756836 55.9858398 57.5756836 55.9858398L57 51z" opacity=".2"/>
    </g>
    <use fill="#FFFFFF" xlink:href="#g"/>
    <use fill="#3CC8A0" fill-opacity=".1" xlink:href="#g"/>
    <rect width="52" height="52" x="163.5" y="65.5" stroke="#FFFFFF" stroke-width="5" rx="15"/>
    <rect width="55" height="55" x="162" y="64" stroke="#3CC8A0" stroke-width="2" rx="15"/>
    <path fill="#3CC8A0" fill-opacity=".1" d="M201.57307,106.069844 C206.089393,102.596299 209,97.138054 209,91 C209,80.5065898 200.49341,72 190,72 C179.50659,72 171,80.5065898 171,91 C171,101.49341 179.50659,110 190,110 C191.984325,110 193.897602,109.695808 195.695743,109.131512 L201.57307,111.97452 L201.57307,106.069844 Z"/>
    <path fill="#3CC8A0" d="M193.537109,97.3359375 L192.501953,93.9375 L187.296875,93.9375 L186.261719,97.3359375 L183,97.3359375 L188.039062,83 L191.740234,83 L196.798828,97.3359375 L193.537109,97.3359375 Z M191.779297,91.3984375 C190.822261,88.318995 190.283529,86.577476 190.163086,86.1738281 C190.042643,85.7701803 189.95638,85.451173 189.904297,85.2167969 C189.689452,86.0501344 189.074224,88.1106606 188.058594,91.3984375 L191.779297,91.3984375 Z" opacity=".5"/>
    <path fill="#3CC8A0" fill-opacity=".1" d="M99,217.313474 C124.957383,217.313474 146,216.31918 146,215.092656 C146,213.866132 124.957383,212.871838 99,212.871838 C73.0426168,212.871838 55.6386719,211.175862 52,215.092656 C51.477757,215.654817 55.9785394,220.485709 63.3164063,220.877481 C70.8628519,221.28039 78.6412233,220.877481 90.5996094,220.877481 C96.953125,220.877481 97.2673476,217.313474 99,217.313474 Z"/>
    <g transform="translate(161 150)">
      <path fill="#FFFFFF" stroke="#3CC8A0" stroke-width="2" d="M61.2284477,2.48799706 C66.805659,3.45218468 71.223361,14.9468536 71.223361,21.4985046 C71.223361,39.6157379 57.2563527,49.5227852 55.6083984,49.9589653 C53.9604442,50.3951454 48.4723542,49.7095528 48.4723542,49.7095528 C48.4723542,49.7095528 54.2616369,10.6224089 61.2284477,2.48799706 Z"/>
      <use fill="#FFFFFF" xlink:href="#h"/>
      <path stroke="#3CC8A0" stroke-width="2" d="M8.47571987,4.03632258 C8.57967912,3.99061023 8.73350893,3.93616954 8.93030961,3.87765903 C9.43419748,3.7278489 10.1694124,3.56516929 11.1056176,3.39633195 C12.9111254,3.07072265 15.4155848,2.73064803 18.3375966,2.40933722 C24.0771796,1.77820011 30.7442827,1.29353735 35.1067058,1.19702864 C47.6831998,0.918802226 59.9268862,1.52400275 62.0612056,2.95222991 C62.7675293,3.68351496 64.4566015,7.09902142 65.6753011,10.6215031 C67.3175546,15.3682084 68.0719689,19.8697297 67.5652263,23.2815211 C67.2734402,25.2460552 66.3088287,27.711216 64.7814535,30.5432383 C63.8846238,32.2061183 62.8125903,33.9610366 61.6025385,35.7740826 C60.2554794,37.7924097 58.8105159,39.7757483 57.3655439,41.6379772 C56.8599079,42.289623 56.3906378,42.8792728 55.9699313,43.3962754 C55.7186286,43.7050992 55.5401789,43.9201208 55.4467664,44.0307199 L55.310719,44.1917983 L55.2512864,44.3940923 C55.2008233,44.5658564 55.0980619,44.8811139 54.9469443,45.2908132 C54.6945926,45.9749715 54.4014783,46.6583881 54.0735774,47.290226 C53.2541672,48.8691615 52.3763178,49.7923642 51.6747621,49.8248055 C47.1162705,50.0355995 22.387687,46.8944956 9.15202919,43.7467666 C8.91508662,43.5776232 8.66190716,43.3709838 8.39548429,43.1297924 C7.85672666,42.6420575 7.27848566,42.0268866 6.67855048,41.3148984 C6.08840651,40.6145302 5.51038948,39.8607462 4.97023295,39.1066406 C4.78108021,38.8425669 4.61039699,38.5976322 4.46125444,38.3783672 C4.42003998,38.3177748 4.38479857,38.2655424 4.3558369,38.2223264 C4.33068704,38.141529 4.29813615,38.0360643 4.2588487,37.9074443 C4.14742997,37.5426797 4.02313193,37.1261614 3.88918148,36.6652423 C3.506202,35.3474223 3.12314916,33.939712 2.76586169,32.501276 C2.42039092,31.110414 2.11738256,29.7631487 1.86874904,28.4873338 C1.23367443,25.2285711 0.993876403,22.639814 1.24215258,21.0445101 C1.9255511,16.6533182 3.95616977,12.073702 8.47571987,4.03632258 Z M6.80637638,2.9272154 C6.7910375,2.954569 6.77749276,2.98222042 6.76572926,3.0101798 L6.76572926,3.0101798 L6.80637638,2.9272154 Z"/>
      <use fill="#3CC8A0" fill-opacity=".1" xlink:href="#i"/>
      <path stroke="#3CC8A0" stroke-width="2" d="M11.218522,6.82061305 L55.0515111,5.96345543 L51.9369922,36.3545231 L7.41481237,31.7075603 L11.218522,6.82061305 Z"/>
      <g fill-rule="nonzero">
        <use fill="#3CC8A0" fill-opacity=".1" fill-rule="evenodd" xlink:href="#j"/>
        <path stroke="#3CC8A0" stroke-width="2" d="M57.5083382,17.9210439 C57.5605217,17.7266175 57.7181759,17.5304621 57.9736733,17.3467574 C58.2129593,17.1747088 58.4617984,17.062398 58.5956465,17.0199006 L58.7087428,16.976284 C59.2055121,16.7492199 59.838788,16.5664294 60.5735093,16.4296965 C61.2756645,16.2990242 62.0349967,16.2162541 62.8056954,16.1732944 C62.9948596,16.1627501 63.174175,16.1550915 63.3414654,16.1498369 C63.4198871,16.5607278 63.4977378,17.0044444 63.5711042,17.4707757 C63.7441497,18.5706869 63.8695115,19.6510758 63.9268653,20.6554769 C64.0090942,22.0954993 63.9438967,23.2796996 63.7166803,24.0906368 C62.7347381,27.5951976 60.5675562,31.7620694 57.5675921,35.3794831 C57.4265946,35.4977666 57.2214935,35.5606796 56.9356723,35.5645249 C56.6350174,35.5685697 56.2861573,35.5044119 55.9291361,35.3914491 C55.9554461,28.6127283 56.3840055,23.7808495 57.5083382,17.9210439 Z"/>
      </g>
      <path stroke="#3CC8A0" stroke-width="2" d="M55.6907216,27.09375 L63.2424795,27.1268234"/>
    </g>
  </g>
</svg>
