<svg viewBox="0 0 951 303" xmlns="http://www.w3.org/2000/svg" preserveAspectRatio="xMinYMin meet">
<path d="M56.48 33.88H40.16V30.2C40.16 26.4667 39.2533 23.2667 37.44 20.6C35.7333 17.8267 32.8 16.44 28.64 16.44C26.4 16.44 24.5867 16.8667 23.2 17.72C21.8133 18.5733 20.6933 19.64 19.84 20.92C18.9867 22.3067 18.4 23.9067 18.08 25.72C17.76 27.4267 17.6 29.24 17.6 31.16C17.6 33.4 17.6533 35.2667 17.76 36.76C17.9733 38.2533 18.4 39.5867 19.04 40.76C19.68 41.9333 20.5867 42.9467 21.76 43.8C23.04 44.6533 24.7467 45.5067 26.88 46.36L39.36 51.32C42.9867 52.7067 45.92 54.36 48.16 56.28C50.4 58.0933 52.16 60.2267 53.44 62.68C54.6133 65.24 55.4133 68.1733 55.84 71.48C56.2667 74.68 56.48 78.36 56.48 82.52C56.48 87.32 56 91.8 55.04 95.96C54.08 100.013 52.5333 103.48 50.4 106.36C48.16 109.347 45.2267 111.693 41.6 113.4C37.9733 115.107 33.5467 115.96 28.32 115.96C24.3733 115.96 20.6933 115.267 17.28 113.88C13.8667 112.493 10.9333 110.573 8.48 108.12C6.02667 105.667 4.05333 102.84 2.56 99.64C1.17333 96.3333 0.48 92.76 0.48 88.92V82.84H16.8V87.96C16.8 90.9467 17.6533 93.6667 19.36 96.12C21.1733 98.4667 24.16 99.64 28.32 99.64C31.0933 99.64 33.2267 99.2667 34.72 98.52C36.32 97.6667 37.5467 96.4933 38.4 95C39.2533 93.5067 39.7333 91.7467 39.84 89.72C40.0533 87.5867 40.16 85.24 40.16 82.68C40.16 79.6933 40.0533 77.24 39.84 75.32C39.6267 73.4 39.2 71.8533 38.56 70.68C37.8133 69.5067 36.8 68.5467 35.52 67.8C34.3467 67.0533 32.7467 66.2533 30.72 65.4L19.04 60.6C12 57.72 7.25333 53.9333 4.8 49.24C2.45333 44.44 1.28 38.4667 1.28 31.32C1.28 27.0533 1.86667 23 3.04 19.16C4.21333 15.32 5.97333 12.0133 8.32 9.24C10.56 6.46666 13.3867 4.27999 16.8 2.68C20.32 0.973326 24.48 0.119991 29.28 0.119991C33.3333 0.119991 37.0133 0.866658 40.32 2.35999C43.7333 3.85332 46.6667 5.82666 49.12 8.27999C54.0267 13.4 56.48 19.2667 56.48 25.88V33.88ZM65.28 61.08C65.28 57.7733 65.4933 54.7333 65.92 51.96C66.3467 49.1867 67.1467 46.7333 68.32 44.6C70.24 41.08 72.96 38.2533 76.48 36.12C80.1067 33.9867 84.48 32.92 89.6 32.92C94.72 32.92 99.04 33.9867 102.56 36.12C106.187 38.2533 108.96 41.08 110.88 44.6C112.053 46.7333 112.853 49.1867 113.28 51.96C113.707 54.7333 113.92 57.7733 113.92 61.08V87.8C113.92 91.1067 113.707 94.1467 113.28 96.92C112.853 99.6933 112.053 102.147 110.88 104.28C108.96 107.8 106.187 110.627 102.56 112.76C99.04 114.893 94.72 115.96 89.6 115.96C84.48 115.96 80.1067 114.893 76.48 112.76C72.96 110.627 70.24 107.8 68.32 104.28C67.1467 102.147 66.3467 99.6933 65.92 96.92C65.4933 94.1467 65.28 91.1067 65.28 87.8V61.08ZM81.6 90.36C81.6 93.4533 82.2933 95.8 83.68 97.4C85.1733 98.8933 87.1467 99.64 89.6 99.64C92.0533 99.64 93.9733 98.8933 95.36 97.4C96.8533 95.8 97.6 93.4533 97.6 90.36V58.52C97.6 55.4267 96.8533 53.1333 95.36 51.64C93.9733 50.04 92.0533 49.24 89.6 49.24C87.1467 49.24 85.1733 50.04 83.68 51.64C82.2933 53.1333 81.6 55.4267 81.6 58.52V90.36ZM123.979 1.08H140.299V92.12C140.299 95.2133 140.832 97.3467 141.899 98.52C143.072 99.5867 145.205 100.28 148.299 100.6V115.96C144.565 115.96 141.205 115.64 138.219 115C135.232 114.467 132.672 113.347 130.539 111.64C128.405 110.04 126.752 107.8 125.579 104.92C124.512 101.933 123.979 98.04 123.979 93.24V1.08ZM203.386 33.88L182.266 115H167.866L146.746 33.88H164.026L174.906 85.72H175.226L186.106 33.88H203.386ZM208.876 115V33.88H225.196V115H208.876ZM208.876 17.4V1.08H225.196V17.4H208.876ZM237.564 115V33.88H253.884V41.72H254.204C255.91 39.16 257.937 37.08 260.284 35.48C262.737 33.7733 265.83 32.92 269.564 32.92C271.59 32.92 273.617 33.2933 275.644 34.04C277.67 34.68 279.484 35.8 281.084 37.4C282.684 39 283.964 41.08 284.924 43.64C285.884 46.0933 286.364 49.1333 286.364 52.76V115H270.044V58.84C270.044 55.8533 269.35 53.5067 267.964 51.8C266.577 50.0933 264.604 49.24 262.044 49.24C258.95 49.24 256.817 50.2 255.644 52.12C254.47 54.04 253.884 56.8133 253.884 60.44V115H237.564ZM315.071 124.44C315.178 126.36 315.925 128.173 317.311 129.88C318.805 131.587 320.938 132.44 323.711 132.44C326.378 132.44 328.298 131.587 329.471 129.88C330.645 128.28 331.231 126.2 331.231 123.64V107.64H330.911C329.098 110.307 326.911 112.387 324.351 113.88C321.898 115.267 319.018 115.96 315.711 115.96C308.885 115.96 304.138 113.4 301.471 108.28C300.511 106.467 299.818 104.227 299.391 101.56C298.965 98.8933 298.751 95.32 298.751 90.84V59.96C298.751 54.0933 298.911 49.7733 299.231 47C299.871 41.6667 302.378 37.6667 306.751 35C308.778 33.6133 311.818 32.92 315.871 32.92C317.898 32.92 319.605 33.1333 320.991 33.56C322.485 33.9867 323.818 34.5733 324.991 35.32C326.165 36.0667 327.231 36.9733 328.191 38.04C329.151 39 330.165 40.0667 331.231 41.24V33.88H347.551V124.92C347.551 127.693 347.071 130.467 346.111 133.24C345.258 136.12 343.818 138.68 341.791 140.92C339.765 143.267 337.205 145.133 334.111 146.52C331.018 148.013 327.338 148.76 323.071 148.76C320.618 148.76 318.058 148.333 315.391 147.48C312.725 146.733 310.271 145.4 308.031 143.48C305.685 141.667 303.658 139.213 301.951 136.12C300.351 133.133 299.285 129.24 298.751 124.44H315.071ZM315.071 90.04C315.071 92.6 315.605 94.84 316.671 96.76C317.845 98.68 319.978 99.64 323.071 99.64C325.418 99.64 327.338 98.84 328.831 97.24C330.431 95.5333 331.231 93.4 331.231 90.84V59.32C331.231 56.3333 330.485 53.9333 328.991 52.12C327.498 50.2 325.525 49.24 323.071 49.24C320.298 49.24 318.271 50.2533 316.991 52.28C315.711 54.3067 315.071 56.9733 315.071 60.28V90.04ZM388.626 147.8V33.88H404.946V41.24C406.973 38.8933 409.053 36.92 411.186 35.32C413.32 33.72 416.413 32.92 420.466 32.92C427.186 32.92 431.933 35.48 434.706 40.6C435.666 42.4133 436.36 44.6533 436.786 47.32C437.213 49.9867 437.426 53.56 437.426 58.04V88.92C437.426 94.8933 437.266 99.2133 436.946 101.88C436.306 107.213 433.853 111.213 429.586 113.88C427.453 115.267 424.36 115.96 420.306 115.96C417.106 115.96 414.226 115.267 411.666 113.88C409.213 112.387 407.08 110.307 405.266 107.64H404.946V147.8H388.626ZM421.106 60.28C421.106 56.9733 420.466 54.3067 419.186 52.28C417.906 50.2533 415.88 49.24 413.106 49.24C410.653 49.24 408.68 50.2 407.186 52.12C405.693 53.9333 404.946 56.3333 404.946 59.32V90.84C404.946 93.4 405.693 95.5333 407.186 97.24C408.786 98.84 410.76 99.64 413.106 99.64C416.2 99.64 418.28 98.68 419.346 96.76C420.52 94.84 421.106 92.6 421.106 90.04V60.28ZM449.814 115V33.88H466.134V42.52C469.44 39.5333 472.694 37.1867 475.894 35.48C479.094 33.7733 483.04 32.92 487.734 32.92V50.2C486.134 49.56 484.48 49.24 482.774 49.24C481.067 49.24 479.2 49.56 477.174 50.2C475.254 50.7333 473.494 51.6933 471.894 53.08C470.187 54.4667 468.8 56.28 467.734 58.52C466.667 60.76 466.134 63.5333 466.134 66.84V115H449.814ZM490.967 61.08C490.967 57.7733 491.181 54.7333 491.608 51.96C492.034 49.1867 492.834 46.7333 494.008 44.6C495.928 41.08 498.648 38.2533 502.168 36.12C505.794 33.9867 510.168 32.92 515.288 32.92C520.408 32.92 524.728 33.9867 528.248 36.12C531.874 38.2533 534.648 41.08 536.568 44.6C537.741 46.7333 538.541 49.1867 538.968 51.96C539.394 54.7333 539.608 57.7733 539.608 61.08V87.8C539.608 91.1067 539.394 94.1467 538.968 96.92C538.541 99.6933 537.741 102.147 536.568 104.28C534.648 107.8 531.874 110.627 528.248 112.76C524.728 114.893 520.408 115.96 515.288 115.96C510.168 115.96 505.794 114.893 502.168 112.76C498.648 110.627 495.928 107.8 494.008 104.28C492.834 102.147 492.034 99.6933 491.608 96.92C491.181 94.1467 490.967 91.1067 490.967 87.8V61.08ZM507.288 90.36C507.288 93.4533 507.981 95.8 509.368 97.4C510.861 98.8933 512.834 99.64 515.288 99.64C517.741 99.64 519.661 98.8933 521.048 97.4C522.541 95.8 523.288 93.4533 523.288 90.36V58.52C523.288 55.4267 522.541 53.1333 521.048 51.64C519.661 50.04 517.741 49.24 515.288 49.24C512.834 49.24 510.861 50.04 509.368 51.64C507.981 53.1333 507.288 55.4267 507.288 58.52V90.36ZM550.626 115V1.08H566.946V41.24H567.266C569.08 38.5733 571.213 36.5467 573.666 35.16C576.226 33.6667 579.106 32.92 582.306 32.92C586.253 32.92 589.293 33.6133 591.426 35C593.666 36.3867 595.48 38.1467 596.866 40.28C597.933 41.9867 598.626 44.2267 598.946 47C599.266 49.7733 599.426 54.0933 599.426 59.96V90.84C599.426 95.32 599.213 98.8933 598.786 101.56C598.36 104.227 597.666 106.467 596.706 108.28C593.933 113.4 589.186 115.96 582.466 115.96C578.413 115.96 575.32 115.16 573.186 113.56C571.053 111.96 568.973 109.987 566.946 107.64V115H550.626ZM583.106 58.84C583.106 56.28 582.52 54.04 581.346 52.12C580.28 50.2 578.2 49.24 575.106 49.24C572.76 49.24 570.786 50.0933 569.186 51.8C567.693 53.4 566.946 55.48 566.946 58.04V89.56C566.946 92.5467 567.693 95 569.186 96.92C570.68 98.7333 572.653 99.64 575.106 99.64C577.88 99.64 579.906 98.6267 581.186 96.6C582.466 94.5733 583.106 91.9067 583.106 88.6V58.84ZM610.854 1.08H627.174V92.12C627.174 95.2133 627.707 97.3467 628.774 98.52C629.947 99.5867 632.08 100.28 635.174 100.6V115.96C631.44 115.96 628.08 115.64 625.094 115C622.107 114.467 619.547 113.347 617.414 111.64C615.28 110.04 613.627 107.8 612.454 104.92C611.387 101.933 610.854 98.04 610.854 93.24V1.08ZM687.701 80.6H655.381V91.64C655.381 94.2 656.075 96.1733 657.461 97.56C658.955 98.9467 660.928 99.64 663.381 99.64C666.475 99.64 668.501 98.7333 669.461 96.92C670.528 95.1067 671.168 93.2933 671.381 91.48H687.701C687.701 98.6267 685.515 104.387 681.141 108.76C679.008 111 676.448 112.76 673.461 114.04C670.475 115.32 667.115 115.96 663.381 115.96C658.261 115.96 653.888 114.893 650.261 112.76C646.741 110.627 644.021 107.8 642.101 104.28C640.928 102.147 640.128 99.6933 639.701 96.92C639.275 94.1467 639.061 91.1067 639.061 87.8V61.08C639.061 57.7733 639.275 54.7333 639.701 51.96C640.128 49.1867 640.928 46.7333 642.101 44.6C644.021 41.08 646.741 38.2533 650.261 36.12C653.888 33.9867 658.261 32.92 663.381 32.92C667.115 32.92 670.475 33.56 673.461 34.84C676.555 36.12 679.168 37.88 681.301 40.12C685.568 44.92 687.701 50.9467 687.701 58.2V80.6ZM655.381 67.8H671.381V58.52C671.381 55.4267 670.635 53.1333 669.141 51.64C667.755 50.04 665.835 49.24 663.381 49.24C660.928 49.24 658.955 50.04 657.461 51.64C656.075 53.1333 655.381 55.4267 655.381 58.52V67.8ZM698.72 115V33.88H715.04V41.72H715.36C717.067 39.16 719.093 37.08 721.44 35.48C723.893 33.7733 726.987 32.92 730.72 32.92C734.24 32.92 737.173 33.7733 739.52 35.48C741.867 37.1867 743.787 39.0533 745.28 41.08C747.307 38.84 749.547 36.92 752 35.32C754.453 33.72 757.867 32.92 762.24 32.92C764.267 32.92 766.347 33.2933 768.48 34.04C770.613 34.68 772.533 35.8 774.24 37.4C775.947 39 777.333 41.08 778.4 43.64C779.467 46.0933 780 49.1333 780 52.76V115H763.68V58.84C763.68 55.8533 762.987 53.5067 761.6 51.8C760.213 50.0933 758.24 49.24 755.68 49.24C752.587 49.24 750.453 50.2 749.28 52.12C748.107 54.04 747.52 56.8133 747.52 60.44V115H731.2V58.84C731.2 55.8533 730.507 53.5067 729.12 51.8C727.733 50.0933 725.76 49.24 723.2 49.24C720.107 49.24 717.973 50.2 716.8 52.12C715.627 54.04 715.04 56.8133 715.04 60.44V115H698.72ZM822.008 56.6C821.901 53.8267 820.994 51.7467 819.288 50.36C817.688 48.9733 815.821 48.28 813.688 48.28C811.128 48.28 809.154 49.1333 807.768 50.84C806.381 52.44 805.688 54.3067 805.688 56.44C805.688 57.9333 806.061 59.4267 806.807 60.92C807.554 62.3067 809.474 63.5867 812.568 64.76L822.168 68.6C828.248 70.9467 832.408 74.1467 834.648 78.2C836.994 82.2533 838.168 86.68 838.168 91.48C838.168 94.8933 837.528 98.0933 836.248 101.08C835.074 103.96 833.421 106.52 831.288 108.76C829.154 111 826.594 112.76 823.608 114.04C820.621 115.32 817.368 115.96 813.848 115.96C807.234 115.96 801.688 113.88 797.208 109.72C794.968 107.693 793.154 105.187 791.768 102.2C790.381 99.1067 789.634 95.5333 789.528 91.48H804.888C805.208 93.72 805.954 95.8 807.128 97.72C808.408 99.64 810.594 100.6 813.688 100.6C816.034 100.6 818.114 99.8533 819.928 98.36C821.848 96.76 822.808 94.5733 822.808 91.8C822.808 89.56 822.221 87.64 821.048 86.04C819.874 84.44 817.741 83.0533 814.648 81.88L806.807 79C801.688 77.08 797.634 74.2533 794.648 70.52C791.768 66.68 790.328 62.04 790.328 56.6C790.328 53.1867 790.968 50.04 792.248 47.16C793.528 44.1733 795.288 41.6133 797.528 39.48C799.661 37.3467 802.168 35.7467 805.048 34.68C807.928 33.5067 811.021 32.92 814.328 32.92C817.634 32.92 820.674 33.5067 823.448 34.68C826.328 35.8533 828.781 37.5067 830.808 39.64C832.834 41.7733 834.434 44.3333 835.608 47.32C836.781 50.2 837.368 53.2933 837.368 56.6H822.008ZM876.345 115V33.88H892.665V115H876.345ZM876.345 17.4V1.08H892.665V17.4H876.345ZM934.633 56.6C934.526 53.8267 933.619 51.7467 931.913 50.36C930.313 48.9733 928.446 48.28 926.313 48.28C923.753 48.28 921.779 49.1333 920.393 50.84C919.006 52.44 918.312 54.3067 918.312 56.44C918.312 57.9333 918.686 59.4267 919.432 60.92C920.179 62.3067 922.099 63.5867 925.193 64.76L934.793 68.6C940.873 70.9467 945.033 74.1467 947.273 78.2C949.619 82.2533 950.793 86.68 950.793 91.48C950.793 94.8933 950.153 98.0933 948.873 101.08C947.699 103.96 946.046 106.52 943.913 108.76C941.779 111 939.219 112.76 936.233 114.04C933.246 115.32 929.993 115.96 926.473 115.96C919.859 115.96 914.313 113.88 909.833 109.72C907.593 107.693 905.779 105.187 904.393 102.2C903.006 99.1067 902.259 95.5333 902.153 91.48H917.513C917.833 93.72 918.579 95.8 919.753 97.72C921.033 99.64 923.219 100.6 926.313 100.6C928.659 100.6 930.739 99.8533 932.553 98.36C934.473 96.76 935.433 94.5733 935.433 91.8C935.433 89.56 934.846 87.64 933.673 86.04C932.499 84.44 930.366 83.0533 927.273 81.88L919.432 79C914.313 77.08 910.259 74.2533 907.273 70.52C904.393 66.68 902.953 62.04 902.953 56.6C902.953 53.1867 903.593 50.04 904.873 47.16C906.153 44.1733 907.913 41.6133 910.153 39.48C912.286 37.3467 914.793 35.7467 917.673 34.68C920.553 33.5067 923.646 32.92 926.953 32.92C930.259 32.92 933.299 33.5067 936.073 34.68C938.953 35.8533 941.406 37.5067 943.433 39.64C945.459 41.7733 947.059 44.3333 948.233 47.32C949.406 50.2 949.993 53.2933 949.993 56.6H934.633ZM2.72 270V188.88H19.04V196.72H19.36C21.0667 194.16 23.0933 192.08 25.44 190.48C27.8933 188.773 30.9867 187.92 34.72 187.92C38.24 187.92 41.1733 188.773 43.52 190.48C45.8667 192.187 47.7867 194.053 49.28 196.08C51.3067 193.84 53.5467 191.92 56 190.32C58.4533 188.72 61.8667 187.92 66.24 187.92C68.2667 187.92 70.3467 188.293 72.48 189.04C74.6133 189.68 76.5333 190.8 78.24 192.4C79.9467 194 81.3333 196.08 82.4 198.64C83.4667 201.093 84 204.133 84 207.76V270H67.68V213.84C67.68 210.853 66.9867 208.507 65.6 206.8C64.2133 205.093 62.24 204.24 59.68 204.24C56.5867 204.24 54.4533 205.2 53.28 207.12C52.1067 209.04 51.52 211.813 51.52 215.44V270H35.2V213.84C35.2 210.853 34.5067 208.507 33.12 206.8C31.7333 205.093 29.76 204.24 27.2 204.24C24.1067 204.24 21.9733 205.2 20.8 207.12C19.6267 209.04 19.04 211.813 19.04 215.44V270H2.72ZM89.5275 188.88H106.808L118.008 239.44H118.328L129.368 188.88H146.168L122.808 284.08C121.954 287.707 120.728 290.693 119.128 293.04C117.634 295.387 115.874 297.307 113.848 298.8C111.821 300.293 109.634 301.307 107.288 301.84C105.048 302.48 102.701 302.8 100.247 302.8H95.7675V287.44H99.4475C101.048 287.44 102.434 287.227 103.608 286.8C104.781 286.373 105.848 285.413 106.808 283.92C107.661 282.427 108.461 280.293 109.208 277.52C109.954 274.853 110.808 271.12 111.768 266.32L89.5275 188.88ZM180.345 302.8V188.88H196.665V196.24C198.692 193.893 200.772 191.92 202.905 190.32C205.038 188.72 208.132 187.92 212.185 187.92C218.905 187.92 223.652 190.48 226.425 195.6C227.385 197.413 228.078 199.653 228.505 202.32C228.932 204.987 229.145 208.56 229.145 213.04V243.92C229.145 249.893 228.985 254.213 228.665 256.88C228.025 262.213 225.572 266.213 221.305 268.88C219.172 270.267 216.078 270.96 212.025 270.96C208.825 270.96 205.945 270.267 203.385 268.88C200.932 267.387 198.798 265.307 196.985 262.64H196.665V302.8H180.345ZM212.825 215.28C212.825 211.973 212.185 209.307 210.905 207.28C209.625 205.253 207.598 204.24 204.825 204.24C202.372 204.24 200.398 205.2 198.905 207.12C197.412 208.933 196.665 211.333 196.665 214.32V245.84C196.665 248.4 197.412 250.533 198.905 252.24C200.505 253.84 202.478 254.64 204.825 254.64C207.918 254.64 209.998 253.68 211.065 251.76C212.238 249.84 212.825 247.6 212.825 245.04V215.28ZM272.413 270V261.68H272.093C269.959 264.667 267.773 266.96 265.533 268.56C263.399 270.16 260.359 270.96 256.413 270.96C254.493 270.96 252.519 270.64 250.493 270C248.573 269.467 246.706 268.4 244.893 266.8C243.079 265.307 241.586 263.173 240.413 260.4C239.346 257.52 238.813 253.84 238.813 249.36C238.813 244.773 239.186 240.773 239.933 237.36C240.679 233.84 242.066 230.907 244.093 228.56C246.013 226.32 248.626 224.667 251.933 223.6C255.239 222.427 259.453 221.84 264.573 221.84C265.106 221.84 265.693 221.84 266.333 221.84C266.973 221.84 267.559 221.893 268.093 222C268.626 222.107 269.266 222.16 270.013 222.16C270.759 222.16 271.559 222.213 272.413 222.32V213.84C272.413 211.067 271.826 208.773 270.653 206.96C269.479 205.147 267.346 204.24 264.253 204.24C262.119 204.24 260.146 204.933 258.332 206.32C256.626 207.707 255.506 209.733 254.973 212.4H239.133C239.559 205.147 242.013 199.28 246.493 194.8C248.626 192.667 251.186 191.013 254.173 189.84C257.159 188.56 260.519 187.92 264.253 187.92C267.666 187.92 270.866 188.453 273.853 189.52C276.839 190.587 279.453 192.187 281.693 194.32C283.826 196.453 285.533 199.12 286.813 202.32C288.093 205.52 288.733 209.253 288.733 213.52V270H272.413ZM272.413 235.12C270.599 234.8 269.106 234.64 267.933 234.64C264.413 234.64 261.373 235.493 258.813 237.2C256.359 238.8 255.133 241.787 255.133 246.16C255.133 249.253 255.879 251.76 257.373 253.68C258.866 255.6 260.946 256.56 263.613 256.56C266.386 256.56 268.519 255.653 270.013 253.84C271.613 252.027 272.413 249.467 272.413 246.16V235.12ZM329.351 211.6C329.245 208.827 328.338 206.747 326.631 205.36C325.031 203.973 323.165 203.28 321.031 203.28C318.471 203.28 316.498 204.133 315.111 205.84C313.725 207.44 313.031 209.307 313.031 211.44C313.031 212.933 313.405 214.427 314.151 215.92C314.898 217.307 316.818 218.587 319.911 219.76L329.511 223.6C335.591 225.947 339.751 229.147 341.991 233.2C344.338 237.253 345.511 241.68 345.511 246.48C345.511 249.893 344.871 253.093 343.591 256.08C342.418 258.96 340.765 261.52 338.631 263.76C336.498 266 333.938 267.76 330.951 269.04C327.965 270.32 324.711 270.96 321.191 270.96C314.578 270.96 309.031 268.88 304.551 264.72C302.311 262.693 300.498 260.187 299.111 257.2C297.725 254.107 296.978 250.533 296.871 246.48H312.231C312.551 248.72 313.298 250.8 314.471 252.72C315.751 254.64 317.938 255.6 321.031 255.6C323.378 255.6 325.458 254.853 327.271 253.36C329.191 251.76 330.151 249.573 330.151 246.8C330.151 244.56 329.565 242.64 328.391 241.04C327.218 239.44 325.085 238.053 321.991 236.88L314.151 234C309.031 232.08 304.978 229.253 301.991 225.52C299.111 221.68 297.671 217.04 297.671 211.6C297.671 208.187 298.311 205.04 299.591 202.16C300.871 199.173 302.631 196.613 304.871 194.48C307.005 192.347 309.511 190.747 312.391 189.68C315.271 188.507 318.365 187.92 321.671 187.92C324.978 187.92 328.018 188.507 330.791 189.68C333.671 190.853 336.125 192.507 338.151 194.64C340.178 196.773 341.778 199.333 342.951 202.32C344.125 205.2 344.711 208.293 344.711 211.6H329.351ZM384.601 211.6C384.495 208.827 383.588 206.747 381.881 205.36C380.281 203.973 378.415 203.28 376.281 203.28C373.721 203.28 371.748 204.133 370.361 205.84C368.975 207.44 368.281 209.307 368.281 211.44C368.281 212.933 368.655 214.427 369.401 215.92C370.148 217.307 372.068 218.587 375.161 219.76L384.761 223.6C390.841 225.947 395.001 229.147 397.241 233.2C399.588 237.253 400.761 241.68 400.761 246.48C400.761 249.893 400.121 253.093 398.841 256.08C397.668 258.96 396.015 261.52 393.881 263.76C391.748 266 389.188 267.76 386.201 269.04C383.215 270.32 379.961 270.96 376.441 270.96C369.828 270.96 364.281 268.88 359.801 264.72C357.561 262.693 355.748 260.187 354.361 257.2C352.975 254.107 352.228 250.533 352.121 246.48H367.481C367.801 248.72 368.548 250.8 369.721 252.72C371.001 254.64 373.188 255.6 376.281 255.6C378.628 255.6 380.708 254.853 382.521 253.36C384.441 251.76 385.401 249.573 385.401 246.8C385.401 244.56 384.815 242.64 383.641 241.04C382.468 239.44 380.335 238.053 377.241 236.88L369.401 234C364.281 232.08 360.228 229.253 357.241 225.52C354.361 221.68 352.921 217.04 352.921 211.6C352.921 208.187 353.561 205.04 354.841 202.16C356.121 199.173 357.881 196.613 360.121 194.48C362.255 192.347 364.761 190.747 367.641 189.68C370.521 188.507 373.615 187.92 376.921 187.92C380.228 187.92 383.268 188.507 386.041 189.68C388.921 190.853 391.375 192.507 393.401 194.64C395.428 196.773 397.028 199.333 398.201 202.32C399.375 205.2 399.961 208.293 399.961 211.6H384.601ZM410.251 270V188.88H426.571V270H410.251ZM410.251 172.4V156.08H426.571V172.4H410.251ZM437.499 216.08C437.499 212.773 437.712 209.733 438.139 206.96C438.565 204.187 439.365 201.733 440.539 199.6C442.459 196.08 445.179 193.253 448.699 191.12C452.325 188.987 456.699 187.92 461.819 187.92C466.939 187.92 471.259 188.987 474.779 191.12C478.405 193.253 481.179 196.08 483.099 199.6C484.272 201.733 485.072 204.187 485.499 206.96C485.925 209.733 486.139 212.773 486.139 216.08V242.8C486.139 246.107 485.925 249.147 485.499 251.92C485.072 254.693 484.272 257.147 483.099 259.28C481.179 262.8 478.405 265.627 474.779 267.76C471.259 269.893 466.939 270.96 461.819 270.96C456.699 270.96 452.325 269.893 448.699 267.76C445.179 265.627 442.459 262.8 440.539 259.28C439.365 257.147 438.565 254.693 438.139 251.92C437.712 249.147 437.499 246.107 437.499 242.8V216.08ZM453.819 245.36C453.819 248.453 454.512 250.8 455.899 252.4C457.392 253.893 459.365 254.64 461.819 254.64C464.272 254.64 466.192 253.893 467.579 252.4C469.072 250.8 469.819 248.453 469.819 245.36V213.52C469.819 210.427 469.072 208.133 467.579 206.64C466.192 205.04 464.272 204.24 461.819 204.24C459.365 204.24 457.392 205.04 455.899 206.64C454.512 208.133 453.819 210.427 453.819 213.52V245.36ZM497.158 270V188.88H513.478V196.72H513.798C515.504 194.16 517.531 192.08 519.878 190.48C522.331 188.773 525.424 187.92 529.158 187.92C531.184 187.92 533.211 188.293 535.238 189.04C537.264 189.68 539.078 190.8 540.678 192.4C542.278 194 543.558 196.08 544.518 198.64C545.478 201.093 545.958 204.133 545.958 207.76V270H529.638V213.84C529.638 210.853 528.944 208.507 527.558 206.8C526.171 205.093 524.198 204.24 521.638 204.24C518.544 204.24 516.411 205.2 515.238 207.12C514.064 209.04 513.478 211.813 513.478 215.44V270H497.158ZM558.345 270V253.68H574.665V270H558.345Z"/>
</svg>
