<svg viewBox="0 0 476 117" xmlns="http://www.w3.org/2000/svg" xmlns:xlink="http://www.w3.org/1999/xlink">
  <title>veare wordmark</title>
  <path d="M99.8433,3.601 L57.9023,114.227 L40.5443,114.227 L0.0003,3.601 L10.1123,3.601 C14.2153,3.601 17.7123,6.08 18.9153,9.509 L49.8833,99.273 L50.3623,99.273 L82.2343,9.478 C83.4573,6.06 86.9263,3.601 91.0183,3.601 L99.8433,3.601 Z M465.6227,62.8069 L393.9277,62.8069 C393.9277,86.2319 406.9977,105.0919 432.7877,105.0919 C439.1287,105.0919 447.2027,103.6679 454.1977,101.6419 L454.3577,101.5869 C455.1957,101.3559 456.1107,101.2089 457.0167,101.2089 C462.1337,101.2089 466.2677,105.0379 466.2677,109.7559 L466.2957,110.7379 C455.9757,114.6509 442.6227,116.8109 431.6017,116.8109 C392.0027,116.8109 377.2407,92.0769 377.2407,58.9059 C377.2407,25.0749 397.3927,0.9999 427.6157,0.9999 C460.6837,0.9999 474.6307,25.1429 475.1847,54.0539 L475.1847,54.2519 C475.1847,58.9329 471.1487,62.7189 466.1247,62.7989 L465.6227,62.8069 Z M393.9277,51.1049 L458.2977,51.1049 C458.2977,31.7969 450.5947,12.7019 428.5617,12.7019 C406.7557,12.7019 393.9277,32.8849 393.9277,51.1049 Z M193.6207,62.7989 L193.1167,62.8069 L121.4287,62.8069 C121.4287,86.2319 134.5067,105.0919 160.2847,105.0919 C166.6367,105.0919 174.6977,103.6679 181.6987,101.6419 L181.8707,101.5869 C182.6927,101.3559 183.6117,101.2089 184.5227,101.2089 C189.6367,101.2089 193.7777,105.0379 193.7777,109.7559 L193.7977,110.7379 C183.4807,114.6509 170.1267,116.8109 159.1037,116.8109 C119.5027,116.8109 104.7577,92.0769 104.7577,58.9059 C104.7577,25.0749 124.9007,0.9999 155.1317,0.9999 C188.2007,0.9999 202.1397,25.1429 202.6857,54.0539 L202.6857,54.2519 C202.6857,58.9329 198.6577,62.7189 193.6207,62.7989 Z M121.4287,51.1049 L185.7967,51.1049 C185.7967,31.7969 178.0877,12.7019 156.0757,12.7019 C134.2717,12.7019 121.4287,32.8849 121.4287,51.1049 Z M369.834,15.3295 C369.444,15.3085 369.059,15.3085 368.662,15.3085 C345.241,15.3085 338.9,39.6015 338.9,59.5385 L338.9,114.2035 L324.133,114.2035 L324.133,28.3245 C324.133,16.1755 324.133,11.6195 323.211,3.6005 L328.384,3.6005 L328.77,3.6035 C333.552,3.6035 337.964,7.5125 337.964,12.7975 L337.964,24.8635 L338.426,24.8635 C343.83,12.4945 353.903,0.9995 369.133,0.9995 C372.64,0.9995 376.857,1.6415 379.439,2.3095 L379.439,6.5215 L379.43,6.7565 C379.43,11.4775 375.291,15.3085 370.18,15.3085 L369.834,15.3295 Z M302.3929,114.204 L287.8539,114.204 L287.8539,96.418 L287.3919,96.418 C280.8349,109.661 264.1979,116.811 249.4219,116.811 C215.4609,116.811 210.0619,95.56 210.0619,85.579 C210.0619,48.498 252.7169,46.761 283.6479,46.761 L286.1699,46.761 L286.1699,41.118 C286.1699,22.257 279.1929,12.702 259.2729,12.702 C251.5139,12.702 244.0249,13.732 236.7979,16.081 L236.7739,16.108 C235.7229,16.494 234.5599,16.708 233.3649,16.708 C228.4199,16.708 224.3649,13.115 224.1229,8.592 L224.1119,8.592 C233.2659,4.476 248.7319,0.999 259.2729,0.999 C288.7919,0.999 301.2169,13.375 301.2169,42.193 L301.2169,90.991 C301.2169,99.898 301.2169,106.603 302.3929,114.204 Z M286.1699,65.185 L286.1699,58.48 L282.2329,58.48 C256.6949,58.48 226.3319,60.866 226.3319,85.153 C226.3319,99.674 237.4669,105.092 251.0769,105.092 C285.7619,105.092 286.1699,77.121 286.1699,65.185 Z"></path>
</svg>
