<svg width="1059" height="400" viewBox="0 0 1059 400" fill="none" xmlns="http://www.w3.org/2000/svg">
<g id="copra-typography">
<rect id="Rectangle 11" x="431" y="46" width="426" height="57" fill="#55C2A6"/>
<g id="Source Sans Pro Regu">
<path d="M455.035 80.1621C455.035 82.4238 454.215 84.1875 452.574 85.4531C450.934 86.7188 448.707 87.3516 445.895 87.3516C442.848 87.3516 440.504 86.959 438.863 86.1738V83.291C439.918 83.7363 441.066 84.0879 442.309 84.3457C443.551 84.6035 444.781 84.7324 446 84.7324C447.992 84.7324 449.492 84.3574 450.5 83.6074C451.508 82.8457 452.012 81.791 452.012 80.4434C452.012 79.5527 451.83 78.8262 451.467 78.2637C451.115 77.6895 450.518 77.1621 449.674 76.6816C448.842 76.2012 447.57 75.6562 445.859 75.0469C443.469 74.1914 441.758 73.1777 440.727 72.0059C439.707 70.834 439.197 69.3047 439.197 67.418C439.197 65.4375 439.941 63.8613 441.43 62.6895C442.918 61.5176 444.887 60.9316 447.336 60.9316C449.891 60.9316 452.24 61.4004 454.385 62.3379L453.453 64.9395C451.332 64.0488 449.27 63.6035 447.266 63.6035C445.684 63.6035 444.447 63.9434 443.557 64.623C442.666 65.3027 442.221 66.2461 442.221 67.4531C442.221 68.3438 442.385 69.0762 442.713 69.6504C443.041 70.2129 443.592 70.7344 444.365 71.2148C445.15 71.6836 446.346 72.2051 447.951 72.7793C450.646 73.7402 452.498 74.7715 453.506 75.873C454.525 76.9746 455.035 78.4043 455.035 80.1621Z" fill="white"/>
<path d="M476.48 77.3496C476.48 80.4902 475.689 82.9453 474.107 84.7148C472.525 86.4727 470.34 87.3516 467.551 87.3516C465.828 87.3516 464.299 86.9473 462.963 86.1387C461.627 85.3301 460.596 84.1699 459.869 82.6582C459.143 81.1465 458.779 79.377 458.779 77.3496C458.779 74.209 459.564 71.7656 461.135 70.0195C462.705 68.2617 464.885 67.3828 467.674 67.3828C470.369 67.3828 472.508 68.2793 474.09 70.0723C475.684 71.8652 476.48 74.291 476.48 77.3496ZM461.803 77.3496C461.803 79.8105 462.295 81.6855 463.279 82.9746C464.264 84.2637 465.711 84.9082 467.621 84.9082C469.531 84.9082 470.979 84.2695 471.963 82.9922C472.959 81.7031 473.457 79.8223 473.457 77.3496C473.457 74.9004 472.959 73.043 471.963 71.7773C470.979 70.5 469.52 69.8613 467.586 69.8613C465.676 69.8613 464.234 70.4883 463.262 71.7422C462.289 72.9961 461.803 74.8652 461.803 77.3496Z" fill="white"/>
<path d="M484.355 67.7344V80.2324C484.355 81.8027 484.713 82.9746 485.428 83.748C486.143 84.5215 487.262 84.9082 488.785 84.9082C490.801 84.9082 492.271 84.3574 493.197 83.2559C494.135 82.1543 494.604 80.3555 494.604 77.8594V67.7344H497.521V87H495.113L494.691 84.416H494.533C493.936 85.3652 493.104 86.0918 492.037 86.5957C490.982 87.0996 489.775 87.3516 488.416 87.3516C486.072 87.3516 484.314 86.7949 483.143 85.6816C481.982 84.5684 481.402 82.7871 481.402 80.3379V67.7344H484.355Z" fill="white"/>
<path d="M512.516 67.3828C513.371 67.3828 514.139 67.4531 514.818 67.5938L514.414 70.3008C513.617 70.125 512.914 70.0371 512.305 70.0371C510.746 70.0371 509.41 70.6699 508.297 71.9355C507.195 73.2012 506.645 74.7773 506.645 76.6641V87H503.727V67.7344H506.135L506.469 71.3027H506.609C507.324 70.0488 508.186 69.082 509.193 68.4023C510.201 67.7227 511.309 67.3828 512.516 67.3828Z" fill="white"/>
<path d="M526.121 87.3516C523.332 87.3516 521.17 86.4961 519.635 84.7852C518.111 83.0625 517.35 80.6309 517.35 77.4902C517.35 74.2676 518.123 71.7773 519.67 70.0195C521.229 68.2617 523.443 67.3828 526.314 67.3828C527.24 67.3828 528.166 67.4824 529.092 67.6816C530.018 67.8809 530.744 68.1152 531.271 68.3848L530.375 70.8633C529.73 70.6055 529.027 70.3945 528.266 70.2305C527.504 70.0547 526.83 69.9668 526.244 69.9668C522.33 69.9668 520.373 72.4629 520.373 77.4551C520.373 79.8223 520.848 81.6387 521.797 82.9043C522.758 84.1699 524.176 84.8027 526.051 84.8027C527.656 84.8027 529.303 84.457 530.99 83.7656V86.3496C529.701 87.0176 528.078 87.3516 526.121 87.3516Z" fill="white"/>
<path d="M543.717 87.3516C540.869 87.3516 538.619 86.4844 536.967 84.75C535.326 83.0156 534.506 80.6074 534.506 77.5254C534.506 74.4199 535.268 71.9531 536.791 70.125C538.326 68.2969 540.383 67.3828 542.961 67.3828C545.375 67.3828 547.285 68.1797 548.691 69.7734C550.098 71.3555 550.801 73.4473 550.801 76.0488V77.8945H537.529C537.588 80.1562 538.156 81.873 539.234 83.0449C540.324 84.2168 541.854 84.8027 543.822 84.8027C545.896 84.8027 547.947 84.3691 549.975 83.502V86.1035C548.943 86.5488 547.965 86.8652 547.039 87.0527C546.125 87.252 545.018 87.3516 543.717 87.3516ZM542.926 69.8262C541.379 69.8262 540.143 70.3301 539.217 71.3379C538.303 72.3457 537.764 73.7402 537.6 75.5215H547.672C547.672 73.6816 547.262 72.2754 546.441 71.3027C545.621 70.3184 544.449 69.8262 542.926 69.8262Z" fill="white"/>
<path d="M580.086 80.1621C580.086 82.4238 579.266 84.1875 577.625 85.4531C575.984 86.7188 573.758 87.3516 570.945 87.3516C567.898 87.3516 565.555 86.959 563.914 86.1738V83.291C564.969 83.7363 566.117 84.0879 567.359 84.3457C568.602 84.6035 569.832 84.7324 571.051 84.7324C573.043 84.7324 574.543 84.3574 575.551 83.6074C576.559 82.8457 577.062 81.791 577.062 80.4434C577.062 79.5527 576.881 78.8262 576.518 78.2637C576.166 77.6895 575.568 77.1621 574.725 76.6816C573.893 76.2012 572.621 75.6562 570.91 75.0469C568.52 74.1914 566.809 73.1777 565.777 72.0059C564.758 70.834 564.248 69.3047 564.248 67.418C564.248 65.4375 564.992 63.8613 566.48 62.6895C567.969 61.5176 569.938 60.9316 572.387 60.9316C574.941 60.9316 577.291 61.4004 579.436 62.3379L578.504 64.9395C576.383 64.0488 574.32 63.6035 572.316 63.6035C570.734 63.6035 569.498 63.9434 568.607 64.623C567.717 65.3027 567.271 66.2461 567.271 67.4531C567.271 68.3438 567.436 69.0762 567.764 69.6504C568.092 70.2129 568.643 70.7344 569.416 71.2148C570.201 71.6836 571.396 72.2051 573.002 72.7793C575.697 73.7402 577.549 74.7715 578.557 75.873C579.576 76.9746 580.086 78.4043 580.086 80.1621Z" fill="white"/>
<path d="M596.75 87L596.17 84.2578H596.029C595.068 85.4648 594.107 86.2852 593.146 86.7188C592.197 87.1406 591.008 87.3516 589.578 87.3516C587.668 87.3516 586.168 86.8594 585.078 85.875C584 84.8906 583.461 83.4902 583.461 81.6738C583.461 77.7832 586.572 75.7441 592.795 75.5566L596.064 75.4512V74.2559C596.064 72.7441 595.736 71.6309 595.08 70.916C594.436 70.1895 593.398 69.8262 591.969 69.8262C590.363 69.8262 588.547 70.3184 586.52 71.3027L585.623 69.0703C586.572 68.5547 587.609 68.1504 588.734 67.8574C589.871 67.5645 591.008 67.418 592.145 67.418C594.441 67.418 596.141 67.9277 597.242 68.9473C598.355 69.9668 598.912 71.6016 598.912 73.8516V87H596.75ZM590.158 84.9434C591.975 84.9434 593.398 84.4453 594.43 83.4492C595.473 82.4531 595.994 81.0586 595.994 79.2656V77.5254L593.076 77.6484C590.756 77.7305 589.08 78.0938 588.049 78.7383C587.029 79.3711 586.52 80.3613 586.52 81.709C586.52 82.7637 586.836 83.5664 587.469 84.1172C588.113 84.668 589.01 84.9434 590.158 84.9434Z" fill="white"/>
<path d="M618.125 87V74.5371C618.125 72.9668 617.768 71.7949 617.053 71.0215C616.338 70.248 615.219 69.8613 613.695 69.8613C611.68 69.8613 610.203 70.4062 609.266 71.4961C608.328 72.5859 607.859 74.3848 607.859 76.8926V87H604.941V67.7344H607.314L607.789 70.3711H607.93C608.527 69.4219 609.365 68.6895 610.443 68.1738C611.521 67.6465 612.723 67.3828 614.047 67.3828C616.367 67.3828 618.113 67.9453 619.285 69.0703C620.457 70.1836 621.043 71.9707 621.043 74.4316V87H618.125Z" fill="white"/>
<path d="M639.482 81.7441C639.482 83.5371 638.814 84.9199 637.479 85.8926C636.143 86.8652 634.268 87.3516 631.854 87.3516C629.299 87.3516 627.307 86.9473 625.877 86.1387V83.4316C626.803 83.9004 627.793 84.2695 628.848 84.5391C629.914 84.8086 630.939 84.9434 631.924 84.9434C633.447 84.9434 634.619 84.7031 635.439 84.2227C636.26 83.7305 636.67 82.9863 636.67 81.9902C636.67 81.2402 636.342 80.6016 635.686 80.0742C635.041 79.5352 633.775 78.9023 631.889 78.1758C630.096 77.5078 628.818 76.9277 628.057 76.4355C627.307 75.9316 626.744 75.3633 626.369 74.7305C626.006 74.0977 625.824 73.3418 625.824 72.4629C625.824 70.8926 626.463 69.6562 627.74 68.7539C629.018 67.8398 630.77 67.3828 632.996 67.3828C635.07 67.3828 637.098 67.8047 639.078 68.6484L638.041 71.0215C636.107 70.2246 634.355 69.8262 632.785 69.8262C631.402 69.8262 630.359 70.043 629.656 70.4766C628.953 70.9102 628.602 71.5078 628.602 72.2695C628.602 72.7852 628.73 73.2246 628.988 73.5879C629.258 73.9512 629.686 74.2969 630.271 74.625C630.857 74.9531 631.982 75.4277 633.646 76.0488C635.932 76.8809 637.473 77.7188 638.27 78.5625C639.078 79.4062 639.482 80.4668 639.482 81.7441Z" fill="white"/>
<path d="M670.332 68.7891C670.332 71.3906 669.441 73.3945 667.66 74.8008C665.891 76.1953 663.354 76.8926 660.049 76.8926H657.025V87H654.037V61.3008H660.699C667.121 61.3008 670.332 63.7969 670.332 68.7891ZM657.025 74.3262H659.715C662.363 74.3262 664.279 73.8984 665.463 73.043C666.646 72.1875 667.238 70.8164 667.238 68.9297C667.238 67.2305 666.682 65.9648 665.568 65.1328C664.455 64.3008 662.721 63.8848 660.365 63.8848H657.025V74.3262Z" fill="white"/>
<path d="M684.078 67.3828C684.934 67.3828 685.701 67.4531 686.381 67.5938L685.977 70.3008C685.18 70.125 684.477 70.0371 683.867 70.0371C682.309 70.0371 680.973 70.6699 679.859 71.9355C678.758 73.2012 678.207 74.7773 678.207 76.6641V87H675.289V67.7344H677.697L678.031 71.3027H678.172C678.887 70.0488 679.748 69.082 680.756 68.4023C681.764 67.7227 682.871 67.3828 684.078 67.3828Z" fill="white"/>
<path d="M706.613 77.3496C706.613 80.4902 705.822 82.9453 704.24 84.7148C702.658 86.4727 700.473 87.3516 697.684 87.3516C695.961 87.3516 694.432 86.9473 693.096 86.1387C691.76 85.3301 690.729 84.1699 690.002 82.6582C689.275 81.1465 688.912 79.377 688.912 77.3496C688.912 74.209 689.697 71.7656 691.268 70.0195C692.838 68.2617 695.018 67.3828 697.807 67.3828C700.502 67.3828 702.641 68.2793 704.223 70.0723C705.816 71.8652 706.613 74.291 706.613 77.3496ZM691.936 77.3496C691.936 79.8105 692.428 81.6855 693.412 82.9746C694.396 84.2637 695.844 84.9082 697.754 84.9082C699.664 84.9082 701.111 84.2695 702.096 82.9922C703.092 81.7031 703.59 79.8223 703.59 77.3496C703.59 74.9004 703.092 73.043 702.096 71.7773C701.111 70.5 699.652 69.8613 697.719 69.8613C695.809 69.8613 694.367 70.4883 693.395 71.7422C692.422 72.9961 691.936 74.8652 691.936 77.3496Z" fill="white"/>
<path d="M724.525 76.3125V87H721.537V61.3008H728.586C731.738 61.3008 734.064 61.9043 735.564 63.1113C737.076 64.3184 737.832 66.1348 737.832 68.5605C737.832 71.959 736.109 74.2559 732.664 75.4512L739.643 87H736.109L729.887 76.3125H724.525ZM724.525 73.7461H728.621C730.73 73.7461 732.277 73.3301 733.262 72.498C734.246 71.6543 734.738 70.3945 734.738 68.7188C734.738 67.0195 734.234 65.7949 733.227 65.0449C732.23 64.2949 730.625 63.9199 728.41 63.9199H724.525V73.7461Z" fill="white"/>
<path d="M751.49 87.3516C748.643 87.3516 746.393 86.4844 744.74 84.75C743.1 83.0156 742.279 80.6074 742.279 77.5254C742.279 74.4199 743.041 71.9531 744.564 70.125C746.1 68.2969 748.156 67.3828 750.734 67.3828C753.148 67.3828 755.059 68.1797 756.465 69.7734C757.871 71.3555 758.574 73.4473 758.574 76.0488V77.8945H745.303C745.361 80.1562 745.93 81.873 747.008 83.0449C748.098 84.2168 749.627 84.8027 751.596 84.8027C753.67 84.8027 755.721 84.3691 757.748 83.502V86.1035C756.717 86.5488 755.738 86.8652 754.812 87.0527C753.898 87.252 752.791 87.3516 751.49 87.3516ZM750.699 69.8262C749.152 69.8262 747.916 70.3301 746.99 71.3379C746.076 72.3457 745.537 73.7402 745.373 75.5215H755.445C755.445 73.6816 755.035 72.2754 754.215 71.3027C753.395 70.3184 752.223 69.8262 750.699 69.8262Z" fill="white"/>
<path d="M779.334 67.7344V69.5801L775.766 70.002C776.094 70.4121 776.387 70.9512 776.645 71.6191C776.902 72.2754 777.031 73.0195 777.031 73.8516C777.031 75.7383 776.387 77.2441 775.098 78.3691C773.809 79.4941 772.039 80.0566 769.789 80.0566C769.215 80.0566 768.676 80.0098 768.172 79.916C766.93 80.5723 766.309 81.3984 766.309 82.3945C766.309 82.9219 766.525 83.3145 766.959 83.5723C767.393 83.8184 768.137 83.9414 769.191 83.9414H772.602C774.688 83.9414 776.287 84.3809 777.4 85.2598C778.525 86.1387 779.088 87.416 779.088 89.0918C779.088 91.2246 778.232 92.8477 776.521 93.9609C774.811 95.0859 772.314 95.6484 769.033 95.6484C766.514 95.6484 764.568 95.1797 763.197 94.2422C761.838 93.3047 761.158 91.9805 761.158 90.2695C761.158 89.0977 761.533 88.084 762.283 87.2285C763.033 86.373 764.088 85.793 765.447 85.4883C764.955 85.2656 764.539 84.9199 764.199 84.4512C763.871 83.9824 763.707 83.4375 763.707 82.8164C763.707 82.1133 763.895 81.498 764.27 80.9707C764.645 80.4434 765.236 79.9336 766.045 79.4414C765.049 79.0312 764.234 78.334 763.602 77.3496C762.98 76.3652 762.67 75.2402 762.67 73.9746C762.67 71.8652 763.303 70.2422 764.568 69.1055C765.834 67.957 767.627 67.3828 769.947 67.3828C770.955 67.3828 771.863 67.5 772.672 67.7344H779.334ZM763.971 90.2344C763.971 91.2773 764.41 92.0684 765.289 92.6074C766.168 93.1465 767.428 93.416 769.068 93.416C771.518 93.416 773.328 93.0469 774.5 92.3086C775.684 91.582 776.275 90.5918 776.275 89.3379C776.275 88.2949 775.953 87.5684 775.309 87.1582C774.664 86.7598 773.451 86.5605 771.67 86.5605H768.172C766.848 86.5605 765.816 86.877 765.078 87.5098C764.34 88.1426 763.971 89.0508 763.971 90.2344ZM765.553 73.9043C765.553 75.252 765.934 76.2715 766.695 76.9629C767.457 77.6543 768.518 78 769.877 78C772.725 78 774.148 76.6172 774.148 73.8516C774.148 70.957 772.707 69.5098 769.824 69.5098C768.453 69.5098 767.398 69.8789 766.66 70.6172C765.922 71.3555 765.553 72.4512 765.553 73.9043Z" fill="white"/>
<path d="M786.031 67.7344V80.2324C786.031 81.8027 786.389 82.9746 787.104 83.748C787.818 84.5215 788.938 84.9082 790.461 84.9082C792.477 84.9082 793.947 84.3574 794.873 83.2559C795.811 82.1543 796.279 80.3555 796.279 77.8594V67.7344H799.197V87H796.789L796.367 84.416H796.209C795.611 85.3652 794.779 86.0918 793.713 86.5957C792.658 87.0996 791.451 87.3516 790.092 87.3516C787.748 87.3516 785.99 86.7949 784.818 85.6816C783.658 84.5684 783.078 82.7871 783.078 80.3379V67.7344H786.031Z" fill="white"/>
<path d="M808.32 87H805.402V59.6484H808.32V87Z" fill="white"/>
<path d="M826.355 87L825.775 84.2578H825.635C824.674 85.4648 823.713 86.2852 822.752 86.7188C821.803 87.1406 820.613 87.3516 819.184 87.3516C817.273 87.3516 815.773 86.8594 814.684 85.875C813.605 84.8906 813.066 83.4902 813.066 81.6738C813.066 77.7832 816.178 75.7441 822.4 75.5566L825.67 75.4512V74.2559C825.67 72.7441 825.342 71.6309 824.686 70.916C824.041 70.1895 823.004 69.8262 821.574 69.8262C819.969 69.8262 818.152 70.3184 816.125 71.3027L815.229 69.0703C816.178 68.5547 817.215 68.1504 818.34 67.8574C819.477 67.5645 820.613 67.418 821.75 67.418C824.047 67.418 825.746 67.9277 826.848 68.9473C827.961 69.9668 828.518 71.6016 828.518 73.8516V87H826.355ZM819.764 84.9434C821.58 84.9434 823.004 84.4453 824.035 83.4492C825.078 82.4531 825.6 81.0586 825.6 79.2656V77.5254L822.682 77.6484C820.361 77.7305 818.686 78.0938 817.654 78.7383C816.635 79.3711 816.125 80.3613 816.125 81.709C816.125 82.7637 816.441 83.5664 817.074 84.1172C817.719 84.668 818.615 84.9434 819.764 84.9434Z" fill="white"/>
<path d="M843.336 67.3828C844.191 67.3828 844.959 67.4531 845.639 67.5938L845.234 70.3008C844.438 70.125 843.734 70.0371 843.125 70.0371C841.566 70.0371 840.23 70.6699 839.117 71.9355C838.016 73.2012 837.465 74.7773 837.465 76.6641V87H834.547V67.7344H836.955L837.289 71.3027H837.43C838.145 70.0488 839.006 69.082 840.014 68.4023C841.021 67.7227 842.129 67.3828 843.336 67.3828Z" fill="white"/>
</g>
<g id="Source Sans Pro Regu_2">
<path d="M456.688 146L453.488 137.826H443.188L440.023 146H437L447.16 120.195H449.674L459.781 146H456.688ZM452.557 135.137L449.568 127.174C449.182 126.166 448.783 124.93 448.373 123.465C448.115 124.59 447.746 125.826 447.266 127.174L444.242 135.137H452.557Z" fill="#0F1416" fill-opacity="0.5"/>
<path d="M463.314 120.301H470.574C473.984 120.301 476.451 120.811 477.975 121.83C479.498 122.85 480.26 124.461 480.26 126.664C480.26 128.188 479.832 129.447 478.977 130.443C478.133 131.428 476.896 132.066 475.268 132.359V132.535C479.17 133.203 481.121 135.254 481.121 138.688C481.121 140.984 480.342 142.777 478.783 144.066C477.236 145.355 475.068 146 472.279 146H463.314V120.301ZM466.303 131.305H471.225C473.334 131.305 474.852 130.977 475.777 130.32C476.703 129.652 477.166 128.533 477.166 126.963C477.166 125.521 476.65 124.484 475.619 123.852C474.588 123.207 472.947 122.885 470.697 122.885H466.303V131.305ZM466.303 133.836V143.451H471.664C473.738 143.451 475.297 143.053 476.34 142.256C477.395 141.447 477.922 140.188 477.922 138.477C477.922 136.883 477.383 135.711 476.305 134.961C475.238 134.211 473.609 133.836 471.418 133.836H466.303Z" fill="#0F1416" fill-opacity="0.5"/>
<path d="M497.662 122.604C494.838 122.604 492.605 123.547 490.965 125.434C489.336 127.309 488.521 129.881 488.521 133.15C488.521 136.514 489.307 139.115 490.877 140.955C492.459 142.783 494.709 143.697 497.627 143.697C499.42 143.697 501.465 143.375 503.762 142.73V145.35C501.98 146.018 499.783 146.352 497.17 146.352C493.385 146.352 490.461 145.203 488.398 142.906C486.348 140.609 485.322 137.346 485.322 133.115C485.322 130.467 485.814 128.146 486.799 126.154C487.795 124.162 489.225 122.627 491.088 121.549C492.963 120.471 495.166 119.932 497.697 119.932C500.393 119.932 502.748 120.424 504.764 121.408L503.498 123.975C501.553 123.061 499.607 122.604 497.662 122.604Z" fill="#0F1416" fill-opacity="0.5"/>
<path d="M529.883 132.904C529.883 137.146 528.729 140.393 526.42 142.643C524.123 144.881 520.812 146 516.488 146H509.369V120.301H517.244C521.24 120.301 524.346 121.408 526.561 123.623C528.775 125.838 529.883 128.932 529.883 132.904ZM526.719 133.01C526.719 129.658 525.875 127.133 524.188 125.434C522.512 123.734 520.016 122.885 516.699 122.885H512.357V143.416H515.996C519.559 143.416 522.236 142.543 524.029 140.797C525.822 139.039 526.719 136.443 526.719 133.01Z" fill="#0F1416" fill-opacity="0.5"/>
<path d="M549.957 146H535.631V120.301H549.957V122.955H538.619V131.234H549.271V133.871H538.619V143.328H549.957V146Z" fill="#0F1416" fill-opacity="0.5"/>
<path d="M558.658 146H555.67V120.301H569.996V122.955H558.658V132.359H569.311V135.014H558.658V146Z" fill="#0F1416" fill-opacity="0.5"/>
<path d="M585.57 132.535H594.307V145.033C592.947 145.467 591.564 145.795 590.158 146.018C588.752 146.24 587.123 146.352 585.271 146.352C581.381 146.352 578.352 145.197 576.184 142.889C574.016 140.568 572.932 137.322 572.932 133.15C572.932 130.479 573.465 128.141 574.531 126.137C575.609 124.121 577.156 122.586 579.172 121.531C581.188 120.465 583.549 119.932 586.256 119.932C588.998 119.932 591.553 120.436 593.92 121.443L592.76 124.08C590.439 123.096 588.207 122.604 586.062 122.604C582.934 122.604 580.49 123.535 578.732 125.398C576.975 127.262 576.096 129.846 576.096 133.15C576.096 136.619 576.939 139.25 578.627 141.043C580.326 142.836 582.816 143.732 586.098 143.732C587.879 143.732 589.619 143.527 591.318 143.117V135.207H585.57V132.535Z" fill="#0F1416" fill-opacity="0.5"/>
<path d="M620.006 146H617.018V133.906H603.482V146H600.494V120.301H603.482V131.234H617.018V120.301H620.006V146Z" fill="#0F1416" fill-opacity="0.5"/>
<path d="M627.072 146V120.301H630.061V146H627.072Z" fill="#0F1416" fill-opacity="0.5"/>
<path d="M633.383 152.768C632.281 152.768 631.414 152.609 630.781 152.293V149.744C631.613 149.979 632.48 150.096 633.383 150.096C634.543 150.096 635.422 149.744 636.02 149.041C636.629 148.338 636.934 147.324 636.934 146V120.301H639.922V145.754C639.922 147.98 639.359 149.703 638.234 150.922C637.109 152.152 635.492 152.768 633.383 152.768Z" fill="#0F1416" fill-opacity="0.5"/>
<path d="M665.322 146H661.807L652.438 133.537L649.748 135.928V146H646.76V120.301H649.748V133.045L661.402 120.301H664.936L654.6 131.463L665.322 146Z" fill="#0F1416" fill-opacity="0.5"/>
<path d="M668.873 146V120.301H671.861V143.293H683.199V146H668.873Z" fill="#0F1416" fill-opacity="0.5"/>
<path d="M698.949 146L690.23 123.219H690.09C690.254 125.023 690.336 127.168 690.336 129.652V146H687.576V120.301H692.076L700.215 141.5H700.355L708.564 120.301H713.029V146H710.041V129.441C710.041 127.543 710.123 125.48 710.287 123.254H710.146L701.357 146H698.949Z" fill="#0F1416" fill-opacity="0.5"/>
<path d="M740.17 146H736.76L722.715 124.432H722.574C722.762 126.963 722.855 129.283 722.855 131.393V146H720.096V120.301H723.471L737.48 141.781H737.621C737.598 141.465 737.545 140.451 737.463 138.74C737.381 137.018 737.352 135.787 737.375 135.049V120.301H740.17V146Z" fill="#0F1416" fill-opacity="0.5"/>
<path d="M769.543 133.115C769.543 137.229 768.5 140.463 766.414 142.818C764.34 145.174 761.451 146.352 757.748 146.352C753.963 146.352 751.039 145.197 748.977 142.889C746.926 140.568 745.9 137.299 745.9 133.08C745.9 128.896 746.932 125.656 748.994 123.359C751.057 121.051 753.986 119.896 757.783 119.896C761.475 119.896 764.357 121.068 766.432 123.412C768.506 125.756 769.543 128.99 769.543 133.115ZM749.064 133.115C749.064 136.596 749.803 139.238 751.279 141.043C752.768 142.836 754.924 143.732 757.748 143.732C760.596 143.732 762.746 142.836 764.199 141.043C765.652 139.25 766.379 136.607 766.379 133.115C766.379 129.658 765.652 127.039 764.199 125.258C762.758 123.465 760.619 122.568 757.783 122.568C754.936 122.568 752.768 123.471 751.279 125.275C749.803 127.068 749.064 129.682 749.064 133.115Z" fill="#0F1416" fill-opacity="0.5"/>
<path d="M791.586 127.789C791.586 130.391 790.695 132.395 788.914 133.801C787.145 135.195 784.607 135.893 781.303 135.893H778.279V146H775.291V120.301H781.953C788.375 120.301 791.586 122.797 791.586 127.789ZM778.279 133.326H780.969C783.617 133.326 785.533 132.898 786.717 132.043C787.9 131.188 788.492 129.816 788.492 127.93C788.492 126.23 787.936 124.965 786.822 124.133C785.709 123.301 783.975 122.885 781.619 122.885H778.279V133.326Z" fill="#0F1416" fill-opacity="0.5"/>
<path d="M819.289 133.115C819.289 136.408 818.627 139.145 817.303 141.324C815.979 143.504 814.109 144.98 811.695 145.754L817.812 152.117H813.471L808.461 146.316L807.494 146.352C803.709 146.352 800.785 145.197 798.723 142.889C796.672 140.568 795.646 137.299 795.646 133.08C795.646 128.896 796.678 125.656 798.74 123.359C800.803 121.051 803.732 119.896 807.529 119.896C811.221 119.896 814.104 121.068 816.178 123.412C818.252 125.756 819.289 128.99 819.289 133.115ZM798.811 133.115C798.811 136.596 799.549 139.238 801.025 141.043C802.514 142.836 804.67 143.732 807.494 143.732C810.342 143.732 812.492 142.836 813.945 141.043C815.398 139.25 816.125 136.607 816.125 133.115C816.125 129.658 815.398 127.039 813.945 125.258C812.504 123.465 810.365 122.568 807.529 122.568C804.682 122.568 802.514 123.471 801.025 125.275C799.549 127.068 798.811 129.682 798.811 133.115Z" fill="#0F1416" fill-opacity="0.5"/>
<path d="M828.025 135.312V146H825.037V120.301H832.086C835.238 120.301 837.564 120.904 839.064 122.111C840.576 123.318 841.332 125.135 841.332 127.561C841.332 130.959 839.609 133.256 836.164 134.451L843.143 146H839.609L833.387 135.312H828.025ZM828.025 132.746H832.121C834.23 132.746 835.777 132.33 836.762 131.498C837.746 130.654 838.238 129.395 838.238 127.719C838.238 126.02 837.734 124.795 836.727 124.045C835.73 123.295 834.125 122.92 831.91 122.92H828.025V132.746Z" fill="#0F1416" fill-opacity="0.5"/>
<path d="M861.793 139.162C861.793 141.424 860.973 143.188 859.332 144.453C857.691 145.719 855.465 146.352 852.652 146.352C849.605 146.352 847.262 145.959 845.621 145.174V142.291C846.676 142.736 847.824 143.088 849.066 143.346C850.309 143.604 851.539 143.732 852.758 143.732C854.75 143.732 856.25 143.357 857.258 142.607C858.266 141.846 858.77 140.791 858.77 139.443C858.77 138.553 858.588 137.826 858.225 137.264C857.873 136.689 857.275 136.162 856.432 135.682C855.6 135.201 854.328 134.656 852.617 134.047C850.227 133.191 848.516 132.178 847.484 131.006C846.465 129.834 845.955 128.305 845.955 126.418C845.955 124.438 846.699 122.861 848.188 121.689C849.676 120.518 851.645 119.932 854.094 119.932C856.648 119.932 858.998 120.4 861.143 121.338L860.211 123.939C858.09 123.049 856.027 122.604 854.023 122.604C852.441 122.604 851.205 122.943 850.314 123.623C849.424 124.303 848.979 125.246 848.979 126.453C848.979 127.344 849.143 128.076 849.471 128.65C849.799 129.213 850.35 129.734 851.123 130.215C851.908 130.684 853.104 131.205 854.709 131.779C857.404 132.74 859.256 133.771 860.264 134.873C861.283 135.975 861.793 137.404 861.793 139.162Z" fill="#0F1416" fill-opacity="0.5"/>
<path d="M874.959 146H871.971V122.955H863.832V120.301H883.098V122.955H874.959V146Z" fill="#0F1416" fill-opacity="0.5"/>
<path d="M906.389 120.301V136.93C906.389 139.859 905.504 142.162 903.734 143.838C901.965 145.514 899.533 146.352 896.439 146.352C893.346 146.352 890.949 145.508 889.25 143.82C887.562 142.133 886.719 139.812 886.719 136.859V120.301H889.707V137.07C889.707 139.215 890.293 140.861 891.465 142.01C892.637 143.158 894.359 143.732 896.633 143.732C898.801 143.732 900.471 143.158 901.643 142.01C902.814 140.85 903.4 139.191 903.4 137.035V120.301H906.389Z" fill="#0F1416" fill-opacity="0.5"/>
<path d="M927.887 120.301H931.104L921.84 146H918.887L909.676 120.301H912.84L918.746 136.93C919.426 138.84 919.965 140.697 920.363 142.502C920.785 140.604 921.336 138.711 922.016 136.824L927.887 120.301Z" fill="#0F1416" fill-opacity="0.5"/>
<path d="M957.084 146H954.131L948.945 128.791C948.699 128.029 948.424 127.068 948.119 125.908C947.814 124.748 947.656 124.051 947.645 123.816C947.387 125.363 946.977 127.057 946.414 128.896L941.387 146H938.434L931.596 120.301H934.76L938.82 136.174C939.383 138.4 939.793 140.416 940.051 142.221C940.367 140.076 940.836 137.979 941.457 135.928L946.062 120.301H949.227L954.061 136.068C954.623 137.885 955.098 139.936 955.484 142.221C955.707 140.557 956.129 138.529 956.75 136.139L960.793 120.301H963.957L957.084 146Z" fill="#0F1416" fill-opacity="0.5"/>
<path d="M985.086 146H981.693L974.785 134.697L967.754 146H964.59L973.133 132.57L965.17 120.301H968.475L974.855 130.479L981.289 120.301H984.471L976.508 132.465L985.086 146Z" fill="#0F1416" fill-opacity="0.5"/>
<path d="M995.299 133.15L1002.15 120.301H1005.39L996.811 136.033V146H993.787V136.174L985.227 120.301H988.496L995.299 133.15Z" fill="#0F1416" fill-opacity="0.5"/>
<path d="M1024.51 146H1006.85V143.662L1020.49 122.99H1007.27V120.301H1024.13V122.639L1010.49 143.293H1024.51V146Z" fill="#0F1416" fill-opacity="0.5"/>
<path d="M451.941 205L451.361 202.258H451.221C450.26 203.465 449.299 204.285 448.338 204.719C447.389 205.141 446.199 205.352 444.77 205.352C442.859 205.352 441.359 204.859 440.27 203.875C439.191 202.891 438.652 201.49 438.652 199.674C438.652 195.783 441.764 193.744 447.986 193.557L451.256 193.451V192.256C451.256 190.744 450.928 189.631 450.271 188.916C449.627 188.189 448.59 187.826 447.16 187.826C445.555 187.826 443.738 188.318 441.711 189.303L440.814 187.07C441.764 186.555 442.801 186.15 443.926 185.857C445.062 185.564 446.199 185.418 447.336 185.418C449.633 185.418 451.332 185.928 452.434 186.947C453.547 187.967 454.104 189.602 454.104 191.852V205H451.941ZM445.35 202.943C447.166 202.943 448.59 202.445 449.621 201.449C450.664 200.453 451.186 199.059 451.186 197.266V195.525L448.268 195.648C445.947 195.73 444.271 196.094 443.24 196.738C442.221 197.371 441.711 198.361 441.711 199.709C441.711 200.764 442.027 201.566 442.66 202.117C443.305 202.668 444.201 202.943 445.35 202.943Z" fill="#0F1416" fill-opacity="0.5"/>
<path d="M469.098 185.418C471.629 185.418 473.592 186.285 474.986 188.02C476.393 189.742 477.096 192.186 477.096 195.35C477.096 198.514 476.387 200.975 474.969 202.732C473.562 204.479 471.605 205.352 469.098 205.352C467.844 205.352 466.695 205.123 465.652 204.666C464.621 204.197 463.754 203.482 463.051 202.521H462.84L462.225 205H460.133V177.648H463.051V184.293C463.051 185.781 463.004 187.117 462.91 188.301H463.051C464.41 186.379 466.426 185.418 469.098 185.418ZM468.676 187.861C466.684 187.861 465.248 188.436 464.369 189.584C463.49 190.721 463.051 192.643 463.051 195.35C463.051 198.057 463.502 199.996 464.404 201.168C465.307 202.328 466.754 202.908 468.746 202.908C470.539 202.908 471.875 202.258 472.754 200.957C473.633 199.645 474.072 197.764 474.072 195.314C474.072 192.807 473.633 190.938 472.754 189.707C471.875 188.477 470.516 187.861 468.676 187.861Z" fill="#0F1416" fill-opacity="0.5"/>
<path d="M489.91 205.352C487.121 205.352 484.959 204.496 483.424 202.785C481.9 201.062 481.139 198.631 481.139 195.49C481.139 192.268 481.912 189.777 483.459 188.02C485.018 186.262 487.232 185.383 490.104 185.383C491.029 185.383 491.955 185.482 492.881 185.682C493.807 185.881 494.533 186.115 495.061 186.385L494.164 188.863C493.52 188.605 492.816 188.395 492.055 188.23C491.293 188.055 490.619 187.967 490.033 187.967C486.119 187.967 484.162 190.463 484.162 195.455C484.162 197.822 484.637 199.639 485.586 200.904C486.547 202.17 487.965 202.803 489.84 202.803C491.445 202.803 493.092 202.457 494.779 201.766V204.35C493.49 205.018 491.867 205.352 489.91 205.352Z" fill="#0F1416" fill-opacity="0.5"/>
<path d="M512.48 202.416H512.322C510.975 204.373 508.959 205.352 506.275 205.352C503.756 205.352 501.793 204.49 500.387 202.768C498.992 201.045 498.295 198.596 498.295 195.42C498.295 192.244 498.998 189.777 500.404 188.02C501.811 186.262 503.768 185.383 506.275 185.383C508.889 185.383 510.893 186.332 512.287 188.23H512.516L512.393 186.842L512.322 185.488V177.648H515.24V205H512.867L512.48 202.416ZM506.645 202.908C508.637 202.908 510.078 202.369 510.969 201.291C511.871 200.201 512.322 198.449 512.322 196.035V195.42C512.322 192.689 511.865 190.744 510.951 189.584C510.049 188.412 508.602 187.826 506.609 187.826C504.898 187.826 503.586 188.494 502.672 189.83C501.77 191.154 501.318 193.029 501.318 195.455C501.318 197.916 501.77 199.773 502.672 201.027C503.574 202.281 504.898 202.908 506.645 202.908Z" fill="#0F1416" fill-opacity="0.5"/>
<path d="M529.584 205.352C526.736 205.352 524.486 204.484 522.834 202.75C521.193 201.016 520.373 198.607 520.373 195.525C520.373 192.42 521.135 189.953 522.658 188.125C524.193 186.297 526.25 185.383 528.828 185.383C531.242 185.383 533.152 186.18 534.559 187.773C535.965 189.355 536.668 191.447 536.668 194.049V195.895H523.396C523.455 198.156 524.023 199.873 525.102 201.045C526.191 202.217 527.721 202.803 529.689 202.803C531.764 202.803 533.814 202.369 535.842 201.502V204.104C534.811 204.549 533.832 204.865 532.906 205.053C531.992 205.252 530.885 205.352 529.584 205.352ZM528.793 187.826C527.246 187.826 526.01 188.33 525.084 189.338C524.17 190.346 523.631 191.74 523.467 193.521H533.539C533.539 191.682 533.129 190.275 532.309 189.303C531.488 188.318 530.316 187.826 528.793 187.826Z" fill="#0F1416" fill-opacity="0.5"/>
<path d="M550.344 188.002H545.439V205H542.521V188.002H539.076V186.684L542.521 185.629V184.557C542.521 179.822 544.59 177.455 548.727 177.455C549.746 177.455 550.941 177.66 552.312 178.07L551.557 180.408C550.432 180.045 549.471 179.863 548.674 179.863C547.572 179.863 546.758 180.232 546.23 180.971C545.703 181.697 545.439 182.869 545.439 184.486V185.734H550.344V188.002Z" fill="#0F1416" fill-opacity="0.5"/>
<path d="M569.627 185.734V187.58L566.059 188.002C566.387 188.412 566.68 188.951 566.938 189.619C567.195 190.275 567.324 191.02 567.324 191.852C567.324 193.738 566.68 195.244 565.391 196.369C564.102 197.494 562.332 198.057 560.082 198.057C559.508 198.057 558.969 198.01 558.465 197.916C557.223 198.572 556.602 199.398 556.602 200.395C556.602 200.922 556.818 201.314 557.252 201.572C557.686 201.818 558.43 201.941 559.484 201.941H562.895C564.98 201.941 566.58 202.381 567.693 203.26C568.818 204.139 569.381 205.416 569.381 207.092C569.381 209.225 568.525 210.848 566.814 211.961C565.104 213.086 562.607 213.648 559.326 213.648C556.807 213.648 554.861 213.18 553.49 212.242C552.131 211.305 551.451 209.98 551.451 208.27C551.451 207.098 551.826 206.084 552.576 205.229C553.326 204.373 554.381 203.793 555.74 203.488C555.248 203.266 554.832 202.92 554.492 202.451C554.164 201.982 554 201.438 554 200.816C554 200.113 554.188 199.498 554.562 198.971C554.938 198.443 555.529 197.934 556.338 197.441C555.342 197.031 554.527 196.334 553.895 195.35C553.273 194.365 552.963 193.24 552.963 191.975C552.963 189.865 553.596 188.242 554.861 187.105C556.127 185.957 557.92 185.383 560.24 185.383C561.248 185.383 562.156 185.5 562.965 185.734H569.627ZM554.264 208.234C554.264 209.277 554.703 210.068 555.582 210.607C556.461 211.146 557.721 211.416 559.361 211.416C561.811 211.416 563.621 211.047 564.793 210.309C565.977 209.582 566.568 208.592 566.568 207.338C566.568 206.295 566.246 205.568 565.602 205.158C564.957 204.76 563.744 204.561 561.963 204.561H558.465C557.141 204.561 556.109 204.877 555.371 205.51C554.633 206.143 554.264 207.051 554.264 208.234ZM555.846 191.904C555.846 193.252 556.227 194.271 556.988 194.963C557.75 195.654 558.811 196 560.17 196C563.018 196 564.441 194.617 564.441 191.852C564.441 188.957 563 187.51 560.117 187.51C558.746 187.51 557.691 187.879 556.953 188.617C556.215 189.355 555.846 190.451 555.846 191.904Z" fill="#0F1416" fill-opacity="0.5"/>
<path d="M586.766 205V192.537C586.766 190.967 586.408 189.795 585.693 189.021C584.979 188.248 583.859 187.861 582.336 187.861C580.309 187.861 578.826 188.412 577.889 189.514C576.963 190.615 576.5 192.42 576.5 194.928V205H573.582V177.648H576.5V185.928C576.5 186.924 576.453 187.75 576.359 188.406H576.535C577.109 187.48 577.924 186.754 578.979 186.227C580.045 185.688 581.258 185.418 582.617 185.418C584.973 185.418 586.736 185.98 587.908 187.105C589.092 188.219 589.684 189.994 589.684 192.432V205H586.766Z" fill="#0F1416" fill-opacity="0.5"/>
<path d="M598.613 205H595.695V185.734H598.613V205ZM595.449 180.514C595.449 179.846 595.613 179.359 595.941 179.055C596.27 178.738 596.68 178.58 597.172 178.58C597.641 178.58 598.045 178.738 598.385 179.055C598.725 179.371 598.895 179.857 598.895 180.514C598.895 181.17 598.725 181.662 598.385 181.99C598.045 182.307 597.641 182.465 597.172 182.465C596.68 182.465 596.27 182.307 595.941 181.99C595.613 181.662 595.449 181.17 595.449 180.514Z" fill="#0F1416" fill-opacity="0.5"/>
<path d="M602.463 213.648C601.35 213.648 600.447 213.502 599.756 213.209V210.836C600.564 211.07 601.361 211.188 602.146 211.188C603.061 211.188 603.729 210.936 604.15 210.432C604.584 209.939 604.801 209.184 604.801 208.164V185.734H607.719V207.953C607.719 211.75 605.967 213.648 602.463 213.648ZM604.555 180.514C604.555 179.846 604.719 179.359 605.047 179.055C605.375 178.738 605.785 178.58 606.277 178.58C606.746 178.58 607.15 178.738 607.49 179.055C607.83 179.371 608 179.857 608 180.514C608 181.17 607.83 181.662 607.49 181.99C607.15 182.307 606.746 182.465 606.277 182.465C605.785 182.465 605.375 182.307 605.047 181.99C604.719 181.662 604.555 181.17 604.555 180.514Z" fill="#0F1416" fill-opacity="0.5"/>
<path d="M616.789 195.139C617.293 194.424 618.061 193.486 619.092 192.326L625.314 185.734H628.777L620.973 193.943L629.322 205H625.789L618.986 195.895L616.789 197.793V205H613.906V177.648H616.789V192.15C616.789 192.795 616.742 193.791 616.648 195.139H616.789Z" fill="#0F1416" fill-opacity="0.5"/>
<path d="M635.738 205H632.82V177.648H635.738V205Z" fill="#0F1416" fill-opacity="0.5"/>
<path d="M666.482 205V192.467C666.482 190.932 666.154 189.783 665.498 189.021C664.842 188.248 663.822 187.861 662.439 187.861C660.623 187.861 659.281 188.383 658.414 189.426C657.547 190.469 657.113 192.074 657.113 194.242V205H654.195V192.467C654.195 190.932 653.867 189.783 653.211 189.021C652.555 188.248 651.529 187.861 650.135 187.861C648.307 187.861 646.965 188.412 646.109 189.514C645.266 190.604 644.844 192.396 644.844 194.893V205H641.926V185.734H644.299L644.773 188.371H644.914C645.465 187.434 646.238 186.701 647.234 186.174C648.242 185.646 649.367 185.383 650.609 185.383C653.621 185.383 655.59 186.473 656.516 188.652H656.656C657.23 187.645 658.062 186.848 659.152 186.262C660.242 185.676 661.484 185.383 662.879 185.383C665.059 185.383 666.688 185.945 667.766 187.07C668.855 188.184 669.4 189.971 669.4 192.432V205H666.482Z" fill="#0F1416" fill-opacity="0.5"/>
<path d="M688.613 205V192.537C688.613 190.967 688.256 189.795 687.541 189.021C686.826 188.248 685.707 187.861 684.184 187.861C682.168 187.861 680.691 188.406 679.754 189.496C678.816 190.586 678.348 192.385 678.348 194.893V205H675.43V185.734H677.803L678.277 188.371H678.418C679.016 187.422 679.854 186.689 680.932 186.174C682.01 185.646 683.211 185.383 684.535 185.383C686.855 185.383 688.602 185.945 689.773 187.07C690.945 188.184 691.531 189.971 691.531 192.432V205H688.613Z" fill="#0F1416" fill-opacity="0.5"/>
<path d="M714.172 195.35C714.172 198.49 713.381 200.945 711.799 202.715C710.217 204.473 708.031 205.352 705.242 205.352C703.52 205.352 701.99 204.947 700.654 204.139C699.318 203.33 698.287 202.17 697.561 200.658C696.834 199.146 696.471 197.377 696.471 195.35C696.471 192.209 697.256 189.766 698.826 188.02C700.396 186.262 702.576 185.383 705.365 185.383C708.061 185.383 710.199 186.279 711.781 188.072C713.375 189.865 714.172 192.291 714.172 195.35ZM699.494 195.35C699.494 197.811 699.986 199.686 700.971 200.975C701.955 202.264 703.402 202.908 705.312 202.908C707.223 202.908 708.67 202.27 709.654 200.992C710.65 199.703 711.148 197.822 711.148 195.35C711.148 192.9 710.65 191.043 709.654 189.777C708.67 188.5 707.211 187.861 705.277 187.861C703.367 187.861 701.926 188.488 700.953 189.742C699.98 190.996 699.494 192.865 699.494 195.35Z" fill="#0F1416" fill-opacity="0.5"/>
<path d="M728.27 205.352C727.016 205.352 725.867 205.123 724.824 204.666C723.793 204.197 722.926 203.482 722.223 202.521H722.012C722.152 203.646 722.223 204.713 722.223 205.721V213.648H719.305V185.734H721.678L722.082 188.371H722.223C722.973 187.316 723.846 186.555 724.842 186.086C725.838 185.617 726.98 185.383 728.27 185.383C730.824 185.383 732.793 186.256 734.176 188.002C735.57 189.748 736.268 192.197 736.268 195.35C736.268 198.514 735.559 200.975 734.141 202.732C732.734 204.479 730.777 205.352 728.27 205.352ZM727.848 187.861C725.879 187.861 724.455 188.406 723.576 189.496C722.697 190.586 722.246 192.32 722.223 194.699V195.35C722.223 198.057 722.674 199.996 723.576 201.168C724.479 202.328 725.926 202.908 727.918 202.908C729.582 202.908 730.883 202.234 731.82 200.887C732.77 199.539 733.244 197.682 733.244 195.314C733.244 192.912 732.77 191.072 731.82 189.795C730.883 188.506 729.559 187.861 727.848 187.861Z" fill="#0F1416" fill-opacity="0.5"/>
<path d="M748.66 202.908C750.605 202.908 752.023 202.387 752.914 201.344C753.805 200.301 754.279 198.543 754.338 196.07V195.42C754.338 192.725 753.881 190.785 752.967 189.602C752.053 188.418 750.605 187.826 748.625 187.826C746.914 187.826 745.602 188.494 744.688 189.83C743.785 191.154 743.334 193.029 743.334 195.455C743.334 197.881 743.779 199.732 744.67 201.01C745.572 202.275 746.902 202.908 748.66 202.908ZM748.221 205.352C745.736 205.352 743.797 204.479 742.402 202.732C741.008 200.986 740.311 198.549 740.311 195.42C740.311 192.268 741.014 189.807 742.42 188.037C743.826 186.268 745.783 185.383 748.291 185.383C750.928 185.383 752.955 186.379 754.373 188.371H754.531L754.953 185.734H757.256V213.648H754.338V205.404C754.338 204.232 754.402 203.236 754.531 202.416H754.303C752.955 204.373 750.928 205.352 748.221 205.352Z" fill="#0F1416" fill-opacity="0.5"/>
<path d="M772.25 185.383C773.105 185.383 773.873 185.453 774.553 185.594L774.148 188.301C773.352 188.125 772.648 188.037 772.039 188.037C770.48 188.037 769.145 188.67 768.031 189.936C766.93 191.201 766.379 192.777 766.379 194.664V205H763.461V185.734H765.869L766.203 189.303H766.344C767.059 188.049 767.92 187.082 768.928 186.402C769.936 185.723 771.043 185.383 772.25 185.383Z" fill="#0F1416" fill-opacity="0.5"/>
<path d="M790.584 199.744C790.584 201.537 789.916 202.92 788.58 203.893C787.244 204.865 785.369 205.352 782.955 205.352C780.4 205.352 778.408 204.947 776.979 204.139V201.432C777.904 201.9 778.895 202.27 779.949 202.539C781.016 202.809 782.041 202.943 783.025 202.943C784.549 202.943 785.721 202.703 786.541 202.223C787.361 201.73 787.771 200.986 787.771 199.99C787.771 199.24 787.443 198.602 786.787 198.074C786.143 197.535 784.877 196.902 782.99 196.176C781.197 195.508 779.92 194.928 779.158 194.436C778.408 193.932 777.846 193.363 777.471 192.73C777.107 192.098 776.926 191.342 776.926 190.463C776.926 188.893 777.564 187.656 778.842 186.754C780.119 185.84 781.871 185.383 784.098 185.383C786.172 185.383 788.199 185.805 790.18 186.648L789.143 189.021C787.209 188.225 785.457 187.826 783.887 187.826C782.504 187.826 781.461 188.043 780.758 188.477C780.055 188.91 779.703 189.508 779.703 190.27C779.703 190.785 779.832 191.225 780.09 191.588C780.359 191.951 780.787 192.297 781.373 192.625C781.959 192.953 783.084 193.428 784.748 194.049C787.033 194.881 788.574 195.719 789.371 196.562C790.18 197.406 790.584 198.467 790.584 199.744Z" fill="#0F1416" fill-opacity="0.5"/>
<path d="M801.57 202.943C802.086 202.943 802.584 202.908 803.064 202.838C803.545 202.756 803.926 202.674 804.207 202.592V204.824C803.891 204.977 803.422 205.1 802.801 205.193C802.191 205.299 801.641 205.352 801.148 205.352C797.422 205.352 795.559 203.389 795.559 199.463V188.002H792.799V186.596L795.559 185.383L796.789 181.27H798.477V185.734H804.066V188.002H798.477V199.34C798.477 200.5 798.752 201.391 799.303 202.012C799.854 202.633 800.609 202.943 801.57 202.943Z" fill="#0F1416" fill-opacity="0.5"/>
<path d="M810.816 185.734V198.232C810.816 199.803 811.174 200.975 811.889 201.748C812.604 202.521 813.723 202.908 815.246 202.908C817.262 202.908 818.732 202.357 819.658 201.256C820.596 200.154 821.064 198.355 821.064 195.859V185.734H823.982V205H821.574L821.152 202.416H820.994C820.396 203.365 819.564 204.092 818.498 204.596C817.443 205.1 816.236 205.352 814.877 205.352C812.533 205.352 810.775 204.795 809.604 203.682C808.443 202.568 807.863 200.787 807.863 198.338V185.734H810.816Z" fill="#0F1416" fill-opacity="0.5"/>
<path d="M834.406 205L827.094 185.734H830.223L834.371 197.16C835.309 199.832 835.859 201.566 836.023 202.363H836.164C836.293 201.742 836.697 200.459 837.377 198.514C838.068 196.557 839.609 192.297 842 185.734H845.129L837.816 205H834.406Z" fill="#0F1416" fill-opacity="0.5"/>
<path d="M863.955 205L860.422 193.697C860.199 193.006 859.783 191.436 859.174 188.986H859.033C858.564 191.037 858.154 192.619 857.803 193.732L854.164 205H850.789L845.533 185.734H848.592C849.834 190.574 850.777 194.26 851.422 196.791C852.078 199.322 852.453 201.027 852.547 201.906H852.688C852.816 201.238 853.021 200.377 853.303 199.322C853.596 198.256 853.848 197.412 854.059 196.791L857.592 185.734H860.756L864.201 196.791C864.857 198.807 865.303 200.5 865.537 201.871H865.678C865.725 201.449 865.848 200.799 866.047 199.92C866.258 199.041 867.482 194.312 869.721 185.734H872.744L867.418 205H863.955Z" fill="#0F1416" fill-opacity="0.5"/>
<path d="M880.883 195.139L874.186 185.734H877.508L882.588 193.117L887.65 185.734H890.938L884.24 195.139L891.289 205H887.984L882.588 197.195L877.139 205H873.834L880.883 195.139Z" fill="#0F1416" fill-opacity="0.5"/>
<path d="M892.062 185.734H895.191L899.41 196.721C900.336 199.229 900.91 201.039 901.133 202.152H901.273C901.426 201.555 901.742 200.535 902.223 199.094C902.715 197.641 904.309 193.188 907.004 185.734H910.133L901.854 207.672C901.033 209.84 900.072 211.375 898.971 212.277C897.881 213.191 896.539 213.648 894.945 213.648C894.055 213.648 893.176 213.549 892.309 213.35V211.012C892.953 211.152 893.674 211.223 894.471 211.223C896.475 211.223 897.904 210.098 898.76 207.848L899.832 205.105L892.062 185.734Z" fill="#0F1416" fill-opacity="0.5"/>
<path d="M925.584 205H911.609V203.014L922.121 188.002H912.26V185.734H925.32V188.002L914.949 202.732H925.584V205Z" fill="#0F1416" fill-opacity="0.5"/>
</g>
<rect id="Rectangle 11_2" x="431" y="230" width="465" height="57" fill="#55C2A6"/>
<g id="Source Sans Pro Semi">
<path d="M455.211 264.021C455.211 266.307 454.385 268.1 452.732 269.4C451.08 270.701 448.801 271.352 445.895 271.352C442.988 271.352 440.609 270.9 438.758 269.998V266.025C439.93 266.576 441.172 267.01 442.484 267.326C443.809 267.643 445.039 267.801 446.176 267.801C447.84 267.801 449.064 267.484 449.85 266.852C450.646 266.219 451.045 265.369 451.045 264.303C451.045 263.342 450.682 262.527 449.955 261.859C449.229 261.191 447.729 260.4 445.455 259.486C443.111 258.537 441.459 257.453 440.498 256.234C439.537 255.016 439.057 253.551 439.057 251.84C439.057 249.695 439.818 248.008 441.342 246.777C442.865 245.547 444.91 244.932 447.477 244.932C449.938 244.932 452.387 245.471 454.824 246.549L453.488 249.977C451.203 249.016 449.164 248.535 447.371 248.535C446.012 248.535 444.98 248.834 444.277 249.432C443.574 250.018 443.223 250.797 443.223 251.77C443.223 252.438 443.363 253.012 443.645 253.492C443.926 253.961 444.389 254.406 445.033 254.828C445.678 255.25 446.838 255.807 448.514 256.498C450.4 257.283 451.783 258.016 452.662 258.695C453.541 259.375 454.186 260.143 454.596 260.998C455.006 261.854 455.211 262.861 455.211 264.021Z" fill="white"/>
<path d="M476.99 261.244C476.99 264.42 476.176 266.898 474.547 268.68C472.918 270.461 470.65 271.352 467.744 271.352C465.928 271.352 464.322 270.941 462.928 270.121C461.533 269.301 460.461 268.123 459.711 266.588C458.961 265.053 458.586 263.271 458.586 261.244C458.586 258.092 459.395 255.631 461.012 253.861C462.629 252.092 464.908 251.207 467.85 251.207C470.662 251.207 472.889 252.115 474.529 253.932C476.17 255.736 476.99 258.174 476.99 261.244ZM462.84 261.244C462.84 265.732 464.498 267.977 467.814 267.977C471.096 267.977 472.736 265.732 472.736 261.244C472.736 256.803 471.084 254.582 467.779 254.582C466.045 254.582 464.785 255.156 464 256.305C463.227 257.453 462.84 259.1 462.84 261.244Z" fill="white"/>
<path d="M495.465 271L494.885 268.451H494.674C494.1 269.354 493.279 270.062 492.213 270.578C491.158 271.094 489.951 271.352 488.592 271.352C486.236 271.352 484.479 270.766 483.318 269.594C482.158 268.422 481.578 266.646 481.578 264.268V251.559H485.744V263.547C485.744 265.035 486.049 266.154 486.658 266.904C487.268 267.643 488.223 268.012 489.523 268.012C491.258 268.012 492.529 267.496 493.338 266.465C494.158 265.422 494.568 263.682 494.568 261.244V251.559H498.717V271H495.465Z" fill="white"/>
<path d="M514.467 251.207C515.299 251.207 515.984 251.266 516.523 251.383L516.119 255.232C515.533 255.092 514.924 255.021 514.291 255.021C512.639 255.021 511.297 255.561 510.266 256.639C509.246 257.717 508.736 259.117 508.736 260.84V271H504.605V251.559H507.84L508.385 254.986H508.596C509.24 253.826 510.078 252.906 511.109 252.227C512.152 251.547 513.271 251.207 514.467 251.207Z" fill="white"/>
<path d="M527.984 271.352C525.043 271.352 522.805 270.496 521.27 268.785C519.746 267.062 518.984 264.596 518.984 261.385C518.984 258.115 519.781 255.602 521.375 253.844C522.98 252.086 525.295 251.207 528.318 251.207C530.369 251.207 532.215 251.588 533.855 252.35L532.607 255.672C530.861 254.992 529.42 254.652 528.283 254.652C524.92 254.652 523.238 256.885 523.238 261.35C523.238 263.529 523.654 265.17 524.486 266.271C525.33 267.361 526.561 267.906 528.178 267.906C530.018 267.906 531.758 267.449 533.398 266.535V270.139C532.66 270.572 531.869 270.883 531.025 271.07C530.193 271.258 529.18 271.352 527.984 271.352Z" fill="white"/>
<path d="M546.459 271.352C543.436 271.352 541.068 270.473 539.357 268.715C537.658 266.945 536.809 264.514 536.809 261.42C536.809 258.244 537.6 255.748 539.182 253.932C540.764 252.115 542.938 251.207 545.703 251.207C548.27 251.207 550.297 251.986 551.785 253.545C553.273 255.104 554.018 257.248 554.018 259.979V262.211H541.062C541.121 264.098 541.631 265.551 542.592 266.57C543.553 267.578 544.906 268.082 546.652 268.082C547.801 268.082 548.867 267.977 549.852 267.766C550.848 267.543 551.914 267.18 553.051 266.676V270.033C552.043 270.514 551.023 270.854 549.992 271.053C548.961 271.252 547.783 271.352 546.459 271.352ZM545.703 254.336C544.391 254.336 543.336 254.752 542.539 255.584C541.754 256.416 541.285 257.629 541.133 259.223H549.957C549.934 257.617 549.547 256.404 548.797 255.584C548.047 254.752 547.016 254.336 545.703 254.336Z" fill="white"/>
<path d="M583.32 264.021C583.32 266.307 582.494 268.1 580.842 269.4C579.189 270.701 576.91 271.352 574.004 271.352C571.098 271.352 568.719 270.9 566.867 269.998V266.025C568.039 266.576 569.281 267.01 570.594 267.326C571.918 267.643 573.148 267.801 574.285 267.801C575.949 267.801 577.174 267.484 577.959 266.852C578.756 266.219 579.154 265.369 579.154 264.303C579.154 263.342 578.791 262.527 578.064 261.859C577.338 261.191 575.838 260.4 573.564 259.486C571.221 258.537 569.568 257.453 568.607 256.234C567.646 255.016 567.166 253.551 567.166 251.84C567.166 249.695 567.928 248.008 569.451 246.777C570.975 245.547 573.02 244.932 575.586 244.932C578.047 244.932 580.496 245.471 582.934 246.549L581.598 249.977C579.312 249.016 577.273 248.535 575.48 248.535C574.121 248.535 573.09 248.834 572.387 249.432C571.684 250.018 571.332 250.797 571.332 251.77C571.332 252.438 571.473 253.012 571.754 253.492C572.035 253.961 572.498 254.406 573.143 254.828C573.787 255.25 574.947 255.807 576.623 256.498C578.51 257.283 579.893 258.016 580.771 258.695C581.65 259.375 582.295 260.143 582.705 260.998C583.115 261.854 583.32 262.861 583.32 264.021Z" fill="white"/>
<path d="M600.02 271L599.193 268.293H599.053C598.115 269.477 597.172 270.285 596.223 270.719C595.273 271.141 594.055 271.352 592.566 271.352C590.656 271.352 589.162 270.836 588.084 269.805C587.018 268.773 586.484 267.314 586.484 265.428C586.484 263.424 587.229 261.912 588.717 260.893C590.205 259.873 592.473 259.316 595.52 259.223L598.877 259.117V258.08C598.877 256.838 598.584 255.912 597.998 255.303C597.424 254.682 596.527 254.371 595.309 254.371C594.312 254.371 593.357 254.518 592.443 254.811C591.529 255.104 590.65 255.449 589.807 255.848L588.471 252.895C589.525 252.344 590.68 251.928 591.934 251.646C593.188 251.354 594.371 251.207 595.484 251.207C597.957 251.207 599.82 251.746 601.074 252.824C602.34 253.902 602.973 255.596 602.973 257.904V271H600.02ZM593.867 268.188C595.367 268.188 596.568 267.771 597.471 266.939C598.385 266.096 598.842 264.918 598.842 263.406V261.719L596.346 261.824C594.4 261.895 592.982 262.223 592.092 262.809C591.213 263.383 590.773 264.268 590.773 265.463C590.773 266.33 591.031 267.004 591.547 267.484C592.062 267.953 592.836 268.188 593.867 268.188Z" fill="white"/>
<path d="M625.842 271H621.693V259.047C621.693 257.547 621.389 256.428 620.779 255.689C620.182 254.951 619.227 254.582 617.914 254.582C616.168 254.582 614.891 255.098 614.082 256.129C613.273 257.16 612.869 258.889 612.869 261.314V271H608.738V251.559H611.973L612.553 254.107H612.764C613.35 253.182 614.182 252.467 615.26 251.963C616.338 251.459 617.533 251.207 618.846 251.207C623.51 251.207 625.842 253.58 625.842 258.326V271Z" fill="white"/>
<path d="M644.65 265.463C644.65 267.361 643.959 268.82 642.576 269.84C641.193 270.848 639.213 271.352 636.635 271.352C634.045 271.352 631.965 270.959 630.395 270.174V266.605C632.68 267.66 634.807 268.188 636.775 268.188C639.318 268.188 640.59 267.42 640.59 265.885C640.59 265.393 640.449 264.982 640.168 264.654C639.887 264.326 639.424 263.986 638.779 263.635C638.135 263.283 637.238 262.885 636.09 262.439C633.852 261.572 632.334 260.705 631.537 259.838C630.752 258.971 630.359 257.846 630.359 256.463C630.359 254.799 631.027 253.51 632.363 252.596C633.711 251.67 635.539 251.207 637.848 251.207C640.133 251.207 642.295 251.67 644.334 252.596L642.998 255.707C640.9 254.84 639.137 254.406 637.707 254.406C635.527 254.406 634.438 255.027 634.438 256.27C634.438 256.879 634.719 257.395 635.281 257.816C635.855 258.238 637.098 258.818 639.008 259.557C640.613 260.178 641.779 260.746 642.506 261.262C643.232 261.777 643.771 262.375 644.123 263.055C644.475 263.723 644.65 264.525 644.65 265.463Z" fill="white"/>
<path d="M675.939 253.07C675.939 255.754 675.061 257.811 673.303 259.24C671.545 260.67 669.043 261.385 665.797 261.385H663.125V271H658.924V245.301H666.324C669.535 245.301 671.938 245.957 673.531 247.27C675.137 248.582 675.939 250.516 675.939 253.07ZM663.125 257.852H665.357C667.514 257.852 669.096 257.477 670.104 256.727C671.111 255.977 671.615 254.805 671.615 253.211C671.615 251.734 671.164 250.633 670.262 249.906C669.359 249.18 667.953 248.816 666.043 248.816H663.125V257.852Z" fill="white"/>
<path d="M690.494 251.207C691.326 251.207 692.012 251.266 692.551 251.383L692.146 255.232C691.561 255.092 690.951 255.021 690.318 255.021C688.666 255.021 687.324 255.561 686.293 256.639C685.273 257.717 684.764 259.117 684.764 260.84V271H680.633V251.559H683.867L684.412 254.986H684.623C685.268 253.826 686.105 252.906 687.137 252.227C688.18 251.547 689.299 251.207 690.494 251.207Z" fill="white"/>
<path d="M713.416 261.244C713.416 264.42 712.602 266.898 710.973 268.68C709.344 270.461 707.076 271.352 704.17 271.352C702.354 271.352 700.748 270.941 699.354 270.121C697.959 269.301 696.887 268.123 696.137 266.588C695.387 265.053 695.012 263.271 695.012 261.244C695.012 258.092 695.82 255.631 697.438 253.861C699.055 252.092 701.334 251.207 704.275 251.207C707.088 251.207 709.314 252.115 710.955 253.932C712.596 255.736 713.416 258.174 713.416 261.244ZM699.266 261.244C699.266 265.732 700.924 267.977 704.24 267.977C707.521 267.977 709.162 265.732 709.162 261.244C709.162 256.803 707.51 254.582 704.205 254.582C702.471 254.582 701.211 255.156 700.426 256.305C699.652 257.453 699.266 259.1 699.266 261.244Z" fill="white"/>
<path d="M742.789 264.021C742.789 266.307 741.963 268.1 740.311 269.4C738.658 270.701 736.379 271.352 733.473 271.352C730.566 271.352 728.188 270.9 726.336 269.998V266.025C727.508 266.576 728.75 267.01 730.062 267.326C731.387 267.643 732.617 267.801 733.754 267.801C735.418 267.801 736.643 267.484 737.428 266.852C738.225 266.219 738.623 265.369 738.623 264.303C738.623 263.342 738.26 262.527 737.533 261.859C736.807 261.191 735.307 260.4 733.033 259.486C730.689 258.537 729.037 257.453 728.076 256.234C727.115 255.016 726.635 253.551 726.635 251.84C726.635 249.695 727.396 248.008 728.92 246.777C730.443 245.547 732.488 244.932 735.055 244.932C737.516 244.932 739.965 245.471 742.402 246.549L741.066 249.977C738.781 249.016 736.742 248.535 734.949 248.535C733.59 248.535 732.559 248.834 731.855 249.432C731.152 250.018 730.801 250.797 730.801 251.77C730.801 252.438 730.941 253.012 731.223 253.492C731.504 253.961 731.967 254.406 732.611 254.828C733.256 255.25 734.416 255.807 736.092 256.498C737.979 257.283 739.361 258.016 740.24 258.695C741.119 259.375 741.764 260.143 742.174 260.998C742.584 261.854 742.789 262.861 742.789 264.021Z" fill="white"/>
<path d="M755.814 271.352C752.791 271.352 750.424 270.473 748.713 268.715C747.014 266.945 746.164 264.514 746.164 261.42C746.164 258.244 746.955 255.748 748.537 253.932C750.119 252.115 752.293 251.207 755.059 251.207C757.625 251.207 759.652 251.986 761.141 253.545C762.629 255.104 763.373 257.248 763.373 259.979V262.211H750.418C750.477 264.098 750.986 265.551 751.947 266.57C752.908 267.578 754.262 268.082 756.008 268.082C757.156 268.082 758.223 267.977 759.207 267.766C760.203 267.543 761.27 267.18 762.406 266.676V270.033C761.398 270.514 760.379 270.854 759.348 271.053C758.316 271.252 757.139 271.352 755.814 271.352ZM755.059 254.336C753.746 254.336 752.691 254.752 751.895 255.584C751.109 256.416 750.641 257.629 750.488 259.223H759.312C759.289 257.617 758.902 256.404 758.152 255.584C757.402 254.752 756.371 254.336 755.059 254.336Z" fill="white"/>
<path d="M784.449 271H780.301V259.012C780.301 257.523 780.02 256.416 779.457 255.689C778.895 254.951 778.016 254.582 776.82 254.582C775.227 254.582 774.055 255.104 773.305 256.146C772.566 257.178 772.197 258.9 772.197 261.314V271H768.066V251.559H771.301L771.881 254.107H772.092C772.631 253.182 773.41 252.467 774.43 251.963C775.461 251.459 776.592 251.207 777.822 251.207C780.811 251.207 782.791 252.227 783.764 254.266H784.045C784.619 253.305 785.428 252.555 786.471 252.016C787.514 251.477 788.709 251.207 790.057 251.207C792.377 251.207 794.064 251.793 795.119 252.965C796.186 254.137 796.719 255.924 796.719 258.326V271H792.588V259.012C792.588 257.523 792.301 256.416 791.727 255.689C791.164 254.951 790.285 254.582 789.09 254.582C787.484 254.582 786.307 255.086 785.557 256.094C784.818 257.09 784.449 258.625 784.449 260.699V271Z" fill="white"/>
<path d="M806.615 271H802.484V251.559H806.615V271ZM802.238 246.408C802.238 245.67 802.438 245.102 802.836 244.703C803.246 244.305 803.826 244.105 804.576 244.105C805.303 244.105 805.865 244.305 806.264 244.703C806.674 245.102 806.879 245.67 806.879 246.408C806.879 247.111 806.674 247.668 806.264 248.078C805.865 248.477 805.303 248.676 804.576 248.676C803.826 248.676 803.246 248.477 802.836 248.078C802.438 247.668 802.238 247.111 802.238 246.408Z" fill="white"/>
<path d="M812.979 245.301H820.607C824.146 245.301 826.701 245.816 828.271 246.848C829.854 247.879 830.645 249.508 830.645 251.734C830.645 253.234 830.258 254.482 829.484 255.479C828.711 256.475 827.598 257.102 826.145 257.359V257.535C827.949 257.875 829.273 258.549 830.117 259.557C830.973 260.553 831.4 261.906 831.4 263.617C831.4 265.926 830.592 267.736 828.975 269.049C827.369 270.35 825.131 271 822.26 271H812.979V245.301ZM817.18 255.918H821.223C822.98 255.918 824.264 255.643 825.072 255.092C825.881 254.529 826.285 253.58 826.285 252.244C826.285 251.037 825.846 250.164 824.967 249.625C824.1 249.086 822.717 248.816 820.818 248.816H817.18V255.918ZM817.18 259.328V267.467H821.645C823.402 267.467 824.727 267.133 825.617 266.465C826.52 265.785 826.971 264.719 826.971 263.266C826.971 261.93 826.514 260.939 825.6 260.295C824.686 259.65 823.297 259.328 821.434 259.328H817.18Z" fill="white"/>
<path d="M853.549 261.244C853.549 264.42 852.734 266.898 851.105 268.68C849.477 270.461 847.209 271.352 844.303 271.352C842.486 271.352 840.881 270.941 839.486 270.121C838.092 269.301 837.02 268.123 836.27 266.588C835.52 265.053 835.145 263.271 835.145 261.244C835.145 258.092 835.953 255.631 837.57 253.861C839.188 252.092 841.467 251.207 844.408 251.207C847.221 251.207 849.447 252.115 851.088 253.932C852.729 255.736 853.549 258.174 853.549 261.244ZM839.398 261.244C839.398 265.732 841.057 267.977 844.373 267.977C847.654 267.977 849.295 265.732 849.295 261.244C849.295 256.803 847.643 254.582 844.338 254.582C842.604 254.582 841.344 255.156 840.559 256.305C839.785 257.453 839.398 259.1 839.398 261.244Z" fill="white"/>
<path d="M862.443 271H858.312V243.648H862.443V271Z" fill="white"/>
<path d="M874.924 271.352C872.498 271.352 870.605 270.473 869.246 268.715C867.887 266.957 867.207 264.49 867.207 261.314C867.207 258.127 867.893 255.648 869.264 253.879C870.646 252.098 872.557 251.207 874.994 251.207C877.549 251.207 879.494 252.15 880.83 254.037H881.041C880.842 252.643 880.742 251.541 880.742 250.732V243.648H884.891V271H881.656L880.936 268.451H880.742C879.418 270.385 877.479 271.352 874.924 271.352ZM876.031 268.012C877.73 268.012 878.967 267.537 879.74 266.588C880.514 265.627 880.912 264.074 880.936 261.93V261.35C880.936 258.9 880.537 257.16 879.74 256.129C878.943 255.098 877.695 254.582 875.996 254.582C874.543 254.582 873.424 255.174 872.639 256.357C871.854 257.529 871.461 259.205 871.461 261.385C871.461 263.541 871.842 265.188 872.604 266.324C873.365 267.449 874.508 268.012 876.031 268.012Z" fill="white"/>
</g>
<g id="Source Sans Pro Semi_2">
<path d="M456.336 330L453.77 322.863H443.943L441.43 330H437L446.615 304.195H451.186L460.801 330H456.336ZM452.662 319.242L450.254 312.246C450.078 311.777 449.832 311.039 449.516 310.031C449.211 309.023 449 308.285 448.883 307.816C448.566 309.258 448.104 310.834 447.494 312.545L445.174 319.242H452.662Z" fill="#0F1416" fill-opacity="0.5"/>
<path d="M464.193 304.301H471.822C475.361 304.301 477.916 304.816 479.486 305.848C481.068 306.879 481.859 308.508 481.859 310.734C481.859 312.234 481.473 313.482 480.699 314.479C479.926 315.475 478.812 316.102 477.359 316.359V316.535C479.164 316.875 480.488 317.549 481.332 318.557C482.188 319.553 482.615 320.906 482.615 322.617C482.615 324.926 481.807 326.736 480.189 328.049C478.584 329.35 476.346 330 473.475 330H464.193V304.301ZM468.395 314.918H472.438C474.195 314.918 475.479 314.643 476.287 314.092C477.096 313.529 477.5 312.58 477.5 311.244C477.5 310.037 477.061 309.164 476.182 308.625C475.314 308.086 473.932 307.816 472.033 307.816H468.395V314.918ZM468.395 318.328V326.467H472.859C474.617 326.467 475.941 326.133 476.832 325.465C477.734 324.785 478.186 323.719 478.186 322.266C478.186 320.93 477.729 319.939 476.814 319.295C475.9 318.65 474.512 318.328 472.648 318.328H468.395Z" fill="#0F1416" fill-opacity="0.5"/>
<path d="M498.893 307.535C496.479 307.535 494.58 308.391 493.197 310.102C491.814 311.812 491.123 314.174 491.123 317.186C491.123 320.338 491.785 322.723 493.109 324.34C494.445 325.957 496.373 326.766 498.893 326.766C499.982 326.766 501.037 326.66 502.057 326.449C503.076 326.227 504.137 325.945 505.238 325.605V329.209C503.223 329.971 500.938 330.352 498.383 330.352C494.621 330.352 491.732 329.215 489.717 326.941C487.701 324.656 486.693 321.393 486.693 317.15C486.693 314.479 487.18 312.141 488.152 310.137C489.137 308.133 490.555 306.598 492.406 305.531C494.258 304.465 496.432 303.932 498.928 303.932C501.553 303.932 503.979 304.482 506.205 305.584L504.693 309.082C503.826 308.672 502.906 308.314 501.934 308.01C500.973 307.693 499.959 307.535 498.893 307.535Z" fill="#0F1416" fill-opacity="0.5"/>
<path d="M531.676 316.904C531.676 321.146 530.498 324.393 528.143 326.643C525.787 328.881 522.395 330 517.965 330H510.775V304.301H518.721C522.811 304.301 525.992 305.402 528.266 307.605C530.539 309.809 531.676 312.908 531.676 316.904ZM527.246 317.045C527.246 310.893 524.369 307.816 518.615 307.816H514.977V326.467H517.965C524.152 326.467 527.246 323.326 527.246 317.045Z" fill="#0F1416" fill-opacity="0.5"/>
<path d="M551.75 330H537.213V304.301H551.75V307.852H541.414V314.848H551.1V318.363H541.414V326.432H551.75V330Z" fill="#0F1416" fill-opacity="0.5"/>
<path d="M561.488 330H557.322V304.301H571.824V307.852H561.488V315.885H571.174V319.453H561.488V330Z" fill="#0F1416" fill-opacity="0.5"/>
<path d="M586.994 316.061H596.451V328.963C594.904 329.467 593.416 329.824 591.986 330.035C590.568 330.246 589.033 330.352 587.381 330.352C583.49 330.352 580.49 329.203 578.381 326.906C576.271 324.598 575.217 321.346 575.217 317.15C575.217 313.014 576.406 309.779 578.785 307.447C581.164 305.104 584.439 303.932 588.611 303.932C591.295 303.932 593.838 304.447 596.24 305.479L594.764 308.977C592.678 308.016 590.592 307.535 588.506 307.535C585.764 307.535 583.596 308.396 582.002 310.119C580.408 311.842 579.611 314.197 579.611 317.186C579.611 320.326 580.326 322.717 581.756 324.357C583.197 325.986 585.266 326.801 587.961 326.801C589.32 326.801 590.773 326.631 592.32 326.291V319.664H586.994V316.061Z" fill="#0F1416" fill-opacity="0.5"/>
<path d="M622.906 330H618.688V318.416H606.84V330H602.639V304.301H606.84V314.812H618.688V304.301H622.906V330Z" fill="#0F1416" fill-opacity="0.5"/>
<path d="M629.674 330V304.301H633.875V330H629.674Z" fill="#0F1416" fill-opacity="0.5"/>
<path d="M637.426 337.172C636.277 337.172 635.316 337.025 634.543 336.732V333.199C635.527 333.445 636.383 333.568 637.109 333.568C639.406 333.568 640.555 332.115 640.555 329.209V304.301H644.773V329.068C644.773 331.693 644.146 333.697 642.893 335.08C641.65 336.475 639.828 337.172 637.426 337.172Z" fill="#0F1416" fill-opacity="0.5"/>
<path d="M671.053 330H666.184L658.115 318.363L655.637 320.385V330H651.436V304.301H655.637V316.57C656.785 315.164 657.928 313.811 659.064 312.51L666.008 304.301H670.789C666.301 309.574 663.084 313.33 661.139 315.568L671.053 330Z" fill="#0F1416" fill-opacity="0.5"/>
<path d="M674.463 330V304.301H678.664V326.396H689.545V330H674.463Z" fill="#0F1416" fill-opacity="0.5"/>
<path d="M705.084 330L697.631 308.537H697.49C697.689 311.725 697.789 314.713 697.789 317.502V330H693.975V304.301H699.898L707.035 324.744H707.141L714.488 304.301H720.43V330H716.387V317.291C716.387 316.014 716.416 314.35 716.475 312.299C716.545 310.248 716.604 309.006 716.65 308.572H716.51L708.793 330H705.084Z" fill="#0F1416" fill-opacity="0.5"/>
<path d="M748.607 330H743.457L730.818 309.521H730.678L730.766 310.664C730.93 312.844 731.012 314.836 731.012 316.641V330H727.197V304.301H732.295L744.898 324.674H745.004C744.98 324.404 744.934 323.426 744.863 321.738C744.793 320.039 744.758 318.715 744.758 317.766V304.301H748.607V330Z" fill="#0F1416" fill-opacity="0.5"/>
<path d="M778.209 317.115C778.209 321.299 777.16 324.551 775.062 326.871C772.977 329.191 770.018 330.352 766.186 330.352C762.307 330.352 759.324 329.203 757.238 326.906C755.164 324.598 754.127 321.322 754.127 317.08C754.127 312.838 755.17 309.58 757.256 307.307C759.354 305.033 762.342 303.896 766.221 303.896C770.041 303.896 772.994 305.051 775.08 307.359C777.166 309.668 778.209 312.92 778.209 317.115ZM758.592 317.115C758.592 320.279 759.23 322.682 760.508 324.322C761.785 325.951 763.678 326.766 766.186 326.766C768.682 326.766 770.562 325.957 771.828 324.34C773.105 322.723 773.744 320.314 773.744 317.115C773.744 313.963 773.111 311.572 771.846 309.943C770.592 308.314 768.717 307.5 766.221 307.5C763.701 307.5 761.797 308.314 760.508 309.943C759.23 311.572 758.592 313.963 758.592 317.115Z" fill="#0F1416" fill-opacity="0.5"/>
<path d="M800.744 312.07C800.744 314.754 799.865 316.811 798.107 318.24C796.35 319.67 793.848 320.385 790.602 320.385H787.93V330H783.729V304.301H791.129C794.34 304.301 796.742 304.957 798.336 306.27C799.941 307.582 800.744 309.516 800.744 312.07ZM787.93 316.852H790.162C792.318 316.852 793.9 316.477 794.908 315.727C795.916 314.977 796.42 313.805 796.42 312.211C796.42 310.734 795.969 309.633 795.066 308.906C794.164 308.18 792.758 307.816 790.848 307.816H787.93V316.852Z" fill="#0F1416" fill-opacity="0.5"/>
<path d="M828.693 317.115C828.693 320.232 828.096 322.857 826.9 324.99C825.717 327.123 823.988 328.623 821.715 329.49L827.867 336.117H822.207L817.355 330.352H816.67C812.791 330.352 809.809 329.203 807.723 326.906C805.648 324.598 804.611 321.322 804.611 317.08C804.611 312.838 805.654 309.58 807.74 307.307C809.838 305.033 812.826 303.896 816.705 303.896C820.525 303.896 823.479 305.051 825.564 307.359C827.65 309.668 828.693 312.92 828.693 317.115ZM809.076 317.115C809.076 320.279 809.715 322.682 810.992 324.322C812.27 325.951 814.162 326.766 816.67 326.766C819.166 326.766 821.047 325.957 822.312 324.34C823.59 322.723 824.229 320.314 824.229 317.115C824.229 313.963 823.596 311.572 822.33 309.943C821.076 308.314 819.201 307.5 816.705 307.5C814.186 307.5 812.281 308.314 810.992 309.943C809.715 311.572 809.076 313.963 809.076 317.115Z" fill="#0F1416" fill-opacity="0.5"/>
<path d="M838.414 316.254H841.332C843.289 316.254 844.707 315.891 845.586 315.164C846.465 314.438 846.904 313.359 846.904 311.93C846.904 310.477 846.43 309.434 845.48 308.801C844.531 308.168 843.102 307.852 841.191 307.852H838.414V316.254ZM838.414 319.734V330H834.213V304.301H841.473C844.789 304.301 847.244 304.922 848.838 306.164C850.432 307.406 851.229 309.281 851.229 311.789C851.229 314.988 849.564 317.268 846.236 318.627L853.496 330H848.715L842.562 319.734H838.414Z" fill="#0F1416" fill-opacity="0.5"/>
<path d="M872.059 323.021C872.059 325.307 871.232 327.1 869.58 328.4C867.928 329.701 865.648 330.352 862.742 330.352C859.836 330.352 857.457 329.9 855.605 328.998V325.025C856.777 325.576 858.02 326.01 859.332 326.326C860.656 326.643 861.887 326.801 863.023 326.801C864.688 326.801 865.912 326.484 866.697 325.852C867.494 325.219 867.893 324.369 867.893 323.303C867.893 322.342 867.529 321.527 866.803 320.859C866.076 320.191 864.576 319.4 862.303 318.486C859.959 317.537 858.307 316.453 857.346 315.234C856.385 314.016 855.904 312.551 855.904 310.84C855.904 308.695 856.666 307.008 858.189 305.777C859.713 304.547 861.758 303.932 864.324 303.932C866.785 303.932 869.234 304.471 871.672 305.549L870.336 308.977C868.051 308.016 866.012 307.535 864.219 307.535C862.859 307.535 861.828 307.834 861.125 308.432C860.422 309.018 860.07 309.797 860.07 310.77C860.07 311.438 860.211 312.012 860.492 312.492C860.773 312.961 861.236 313.406 861.881 313.828C862.525 314.25 863.686 314.807 865.361 315.498C867.248 316.283 868.631 317.016 869.51 317.695C870.389 318.375 871.033 319.143 871.443 319.998C871.854 320.854 872.059 321.861 872.059 323.021Z" fill="#0F1416" fill-opacity="0.5"/>
<path d="M885.91 330H881.709V307.904H874.15V304.301H893.469V307.904H885.91V330Z" fill="#0F1416" fill-opacity="0.5"/>
<path d="M917.568 304.301V320.93C917.568 322.828 917.158 324.492 916.338 325.922C915.529 327.34 914.352 328.436 912.805 329.209C911.27 329.971 909.43 330.352 907.285 330.352C904.098 330.352 901.619 329.508 899.85 327.82C898.08 326.133 897.195 323.812 897.195 320.859V304.301H901.414V320.561C901.414 322.682 901.906 324.246 902.891 325.254C903.875 326.262 905.387 326.766 907.426 326.766C911.387 326.766 913.367 324.686 913.367 320.525V304.301H917.568Z" fill="#0F1416" fill-opacity="0.5"/>
<path d="M938.785 304.301H943.145L934.145 330H929.715L920.75 304.301H925.074L930.436 320.279C930.717 321.041 931.016 322.025 931.332 323.232C931.648 324.428 931.854 325.318 931.947 325.904C932.1 325.014 932.334 323.982 932.65 322.811C932.967 321.639 933.225 320.771 933.424 320.209L938.785 304.301Z" fill="#0F1416" fill-opacity="0.5"/>
<path d="M970.25 330H965.68L961.32 314.672C961.133 314.004 960.898 313.043 960.617 311.789C960.336 310.523 960.166 309.645 960.107 309.152C959.99 309.902 959.797 310.875 959.527 312.07C959.27 313.266 959.053 314.156 958.877 314.742L954.623 330H950.053L946.73 317.133L943.355 304.301H947.645L951.318 319.277C951.893 321.68 952.303 323.801 952.549 325.641C952.678 324.645 952.871 323.531 953.129 322.301C953.387 321.07 953.621 320.074 953.832 319.312L958.016 304.301H962.182L966.471 319.383C966.881 320.777 967.314 322.863 967.771 325.641C967.947 323.965 968.369 321.832 969.037 319.242L972.693 304.301H976.947L970.25 330Z" fill="#0F1416" fill-opacity="0.5"/>
<path d="M999.535 330H994.701L988.268 319.488L981.781 330H977.281L985.807 316.676L977.826 304.301H982.502L988.443 314.021L994.385 304.301H998.92L990.887 316.746L999.535 330Z" fill="#0F1416" fill-opacity="0.5"/>
<path d="M1010.26 316.025L1016.34 304.301H1020.91L1012.35 320.033V330H1008.13V320.174L999.605 304.301H1004.18L1010.26 316.025Z" fill="#0F1416" fill-opacity="0.5"/>
<path d="M1040.46 330H1022.07V327.082L1035.03 307.904H1022.42V304.301H1040.11V307.254L1027.1 326.396H1040.46V330Z" fill="#0F1416" fill-opacity="0.5"/>
<path d="M452.117 389L451.291 386.293H451.15C450.213 387.477 449.27 388.285 448.32 388.719C447.371 389.141 446.152 389.352 444.664 389.352C442.754 389.352 441.26 388.836 440.182 387.805C439.115 386.773 438.582 385.314 438.582 383.428C438.582 381.424 439.326 379.912 440.814 378.893C442.303 377.873 444.57 377.316 447.617 377.223L450.975 377.117V376.08C450.975 374.838 450.682 373.912 450.096 373.303C449.521 372.682 448.625 372.371 447.406 372.371C446.41 372.371 445.455 372.518 444.541 372.811C443.627 373.104 442.748 373.449 441.904 373.848L440.568 370.895C441.623 370.344 442.777 369.928 444.031 369.646C445.285 369.354 446.469 369.207 447.582 369.207C450.055 369.207 451.918 369.746 453.172 370.824C454.438 371.902 455.07 373.596 455.07 375.904V389H452.117ZM445.965 386.188C447.465 386.188 448.666 385.771 449.568 384.939C450.482 384.096 450.939 382.918 450.939 381.406V379.719L448.443 379.824C446.498 379.895 445.08 380.223 444.189 380.809C443.311 381.383 442.871 382.268 442.871 383.463C442.871 384.33 443.129 385.004 443.645 385.484C444.16 385.953 444.934 386.188 445.965 386.188Z" fill="#0F1416" fill-opacity="0.5"/>
<path d="M470.768 369.207C473.193 369.207 475.08 370.086 476.428 371.844C477.787 373.602 478.467 376.068 478.467 379.244C478.467 382.432 477.781 384.916 476.41 386.697C475.039 388.467 473.135 389.352 470.697 389.352C468.236 389.352 466.326 388.467 464.967 386.697H464.686L463.93 389H460.836V361.648H464.967V368.152C464.967 368.633 464.943 369.348 464.896 370.297C464.85 371.246 464.814 371.85 464.791 372.107H464.967C466.279 370.174 468.213 369.207 470.768 369.207ZM469.695 372.582C468.031 372.582 466.83 373.074 466.092 374.059C465.365 375.031 464.99 376.666 464.967 378.963V379.244C464.967 381.611 465.342 383.328 466.092 384.395C466.842 385.449 468.066 385.977 469.766 385.977C471.23 385.977 472.338 385.396 473.088 384.236C473.85 383.076 474.23 381.4 474.23 379.209C474.23 374.791 472.719 372.582 469.695 372.582Z" fill="#0F1416" fill-opacity="0.5"/>
<path d="M491.105 389.352C488.164 389.352 485.926 388.496 484.391 386.785C482.867 385.062 482.105 382.596 482.105 379.385C482.105 376.115 482.902 373.602 484.496 371.844C486.102 370.086 488.416 369.207 491.439 369.207C493.49 369.207 495.336 369.588 496.977 370.35L495.729 373.672C493.982 372.992 492.541 372.652 491.404 372.652C488.041 372.652 486.359 374.885 486.359 379.35C486.359 381.529 486.775 383.17 487.607 384.271C488.451 385.361 489.682 385.906 491.299 385.906C493.139 385.906 494.879 385.449 496.52 384.535V388.139C495.781 388.572 494.99 388.883 494.146 389.07C493.314 389.258 492.301 389.352 491.105 389.352Z" fill="#0F1416" fill-opacity="0.5"/>
<path d="M507.646 389.352C505.221 389.352 503.328 388.473 501.969 386.715C500.609 384.957 499.93 382.49 499.93 379.314C499.93 376.127 500.615 373.648 501.986 371.879C503.369 370.098 505.279 369.207 507.717 369.207C510.271 369.207 512.217 370.15 513.553 372.037H513.764C513.564 370.643 513.465 369.541 513.465 368.732V361.648H517.613V389H514.379L513.658 386.451H513.465C512.141 388.385 510.201 389.352 507.646 389.352ZM508.754 386.012C510.453 386.012 511.689 385.537 512.463 384.588C513.236 383.627 513.635 382.074 513.658 379.93V379.35C513.658 376.9 513.26 375.16 512.463 374.129C511.666 373.098 510.418 372.582 508.719 372.582C507.266 372.582 506.146 373.174 505.361 374.357C504.576 375.529 504.184 377.205 504.184 379.385C504.184 381.541 504.564 383.188 505.326 384.324C506.088 385.449 507.23 386.012 508.754 386.012Z" fill="#0F1416" fill-opacity="0.5"/>
<path d="M532.01 389.352C528.986 389.352 526.619 388.473 524.908 386.715C523.209 384.945 522.359 382.514 522.359 379.42C522.359 376.244 523.15 373.748 524.732 371.932C526.314 370.115 528.488 369.207 531.254 369.207C533.82 369.207 535.848 369.986 537.336 371.545C538.824 373.104 539.568 375.248 539.568 377.979V380.211H526.613C526.672 382.098 527.182 383.551 528.143 384.57C529.104 385.578 530.457 386.082 532.203 386.082C533.352 386.082 534.418 385.977 535.402 385.766C536.398 385.543 537.465 385.18 538.602 384.676V388.033C537.594 388.514 536.574 388.854 535.543 389.053C534.512 389.252 533.334 389.352 532.01 389.352ZM531.254 372.336C529.941 372.336 528.887 372.752 528.09 373.584C527.305 374.416 526.836 375.629 526.684 377.223H535.508C535.484 375.617 535.098 374.404 534.348 373.584C533.598 372.752 532.566 372.336 531.254 372.336Z" fill="#0F1416" fill-opacity="0.5"/>
<path d="M554.018 372.688H549.271V389H545.123V372.688H541.924V370.754L545.123 369.488V368.223C545.123 365.926 545.662 364.227 546.74 363.125C547.818 362.012 549.465 361.455 551.68 361.455C553.133 361.455 554.562 361.695 555.969 362.176L554.879 365.305C553.859 364.977 552.887 364.812 551.961 364.812C551.023 364.812 550.338 365.105 549.904 365.691C549.482 366.266 549.271 367.133 549.271 368.293V369.559H554.018V372.688Z" fill="#0F1416" fill-opacity="0.5"/>
<path d="M573.758 369.559V371.826L570.436 372.441C570.74 372.852 570.992 373.355 571.191 373.953C571.391 374.551 571.49 375.184 571.49 375.852C571.49 377.855 570.799 379.432 569.416 380.58C568.033 381.729 566.129 382.303 563.703 382.303C563.082 382.303 562.52 382.256 562.016 382.162C561.125 382.713 560.68 383.357 560.68 384.096C560.68 384.541 560.885 384.875 561.295 385.098C561.717 385.32 562.484 385.432 563.598 385.432H566.99C569.135 385.432 570.764 385.889 571.877 386.803C572.99 387.717 573.547 389.035 573.547 390.758C573.547 392.961 572.639 394.66 570.822 395.855C569.006 397.051 566.381 397.648 562.947 397.648C560.299 397.648 558.277 397.18 556.883 396.242C555.488 395.305 554.791 393.969 554.791 392.234C554.791 391.039 555.166 390.031 555.916 389.211C556.678 388.402 557.738 387.84 559.098 387.523C558.547 387.289 558.09 386.914 557.727 386.398C557.375 385.871 557.199 385.32 557.199 384.746C557.199 384.02 557.404 383.404 557.814 382.9C558.225 382.396 558.834 381.898 559.643 381.406C558.635 380.973 557.814 380.27 557.182 379.297C556.561 378.312 556.25 377.164 556.25 375.852C556.25 373.742 556.912 372.107 558.236 370.947C559.572 369.787 561.471 369.207 563.932 369.207C564.482 369.207 565.057 369.248 565.654 369.33C566.264 369.4 566.721 369.477 567.025 369.559H573.758ZM558.482 392.023C558.482 392.914 558.881 393.6 559.678 394.08C560.486 394.561 561.617 394.801 563.07 394.801C565.32 394.801 566.996 394.479 568.098 393.834C569.199 393.189 569.75 392.334 569.75 391.268C569.75 390.424 569.445 389.82 568.836 389.457C568.238 389.105 567.119 388.93 565.479 388.93H562.35C561.166 388.93 560.223 389.205 559.52 389.756C558.828 390.318 558.482 391.074 558.482 392.023ZM560.258 375.852C560.258 377.07 560.568 378.008 561.189 378.664C561.822 379.32 562.725 379.648 563.896 379.648C566.287 379.648 567.482 378.371 567.482 375.816C567.482 374.551 567.184 373.578 566.586 372.898C566 372.207 565.104 371.861 563.896 371.861C562.701 371.861 561.793 372.201 561.172 372.881C560.562 373.561 560.258 374.551 560.258 375.852Z" fill="#0F1416" fill-opacity="0.5"/>
<path d="M594.482 389H590.334V377.047C590.334 375.547 590.029 374.428 589.42 373.689C588.822 372.951 587.867 372.582 586.555 372.582C584.82 372.582 583.543 373.104 582.723 374.146C581.914 375.178 581.51 376.912 581.51 379.35V389H577.379V361.648H581.51V368.592C581.51 369.705 581.439 370.895 581.299 372.16H581.562C582.125 371.223 582.904 370.496 583.9 369.98C584.908 369.465 586.08 369.207 587.416 369.207C592.127 369.207 594.482 371.58 594.482 376.326V389Z" fill="#0F1416" fill-opacity="0.5"/>
<path d="M604.361 389H600.23V369.559H604.361V389ZM599.984 364.408C599.984 363.67 600.184 363.102 600.582 362.703C600.992 362.305 601.572 362.105 602.322 362.105C603.049 362.105 603.611 362.305 604.01 362.703C604.42 363.102 604.625 363.67 604.625 364.408C604.625 365.111 604.42 365.668 604.01 366.078C603.611 366.477 603.049 366.676 602.322 366.676C601.572 366.676 600.992 366.477 600.582 366.078C600.184 365.668 599.984 365.111 599.984 364.408Z" fill="#0F1416" fill-opacity="0.5"/>
<path d="M608.299 397.648C607.057 397.648 606.025 397.502 605.205 397.209V393.939C606.002 394.15 606.816 394.256 607.648 394.256C609.406 394.256 610.285 393.26 610.285 391.268V369.559H614.416V391.549C614.416 393.553 613.889 395.07 612.834 396.102C611.791 397.133 610.279 397.648 608.299 397.648ZM610.039 364.408C610.039 363.67 610.238 363.102 610.637 362.703C611.047 362.305 611.627 362.105 612.377 362.105C613.104 362.105 613.666 362.305 614.064 362.703C614.475 363.102 614.68 363.67 614.68 364.408C614.68 365.111 614.475 365.668 614.064 366.078C613.666 366.477 613.104 366.676 612.377 366.676C611.627 366.676 611.047 366.477 610.637 366.078C610.238 365.668 610.039 365.111 610.039 364.408Z" fill="#0F1416" fill-opacity="0.5"/>
<path d="M624.33 378.734L626.668 375.816L632.539 369.559H637.303L629.48 377.908L637.795 389H632.943L626.703 380.475L624.436 382.338V389H620.34V361.648H624.436V374.99L624.225 378.734H624.33Z" fill="#0F1416" fill-opacity="0.5"/>
<path d="M645.072 389H640.941V361.648H645.072V389Z" fill="#0F1416" fill-opacity="0.5"/>
<path d="M667.379 389H663.23V377.012C663.23 375.523 662.949 374.416 662.387 373.689C661.824 372.951 660.945 372.582 659.75 372.582C658.156 372.582 656.984 373.104 656.234 374.146C655.496 375.178 655.127 376.9 655.127 379.314V389H650.996V369.559H654.23L654.811 372.107H655.021C655.561 371.182 656.34 370.467 657.359 369.963C658.391 369.459 659.521 369.207 660.752 369.207C663.74 369.207 665.721 370.227 666.693 372.266H666.975C667.549 371.305 668.357 370.555 669.4 370.016C670.443 369.477 671.639 369.207 672.986 369.207C675.307 369.207 676.994 369.793 678.049 370.965C679.115 372.137 679.648 373.924 679.648 376.326V389H675.518V377.012C675.518 375.523 675.23 374.416 674.656 373.689C674.094 372.951 673.215 372.582 672.02 372.582C670.414 372.582 669.236 373.086 668.486 374.094C667.748 375.09 667.379 376.625 667.379 378.699V389Z" fill="#0F1416" fill-opacity="0.5"/>
<path d="M702.518 389H698.369V377.047C698.369 375.547 698.064 374.428 697.455 373.689C696.857 372.951 695.902 372.582 694.59 372.582C692.844 372.582 691.566 373.098 690.758 374.129C689.949 375.16 689.545 376.889 689.545 379.314V389H685.414V369.559H688.648L689.229 372.107H689.439C690.025 371.182 690.857 370.467 691.936 369.963C693.014 369.459 694.209 369.207 695.521 369.207C700.186 369.207 702.518 371.58 702.518 376.326V389Z" fill="#0F1416" fill-opacity="0.5"/>
<path d="M725.51 379.244C725.51 382.42 724.695 384.898 723.066 386.68C721.438 388.461 719.17 389.352 716.264 389.352C714.447 389.352 712.842 388.941 711.447 388.121C710.053 387.301 708.98 386.123 708.23 384.588C707.48 383.053 707.105 381.271 707.105 379.244C707.105 376.092 707.914 373.631 709.531 371.861C711.148 370.092 713.428 369.207 716.369 369.207C719.182 369.207 721.408 370.115 723.049 371.932C724.689 373.736 725.51 376.174 725.51 379.244ZM711.359 379.244C711.359 383.732 713.018 385.977 716.334 385.977C719.615 385.977 721.256 383.732 721.256 379.244C721.256 374.803 719.604 372.582 716.299 372.582C714.564 372.582 713.305 373.156 712.52 374.305C711.746 375.453 711.359 377.1 711.359 379.244Z" fill="#0F1416" fill-opacity="0.5"/>
<path d="M740.135 389.352C737.674 389.352 735.764 388.467 734.404 386.697H734.158C734.322 388.338 734.404 389.334 734.404 389.686V397.648H730.273V369.559H733.613C733.707 369.922 733.9 370.789 734.193 372.16H734.404C735.693 370.191 737.627 369.207 740.205 369.207C742.631 369.207 744.518 370.086 745.865 371.844C747.225 373.602 747.904 376.068 747.904 379.244C747.904 382.42 747.213 384.898 745.83 386.68C744.459 388.461 742.561 389.352 740.135 389.352ZM739.133 372.582C737.492 372.582 736.291 373.062 735.529 374.023C734.779 374.984 734.404 376.52 734.404 378.629V379.244C734.404 381.611 734.779 383.328 735.529 384.395C736.279 385.449 737.504 385.977 739.203 385.977C740.633 385.977 741.734 385.391 742.508 384.219C743.281 383.047 743.668 381.377 743.668 379.209C743.668 377.029 743.281 375.383 742.508 374.27C741.746 373.145 740.621 372.582 739.133 372.582Z" fill="#0F1416" fill-opacity="0.5"/>
<path d="M760.402 386.047C762.137 386.047 763.379 385.549 764.129 384.553C764.891 383.545 765.271 382.027 765.271 380V379.35C765.271 376.947 764.879 375.219 764.094 374.164C763.32 373.109 762.066 372.582 760.332 372.582C758.855 372.582 757.73 373.168 756.957 374.34C756.184 375.512 755.797 377.193 755.797 379.385C755.797 383.826 757.332 386.047 760.402 386.047ZM759.225 389.352C756.822 389.352 754.941 388.473 753.582 386.715C752.223 384.945 751.543 382.479 751.543 379.314C751.543 376.15 752.234 373.678 753.617 371.896C755 370.104 756.904 369.207 759.33 369.207C760.549 369.207 761.639 369.436 762.6 369.893C763.572 370.338 764.439 371.076 765.201 372.107H765.342L765.799 369.559H769.227V397.648H765.078V389.404C765.078 388.889 765.102 388.344 765.148 387.77C765.195 387.195 765.236 386.756 765.271 386.451H765.043C763.824 388.385 761.885 389.352 759.225 389.352Z" fill="#0F1416" fill-opacity="0.5"/>
<path d="M784.994 369.207C785.826 369.207 786.512 369.266 787.051 369.383L786.646 373.232C786.061 373.092 785.451 373.021 784.818 373.021C783.166 373.021 781.824 373.561 780.793 374.639C779.773 375.717 779.264 377.117 779.264 378.84V389H775.133V369.559H778.367L778.912 372.986H779.123C779.768 371.826 780.605 370.906 781.637 370.227C782.68 369.547 783.799 369.207 784.994 369.207Z" fill="#0F1416" fill-opacity="0.5"/>
<path d="M803.732 383.463C803.732 385.361 803.041 386.82 801.658 387.84C800.275 388.848 798.295 389.352 795.717 389.352C793.127 389.352 791.047 388.959 789.477 388.174V384.605C791.762 385.66 793.889 386.188 795.857 386.188C798.4 386.188 799.672 385.42 799.672 383.885C799.672 383.393 799.531 382.982 799.25 382.654C798.969 382.326 798.506 381.986 797.861 381.635C797.217 381.283 796.32 380.885 795.172 380.439C792.934 379.572 791.416 378.705 790.619 377.838C789.834 376.971 789.441 375.846 789.441 374.463C789.441 372.799 790.109 371.51 791.445 370.596C792.793 369.67 794.621 369.207 796.93 369.207C799.215 369.207 801.377 369.67 803.416 370.596L802.08 373.707C799.982 372.84 798.219 372.406 796.789 372.406C794.609 372.406 793.52 373.027 793.52 374.27C793.52 374.879 793.801 375.395 794.363 375.816C794.938 376.238 796.18 376.818 798.09 377.557C799.695 378.178 800.861 378.746 801.588 379.262C802.314 379.777 802.854 380.375 803.205 381.055C803.557 381.723 803.732 382.525 803.732 383.463Z" fill="#0F1416" fill-opacity="0.5"/>
<path d="M815.457 386.012C816.465 386.012 817.473 385.854 818.48 385.537V388.648C818.023 388.848 817.432 389.012 816.705 389.141C815.99 389.281 815.246 389.352 814.473 389.352C810.559 389.352 808.602 387.289 808.602 383.164V372.688H805.947V370.859L808.795 369.348L810.201 365.234H812.75V369.559H818.287V372.688H812.75V383.094C812.75 384.09 812.996 384.828 813.488 385.309C813.992 385.777 814.648 386.012 815.457 386.012Z" fill="#0F1416" fill-opacity="0.5"/>
<path d="M836.094 389L835.514 386.451H835.303C834.729 387.354 833.908 388.062 832.842 388.578C831.787 389.094 830.58 389.352 829.221 389.352C826.865 389.352 825.107 388.766 823.947 387.594C822.787 386.422 822.207 384.646 822.207 382.268V369.559H826.373V381.547C826.373 383.035 826.678 384.154 827.287 384.904C827.896 385.643 828.852 386.012 830.152 386.012C831.887 386.012 833.158 385.496 833.967 384.465C834.787 383.422 835.197 381.682 835.197 379.244V369.559H839.346V389H836.094Z" fill="#0F1416" fill-opacity="0.5"/>
<path d="M849.664 389L842.281 369.559H846.641L850.596 380.861C851.275 382.76 851.686 384.295 851.826 385.467H851.967C852.072 384.623 852.482 383.088 853.197 380.861L857.152 369.559H861.547L854.129 389H849.664Z" fill="#0F1416" fill-opacity="0.5"/>
<path d="M880.443 389L877.93 379.93C877.625 378.969 877.074 376.736 876.277 373.232H876.119C875.439 376.396 874.9 378.641 874.502 379.965L871.918 389H867.348L861.898 369.559H866.117L868.596 379.139C869.158 381.506 869.557 383.533 869.791 385.221H869.896C870.014 384.365 870.189 383.387 870.424 382.285C870.67 381.172 870.881 380.34 871.057 379.789L874.01 369.559H878.545L881.41 379.789C881.586 380.363 881.803 381.242 882.061 382.426C882.33 383.609 882.488 384.529 882.535 385.186H882.676C882.852 383.744 883.262 381.729 883.906 379.139L886.42 369.559H890.568L885.084 389H880.443Z" fill="#0F1416" fill-opacity="0.5"/>
<path d="M898.25 379.068L891.729 369.559H896.439L900.869 376.361L905.334 369.559H910.01L903.471 379.068L910.344 389H905.668L900.869 381.723L896.088 389H891.412L898.25 379.068Z" fill="#0F1416" fill-opacity="0.5"/>
<path d="M910.801 369.559H915.301L919.256 380.58C919.854 382.15 920.252 383.627 920.451 385.01H920.592C920.697 384.365 920.891 383.586 921.172 382.672C921.453 381.746 922.941 377.375 925.637 369.559H930.102L921.787 391.584C920.275 395.627 917.756 397.648 914.229 397.648C913.314 397.648 912.424 397.549 911.557 397.35V394.08C912.178 394.221 912.887 394.291 913.684 394.291C915.676 394.291 917.076 393.137 917.885 390.828L918.605 389L910.801 369.559Z" fill="#0F1416" fill-opacity="0.5"/>
<path d="M946.045 389H931.297V386.451L941.123 372.723H931.895V369.559H945.764V372.441L936.148 385.836H946.045V389Z" fill="#0F1416" fill-opacity="0.5"/>
</g>
<g id="Source Sans Pro">
<path d="M4.08008 93.1598C12.1201 100.6 22.9201 104.44 33.1201 104.44C51.7201 104.44 62.5201 93.1598 62.5201 80.1998C62.5201 69.1598 56.5201 62.7998 47.0401 58.9598L37.0801 54.8798C30.2401 52.1198 25.0801 50.4398 25.0801 45.6398C25.0801 41.1998 29.0401 38.5598 35.0401 38.5598C41.2801 38.5598 46.2001 40.8398 51.3601 44.7998L60.2401 33.6398C53.5201 26.9198 44.0401 23.3198 35.0401 23.3198C18.8401 23.3198 7.20008 33.6398 7.20008 46.5998C7.20008 57.9998 14.8801 64.7198 23.0401 67.9598L33.1201 72.2798C39.9601 75.1598 44.4001 76.7198 44.4001 81.6398C44.4001 86.3198 40.8001 89.1998 33.4801 89.1998C27.0001 89.1998 19.8001 85.8398 14.2801 81.0398L4.08008 93.1598Z" fill="#E1464B"/>
<path d="M70.7654 73.2398C70.7654 93.0398 84.6854 104.44 99.8054 104.44C114.805 104.44 128.725 93.0398 128.725 73.2398C128.725 53.4398 114.805 42.0398 99.8054 42.0398C84.6854 42.0398 70.7654 53.4398 70.7654 73.2398ZM88.8854 73.2398C88.8854 62.9198 92.4854 56.3198 99.8054 56.3198C107.005 56.3198 110.725 62.9198 110.725 73.2398C110.725 83.5598 107.005 90.1598 99.8054 90.1598C92.4854 90.1598 88.8854 83.5598 88.8854 73.2398Z" fill="#E1464B"/>
<path d="M140.208 80.4398C140.208 95.3198 145.728 104.44 158.688 104.44C166.848 104.44 172.368 100.72 177.408 94.7198H177.768L179.088 103H193.488V43.4798H175.848V82.8398C172.368 87.5198 169.728 89.4398 165.288 89.4398C160.128 89.4398 157.848 86.6798 157.848 78.1598V43.4798H140.208V80.4398Z" fill="#E1464B"/>
<path d="M209.011 103H226.651V68.4398C229.771 60.3998 235.291 57.5198 239.731 57.5198C242.251 57.5198 244.051 57.8798 246.211 58.4798L249.091 43.2398C247.411 42.5198 245.371 42.0398 242.011 42.0398C235.891 42.0398 229.411 45.8798 225.091 53.9198H224.611L223.411 43.4798H209.011V103Z" fill="#E1464B"/>
<path d="M252.172 73.2398C252.172 93.0398 265.012 104.44 281.572 104.44C288.052 104.44 295.612 102.04 301.372 96.9998L294.292 85.8398C291.412 88.1198 287.932 90.1598 283.612 90.1598C275.932 90.1598 270.292 83.5598 270.292 73.2398C270.292 62.9198 275.692 56.3198 284.212 56.3198C286.972 56.3198 289.612 57.3998 292.492 59.7998L300.532 48.8798C296.572 44.7998 290.452 42.0398 283.132 42.0398C266.692 42.0398 252.172 53.4398 252.172 73.2398Z" fill="#E1464B"/>
<path d="M304.789 73.2398C304.789 92.9198 317.869 104.44 334.909 104.44C341.989 104.44 349.909 101.92 356.029 97.7198L350.149 87.0398C345.829 89.6798 341.749 90.9998 337.309 90.9998C329.389 90.9998 323.389 87.0398 321.829 78.0398H357.469C357.829 76.5998 358.189 73.7198 358.189 70.5998C358.189 54.3998 349.789 42.0398 332.869 42.0398C318.589 42.0398 304.789 53.9198 304.789 73.2398ZM321.709 67.1198C322.909 59.1998 327.709 55.4798 333.229 55.4798C340.309 55.4798 343.189 60.2798 343.189 67.1198H321.709Z" fill="#E1464B"/>
<path d="M4.08008 213.16C12.1201 220.6 22.9201 224.44 33.1201 224.44C51.7201 224.44 62.5201 213.16 62.5201 200.2C62.5201 189.16 56.5201 182.8 47.0401 178.96L37.0801 174.88C30.2401 172.12 25.0801 170.44 25.0801 165.64C25.0801 161.2 29.0401 158.56 35.0401 158.56C41.2801 158.56 46.2001 160.84 51.3601 164.8L60.2401 153.64C53.5201 146.92 44.0401 143.32 35.0401 143.32C18.8401 143.32 7.20008 153.64 7.20008 166.6C7.20008 178 14.8801 184.72 23.0401 187.96L33.1201 192.28C39.9601 195.16 44.4001 196.72 44.4001 201.64C44.4001 206.32 40.8001 209.2 33.4801 209.2C27.0001 209.2 19.8001 205.84 14.2801 201.04L4.08008 213.16Z" fill="#E1464B"/>
<path d="M72.0854 206.44C72.0854 216.52 78.9254 224.44 89.7254 224.44C96.4454 224.44 102.085 221.32 107.125 216.88H107.485L108.805 223H123.205V188.92C123.205 170.68 114.805 162.04 99.5654 162.04C90.2054 162.04 81.6854 165.28 74.1254 169.84L80.3654 181.48C86.1254 178.12 91.1654 176.08 96.2054 176.08C102.565 176.08 105.205 179.44 105.565 184.72C82.0454 187.12 72.0854 193.96 72.0854 206.44ZM88.8854 205.12C88.8854 200.56 92.9654 196.96 105.565 195.28V205.72C102.445 208.84 99.8054 210.76 95.7254 210.76C91.5254 210.76 88.8854 208.96 88.8854 205.12Z" fill="#E1464B"/>
<path d="M138.347 223H155.987V182.8C159.827 179.08 162.587 177.04 167.027 177.04C172.067 177.04 174.347 179.68 174.347 188.32V223H191.987V186.04C191.987 171.16 186.467 162.04 173.507 162.04C165.467 162.04 159.467 166.24 154.427 171.04H153.947L152.747 163.48H138.347V223Z" fill="#E1464B"/>
<path d="M201.739 216.16C207.739 221.08 216.739 224.44 224.539 224.44C240.499 224.44 249.019 216.04 249.019 205.24C249.019 194.32 240.499 190.12 232.939 187.36C226.819 185.08 221.299 183.64 221.299 179.8C221.299 176.8 223.459 175.12 228.019 175.12C232.219 175.12 236.299 177.04 240.619 180.16L248.539 169.6C243.379 165.76 236.659 162.04 227.539 162.04C213.739 162.04 204.739 169.6 204.739 180.64C204.739 190.48 213.259 195.4 220.459 198.16C226.579 200.56 232.579 202.36 232.579 206.32C232.579 209.44 230.299 211.36 225.019 211.36C219.979 211.36 215.059 209.2 209.659 205.12L201.739 216.16Z" fill="#E1464B"/>
<path d="M9.12008 343H26.8801V316.48H37.6801C54.2401 316.48 68.2801 308.32 68.2801 289.96C68.2801 271 54.7201 264.76 37.6801 264.76H9.12008V343ZM26.8801 302.44V278.8H36.6001C45.9601 278.8 51.0001 281.8 51.0001 289.96C51.0001 298.12 46.3201 302.44 36.6001 302.44H26.8801Z" fill="#E1464B"/>
<path d="M80.4563 343H98.0963V308.44C101.216 300.4 106.736 297.52 111.176 297.52C113.696 297.52 115.496 297.88 117.656 298.48L120.536 283.24C118.856 282.52 116.816 282.04 113.456 282.04C107.336 282.04 100.856 285.88 96.5363 293.92H96.0563L94.8563 283.48H80.4563V343Z" fill="#E1464B"/>
<path d="M123.617 313.24C123.617 333.04 137.537 344.44 152.657 344.44C167.657 344.44 181.577 333.04 181.577 313.24C181.577 293.44 167.657 282.04 152.657 282.04C137.537 282.04 123.617 293.44 123.617 313.24ZM141.737 313.24C141.737 302.92 145.337 296.32 152.657 296.32C159.857 296.32 163.577 302.92 163.577 313.24C163.577 323.56 159.857 330.16 152.657 330.16C145.337 330.16 141.737 323.56 141.737 313.24Z" fill="#E1464B"/>
</g>
<g id="Source Sans Pro_2" opacity="0.3">
<path d="M12.0801 101.16C20.1201 108.6 30.9201 112.44 41.1201 112.44C59.7201 112.44 70.5201 101.16 70.5201 88.1998C70.5201 77.1598 64.5201 70.7998 55.0401 66.9598L45.0801 62.8798C38.2401 60.1198 33.0801 58.4398 33.0801 53.6398C33.0801 49.1998 37.0401 46.5598 43.0401 46.5598C49.2801 46.5598 54.2001 48.8398 59.3601 52.7998L68.2401 41.6398C61.5201 34.9198 52.0401 31.3198 43.0401 31.3198C26.8401 31.3198 15.2001 41.6398 15.2001 54.5998C15.2001 65.9998 22.8801 72.7198 31.0401 75.9598L41.1201 80.2798C47.9601 83.1598 52.4001 84.7198 52.4001 89.6398C52.4001 94.3198 48.8001 97.1998 41.4801 97.1998C35.0001 97.1998 27.8001 93.8398 22.2801 89.0398L12.0801 101.16Z" fill="#232E33" fill-opacity="0.35"/>
<path d="M78.7654 81.2398C78.7654 101.04 92.6854 112.44 107.805 112.44C122.805 112.44 136.725 101.04 136.725 81.2398C136.725 61.4398 122.805 50.0398 107.805 50.0398C92.6854 50.0398 78.7654 61.4398 78.7654 81.2398ZM96.8854 81.2398C96.8854 70.9198 100.485 64.3198 107.805 64.3198C115.005 64.3198 118.725 70.9198 118.725 81.2398C118.725 91.5598 115.005 98.1598 107.805 98.1598C100.485 98.1598 96.8854 91.5598 96.8854 81.2398Z" fill="#232E33" fill-opacity="0.35"/>
<path d="M148.208 88.4398C148.208 103.32 153.728 112.44 166.688 112.44C174.848 112.44 180.368 108.72 185.408 102.72H185.768L187.088 111H201.488V51.4798H183.848V90.8398C180.368 95.5198 177.728 97.4398 173.288 97.4398C168.128 97.4398 165.848 94.6798 165.848 86.1598V51.4798H148.208V88.4398Z" fill="#232E33" fill-opacity="0.35"/>
<path d="M217.011 111H234.651V76.4398C237.771 68.3998 243.291 65.5198 247.731 65.5198C250.251 65.5198 252.051 65.8798 254.211 66.4798L257.091 51.2398C255.411 50.5198 253.371 50.0398 250.011 50.0398C243.891 50.0398 237.411 53.8798 233.091 61.9198H232.611L231.411 51.4798H217.011V111Z" fill="#232E33" fill-opacity="0.35"/>
<path d="M260.172 81.2398C260.172 101.04 273.012 112.44 289.572 112.44C296.052 112.44 303.612 110.04 309.372 105L302.292 93.8398C299.412 96.1198 295.932 98.1598 291.612 98.1598C283.932 98.1598 278.292 91.5598 278.292 81.2398C278.292 70.9198 283.692 64.3198 292.212 64.3198C294.972 64.3198 297.612 65.3998 300.492 67.7998L308.532 56.8798C304.572 52.7998 298.452 50.0398 291.132 50.0398C274.692 50.0398 260.172 61.4398 260.172 81.2398Z" fill="#232E33" fill-opacity="0.35"/>
<path d="M312.789 81.2398C312.789 100.92 325.869 112.44 342.909 112.44C349.989 112.44 357.909 109.92 364.029 105.72L358.149 95.0398C353.829 97.6798 349.749 98.9998 345.309 98.9998C337.389 98.9998 331.389 95.0398 329.829 86.0398H365.469C365.829 84.5998 366.189 81.7198 366.189 78.5998C366.189 62.3998 357.789 50.0398 340.869 50.0398C326.589 50.0398 312.789 61.9198 312.789 81.2398ZM329.709 75.1198C330.909 67.1998 335.709 63.4798 341.229 63.4798C348.309 63.4798 351.189 68.2798 351.189 75.1198H329.709Z" fill="#232E33" fill-opacity="0.35"/>
<path d="M12.0801 221.16C20.1201 228.6 30.9201 232.44 41.1201 232.44C59.7201 232.44 70.5201 221.16 70.5201 208.2C70.5201 197.16 64.5201 190.8 55.0401 186.96L45.0801 182.88C38.2401 180.12 33.0801 178.44 33.0801 173.64C33.0801 169.2 37.0401 166.56 43.0401 166.56C49.2801 166.56 54.2001 168.84 59.3601 172.8L68.2401 161.64C61.5201 154.92 52.0401 151.32 43.0401 151.32C26.8401 151.32 15.2001 161.64 15.2001 174.6C15.2001 186 22.8801 192.72 31.0401 195.96L41.1201 200.28C47.9601 203.16 52.4001 204.72 52.4001 209.64C52.4001 214.32 48.8001 217.2 41.4801 217.2C35.0001 217.2 27.8001 213.84 22.2801 209.04L12.0801 221.16Z" fill="#232E33" fill-opacity="0.35"/>
<path d="M80.0854 214.44C80.0854 224.52 86.9254 232.44 97.7254 232.44C104.445 232.44 110.085 229.32 115.125 224.88H115.485L116.805 231H131.205V196.92C131.205 178.68 122.805 170.04 107.565 170.04C98.2054 170.04 89.6854 173.28 82.1254 177.84L88.3654 189.48C94.1254 186.12 99.1654 184.08 104.205 184.08C110.565 184.08 113.205 187.44 113.565 192.72C90.0454 195.12 80.0854 201.96 80.0854 214.44ZM96.8854 213.12C96.8854 208.56 100.965 204.96 113.565 203.28V213.72C110.445 216.84 107.805 218.76 103.725 218.76C99.5254 218.76 96.8854 216.96 96.8854 213.12Z" fill="#232E33" fill-opacity="0.35"/>
<path d="M146.347 231H163.987V190.8C167.827 187.08 170.587 185.04 175.027 185.04C180.067 185.04 182.347 187.68 182.347 196.32V231H199.987V194.04C199.987 179.16 194.467 170.04 181.507 170.04C173.467 170.04 167.467 174.24 162.427 179.04H161.947L160.747 171.48H146.347V231Z" fill="#232E33" fill-opacity="0.35"/>
<path d="M209.739 224.16C215.739 229.08 224.739 232.44 232.539 232.44C248.499 232.44 257.019 224.04 257.019 213.24C257.019 202.32 248.499 198.12 240.939 195.36C234.819 193.08 229.299 191.64 229.299 187.8C229.299 184.8 231.459 183.12 236.019 183.12C240.219 183.12 244.299 185.04 248.619 188.16L256.539 177.6C251.379 173.76 244.659 170.04 235.539 170.04C221.739 170.04 212.739 177.6 212.739 188.64C212.739 198.48 221.259 203.4 228.459 206.16C234.579 208.56 240.579 210.36 240.579 214.32C240.579 217.44 238.299 219.36 233.019 219.36C227.979 219.36 223.059 217.2 217.659 213.12L209.739 224.16Z" fill="#232E33" fill-opacity="0.35"/>
<path d="M17.1201 351H34.8801V324.48H45.6801C62.2401 324.48 76.2801 316.32 76.2801 297.96C76.2801 279 62.7201 272.76 45.6801 272.76H17.1201V351ZM34.8801 310.44V286.8H44.6001C53.9601 286.8 59.0001 289.8 59.0001 297.96C59.0001 306.12 54.3201 310.44 44.6001 310.44H34.8801Z" fill="#232E33" fill-opacity="0.35"/>
<path d="M88.4563 351H106.096V316.44C109.216 308.4 114.736 305.52 119.176 305.52C121.696 305.52 123.496 305.88 125.656 306.48L128.536 291.24C126.856 290.52 124.816 290.04 121.456 290.04C115.336 290.04 108.856 293.88 104.536 301.92H104.056L102.856 291.48H88.4563V351Z" fill="#232E33" fill-opacity="0.35"/>
<path d="M131.617 321.24C131.617 341.04 145.537 352.44 160.657 352.44C175.657 352.44 189.577 341.04 189.577 321.24C189.577 301.44 175.657 290.04 160.657 290.04C145.537 290.04 131.617 301.44 131.617 321.24ZM149.737 321.24C149.737 310.92 153.337 304.32 160.657 304.32C167.857 304.32 171.577 310.92 171.577 321.24C171.577 331.56 167.857 338.16 160.657 338.16C153.337 338.16 149.737 331.56 149.737 321.24Z" fill="#232E33" fill-opacity="0.35"/>
</g>
</g>
</svg>
