<svg width="24px" height="24px" viewBox="0 0 24 24" version="1.1" xmlns="http://www.w3.org/2000/svg" xmlns:xlink="http://www.w3.org/1999/xlink">
    <g id="Page-1" stroke="none" stroke-width="1" fill="none" fill-rule="evenodd">
        <g id="portfolio-item" transform="translate(-218.000000, -1747.000000)" fill-rule="nonzero" fill="#E1464B">
            <path d="M233.237935,1765.37319 L236.160454,1766.16273 L235.734175,1763.14683 L238.686405,1762.47864 L236.916762,1760.00763 L239.222382,1758.03478 L236.514779,1756.67473 L237.6456,1753.84917 L234.620316,1753.91166 L234.31728,1750.8807 L231.667372,1752.35141 L229.999901,1749.8094 L228.33243,1752.35141 L225.682522,1750.8807 L225.379486,1753.91166 L222.354202,1753.84917 L223.485023,1756.67473 L220.77742,1758.03478 L223.08304,1760.00763 L221.313397,1762.47864 L224.265627,1763.14683 L223.839348,1766.16273 L226.761867,1765.37319 L227.776607,1768.24307 L229.999901,1766.17666 L232.223195,1768.24307 L233.237935,1765.37319 Z M229.999901,1768.89347 L228.018569,1770.73499 C227.616261,1771.1089 226.989031,1771.0837 226.61761,1770.67868 C226.526844,1770.57971 226.456918,1770.46326 226.412046,1770.33635 L225.507741,1767.7788 L222.903282,1768.48242 C222.374448,1768.62529 221.830699,1768.30952 221.688785,1767.77713 C221.654104,1767.64702 221.645943,1767.5112 221.664793,1767.37783 L222.04468,1764.69016 L219.413744,1764.09468 C218.879534,1763.97377 218.543834,1763.43978 218.663936,1762.90198 C218.693286,1762.77055 218.748759,1762.64646 218.827014,1762.53719 L220.404065,1760.3351 L218.349367,1758.57696 C217.932162,1758.21997 217.881415,1757.59008 218.23602,1757.17007 C218.322677,1757.06743 218.429077,1756.98351 218.548808,1756.92337 L220.96174,1755.71134 L219.953988,1753.19329 C219.749364,1752.682 219.995195,1752.10052 220.503068,1751.89452 C220.62718,1751.84418 220.76013,1751.81965 220.893909,1751.82241 L223.589949,1751.8781 L223.860005,1749.177 C223.91484,1748.62855 224.400933,1748.22868 224.945725,1748.28389 C225.07886,1748.29738 225.207904,1748.33786 225.325084,1748.4029 L227.686601,1749.71355 L229.172599,1747.44819 C229.47433,1746.98821 230.089327,1746.86157 230.546234,1747.16533 C230.657891,1747.23956 230.753467,1747.33578 230.827203,1747.44819 L232.313201,1749.71355 L234.674718,1748.4029 C235.154223,1748.13677 235.757235,1748.31236 236.021584,1748.79509 C236.086185,1748.91306 236.126396,1749.04297 236.139797,1749.177 L236.409853,1751.8781 L239.105893,1751.82241 C239.653322,1751.8111 240.106207,1752.2487 240.117439,1752.79981 C240.120184,1752.93449 240.09582,1753.06834 240.045815,1753.19329 L239.038062,1755.71134 L241.450994,1756.92337 C241.940939,1757.16947 242.139945,1757.76882 241.895488,1758.26207 C241.835748,1758.3826 241.75239,1758.48972 241.650435,1758.57696 L239.595737,1760.3351 L241.172788,1762.53719 C241.493008,1762.98433 241.392546,1763.60813 240.948402,1763.93051 C240.839863,1764.00929 240.716607,1764.06514 240.586058,1764.09468 L237.955122,1764.69016 L238.335009,1767.37783 C238.412145,1767.92356 238.03523,1768.42892 237.493146,1768.50657 C237.360673,1768.52555 237.225755,1768.51733 237.09652,1768.48242 L234.492061,1767.7788 L233.587756,1770.33635 C233.404138,1770.85566 232.837116,1771.12679 232.321278,1770.94193 C232.195219,1770.89676 232.079547,1770.82636 231.981233,1770.73499 L229.999901,1768.89347 Z M225.688107,1759.6352 L229.193294,1763.16397 L234.801595,1757.51794 L233.39952,1756.10643 L229.193294,1760.34096 L227.090182,1758.2237 L225.688107,1759.6352 Z" id="Star-2"></path>
        </g>
    </g>
</svg>
