<svg width="94px" height="93px" viewBox="0 0 94 93" version="1.1" xmlns="http://www.w3.org/2000/svg" xmlns:xlink="http://www.w3.org/1999/xlink">
    <g id="Symbols" stroke="none" stroke-width="1" fill="none" fill-rule="evenodd">
        <g id="Icon-Developers" transform="translate(-13.000000, -14.000000)" fill-rule="nonzero" fill="#55C2A6">
            <path d="M47.7907267,48.4980218 C48.0572281,48.2500588 48.3054063,48.0190726 48.5390552,47.8015191 L28.2672714,27.5245493 L28.2672714,25.1382826 L21.8133441,20.5298828 L19.5296895,22.8131432 L24.1372826,29.2687458 L26.5243139,29.2679216 L46.7353267,49.4798037 C47.2280508,49.0214897 47.5269058,48.7434907 47.7907267,48.4980218 Z M55.7324449,47.9247767 L53.8443899,49.6902971 C53.0958362,50.3902696 52.3035577,51.128671 51.1966496,52.1585804 C50.8770906,52.4559103 50.5062142,52.8008892 49.803099,53.4548962 C49.2307692,53.9872925 48.8008478,54.3873717 48.37659,54.7824606 L46.6109842,56.4266757 L24.4538983,34.2686368 L21.5636753,34.2696348 L13,22.271248 L21.272676,14 L33.2672714,22.5646908 L33.2672714,25.4538561 L55.7324449,47.9247767 Z M89.4040475,98.138773 C93.1674864,101.903511 96.1730418,102.230333 98.7631099,100.794837 C99.2559036,100.521716 99.5793889,100.266746 99.6841478,100.162101 C100.075619,99.7685128 100.291797,99.5284417 100.540808,99.1822932 C102.195014,96.882789 101.931634,94.1305876 97.671292,89.8697549 C95.3701933,87.5700379 92.9254089,85.1253172 89.4661144,81.6651595 C88.9029891,81.1018933 85.0878877,77.2856888 83.9953458,76.1929103 C82.7515906,74.9488857 81.6654942,73.8626697 80.6719414,72.869169 C79.4203533,74.2220457 77.7718649,76.0071668 74.7631566,79.2662872 C74.2290949,79.8432536 73.6690567,80.4496537 72.9548546,81.2239934 C72.906417,81.2765096 72.8280972,81.3614409 72.7300752,81.4677441 C78.2275135,86.9656997 84.0486373,92.7858135 89.4040475,98.138773 Z M85.868613,101.674406 C79.9587207,95.7672185 73.4809124,89.2903602 67.4969417,83.3054684 L65.7993527,81.607618 L67.4272182,79.8428068 C67.7640552,79.4776331 69.0038021,78.1329547 69.2794819,77.834062 C69.9955251,77.057726 70.5574227,76.4493127 71.0915632,75.8722644 C75.6640585,70.9192011 77.0961165,69.3692695 78.7700935,67.5647253 L80.5350465,65.6621092 L82.3704116,67.4968958 C83.8566165,68.9826322 85.4794724,70.6055246 87.5312626,72.6577593 C88.6238823,73.7506157 92.4390253,77.5668617 92.9825385,78.1105109 C96.4609233,81.5897638 98.9052774,84.0340541 101.206397,86.3337919 C107.178632,92.3067148 107.703179,97.7879903 104.599681,102.102147 C104.158552,102.715358 103.793676,103.120562 103.223625,103.693679 C102.805292,104.111624 102.123605,104.648928 101.186896,105.168081 C96.699164,107.65532 91.2557553,107.063409 85.868613,101.674406 Z M79.0748713,28.5242952 C81.2511455,26.3801978 83.5537819,24.0832067 85.8389207,21.7844174 C84.6930276,21.8859935 83.3005615,22.1833403 81.6327515,22.7395492 C76.6155741,24.4103049 74.0226618,25.9668654 71.0460033,28.7773034 C70.491252,29.3010767 70.0474491,29.7391591 68.9721004,30.8155612 C67.3471659,32.4390645 66.9504214,34.392581 67.3422223,37.7021147 C67.4152413,38.3189054 67.4967185,38.8714747 67.6663471,39.9428155 C68.1278295,42.8574468 68.256804,44.0143809 68.1745195,45.5739746 C68.0522143,47.8921049 67.3037869,49.8433541 65.7273216,51.4209717 C65.0058113,52.1402187 62.7012758,54.3069028 58.5504342,58.1769918 C56.9266516,59.6909457 55.1065955,61.3853325 52.4396464,63.8664435 C51.7094096,64.545796 49.0896034,66.9827951 49.0663885,67.0043908 C47.6888739,68.2858279 46.6320534,69.2691023 45.6025327,70.2272623 C34.1741696,80.8636982 28.0510093,86.6077413 26.0408805,88.6163927 C23.2876159,91.3710061 22.4690841,93.6030204 22.8504926,95.5081973 C23.0974031,96.7415422 23.7353962,97.6621319 24.8101457,98.7306388 C25.8685694,99.7953023 26.7880517,100.432608 28.0201896,100.679181 C29.9235146,101.060069 32.1540504,100.241737 34.9063789,97.4907574 C36.907105,95.4881941 42.9840714,89.0206086 53.1533236,78.108309 C55.8658762,75.197452 64.3157413,66.1200066 65.6160308,64.7244469 C69.6253321,60.4213905 71.613357,58.2996206 72.1104373,57.8011416 C73.6857479,56.2275656 75.6379897,55.4787362 77.9571574,55.3561897 C79.5177122,55.273729 80.6757041,55.4027454 83.5912847,55.8642588 C84.6591824,56.0332985 85.2099222,56.1145276 85.8247678,56.1874704 C89.1375204,56.5804823 91.0915447,56.1851819 92.7142669,54.563414 C93.7915546,53.4855983 94.2306243,53.0401348 94.755589,52.4832713 C97.5641921,49.5040071 99.121752,46.9091401 100.792899,41.8987679 C101.359396,40.1959395 101.656824,38.7784672 101.751729,37.6173379 C99.6443241,39.6857895 97.5421506,41.7975501 95.57855,43.837196 C95.2356102,44.193417 94.8993404,44.544945 94.6213584,44.8358785 C91.2793957,48.5731792 85.3822657,47.028385 80.8219698,42.8162925 C76.1237912,38.4768453 74.4941179,32.7329252 78.6433925,28.9489985 C78.8418275,28.7538194 78.8538338,28.7419944 79.0748713,28.5242952 Z M84.2144959,39.1433146 C86.996158,41.7125817 90.0025277,42.5001211 90.9453494,41.4474776 C91.2821989,41.0929292 91.626063,40.7334624 91.9765053,40.3694483 C94.0485978,38.2171089 96.2652389,35.992916 98.4814509,33.8213391 C99.2568354,33.061571 99.9770133,32.3624199 100.623728,31.7396074 C100.850459,31.5212563 101.051946,31.3279169 101.225905,31.1615583 C101.402981,30.992437 101.402981,30.992437 101.442328,30.9550387 L103.210918,29.2741249 L104.934323,31.0013357 C105.290457,31.358257 105.678471,31.9199273 106.013336,32.7029227 C107.094774,35.2315836 107.094774,38.7953549 105.536315,43.4799067 C103.634209,49.1827348 101.698568,52.4074781 98.3937904,55.9130658 C97.8236832,56.5178148 97.3632328,56.9849704 96.2497141,58.0990343 C93.3290517,61.0179802 89.9176869,61.7081016 85.2357184,61.1526513 C84.5371269,61.0697731 83.9391999,60.9815844 82.8095572,60.8027709 C78.290049,60.0873684 76.8188306,60.1651086 75.647491,61.3351516 C75.2180482,61.7658087 73.179507,63.9414933 69.2742254,68.1329088 C67.9750401,69.5272834 59.5250042,78.6049123 56.9321074,81.3873682 C46.5686756,92.508038 40.5076514,98.9586565 38.4422908,101.025913 C34.5738373,104.892471 30.6984148,106.314275 27.0390546,105.581973 C25.6339975,105.300797 24.3679354,104.721479 23.2192656,103.92532 C22.4568948,103.39691 21.9336012,102.929078 21.2746309,102.266161 C20.6017258,101.597203 20.1335324,101.073437 19.6049898,100.310779 C18.8086713,99.1617344 18.2291523,97.8952165 17.9477739,96.4897011 C17.2148364,92.8285983 18.6366928,88.9514076 22.5055634,85.0806423 C24.5820554,83.0056758 30.682166,77.2832554 42.0969763,66.6594322 C43.2259766,65.6086869 44.2830553,64.6251723 45.6608286,63.3434945 C45.6841282,63.32182 48.3038347,60.8849136 49.0339588,60.205666 C51.6996709,57.7257058 53.5186147,56.0323545 55.140741,54.5199449 C59.2201269,50.7164785 61.5364353,48.5387258 62.1939173,47.8833127 C63.365473,46.7108958 63.4430036,45.2414066 62.7278662,40.72474 C62.5483894,39.5912002 62.4599027,38.991093 62.376896,38.2899373 C61.8229005,33.6103481 62.5158977,30.1981229 65.436479,27.2801156 C66.545418,26.1700886 67.0108777,25.7106287 67.6134348,25.1417191 C71.1176727,21.8331625 74.3423024,19.8973733 80.0519606,17.9960169 C84.7353908,16.4341087 88.2990546,16.4341087 90.8269594,17.5188622 C91.6099501,17.8548528 92.1714273,18.2441616 92.5280768,18.6014672 L94.2778196,20.3544288 L92.5412563,22.1204476 C92.5021845,22.1601818 92.5021845,22.1601818 92.3195831,22.3455661 C92.1395675,22.5282427 91.9306047,22.7400438 91.695001,22.9785459 C91.0222087,23.6596149 90.2705599,24.4183708 89.4584939,25.2354348 C87.1379023,27.5703088 84.7973928,29.9053714 82.5839764,32.0860619 C82.3485021,32.3179798 82.3485021,32.3179798 82.1128293,32.5497847 C80.6254174,33.891192 81.3625478,36.5091282 84.2144959,39.1433146 Z" id="Shape"></path>
        </g>
    </g>
</svg>
