<svg width="24px" height="23px" viewBox="0 0 24 23" version="1.1" xmlns="http://www.w3.org/2000/svg" xmlns:xlink="http://www.w3.org/1999/xlink">
  <g id="Page-1" stroke="none" stroke-width="1" fill="none" fill-rule="evenodd">
      <g id="portfolio-item" transform="translate(-218.000000, -1802.000000)" fill-rule="nonzero" fill="#E1464B">
          <g id="Challenge" transform="translate(218.000000, 1340.000000)">
              <path d="M16.4700478,475.562651 L20.7865935,471.355059 L14.821274,470.488247 L12.153502,465.082751 L9.48573003,470.488247 L3.52041051,471.355059 L7.83695627,475.562651 L6.81795804,481.503867 L12.153502,478.698805 L17.489046,481.503867 L16.4700478,475.562651 Z M12.153502,480.755926 L6.03246461,483.973945 C5.58741511,484.207922 5.03695589,484.036813 4.80297952,483.591764 C4.70980891,483.414543 4.67765804,483.21155 4.71150425,483.014212 L5.88051837,476.198336 L0.928495082,471.371307 C0.568442475,471.020342 0.561075151,470.443949 0.912039701,470.083896 C1.05179563,469.940521 1.23491789,469.847216 1.43305704,469.818424 L8.27658491,468.824002 L11.3371036,462.622713 C11.5596284,462.171829 12.1055343,461.986707 12.5564187,462.209232 C12.7359632,462.297842 12.8812899,462.443169 12.9699004,462.622713 L16.0304191,468.824002 L22.873947,469.818424 C23.3715275,469.890727 23.7162832,470.352709 23.6439806,470.850289 C23.6151892,471.048428 23.5218838,471.231551 23.378509,471.371307 L18.4264857,476.198336 L19.5954998,483.014212 C19.6804967,483.509781 19.3476615,483.980424 18.8520916,484.065421 C18.6547531,484.099267 18.4517605,484.067116 18.2745394,483.973945 L12.153502,480.755926 Z" id="Star"></path>
          </g>
      </g>
  </g>
</svg>
