<svg width="58px" height="87px" viewBox="0 0 58 87" version="1.1" xmlns="http://www.w3.org/2000/svg" xmlns:xlink="http://www.w3.org/1999/xlink">
    <g id="Symbols" stroke="none" stroke-width="1" fill="none" fill-rule="evenodd">
        <g id="Icon-IT" transform="translate(-31.000000, -17.000000)" fill-rule="nonzero" fill="#55C2A6">
            <path d="M56.6369659,56.527847 C57.0699659,57.748847 58.2299659,58.568847 59.5229659,58.568847 C59.8739659,58.568847 60.2199659,58.506847 60.5529659,58.388847 C62.1429659,57.822847 62.9769659,56.068847 62.4129659,54.475847 L61.1819659,51.013847 C60.7489659,49.792847 59.5899659,48.971847 58.2949659,48.971847 C57.9459659,48.971847 57.6019659,49.031847 57.2699659,49.149847 C55.6789659,49.717847 54.8429659,51.473847 55.4049659,53.066847 L56.6369659,56.527847 Z M87.6649659,77.047847 L79.3349659,53.595847 C76.5379659,45.723847 69.0509659,40.434847 60.7029659,40.434847 C58.8739659,40.434847 57.0449659,40.705847 55.2039659,41.238847 C53.6409659,38.840847 53.7789659,35.805847 53.9279659,32.611847 C54.1079659,28.781847 54.3109659,24.441847 51.1619659,21.230847 C48.1059659,18.115847 42.4739659,16.781847 33.4309659,17.028847 C32.0509659,17.066847 30.9629659,18.216847 31.0009659,19.596847 C31.0389659,20.977847 32.1909659,22.050847 33.5689659,22.026847 C40.9129659,21.821847 45.6339659,22.734847 47.5929659,24.731847 C49.2149659,26.385847 49.0849659,29.161847 48.9339659,32.376847 C48.7779659,35.693847 48.5959659,39.675847 50.5679659,43.232847 C47.2029659,45.224847 44.5519659,48.129847 42.8439659,51.719847 C40.5779659,56.488847 40.3029659,61.855847 42.0699659,66.834847 L50.3999659,90.281847 C53.1959659,98.152847 60.6839659,103.441847 69.0339659,103.441847 C71.2899659,103.441847 73.5179659,103.056847 75.6569659,102.296847 C85.9289659,98.644847 91.3159659,87.317847 87.6649659,77.047847 Z M55.6669659,46.047847 C57.2989659,45.468847 58.9939659,45.174847 60.7019659,45.174847 C67.0469659,45.174847 72.7389659,49.196847 74.8659659,55.182847 L75.3289659,56.487847 L46.9989659,66.548847 L46.5359659,65.245847 C45.1929659,61.465847 45.4019659,57.384847 47.1239659,53.756847 C48.8509659,50.128847 51.8839659,47.390847 55.6669659,46.047847 Z M74.0639659,97.832847 C72.4459659,98.408847 70.7529659,98.701847 69.0329659,98.701847 C62.6879659,98.701847 56.9949659,94.680847 54.8669659,88.696847 L48.5869659,71.019847 L76.9199659,60.956847 L83.1979659,78.631847 C85.9729659,86.442847 81.8769659,95.055847 74.0639659,97.832847 Z" id="Shape"></path>
        </g>
    </g>
</svg>
