<?xml version="1.0" encoding="utf-8"?>
<!-- Generator: Adobe Illustrator 17.0.0, SVG Export Plug-In . SVG Version: 6.00 Build 0)  -->
<!DOCTYPE svg PUBLIC "-//W3C//DTD SVG 1.1//EN" "http://www.w3.org/Graphics/SVG/1.1/DTD/svg11.dtd">
<svg version="1.1" id="Layer_1" xmlns="http://www.w3.org/2000/svg" xmlns:xlink="http://www.w3.org/1999/xlink" x="0px" y="0px"
	 width="20px" height="20px" viewBox="0 0 20 20" enable-background="new 0 0 20 20" xml:space="preserve">
<g>
	<rect x="1" y="4" display="none" fill="#FFFFFF" width="18" height="12"/>
	<g>
		<g display="none">
			<polygon display="inline" fill="#C9E7ED" points="18.928,3.939 1.072,3.939 1.072,1.995 3.069,1.995 3.069,0.307 8.338,0.307 
				9.361,1.995 18.928,1.995 			"/>
		</g>
		<path fill="#45BCCF" d="M19.258,5H19V2.736C19,2.33,18.667,2,18.258,2h-6.86C11.266,2,11.069,1.89,11,1.778L9.792,0.516
			C9.612,0.222,9.215,0,8.869,0H3.792C3.383,0,3.05,0.33,3.05,0.736L3,1.873C3,1.942,2.941,2,2.872,2h-1.13C1.333,2,1,2.33,1,2.736
			v2.382c-0.409,0-1,0.594-1,1v10.069c0,0.406,0.333,0.736,0.742,0.736h18.516c0.409,0,0.742-0.33,0.742-0.736V5.736
			C20,5.33,19.667,5,19.258,5z M2,3C2,2.931,1.931,3,2,3h1.258C3.667,3,4,2.667,4,2.258v-1.13C4,1.059,4.059,1,4.128,1h4.474
			C8.734,1,8.931,1.111,9,1.224l0.252,0.558C9.431,2.078,9.653,3,10,3h7.872C17.941,3,18,3.059,18,3.128V5H2V3z M19,15.873
			C19,15.943,18.943,16,18.872,16H1.128C1.057,16,1,15.943,1,15.873V6.127C1,6.057,1.057,6,1.128,6h17.744
			C18.943,6,19,6.057,19,6.127V15.873z"/>
	</g>
</g>
</svg>
