<?xml version="1.0" encoding="utf-8"?>
<!-- Generator: Adobe Illustrator 17.0.0, SVG Export Plug-In . SVG Version: 6.00 Build 0)  -->
<!DOCTYPE svg PUBLIC "-//W3C//DTD SVG 1.1//EN" "http://www.w3.org/Graphics/SVG/1.1/DTD/svg11.dtd">
<svg version="1.1" id="Layer_1" xmlns="http://www.w3.org/2000/svg" xmlns:xlink="http://www.w3.org/1999/xlink" x="0px" y="0px"
	 width="130px" height="110px" viewBox="0 0 130 110" enable-background="new 0 0 130 110" xml:space="preserve">
<g>
	<rect x="2.667" y="27.333" fill="#FFFFFF" width="124.667" height="81"/>
	<g>
		<g>
			<g>
				<path fill="#C9E7ED" d="M123.034,22.768c0,1.559-1.276,2.835-2.835,2.835H9.8c-1.559,0-2.835-1.276-2.835-2.835v-6.965
					c0-1.559,1.276-2.835,2.835-2.835h7.315c1.559,0,2.835-1.276,2.835-2.835V4.83c0-1.559,1.276-2.835,2.835-2.835h28.577
					c1.559,0,3.496,1.091,4.304,2.424l3.712,6.124c0.808,1.333,2.745,2.424,4.304,2.424H120.2c1.559,0,2.835,1.276,2.835,2.835
					V22.768z"/>
			</g>
			<path fill="#45BCCF" d="M120.207,27.597H9.793c-2.659,0-4.822,0.829-4.822-1.83v-9.972c0-2.659,2.163-4.823,4.822-4.823h7.329
				c0.451,0,0.833-0.381,0.833-0.832V4.823C17.955,2.163,20.119,0,22.777,0h28.591c2.253,0,4.832,1.453,5.999,3.38l3.719,6.135
				c0.446,0.735,1.727,1.457,2.587,1.457h56.533c2.659,0,4.822,2.163,4.822,4.823v10.969
				C125.029,29.424,122.866,27.597,120.207,27.597z M9.793,14.962c-0.451,0-0.832,0.382-0.832,0.833v9.972
				c0,0.451,0.381,0.833,0.832,0.833h110.414c0.451,0,0.832-0.382,0.832-0.833v-9.972c0-0.451-0.381-0.833-0.832-0.833H63.674
				c-2.253,0-4.832-1.452-5.999-3.379l-3.719-6.135C53.51,4.712,52.228,3.99,51.369,3.99H22.777c-0.451,0-0.832,0.382-0.832,0.833
				v5.318c0,2.658-2.163,4.822-4.823,4.822H9.793z"/>
		</g>
		<path fill="#45BCCF" d="M125.177,25.232h-0.148v-9.563c0-2.638-2.163-4.784-4.822-4.784H63.674c-0.86,0-2.141-0.716-2.587-1.446
			l-3.719-6.086C56.201,1.442,53.621,0,51.369,0H22.777c-2.659,0-4.822,2.146-4.822,4.784v5.275c0,0.447-0.381,0.825-0.833,0.825
			H9.793c-2.659,0-4.822,2.146-4.822,4.784v9.563H4.822C2.163,25.232,0,27.378,0,30.016v75.2C0,107.854,2.163,110,4.822,110h120.355
			c2.659,0,4.823-2.146,4.823-4.784v-75.2C130,27.378,127.837,25.232,125.177,25.232z M8.961,15.795
			c0-0.451,0.381-0.833,0.832-0.833h7.329c2.659,0,4.823-2.163,4.823-4.822V4.823c0-0.451,0.381-0.833,0.832-0.833h28.591
			c0.86,0,2.141,0.722,2.587,1.458l3.719,6.135c1.167,1.927,3.746,3.379,5.999,3.379h56.533c0.451,0,0.832,0.382,0.832,0.833v9.641
			H8.961V15.795z M126.01,105.216c0,0.447-0.381,0.826-0.833,0.826H4.822c-0.451,0-0.832-0.379-0.832-0.826v-75.2
			c0-0.447,0.381-0.826,0.832-0.826h120.355c0.451,0,0.833,0.379,0.833,0.826V105.216z"/>
	</g>
</g>
</svg>
