<?xml version="1.0" encoding="utf-8"?>
<!-- Generator: Adobe Illustrator 17.0.0, SVG Export Plug-In . SVG Version: 6.00 Build 0)  -->
<!DOCTYPE svg PUBLIC "-//W3C//DTD SVG 1.1//EN" "http://www.w3.org/Graphics/SVG/1.1/DTD/svg11.dtd">
<svg version="1.1" id="Layer_1" xmlns="http://www.w3.org/2000/svg" xmlns:xlink="http://www.w3.org/1999/xlink" x="0px" y="0px"
	 width="100px" height="100px" viewBox="0 0 100 100" style="enable-background:new 0 0 100 100;" xml:space="preserve">
<g id="sun">
	<path style="fill:#FFC300;" d="M28.4,40.2C28.4,34.5,33,30,38.7,30c3.7,0,7,2,8.7,4.9c0.6-0.4,1.7-1,3.4-1.4
		c-2.4-4.3-6.9-7.2-12.2-7.2c-7.7,0-13.9,6.2-13.9,13.9c0,1.6,0.3,3.1,0.8,4.6c0.5-0.5,1.5-1.3,3.2-2C28.6,41.9,28.4,41.1,28.4,40.2
		z"/>
	<path style="fill:#FFC300;" d="M38.7,23.7c1.2,0,2.1-0.9,2.1-2.1v-7.2c0-1.2-0.9-2.1-2.1-2.1c-1.2,0-2.1,0.9-2.1,2.1v7.2
		C36.6,22.8,37.5,23.7,38.7,23.7z"/>
	<path style="fill:#FFC300;" d="M22.2,40.2c0-1.2-0.9-2.1-2.1-2.1h-7.2c-1.2,0-2.1,0.9-2.1,2.1c0,1.2,0.9,2.1,2.1,2.1h7.2
		C21.3,42.3,22.2,41.4,22.2,40.2z"/>
	<path style="fill:#FFC300;" d="M53.3,28.5l5.1-5.1c0.8-0.8,0.8-2.2,0-3c-0.8-0.8-2.2-0.8-3,0l-5.1,5.1c-0.8,0.8-0.8,2.2,0,3
		C51.2,29.4,52.5,29.4,53.3,28.5z"/>
	<path style="fill:#FFC300;" d="M24,28.5c0.8,0.8,2.2,0.8,3,0c0.8-0.8,0.8-2.2,0-3l-5.1-5.1c-0.8-0.8-2.2-0.8-3,0
		c-0.8,0.8-0.8,2.2,0,3L24,28.5z"/>
</g>
<path id="rain4" style="fill:#00B5E1;" d="M31.8,79c0,1.8-1.5,3.2-3.2,3.2s-3.2-1.5-3.2-3.2s2.5-4.6,3.2-6.2
	C29.1,74.4,31.8,77.2,31.8,79z"/>
<path id="rain3" style="fill:#00B5E1;" d="M45.6,90.6c0,1.8-1.5,3.2-3.2,3.2s-3.2-1.5-3.2-3.2s2.5-4.6,3.2-6.2
	C43,86,45.6,88.8,45.6,90.6z"/>
<path id="rain2" style="fill:#00B5E1;" d="M65.2,83.9c0,1.8-1.5,3.2-3.2,3.2s-3.2-1.5-3.2-3.2s2.5-4.6,3.2-6.2
	C62.6,79.2,65.2,82.1,65.2,83.9z"/>
<path id="rain1" style="fill:#00B5E1;" d="M80.8,90.6c0,1.8-1.5,3.2-3.2,3.2s-3.2-1.5-3.2-3.2s2.5-4.6,3.2-6.2
	C78.1,86,80.8,88.8,80.8,90.6z"/>
<path id="cloud" style="fill:#E1EBEB;" d="M79.7,46.9c-2.5,0-4.8,0.9-6.6,2.4c-0.4-9.2-8-16.5-17.3-16.5c-1.7,0-3.4,0.3-5,0.7
	c0,0,0,0,0,0c-1.7,0.4-2.8,1-3.4,1.4c0,0,0,0,0,0c-3.3,1.8-6,4.7-7.5,8.2c-1.8-0.9-3.8-1.5-6-1.5c-1.8,0-3.6,0.4-5.2,1.1
	c0,0,0,0,0,0c-1.7,0.7-2.7,1.6-3.2,2c0,0,0,0,0,0c-2.8,2.4-4.6,5.9-4.6,9.9c0,7.2,5.8,12.9,12.9,12.9h45.8c5.7,0,10.4-4.6,10.4-10.4
	C90.1,51.5,85.5,46.9,79.7,46.9z"/>
</svg>
